G04 #@! TF.GenerationSoftware,KiCad,Pcbnew,(5.1.2)-1*
G04 #@! TF.CreationDate,2019-05-25T12:35:30-07:00*
G04 #@! TF.ProjectId,programmer,70726f67-7261-46d6-9d65-722e6b696361,rev?*
G04 #@! TF.SameCoordinates,Original*
G04 #@! TF.FileFunction,Legend,Top*
G04 #@! TF.FilePolarity,Positive*
%FSLAX46Y46*%
G04 Gerber Fmt 4.6, Leading zero omitted, Abs format (unit mm)*
G04 Created by KiCad (PCBNEW (5.1.2)-1) date 2019-05-25 12:35:30*
%MOMM*%
%LPD*%
G04 APERTURE LIST*
%ADD10C,0.152400*%
%ADD11C,0.203200*%
%ADD12C,0.158750*%
%ADD13C,0.120000*%
%ADD14C,0.150000*%
G04 APERTURE END LIST*
D10*
X29946600Y-64541400D02*
X30522333Y-64541400D01*
X30590066Y-64575266D01*
X30623933Y-64609133D01*
X30657800Y-64676866D01*
X30657800Y-64778466D01*
X30623933Y-64846200D01*
X30386866Y-64541400D02*
X30420733Y-64609133D01*
X30420733Y-64744600D01*
X30386866Y-64812333D01*
X30353000Y-64846200D01*
X30285266Y-64880066D01*
X30082066Y-64880066D01*
X30014333Y-64846200D01*
X29980466Y-64812333D01*
X29946600Y-64744600D01*
X29946600Y-64609133D01*
X29980466Y-64541400D01*
X30420733Y-64202733D02*
X29946600Y-64202733D01*
X29709533Y-64202733D02*
X29743400Y-64236600D01*
X29777266Y-64202733D01*
X29743400Y-64168866D01*
X29709533Y-64202733D01*
X29777266Y-64202733D01*
X29946600Y-63965666D02*
X29946600Y-63694733D01*
X29709533Y-63864066D02*
X30319133Y-63864066D01*
X30386866Y-63830200D01*
X30420733Y-63762466D01*
X30420733Y-63694733D01*
X30420733Y-63457666D02*
X29709533Y-63457666D01*
X30420733Y-63152866D02*
X30048200Y-63152866D01*
X29980466Y-63186733D01*
X29946600Y-63254466D01*
X29946600Y-63356066D01*
X29980466Y-63423800D01*
X30014333Y-63457666D01*
X29946600Y-62509400D02*
X30420733Y-62509400D01*
X29946600Y-62814200D02*
X30319133Y-62814200D01*
X30386866Y-62780333D01*
X30420733Y-62712600D01*
X30420733Y-62611000D01*
X30386866Y-62543266D01*
X30353000Y-62509400D01*
X30420733Y-62170733D02*
X29709533Y-62170733D01*
X29980466Y-62170733D02*
X29946600Y-62103000D01*
X29946600Y-61967533D01*
X29980466Y-61899800D01*
X30014333Y-61865933D01*
X30082066Y-61832066D01*
X30285266Y-61832066D01*
X30353000Y-61865933D01*
X30386866Y-61899800D01*
X30420733Y-61967533D01*
X30420733Y-62103000D01*
X30386866Y-62170733D01*
X30353000Y-61527266D02*
X30386866Y-61493400D01*
X30420733Y-61527266D01*
X30386866Y-61561133D01*
X30353000Y-61527266D01*
X30420733Y-61527266D01*
X30386866Y-60883800D02*
X30420733Y-60951533D01*
X30420733Y-61087000D01*
X30386866Y-61154733D01*
X30353000Y-61188600D01*
X30285266Y-61222466D01*
X30082066Y-61222466D01*
X30014333Y-61188600D01*
X29980466Y-61154733D01*
X29946600Y-61087000D01*
X29946600Y-60951533D01*
X29980466Y-60883800D01*
X30420733Y-60477400D02*
X30386866Y-60545133D01*
X30353000Y-60579000D01*
X30285266Y-60612866D01*
X30082066Y-60612866D01*
X30014333Y-60579000D01*
X29980466Y-60545133D01*
X29946600Y-60477400D01*
X29946600Y-60375800D01*
X29980466Y-60308066D01*
X30014333Y-60274200D01*
X30082066Y-60240333D01*
X30285266Y-60240333D01*
X30353000Y-60274200D01*
X30386866Y-60308066D01*
X30420733Y-60375800D01*
X30420733Y-60477400D01*
X30420733Y-59935533D02*
X29946600Y-59935533D01*
X30014333Y-59935533D02*
X29980466Y-59901666D01*
X29946600Y-59833933D01*
X29946600Y-59732333D01*
X29980466Y-59664600D01*
X30048200Y-59630733D01*
X30420733Y-59630733D01*
X30048200Y-59630733D02*
X29980466Y-59596866D01*
X29946600Y-59529133D01*
X29946600Y-59427533D01*
X29980466Y-59359800D01*
X30048200Y-59325933D01*
X30420733Y-59325933D01*
X29675666Y-58479266D02*
X30590066Y-59088866D01*
X30420733Y-58242200D02*
X29709533Y-58242200D01*
X30420733Y-57937400D02*
X30048200Y-57937400D01*
X29980466Y-57971266D01*
X29946600Y-58039000D01*
X29946600Y-58140600D01*
X29980466Y-58208333D01*
X30014333Y-58242200D01*
X30386866Y-57327800D02*
X30420733Y-57395533D01*
X30420733Y-57531000D01*
X30386866Y-57598733D01*
X30319133Y-57632600D01*
X30048200Y-57632600D01*
X29980466Y-57598733D01*
X29946600Y-57531000D01*
X29946600Y-57395533D01*
X29980466Y-57327800D01*
X30048200Y-57293933D01*
X30115933Y-57293933D01*
X30183666Y-57632600D01*
X29946600Y-57056866D02*
X30420733Y-56887533D01*
X29946600Y-56718200D02*
X30420733Y-56887533D01*
X30590066Y-56955266D01*
X30623933Y-56989133D01*
X30657800Y-57056866D01*
X30386866Y-56481133D02*
X30420733Y-56413400D01*
X30420733Y-56277933D01*
X30386866Y-56210200D01*
X30319133Y-56176333D01*
X30285266Y-56176333D01*
X30217533Y-56210200D01*
X30183666Y-56277933D01*
X30183666Y-56379533D01*
X30149800Y-56447266D01*
X30082066Y-56481133D01*
X30048200Y-56481133D01*
X29980466Y-56447266D01*
X29946600Y-56379533D01*
X29946600Y-56277933D01*
X29980466Y-56210200D01*
X29946600Y-55871533D02*
X30657800Y-55871533D01*
X29980466Y-55871533D02*
X29946600Y-55803800D01*
X29946600Y-55668333D01*
X29980466Y-55600600D01*
X30014333Y-55566733D01*
X30082066Y-55532866D01*
X30285266Y-55532866D01*
X30353000Y-55566733D01*
X30386866Y-55600600D01*
X30420733Y-55668333D01*
X30420733Y-55803800D01*
X30386866Y-55871533D01*
X30420733Y-54923266D02*
X30048200Y-54923266D01*
X29980466Y-54957133D01*
X29946600Y-55024866D01*
X29946600Y-55160333D01*
X29980466Y-55228066D01*
X30386866Y-54923266D02*
X30420733Y-54991000D01*
X30420733Y-55160333D01*
X30386866Y-55228066D01*
X30319133Y-55261933D01*
X30251400Y-55261933D01*
X30183666Y-55228066D01*
X30149800Y-55160333D01*
X30149800Y-54991000D01*
X30115933Y-54923266D01*
X30386866Y-54279800D02*
X30420733Y-54347533D01*
X30420733Y-54483000D01*
X30386866Y-54550733D01*
X30353000Y-54584600D01*
X30285266Y-54618466D01*
X30082066Y-54618466D01*
X30014333Y-54584600D01*
X29980466Y-54550733D01*
X29946600Y-54483000D01*
X29946600Y-54347533D01*
X29980466Y-54279800D01*
X30386866Y-53704066D02*
X30420733Y-53771800D01*
X30420733Y-53907266D01*
X30386866Y-53975000D01*
X30319133Y-54008866D01*
X30048200Y-54008866D01*
X29980466Y-53975000D01*
X29946600Y-53907266D01*
X29946600Y-53771800D01*
X29980466Y-53704066D01*
X30048200Y-53670200D01*
X30115933Y-53670200D01*
X30183666Y-54008866D01*
X30420733Y-53365400D02*
X29709533Y-53365400D01*
X29980466Y-53365400D02*
X29946600Y-53297666D01*
X29946600Y-53162200D01*
X29980466Y-53094466D01*
X30014333Y-53060600D01*
X30082066Y-53026733D01*
X30285266Y-53026733D01*
X30353000Y-53060600D01*
X30386866Y-53094466D01*
X30420733Y-53162200D01*
X30420733Y-53297666D01*
X30386866Y-53365400D01*
X29946600Y-52417133D02*
X30420733Y-52417133D01*
X29946600Y-52721933D02*
X30319133Y-52721933D01*
X30386866Y-52688066D01*
X30420733Y-52620333D01*
X30420733Y-52518733D01*
X30386866Y-52451000D01*
X30353000Y-52417133D01*
X30386866Y-51773666D02*
X30420733Y-51841400D01*
X30420733Y-51976866D01*
X30386866Y-52044600D01*
X30353000Y-52078466D01*
X30285266Y-52112333D01*
X30082066Y-52112333D01*
X30014333Y-52078466D01*
X29980466Y-52044600D01*
X29946600Y-51976866D01*
X29946600Y-51841400D01*
X29980466Y-51773666D01*
X30420733Y-51468866D02*
X29709533Y-51468866D01*
X30149800Y-51401133D02*
X30420733Y-51197933D01*
X29946600Y-51197933D02*
X30217533Y-51468866D01*
X29675666Y-50385133D02*
X30590066Y-50994733D01*
X30386866Y-50181933D02*
X30420733Y-50080333D01*
X30420733Y-49911000D01*
X30386866Y-49843266D01*
X30353000Y-49809400D01*
X30285266Y-49775533D01*
X30217533Y-49775533D01*
X30149800Y-49809400D01*
X30115933Y-49843266D01*
X30082066Y-49911000D01*
X30048200Y-50046466D01*
X30014333Y-50114200D01*
X29980466Y-50148066D01*
X29912733Y-50181933D01*
X29845000Y-50181933D01*
X29777266Y-50148066D01*
X29743400Y-50114200D01*
X29709533Y-50046466D01*
X29709533Y-49877133D01*
X29743400Y-49775533D01*
X30420733Y-49470733D02*
X29709533Y-49470733D01*
X30217533Y-49233666D01*
X29709533Y-48996600D01*
X30420733Y-48996600D01*
X29709533Y-48522466D02*
X29709533Y-48387000D01*
X29743400Y-48319266D01*
X29811133Y-48251533D01*
X29946600Y-48217666D01*
X30183666Y-48217666D01*
X30319133Y-48251533D01*
X30386866Y-48319266D01*
X30420733Y-48387000D01*
X30420733Y-48522466D01*
X30386866Y-48590200D01*
X30319133Y-48657933D01*
X30183666Y-48691800D01*
X29946600Y-48691800D01*
X29811133Y-48657933D01*
X29743400Y-48590200D01*
X29709533Y-48522466D01*
X30420733Y-47574200D02*
X30420733Y-47912866D01*
X29709533Y-47912866D01*
D11*
X26383947Y-65169142D02*
X26444423Y-64987714D01*
X26444423Y-64685333D01*
X26383947Y-64564380D01*
X26323471Y-64503904D01*
X26202519Y-64443428D01*
X26081566Y-64443428D01*
X25960614Y-64503904D01*
X25900138Y-64564380D01*
X25839661Y-64685333D01*
X25779185Y-64927238D01*
X25718709Y-65048190D01*
X25658233Y-65108666D01*
X25537280Y-65169142D01*
X25416328Y-65169142D01*
X25295376Y-65108666D01*
X25234900Y-65048190D01*
X25174423Y-64927238D01*
X25174423Y-64624857D01*
X25234900Y-64443428D01*
X26444423Y-63899142D02*
X25174423Y-63899142D01*
X26081566Y-63475809D01*
X25174423Y-63052476D01*
X26444423Y-63052476D01*
X25174423Y-62205809D02*
X25174423Y-61963904D01*
X25234900Y-61842952D01*
X25355852Y-61722000D01*
X25597757Y-61661523D01*
X26021090Y-61661523D01*
X26262995Y-61722000D01*
X26383947Y-61842952D01*
X26444423Y-61963904D01*
X26444423Y-62205809D01*
X26383947Y-62326761D01*
X26262995Y-62447714D01*
X26021090Y-62508190D01*
X25597757Y-62508190D01*
X25355852Y-62447714D01*
X25234900Y-62326761D01*
X25174423Y-62205809D01*
X26444423Y-60512476D02*
X26444423Y-61117238D01*
X25174423Y-61117238D01*
X26444423Y-59121523D02*
X25174423Y-59121523D01*
X25174423Y-58637714D01*
X25234900Y-58516761D01*
X25295376Y-58456285D01*
X25416328Y-58395809D01*
X25597757Y-58395809D01*
X25718709Y-58456285D01*
X25779185Y-58516761D01*
X25839661Y-58637714D01*
X25839661Y-59121523D01*
X26444423Y-57851523D02*
X25597757Y-57851523D01*
X25839661Y-57851523D02*
X25718709Y-57791047D01*
X25658233Y-57730571D01*
X25597757Y-57609619D01*
X25597757Y-57488666D01*
X26444423Y-56883904D02*
X26383947Y-57004857D01*
X26323471Y-57065333D01*
X26202519Y-57125809D01*
X25839661Y-57125809D01*
X25718709Y-57065333D01*
X25658233Y-57004857D01*
X25597757Y-56883904D01*
X25597757Y-56702476D01*
X25658233Y-56581523D01*
X25718709Y-56521047D01*
X25839661Y-56460571D01*
X26202519Y-56460571D01*
X26323471Y-56521047D01*
X26383947Y-56581523D01*
X26444423Y-56702476D01*
X26444423Y-56883904D01*
X25597757Y-55372000D02*
X26625852Y-55372000D01*
X26746804Y-55432476D01*
X26807280Y-55492952D01*
X26867757Y-55613904D01*
X26867757Y-55795333D01*
X26807280Y-55916285D01*
X26383947Y-55372000D02*
X26444423Y-55492952D01*
X26444423Y-55734857D01*
X26383947Y-55855809D01*
X26323471Y-55916285D01*
X26202519Y-55976761D01*
X25839661Y-55976761D01*
X25718709Y-55916285D01*
X25658233Y-55855809D01*
X25597757Y-55734857D01*
X25597757Y-55492952D01*
X25658233Y-55372000D01*
X26444423Y-54767238D02*
X25597757Y-54767238D01*
X25839661Y-54767238D02*
X25718709Y-54706761D01*
X25658233Y-54646285D01*
X25597757Y-54525333D01*
X25597757Y-54404380D01*
X26444423Y-53436761D02*
X25779185Y-53436761D01*
X25658233Y-53497238D01*
X25597757Y-53618190D01*
X25597757Y-53860095D01*
X25658233Y-53981047D01*
X26383947Y-53436761D02*
X26444423Y-53557714D01*
X26444423Y-53860095D01*
X26383947Y-53981047D01*
X26262995Y-54041523D01*
X26142042Y-54041523D01*
X26021090Y-53981047D01*
X25960614Y-53860095D01*
X25960614Y-53557714D01*
X25900138Y-53436761D01*
X26444423Y-52832000D02*
X25597757Y-52832000D01*
X25718709Y-52832000D02*
X25658233Y-52771523D01*
X25597757Y-52650571D01*
X25597757Y-52469142D01*
X25658233Y-52348190D01*
X25779185Y-52287714D01*
X26444423Y-52287714D01*
X25779185Y-52287714D02*
X25658233Y-52227238D01*
X25597757Y-52106285D01*
X25597757Y-51924857D01*
X25658233Y-51803904D01*
X25779185Y-51743428D01*
X26444423Y-51743428D01*
X26444423Y-51138666D02*
X25597757Y-51138666D01*
X25718709Y-51138666D02*
X25658233Y-51078190D01*
X25597757Y-50957238D01*
X25597757Y-50775809D01*
X25658233Y-50654857D01*
X25779185Y-50594380D01*
X26444423Y-50594380D01*
X25779185Y-50594380D02*
X25658233Y-50533904D01*
X25597757Y-50412952D01*
X25597757Y-50231523D01*
X25658233Y-50110571D01*
X25779185Y-50050095D01*
X26444423Y-50050095D01*
X26383947Y-48961523D02*
X26444423Y-49082476D01*
X26444423Y-49324380D01*
X26383947Y-49445333D01*
X26262995Y-49505809D01*
X25779185Y-49505809D01*
X25658233Y-49445333D01*
X25597757Y-49324380D01*
X25597757Y-49082476D01*
X25658233Y-48961523D01*
X25779185Y-48901047D01*
X25900138Y-48901047D01*
X26021090Y-49505809D01*
X26444423Y-48356761D02*
X25597757Y-48356761D01*
X25839661Y-48356761D02*
X25718709Y-48296285D01*
X25658233Y-48235809D01*
X25597757Y-48114857D01*
X25597757Y-47993904D01*
X27705957Y-64745809D02*
X27705957Y-64262000D01*
X28552623Y-64564380D02*
X27464052Y-64564380D01*
X27343100Y-64503904D01*
X27282623Y-64382952D01*
X27282623Y-64262000D01*
X28552623Y-63657238D02*
X28492147Y-63778190D01*
X28431671Y-63838666D01*
X28310719Y-63899142D01*
X27947861Y-63899142D01*
X27826909Y-63838666D01*
X27766433Y-63778190D01*
X27705957Y-63657238D01*
X27705957Y-63475809D01*
X27766433Y-63354857D01*
X27826909Y-63294380D01*
X27947861Y-63233904D01*
X28310719Y-63233904D01*
X28431671Y-63294380D01*
X28492147Y-63354857D01*
X28552623Y-63475809D01*
X28552623Y-63657238D01*
X28552623Y-62689619D02*
X27705957Y-62689619D01*
X27947861Y-62689619D02*
X27826909Y-62629142D01*
X27766433Y-62568666D01*
X27705957Y-62447714D01*
X27705957Y-62326761D01*
X28189766Y-60996285D02*
X28189766Y-60391523D01*
X28552623Y-61117238D02*
X27282623Y-60693904D01*
X28552623Y-60270571D01*
X28552623Y-59847238D02*
X27705957Y-59847238D01*
X27947861Y-59847238D02*
X27826909Y-59786761D01*
X27766433Y-59726285D01*
X27705957Y-59605333D01*
X27705957Y-59484380D01*
X28552623Y-58516761D02*
X27282623Y-58516761D01*
X28492147Y-58516761D02*
X28552623Y-58637714D01*
X28552623Y-58879619D01*
X28492147Y-59000571D01*
X28431671Y-59061047D01*
X28310719Y-59121523D01*
X27947861Y-59121523D01*
X27826909Y-59061047D01*
X27766433Y-59000571D01*
X27705957Y-58879619D01*
X27705957Y-58637714D01*
X27766433Y-58516761D01*
X27705957Y-57367714D02*
X28552623Y-57367714D01*
X27705957Y-57912000D02*
X28371195Y-57912000D01*
X28492147Y-57851523D01*
X28552623Y-57730571D01*
X28552623Y-57549142D01*
X28492147Y-57428190D01*
X28431671Y-57367714D01*
X28552623Y-56762952D02*
X27705957Y-56762952D01*
X27282623Y-56762952D02*
X27343100Y-56823428D01*
X27403576Y-56762952D01*
X27343100Y-56702476D01*
X27282623Y-56762952D01*
X27403576Y-56762952D01*
X27705957Y-56158190D02*
X28552623Y-56158190D01*
X27826909Y-56158190D02*
X27766433Y-56097714D01*
X27705957Y-55976761D01*
X27705957Y-55795333D01*
X27766433Y-55674380D01*
X27887385Y-55613904D01*
X28552623Y-55613904D01*
X28552623Y-54827714D02*
X28492147Y-54948666D01*
X28431671Y-55009142D01*
X28310719Y-55069619D01*
X27947861Y-55069619D01*
X27826909Y-55009142D01*
X27766433Y-54948666D01*
X27705957Y-54827714D01*
X27705957Y-54646285D01*
X27766433Y-54525333D01*
X27826909Y-54464857D01*
X27947861Y-54404380D01*
X28310719Y-54404380D01*
X28431671Y-54464857D01*
X28492147Y-54525333D01*
X28552623Y-54646285D01*
X28552623Y-54827714D01*
X28552623Y-52892476D02*
X27282623Y-52892476D01*
X28552623Y-52166761D01*
X27282623Y-52166761D01*
X28552623Y-51017714D02*
X27887385Y-51017714D01*
X27766433Y-51078190D01*
X27705957Y-51199142D01*
X27705957Y-51441047D01*
X27766433Y-51562000D01*
X28492147Y-51017714D02*
X28552623Y-51138666D01*
X28552623Y-51441047D01*
X28492147Y-51562000D01*
X28371195Y-51622476D01*
X28250242Y-51622476D01*
X28129290Y-51562000D01*
X28068814Y-51441047D01*
X28068814Y-51138666D01*
X28008338Y-51017714D01*
X27705957Y-50412952D02*
X28552623Y-50412952D01*
X27826909Y-50412952D02*
X27766433Y-50352476D01*
X27705957Y-50231523D01*
X27705957Y-50050095D01*
X27766433Y-49929142D01*
X27887385Y-49868666D01*
X28552623Y-49868666D01*
X28552623Y-49082476D02*
X28492147Y-49203428D01*
X28431671Y-49263904D01*
X28310719Y-49324380D01*
X27947861Y-49324380D01*
X27826909Y-49263904D01*
X27766433Y-49203428D01*
X27705957Y-49082476D01*
X27705957Y-48901047D01*
X27766433Y-48780095D01*
X27826909Y-48719619D01*
X27947861Y-48659142D01*
X28310719Y-48659142D01*
X28431671Y-48719619D01*
X28492147Y-48780095D01*
X28552623Y-48901047D01*
X28552623Y-49082476D01*
D12*
X32535812Y-59962142D02*
X32499526Y-59998428D01*
X32390669Y-60034714D01*
X32318098Y-60034714D01*
X32209241Y-59998428D01*
X32136669Y-59925857D01*
X32100383Y-59853285D01*
X32064098Y-59708142D01*
X32064098Y-59599285D01*
X32100383Y-59454142D01*
X32136669Y-59381571D01*
X32209241Y-59309000D01*
X32318098Y-59272714D01*
X32390669Y-59272714D01*
X32499526Y-59309000D01*
X32535812Y-59345285D01*
X33225241Y-60034714D02*
X32862383Y-60034714D01*
X32862383Y-59272714D01*
X33479241Y-60034714D02*
X33479241Y-59272714D01*
X33914669Y-60034714D02*
X33588098Y-59599285D01*
X33914669Y-59272714D02*
X33479241Y-59708142D01*
X21693187Y-53854985D02*
X22418901Y-53854985D01*
X21838330Y-54918428D02*
X21947187Y-54954714D01*
X22128616Y-54954714D01*
X22201187Y-54918428D01*
X22237473Y-54882142D01*
X22273758Y-54809571D01*
X22273758Y-54737000D01*
X22237473Y-54664428D01*
X22201187Y-54628142D01*
X22128616Y-54591857D01*
X21983473Y-54555571D01*
X21910901Y-54519285D01*
X21874616Y-54483000D01*
X21838330Y-54410428D01*
X21838330Y-54337857D01*
X21874616Y-54265285D01*
X21910901Y-54229000D01*
X21983473Y-54192714D01*
X22164901Y-54192714D01*
X22273758Y-54229000D01*
X22418901Y-53854985D02*
X23108330Y-53854985D01*
X22600330Y-54555571D02*
X22854330Y-54555571D01*
X22963187Y-54954714D02*
X22600330Y-54954714D01*
X22600330Y-54192714D01*
X22963187Y-54192714D01*
X21874616Y-59907714D02*
X21874616Y-59145714D01*
X22128616Y-59690000D01*
X22382616Y-59145714D01*
X22382616Y-59907714D01*
X22745473Y-59907714D02*
X22745473Y-59145714D01*
X23072044Y-59871428D02*
X23180901Y-59907714D01*
X23362330Y-59907714D01*
X23434901Y-59871428D01*
X23471187Y-59835142D01*
X23507473Y-59762571D01*
X23507473Y-59690000D01*
X23471187Y-59617428D01*
X23434901Y-59581142D01*
X23362330Y-59544857D01*
X23217187Y-59508571D01*
X23144616Y-59472285D01*
X23108330Y-59436000D01*
X23072044Y-59363428D01*
X23072044Y-59290857D01*
X23108330Y-59218285D01*
X23144616Y-59182000D01*
X23217187Y-59145714D01*
X23398616Y-59145714D01*
X23507473Y-59182000D01*
X23979187Y-59145714D02*
X24124330Y-59145714D01*
X24196901Y-59182000D01*
X24269473Y-59254571D01*
X24305758Y-59399714D01*
X24305758Y-59653714D01*
X24269473Y-59798857D01*
X24196901Y-59871428D01*
X24124330Y-59907714D01*
X23979187Y-59907714D01*
X23906616Y-59871428D01*
X23834044Y-59798857D01*
X23797758Y-59653714D01*
X23797758Y-59399714D01*
X23834044Y-59254571D01*
X23906616Y-59182000D01*
X23979187Y-59145714D01*
X21874616Y-57621714D02*
X21874616Y-56859714D01*
X22128616Y-57404000D01*
X22382616Y-56859714D01*
X22382616Y-57621714D01*
X22890616Y-56859714D02*
X23035758Y-56859714D01*
X23108330Y-56896000D01*
X23180901Y-56968571D01*
X23217187Y-57113714D01*
X23217187Y-57367714D01*
X23180901Y-57512857D01*
X23108330Y-57585428D01*
X23035758Y-57621714D01*
X22890616Y-57621714D01*
X22818044Y-57585428D01*
X22745473Y-57512857D01*
X22709187Y-57367714D01*
X22709187Y-57113714D01*
X22745473Y-56968571D01*
X22818044Y-56896000D01*
X22890616Y-56859714D01*
X23507473Y-57585428D02*
X23616330Y-57621714D01*
X23797758Y-57621714D01*
X23870330Y-57585428D01*
X23906616Y-57549142D01*
X23942901Y-57476571D01*
X23942901Y-57404000D01*
X23906616Y-57331428D01*
X23870330Y-57295142D01*
X23797758Y-57258857D01*
X23652616Y-57222571D01*
X23580044Y-57186285D01*
X23543758Y-57150000D01*
X23507473Y-57077428D01*
X23507473Y-57004857D01*
X23543758Y-56932285D01*
X23580044Y-56896000D01*
X23652616Y-56859714D01*
X23834044Y-56859714D01*
X23942901Y-56896000D01*
X24269473Y-57621714D02*
X24269473Y-56859714D01*
X31918955Y-31804428D02*
X32499526Y-31804428D01*
X32209241Y-32094714D02*
X32209241Y-31514142D01*
X33225241Y-31332714D02*
X32862383Y-31332714D01*
X32826098Y-31695571D01*
X32862383Y-31659285D01*
X32934955Y-31623000D01*
X33116383Y-31623000D01*
X33188955Y-31659285D01*
X33225241Y-31695571D01*
X33261526Y-31768142D01*
X33261526Y-31949571D01*
X33225241Y-32022142D01*
X33188955Y-32058428D01*
X33116383Y-32094714D01*
X32934955Y-32094714D01*
X32862383Y-32058428D01*
X32826098Y-32022142D01*
X33479241Y-31332714D02*
X33733241Y-32094714D01*
X33987241Y-31332714D01*
X32318098Y-26289000D02*
X32245526Y-26252714D01*
X32136669Y-26252714D01*
X32027812Y-26289000D01*
X31955241Y-26361571D01*
X31918955Y-26434142D01*
X31882669Y-26579285D01*
X31882669Y-26688142D01*
X31918955Y-26833285D01*
X31955241Y-26905857D01*
X32027812Y-26978428D01*
X32136669Y-27014714D01*
X32209241Y-27014714D01*
X32318098Y-26978428D01*
X32354383Y-26942142D01*
X32354383Y-26688142D01*
X32209241Y-26688142D01*
X32680955Y-27014714D02*
X32680955Y-26252714D01*
X33116383Y-27014714D01*
X33116383Y-26252714D01*
X33479241Y-27014714D02*
X33479241Y-26252714D01*
X33660669Y-26252714D01*
X33769526Y-26289000D01*
X33842098Y-26361571D01*
X33878383Y-26434142D01*
X33914669Y-26579285D01*
X33914669Y-26688142D01*
X33878383Y-26833285D01*
X33842098Y-26905857D01*
X33769526Y-26978428D01*
X33660669Y-27014714D01*
X33479241Y-27014714D01*
X25681214Y-18699616D02*
X25318357Y-18953616D01*
X25681214Y-19135044D02*
X24919214Y-19135044D01*
X24919214Y-18844758D01*
X24955500Y-18772187D01*
X24991785Y-18735901D01*
X25064357Y-18699616D01*
X25173214Y-18699616D01*
X25245785Y-18735901D01*
X25282071Y-18772187D01*
X25318357Y-18844758D01*
X25318357Y-19135044D01*
X25644928Y-18409330D02*
X25681214Y-18300473D01*
X25681214Y-18119044D01*
X25644928Y-18046473D01*
X25608642Y-18010187D01*
X25536071Y-17973901D01*
X25463500Y-17973901D01*
X25390928Y-18010187D01*
X25354642Y-18046473D01*
X25318357Y-18119044D01*
X25282071Y-18264187D01*
X25245785Y-18336758D01*
X25209500Y-18373044D01*
X25136928Y-18409330D01*
X25064357Y-18409330D01*
X24991785Y-18373044D01*
X24955500Y-18336758D01*
X24919214Y-18264187D01*
X24919214Y-18082758D01*
X24955500Y-17973901D01*
X24919214Y-17756187D02*
X24919214Y-17320758D01*
X25681214Y-17538473D02*
X24919214Y-17538473D01*
X26982964Y-19461616D02*
X26220964Y-19461616D01*
X26220964Y-19171330D01*
X26257250Y-19098758D01*
X26293535Y-19062473D01*
X26366107Y-19026187D01*
X26474964Y-19026187D01*
X26547535Y-19062473D01*
X26583821Y-19098758D01*
X26620107Y-19171330D01*
X26620107Y-19461616D01*
X26220964Y-18772187D02*
X26982964Y-18590758D01*
X26438678Y-18445616D01*
X26982964Y-18300473D01*
X26220964Y-18119044D01*
X26982964Y-17393330D02*
X26620107Y-17647330D01*
X26982964Y-17828758D02*
X26220964Y-17828758D01*
X26220964Y-17538473D01*
X26257250Y-17465901D01*
X26293535Y-17429616D01*
X26366107Y-17393330D01*
X26474964Y-17393330D01*
X26547535Y-17429616D01*
X26583821Y-17465901D01*
X26620107Y-17538473D01*
X26620107Y-17828758D01*
X28284714Y-19062473D02*
X27522714Y-19062473D01*
X27522714Y-18881044D01*
X27559000Y-18772187D01*
X27631571Y-18699616D01*
X27704142Y-18663330D01*
X27849285Y-18627044D01*
X27958142Y-18627044D01*
X28103285Y-18663330D01*
X28175857Y-18699616D01*
X28248428Y-18772187D01*
X28284714Y-18881044D01*
X28284714Y-19062473D01*
X28067000Y-18336758D02*
X28067000Y-17973901D01*
X28284714Y-18409330D02*
X27522714Y-18155330D01*
X28284714Y-17901330D01*
X27522714Y-17756187D02*
X27522714Y-17320758D01*
X28284714Y-17538473D02*
X27522714Y-17538473D01*
X28860750Y-18989901D02*
X28824464Y-19062473D01*
X28824464Y-19171330D01*
X28860750Y-19280187D01*
X28933321Y-19352758D01*
X29005892Y-19389044D01*
X29151035Y-19425330D01*
X29259892Y-19425330D01*
X29405035Y-19389044D01*
X29477607Y-19352758D01*
X29550178Y-19280187D01*
X29586464Y-19171330D01*
X29586464Y-19098758D01*
X29550178Y-18989901D01*
X29513892Y-18953616D01*
X29259892Y-18953616D01*
X29259892Y-19098758D01*
X29586464Y-18627044D02*
X28824464Y-18627044D01*
X29586464Y-18191616D01*
X28824464Y-18191616D01*
X29586464Y-17828758D02*
X28824464Y-17828758D01*
X28824464Y-17647330D01*
X28860750Y-17538473D01*
X28933321Y-17465901D01*
X29005892Y-17429616D01*
X29151035Y-17393330D01*
X29259892Y-17393330D01*
X29405035Y-17429616D01*
X29477607Y-17465901D01*
X29550178Y-17538473D01*
X29586464Y-17647330D01*
X29586464Y-17828758D01*
X30815642Y-18772187D02*
X30851928Y-18808473D01*
X30888214Y-18917330D01*
X30888214Y-18989901D01*
X30851928Y-19098758D01*
X30779357Y-19171330D01*
X30706785Y-19207616D01*
X30561642Y-19243901D01*
X30452785Y-19243901D01*
X30307642Y-19207616D01*
X30235071Y-19171330D01*
X30162500Y-19098758D01*
X30126214Y-18989901D01*
X30126214Y-18917330D01*
X30162500Y-18808473D01*
X30198785Y-18772187D01*
X30888214Y-18082758D02*
X30888214Y-18445616D01*
X30126214Y-18445616D01*
X30888214Y-17828758D02*
X30126214Y-17828758D01*
X30888214Y-17393330D02*
X30452785Y-17719901D01*
X30126214Y-17393330D02*
X30561642Y-17828758D01*
D13*
X36960000Y-20190000D02*
X18920000Y-20190000D01*
X36960000Y-60960000D02*
X36960000Y-20190000D01*
X21590000Y-60960000D02*
X18920000Y-60960000D01*
X21590000Y-25400000D02*
X21590000Y-60960000D01*
X21590000Y-25400000D02*
X18920000Y-25400000D01*
X34290000Y-60960000D02*
X36960000Y-60960000D01*
X34290000Y-22860000D02*
X34290000Y-60960000D01*
X34290000Y-22860000D02*
X36960000Y-22860000D01*
X18920000Y-20190000D02*
X18920000Y-22860000D01*
X18920000Y-25400000D02*
X18920000Y-60960000D01*
X21590000Y-22860000D02*
X18920000Y-22860000D01*
X21590000Y-25400000D02*
X21590000Y-22860000D01*
X29800000Y-29620000D02*
X26080000Y-29620000D01*
X29800000Y-31340000D02*
X26080000Y-31340000D01*
X26080000Y-34700000D02*
X29800000Y-34700000D01*
X26080000Y-36420000D02*
X29800000Y-36420000D01*
X26080000Y-41500000D02*
X29800000Y-41500000D01*
X26080000Y-39780000D02*
X29800000Y-39780000D01*
X26080000Y-44860000D02*
X29800000Y-44860000D01*
X26080000Y-46580000D02*
X29800000Y-46580000D01*
D14*
X26678095Y-30027619D02*
X26725714Y-29980000D01*
X26820952Y-29932380D01*
X27059047Y-29932380D01*
X27154285Y-29980000D01*
X27201904Y-30027619D01*
X27249523Y-30122857D01*
X27249523Y-30218095D01*
X27201904Y-30360952D01*
X26630476Y-30932380D01*
X27249523Y-30932380D01*
X27678095Y-30932380D02*
X27678095Y-29932380D01*
X27773333Y-30551428D02*
X28059047Y-30932380D01*
X28059047Y-30265714D02*
X27678095Y-30646666D01*
X28440000Y-30932380D02*
X28678095Y-30932380D01*
X28678095Y-30741904D01*
X28582857Y-30694285D01*
X28487619Y-30599047D01*
X28440000Y-30456190D01*
X28440000Y-30218095D01*
X28487619Y-30075238D01*
X28582857Y-29980000D01*
X28725714Y-29932380D01*
X28916190Y-29932380D01*
X29059047Y-29980000D01*
X29154285Y-30075238D01*
X29201904Y-30218095D01*
X29201904Y-30456190D01*
X29154285Y-30599047D01*
X29059047Y-30694285D01*
X28963809Y-30741904D01*
X28963809Y-30932380D01*
X29201904Y-30932380D01*
X26678095Y-35107619D02*
X26725714Y-35060000D01*
X26820952Y-35012380D01*
X27059047Y-35012380D01*
X27154285Y-35060000D01*
X27201904Y-35107619D01*
X27249523Y-35202857D01*
X27249523Y-35298095D01*
X27201904Y-35440952D01*
X26630476Y-36012380D01*
X27249523Y-36012380D01*
X27678095Y-36012380D02*
X27678095Y-35012380D01*
X27773333Y-35631428D02*
X28059047Y-36012380D01*
X28059047Y-35345714D02*
X27678095Y-35726666D01*
X28440000Y-36012380D02*
X28678095Y-36012380D01*
X28678095Y-35821904D01*
X28582857Y-35774285D01*
X28487619Y-35679047D01*
X28440000Y-35536190D01*
X28440000Y-35298095D01*
X28487619Y-35155238D01*
X28582857Y-35060000D01*
X28725714Y-35012380D01*
X28916190Y-35012380D01*
X29059047Y-35060000D01*
X29154285Y-35155238D01*
X29201904Y-35298095D01*
X29201904Y-35536190D01*
X29154285Y-35679047D01*
X29059047Y-35774285D01*
X28963809Y-35821904D01*
X28963809Y-36012380D01*
X29201904Y-36012380D01*
X26678095Y-40187619D02*
X26725714Y-40140000D01*
X26820952Y-40092380D01*
X27059047Y-40092380D01*
X27154285Y-40140000D01*
X27201904Y-40187619D01*
X27249523Y-40282857D01*
X27249523Y-40378095D01*
X27201904Y-40520952D01*
X26630476Y-41092380D01*
X27249523Y-41092380D01*
X27678095Y-41092380D02*
X27678095Y-40092380D01*
X27773333Y-40711428D02*
X28059047Y-41092380D01*
X28059047Y-40425714D02*
X27678095Y-40806666D01*
X28440000Y-41092380D02*
X28678095Y-41092380D01*
X28678095Y-40901904D01*
X28582857Y-40854285D01*
X28487619Y-40759047D01*
X28440000Y-40616190D01*
X28440000Y-40378095D01*
X28487619Y-40235238D01*
X28582857Y-40140000D01*
X28725714Y-40092380D01*
X28916190Y-40092380D01*
X29059047Y-40140000D01*
X29154285Y-40235238D01*
X29201904Y-40378095D01*
X29201904Y-40616190D01*
X29154285Y-40759047D01*
X29059047Y-40854285D01*
X28963809Y-40901904D01*
X28963809Y-41092380D01*
X29201904Y-41092380D01*
X26678095Y-45267619D02*
X26725714Y-45220000D01*
X26820952Y-45172380D01*
X27059047Y-45172380D01*
X27154285Y-45220000D01*
X27201904Y-45267619D01*
X27249523Y-45362857D01*
X27249523Y-45458095D01*
X27201904Y-45600952D01*
X26630476Y-46172380D01*
X27249523Y-46172380D01*
X27678095Y-46172380D02*
X27678095Y-45172380D01*
X27773333Y-45791428D02*
X28059047Y-46172380D01*
X28059047Y-45505714D02*
X27678095Y-45886666D01*
X28440000Y-46172380D02*
X28678095Y-46172380D01*
X28678095Y-45981904D01*
X28582857Y-45934285D01*
X28487619Y-45839047D01*
X28440000Y-45696190D01*
X28440000Y-45458095D01*
X28487619Y-45315238D01*
X28582857Y-45220000D01*
X28725714Y-45172380D01*
X28916190Y-45172380D01*
X29059047Y-45220000D01*
X29154285Y-45315238D01*
X29201904Y-45458095D01*
X29201904Y-45696190D01*
X29154285Y-45839047D01*
X29059047Y-45934285D01*
X28963809Y-45981904D01*
X28963809Y-46172380D01*
X29201904Y-46172380D01*
M02*
