G04 #@! TF.GenerationSoftware,KiCad,Pcbnew,(5.1.2)-1*
G04 #@! TF.CreationDate,2019-05-24T18:19:58-07:00*
G04 #@! TF.ProjectId,programmer,70726f67-7261-46d6-9d65-722e6b696361,rev?*
G04 #@! TF.SameCoordinates,Original*
G04 #@! TF.FileFunction,Soldermask,Bot*
G04 #@! TF.FilePolarity,Negative*
%FSLAX46Y46*%
G04 Gerber Fmt 4.6, Leading zero omitted, Abs format (unit mm)*
G04 Created by KiCad (PCBNEW (5.1.2)-1) date 2019-05-24 18:19:58*
%MOMM*%
%LPD*%
G04 APERTURE LIST*
%ADD10C,0.304800*%
G04 APERTURE END LIST*
D10*
G36*
X34796611Y-61969065D02*
G01*
X34996352Y-62008796D01*
X35278579Y-62125699D01*
X35532578Y-62295415D01*
X35748585Y-62511422D01*
X35918301Y-62765421D01*
X36035204Y-63047648D01*
X36094800Y-63347259D01*
X36094800Y-63652741D01*
X36035204Y-63952352D01*
X35918301Y-64234579D01*
X35748585Y-64488578D01*
X35532578Y-64704585D01*
X35278579Y-64874301D01*
X34996352Y-64991204D01*
X34796611Y-65030935D01*
X34696742Y-65050800D01*
X34391258Y-65050800D01*
X34291389Y-65030935D01*
X34091648Y-64991204D01*
X33809421Y-64874301D01*
X33555422Y-64704585D01*
X33339415Y-64488578D01*
X33169699Y-64234579D01*
X33052796Y-63952352D01*
X32993200Y-63652741D01*
X32993200Y-63347259D01*
X33052796Y-63047648D01*
X33169699Y-62765421D01*
X33339415Y-62511422D01*
X33555422Y-62295415D01*
X33809421Y-62125699D01*
X34091648Y-62008796D01*
X34291389Y-61969065D01*
X34391258Y-61949200D01*
X34696742Y-61949200D01*
X34796611Y-61969065D01*
X34796611Y-61969065D01*
G37*
G36*
X21588611Y-61969065D02*
G01*
X21788352Y-62008796D01*
X22070579Y-62125699D01*
X22324578Y-62295415D01*
X22540585Y-62511422D01*
X22710301Y-62765421D01*
X22827204Y-63047648D01*
X22886800Y-63347259D01*
X22886800Y-63652741D01*
X22827204Y-63952352D01*
X22710301Y-64234579D01*
X22540585Y-64488578D01*
X22324578Y-64704585D01*
X22070579Y-64874301D01*
X21788352Y-64991204D01*
X21588611Y-65030935D01*
X21488742Y-65050800D01*
X21183258Y-65050800D01*
X21083389Y-65030935D01*
X20883648Y-64991204D01*
X20601421Y-64874301D01*
X20347422Y-64704585D01*
X20131415Y-64488578D01*
X19961699Y-64234579D01*
X19844796Y-63952352D01*
X19785200Y-63652741D01*
X19785200Y-63347259D01*
X19844796Y-63047648D01*
X19961699Y-62765421D01*
X20131415Y-62511422D01*
X20347422Y-62295415D01*
X20601421Y-62125699D01*
X20883648Y-62008796D01*
X21083389Y-61969065D01*
X21183258Y-61949200D01*
X21488742Y-61949200D01*
X21588611Y-61969065D01*
X21588611Y-61969065D01*
G37*
G36*
X35726787Y-58851510D02*
G01*
X35887162Y-58900160D01*
X36034965Y-58979162D01*
X36164517Y-59085483D01*
X36270838Y-59215035D01*
X36349840Y-59362838D01*
X36398490Y-59523213D01*
X36414916Y-59690000D01*
X36398490Y-59856787D01*
X36349840Y-60017162D01*
X36270838Y-60164965D01*
X36164517Y-60294517D01*
X36034965Y-60400838D01*
X35887162Y-60479840D01*
X35726787Y-60528490D01*
X35601794Y-60540800D01*
X35518206Y-60540800D01*
X35393213Y-60528490D01*
X35232838Y-60479840D01*
X35085035Y-60400838D01*
X34955483Y-60294517D01*
X34849162Y-60164965D01*
X34770160Y-60017162D01*
X34721510Y-59856787D01*
X34705084Y-59690000D01*
X34721510Y-59523213D01*
X34770160Y-59362838D01*
X34849162Y-59215035D01*
X34955483Y-59085483D01*
X35085035Y-58979162D01*
X35232838Y-58900160D01*
X35393213Y-58851510D01*
X35518206Y-58839200D01*
X35601794Y-58839200D01*
X35726787Y-58851510D01*
X35726787Y-58851510D01*
G37*
G36*
X20486787Y-58851510D02*
G01*
X20647162Y-58900160D01*
X20794965Y-58979162D01*
X20924517Y-59085483D01*
X21030838Y-59215035D01*
X21109840Y-59362838D01*
X21158490Y-59523213D01*
X21174916Y-59690000D01*
X21158490Y-59856787D01*
X21109840Y-60017162D01*
X21030838Y-60164965D01*
X20924517Y-60294517D01*
X20794965Y-60400838D01*
X20647162Y-60479840D01*
X20486787Y-60528490D01*
X20361794Y-60540800D01*
X20278206Y-60540800D01*
X20153213Y-60528490D01*
X19992838Y-60479840D01*
X19845035Y-60400838D01*
X19715483Y-60294517D01*
X19609162Y-60164965D01*
X19530160Y-60017162D01*
X19481510Y-59856787D01*
X19465084Y-59690000D01*
X19481510Y-59523213D01*
X19530160Y-59362838D01*
X19609162Y-59215035D01*
X19715483Y-59085483D01*
X19845035Y-58979162D01*
X19992838Y-58900160D01*
X20153213Y-58851510D01*
X20278206Y-58839200D01*
X20361794Y-58839200D01*
X20486787Y-58851510D01*
X20486787Y-58851510D01*
G37*
G36*
X20486787Y-56311510D02*
G01*
X20647162Y-56360160D01*
X20794965Y-56439162D01*
X20924517Y-56545483D01*
X21030838Y-56675035D01*
X21109840Y-56822838D01*
X21158490Y-56983213D01*
X21174916Y-57150000D01*
X21158490Y-57316787D01*
X21109840Y-57477162D01*
X21030838Y-57624965D01*
X20924517Y-57754517D01*
X20794965Y-57860838D01*
X20647162Y-57939840D01*
X20486787Y-57988490D01*
X20361794Y-58000800D01*
X20278206Y-58000800D01*
X20153213Y-57988490D01*
X19992838Y-57939840D01*
X19845035Y-57860838D01*
X19715483Y-57754517D01*
X19609162Y-57624965D01*
X19530160Y-57477162D01*
X19481510Y-57316787D01*
X19465084Y-57150000D01*
X19481510Y-56983213D01*
X19530160Y-56822838D01*
X19609162Y-56675035D01*
X19715483Y-56545483D01*
X19845035Y-56439162D01*
X19992838Y-56360160D01*
X20153213Y-56311510D01*
X20278206Y-56299200D01*
X20361794Y-56299200D01*
X20486787Y-56311510D01*
X20486787Y-56311510D01*
G37*
G36*
X35726787Y-56311510D02*
G01*
X35887162Y-56360160D01*
X36034965Y-56439162D01*
X36164517Y-56545483D01*
X36270838Y-56675035D01*
X36349840Y-56822838D01*
X36398490Y-56983213D01*
X36414916Y-57150000D01*
X36398490Y-57316787D01*
X36349840Y-57477162D01*
X36270838Y-57624965D01*
X36164517Y-57754517D01*
X36034965Y-57860838D01*
X35887162Y-57939840D01*
X35726787Y-57988490D01*
X35601794Y-58000800D01*
X35518206Y-58000800D01*
X35393213Y-57988490D01*
X35232838Y-57939840D01*
X35085035Y-57860838D01*
X34955483Y-57754517D01*
X34849162Y-57624965D01*
X34770160Y-57477162D01*
X34721510Y-57316787D01*
X34705084Y-57150000D01*
X34721510Y-56983213D01*
X34770160Y-56822838D01*
X34849162Y-56675035D01*
X34955483Y-56545483D01*
X35085035Y-56439162D01*
X35232838Y-56360160D01*
X35393213Y-56311510D01*
X35518206Y-56299200D01*
X35601794Y-56299200D01*
X35726787Y-56311510D01*
X35726787Y-56311510D01*
G37*
G36*
X35726787Y-53771510D02*
G01*
X35887162Y-53820160D01*
X36034965Y-53899162D01*
X36164517Y-54005483D01*
X36270838Y-54135035D01*
X36349840Y-54282838D01*
X36398490Y-54443213D01*
X36414916Y-54610000D01*
X36398490Y-54776787D01*
X36349840Y-54937162D01*
X36270838Y-55084965D01*
X36164517Y-55214517D01*
X36034965Y-55320838D01*
X35887162Y-55399840D01*
X35726787Y-55448490D01*
X35601794Y-55460800D01*
X35518206Y-55460800D01*
X35393213Y-55448490D01*
X35232838Y-55399840D01*
X35085035Y-55320838D01*
X34955483Y-55214517D01*
X34849162Y-55084965D01*
X34770160Y-54937162D01*
X34721510Y-54776787D01*
X34705084Y-54610000D01*
X34721510Y-54443213D01*
X34770160Y-54282838D01*
X34849162Y-54135035D01*
X34955483Y-54005483D01*
X35085035Y-53899162D01*
X35232838Y-53820160D01*
X35393213Y-53771510D01*
X35518206Y-53759200D01*
X35601794Y-53759200D01*
X35726787Y-53771510D01*
X35726787Y-53771510D01*
G37*
G36*
X20486787Y-53771510D02*
G01*
X20647162Y-53820160D01*
X20794965Y-53899162D01*
X20924517Y-54005483D01*
X21030838Y-54135035D01*
X21109840Y-54282838D01*
X21158490Y-54443213D01*
X21174916Y-54610000D01*
X21158490Y-54776787D01*
X21109840Y-54937162D01*
X21030838Y-55084965D01*
X20924517Y-55214517D01*
X20794965Y-55320838D01*
X20647162Y-55399840D01*
X20486787Y-55448490D01*
X20361794Y-55460800D01*
X20278206Y-55460800D01*
X20153213Y-55448490D01*
X19992838Y-55399840D01*
X19845035Y-55320838D01*
X19715483Y-55214517D01*
X19609162Y-55084965D01*
X19530160Y-54937162D01*
X19481510Y-54776787D01*
X19465084Y-54610000D01*
X19481510Y-54443213D01*
X19530160Y-54282838D01*
X19609162Y-54135035D01*
X19715483Y-54005483D01*
X19845035Y-53899162D01*
X19992838Y-53820160D01*
X20153213Y-53771510D01*
X20278206Y-53759200D01*
X20361794Y-53759200D01*
X20486787Y-53771510D01*
X20486787Y-53771510D01*
G37*
G36*
X35726787Y-51231510D02*
G01*
X35887162Y-51280160D01*
X36034965Y-51359162D01*
X36164517Y-51465483D01*
X36270838Y-51595035D01*
X36349840Y-51742838D01*
X36398490Y-51903213D01*
X36414916Y-52070000D01*
X36398490Y-52236787D01*
X36349840Y-52397162D01*
X36270838Y-52544965D01*
X36164517Y-52674517D01*
X36034965Y-52780838D01*
X35887162Y-52859840D01*
X35726787Y-52908490D01*
X35601794Y-52920800D01*
X35518206Y-52920800D01*
X35393213Y-52908490D01*
X35232838Y-52859840D01*
X35085035Y-52780838D01*
X34955483Y-52674517D01*
X34849162Y-52544965D01*
X34770160Y-52397162D01*
X34721510Y-52236787D01*
X34705084Y-52070000D01*
X34721510Y-51903213D01*
X34770160Y-51742838D01*
X34849162Y-51595035D01*
X34955483Y-51465483D01*
X35085035Y-51359162D01*
X35232838Y-51280160D01*
X35393213Y-51231510D01*
X35518206Y-51219200D01*
X35601794Y-51219200D01*
X35726787Y-51231510D01*
X35726787Y-51231510D01*
G37*
G36*
X20486787Y-51231510D02*
G01*
X20647162Y-51280160D01*
X20794965Y-51359162D01*
X20924517Y-51465483D01*
X21030838Y-51595035D01*
X21109840Y-51742838D01*
X21158490Y-51903213D01*
X21174916Y-52070000D01*
X21158490Y-52236787D01*
X21109840Y-52397162D01*
X21030838Y-52544965D01*
X20924517Y-52674517D01*
X20794965Y-52780838D01*
X20647162Y-52859840D01*
X20486787Y-52908490D01*
X20361794Y-52920800D01*
X20278206Y-52920800D01*
X20153213Y-52908490D01*
X19992838Y-52859840D01*
X19845035Y-52780838D01*
X19715483Y-52674517D01*
X19609162Y-52544965D01*
X19530160Y-52397162D01*
X19481510Y-52236787D01*
X19465084Y-52070000D01*
X19481510Y-51903213D01*
X19530160Y-51742838D01*
X19609162Y-51595035D01*
X19715483Y-51465483D01*
X19845035Y-51359162D01*
X19992838Y-51280160D01*
X20153213Y-51231510D01*
X20278206Y-51219200D01*
X20361794Y-51219200D01*
X20486787Y-51231510D01*
X20486787Y-51231510D01*
G37*
G36*
X20486787Y-48691510D02*
G01*
X20647162Y-48740160D01*
X20794965Y-48819162D01*
X20924517Y-48925483D01*
X21030838Y-49055035D01*
X21109840Y-49202838D01*
X21158490Y-49363213D01*
X21174916Y-49530000D01*
X21158490Y-49696787D01*
X21109840Y-49857162D01*
X21030838Y-50004965D01*
X20924517Y-50134517D01*
X20794965Y-50240838D01*
X20647162Y-50319840D01*
X20486787Y-50368490D01*
X20361794Y-50380800D01*
X20278206Y-50380800D01*
X20153213Y-50368490D01*
X19992838Y-50319840D01*
X19845035Y-50240838D01*
X19715483Y-50134517D01*
X19609162Y-50004965D01*
X19530160Y-49857162D01*
X19481510Y-49696787D01*
X19465084Y-49530000D01*
X19481510Y-49363213D01*
X19530160Y-49202838D01*
X19609162Y-49055035D01*
X19715483Y-48925483D01*
X19845035Y-48819162D01*
X19992838Y-48740160D01*
X20153213Y-48691510D01*
X20278206Y-48679200D01*
X20361794Y-48679200D01*
X20486787Y-48691510D01*
X20486787Y-48691510D01*
G37*
G36*
X35726787Y-48691510D02*
G01*
X35887162Y-48740160D01*
X36034965Y-48819162D01*
X36164517Y-48925483D01*
X36270838Y-49055035D01*
X36349840Y-49202838D01*
X36398490Y-49363213D01*
X36414916Y-49530000D01*
X36398490Y-49696787D01*
X36349840Y-49857162D01*
X36270838Y-50004965D01*
X36164517Y-50134517D01*
X36034965Y-50240838D01*
X35887162Y-50319840D01*
X35726787Y-50368490D01*
X35601794Y-50380800D01*
X35518206Y-50380800D01*
X35393213Y-50368490D01*
X35232838Y-50319840D01*
X35085035Y-50240838D01*
X34955483Y-50134517D01*
X34849162Y-50004965D01*
X34770160Y-49857162D01*
X34721510Y-49696787D01*
X34705084Y-49530000D01*
X34721510Y-49363213D01*
X34770160Y-49202838D01*
X34849162Y-49055035D01*
X34955483Y-48925483D01*
X35085035Y-48819162D01*
X35232838Y-48740160D01*
X35393213Y-48691510D01*
X35518206Y-48679200D01*
X35601794Y-48679200D01*
X35726787Y-48691510D01*
X35726787Y-48691510D01*
G37*
G36*
X35726787Y-46151510D02*
G01*
X35887162Y-46200160D01*
X36034965Y-46279162D01*
X36164517Y-46385483D01*
X36270838Y-46515035D01*
X36349840Y-46662838D01*
X36398490Y-46823213D01*
X36414916Y-46990000D01*
X36398490Y-47156787D01*
X36349840Y-47317162D01*
X36270838Y-47464965D01*
X36164517Y-47594517D01*
X36034965Y-47700838D01*
X35887162Y-47779840D01*
X35726787Y-47828490D01*
X35601794Y-47840800D01*
X35518206Y-47840800D01*
X35393213Y-47828490D01*
X35232838Y-47779840D01*
X35085035Y-47700838D01*
X34955483Y-47594517D01*
X34849162Y-47464965D01*
X34770160Y-47317162D01*
X34721510Y-47156787D01*
X34705084Y-46990000D01*
X34721510Y-46823213D01*
X34770160Y-46662838D01*
X34849162Y-46515035D01*
X34955483Y-46385483D01*
X35085035Y-46279162D01*
X35232838Y-46200160D01*
X35393213Y-46151510D01*
X35518206Y-46139200D01*
X35601794Y-46139200D01*
X35726787Y-46151510D01*
X35726787Y-46151510D01*
G37*
G36*
X20486787Y-46151510D02*
G01*
X20647162Y-46200160D01*
X20794965Y-46279162D01*
X20924517Y-46385483D01*
X21030838Y-46515035D01*
X21109840Y-46662838D01*
X21158490Y-46823213D01*
X21174916Y-46990000D01*
X21158490Y-47156787D01*
X21109840Y-47317162D01*
X21030838Y-47464965D01*
X20924517Y-47594517D01*
X20794965Y-47700838D01*
X20647162Y-47779840D01*
X20486787Y-47828490D01*
X20361794Y-47840800D01*
X20278206Y-47840800D01*
X20153213Y-47828490D01*
X19992838Y-47779840D01*
X19845035Y-47700838D01*
X19715483Y-47594517D01*
X19609162Y-47464965D01*
X19530160Y-47317162D01*
X19481510Y-47156787D01*
X19465084Y-46990000D01*
X19481510Y-46823213D01*
X19530160Y-46662838D01*
X19609162Y-46515035D01*
X19715483Y-46385483D01*
X19845035Y-46279162D01*
X19992838Y-46200160D01*
X20153213Y-46151510D01*
X20278206Y-46139200D01*
X20361794Y-46139200D01*
X20486787Y-46151510D01*
X20486787Y-46151510D01*
G37*
G36*
X30572029Y-44974632D02*
G01*
X30627182Y-44980064D01*
X30768709Y-45022996D01*
X30768711Y-45022997D01*
X30899139Y-45092712D01*
X31013464Y-45186536D01*
X31107288Y-45300861D01*
X31177003Y-45431289D01*
X31219936Y-45572819D01*
X31234432Y-45720000D01*
X31219936Y-45867181D01*
X31177003Y-46008711D01*
X31107288Y-46139139D01*
X31013464Y-46253464D01*
X30899139Y-46347288D01*
X30768711Y-46417003D01*
X30768709Y-46417004D01*
X30627182Y-46459936D01*
X30516878Y-46470800D01*
X30443122Y-46470800D01*
X30332818Y-46459936D01*
X30191291Y-46417004D01*
X30191289Y-46417003D01*
X30060861Y-46347288D01*
X29946536Y-46253464D01*
X29852712Y-46139139D01*
X29782997Y-46008711D01*
X29740064Y-45867181D01*
X29725568Y-45720000D01*
X29740064Y-45572819D01*
X29782997Y-45431289D01*
X29852712Y-45300861D01*
X29946536Y-45186536D01*
X30060861Y-45092712D01*
X30191289Y-45022997D01*
X30191291Y-45022996D01*
X30332818Y-44980064D01*
X30387971Y-44974632D01*
X30443122Y-44969200D01*
X30516878Y-44969200D01*
X30572029Y-44974632D01*
X30572029Y-44974632D01*
G37*
G36*
X25618999Y-44998052D02*
G01*
X25755639Y-45054650D01*
X25878605Y-45136813D01*
X25983187Y-45241395D01*
X26065350Y-45364361D01*
X26121948Y-45501001D01*
X26150800Y-45646051D01*
X26150800Y-45793949D01*
X26121948Y-45938999D01*
X26065350Y-46075639D01*
X25983187Y-46198605D01*
X25878605Y-46303187D01*
X25755639Y-46385350D01*
X25618999Y-46441948D01*
X25473949Y-46470800D01*
X25326051Y-46470800D01*
X25181001Y-46441948D01*
X25044361Y-46385350D01*
X24921395Y-46303187D01*
X24816813Y-46198605D01*
X24734650Y-46075639D01*
X24678052Y-45938999D01*
X24649200Y-45793949D01*
X24649200Y-45646051D01*
X24678052Y-45501001D01*
X24734650Y-45364361D01*
X24816813Y-45241395D01*
X24921395Y-45136813D01*
X25044361Y-45054650D01*
X25181001Y-44998052D01*
X25326051Y-44969200D01*
X25473949Y-44969200D01*
X25618999Y-44998052D01*
X25618999Y-44998052D01*
G37*
G36*
X35726787Y-43611510D02*
G01*
X35887162Y-43660160D01*
X36034965Y-43739162D01*
X36164517Y-43845483D01*
X36270838Y-43975035D01*
X36349840Y-44122838D01*
X36398490Y-44283213D01*
X36414916Y-44450000D01*
X36398490Y-44616787D01*
X36349840Y-44777162D01*
X36270838Y-44924965D01*
X36164517Y-45054517D01*
X36034965Y-45160838D01*
X35887162Y-45239840D01*
X35726787Y-45288490D01*
X35601794Y-45300800D01*
X35518206Y-45300800D01*
X35393213Y-45288490D01*
X35232838Y-45239840D01*
X35085035Y-45160838D01*
X34955483Y-45054517D01*
X34849162Y-44924965D01*
X34770160Y-44777162D01*
X34721510Y-44616787D01*
X34705084Y-44450000D01*
X34721510Y-44283213D01*
X34770160Y-44122838D01*
X34849162Y-43975035D01*
X34955483Y-43845483D01*
X35085035Y-43739162D01*
X35232838Y-43660160D01*
X35393213Y-43611510D01*
X35518206Y-43599200D01*
X35601794Y-43599200D01*
X35726787Y-43611510D01*
X35726787Y-43611510D01*
G37*
G36*
X20486787Y-43611510D02*
G01*
X20647162Y-43660160D01*
X20794965Y-43739162D01*
X20924517Y-43845483D01*
X21030838Y-43975035D01*
X21109840Y-44122838D01*
X21158490Y-44283213D01*
X21174916Y-44450000D01*
X21158490Y-44616787D01*
X21109840Y-44777162D01*
X21030838Y-44924965D01*
X20924517Y-45054517D01*
X20794965Y-45160838D01*
X20647162Y-45239840D01*
X20486787Y-45288490D01*
X20361794Y-45300800D01*
X20278206Y-45300800D01*
X20153213Y-45288490D01*
X19992838Y-45239840D01*
X19845035Y-45160838D01*
X19715483Y-45054517D01*
X19609162Y-44924965D01*
X19530160Y-44777162D01*
X19481510Y-44616787D01*
X19465084Y-44450000D01*
X19481510Y-44283213D01*
X19530160Y-44122838D01*
X19609162Y-43975035D01*
X19715483Y-43845483D01*
X19845035Y-43739162D01*
X19992838Y-43660160D01*
X20153213Y-43611510D01*
X20278206Y-43599200D01*
X20361794Y-43599200D01*
X20486787Y-43611510D01*
X20486787Y-43611510D01*
G37*
G36*
X35726787Y-41071510D02*
G01*
X35887162Y-41120160D01*
X36034965Y-41199162D01*
X36164517Y-41305483D01*
X36270838Y-41435035D01*
X36349840Y-41582838D01*
X36398490Y-41743213D01*
X36414916Y-41910000D01*
X36398490Y-42076787D01*
X36349840Y-42237162D01*
X36270838Y-42384965D01*
X36164517Y-42514517D01*
X36034965Y-42620838D01*
X35887162Y-42699840D01*
X35726787Y-42748490D01*
X35601794Y-42760800D01*
X35518206Y-42760800D01*
X35393213Y-42748490D01*
X35232838Y-42699840D01*
X35085035Y-42620838D01*
X34955483Y-42514517D01*
X34849162Y-42384965D01*
X34770160Y-42237162D01*
X34721510Y-42076787D01*
X34705084Y-41910000D01*
X34721510Y-41743213D01*
X34770160Y-41582838D01*
X34849162Y-41435035D01*
X34955483Y-41305483D01*
X35085035Y-41199162D01*
X35232838Y-41120160D01*
X35393213Y-41071510D01*
X35518206Y-41059200D01*
X35601794Y-41059200D01*
X35726787Y-41071510D01*
X35726787Y-41071510D01*
G37*
G36*
X20486787Y-41071510D02*
G01*
X20647162Y-41120160D01*
X20794965Y-41199162D01*
X20924517Y-41305483D01*
X21030838Y-41435035D01*
X21109840Y-41582838D01*
X21158490Y-41743213D01*
X21174916Y-41910000D01*
X21158490Y-42076787D01*
X21109840Y-42237162D01*
X21030838Y-42384965D01*
X20924517Y-42514517D01*
X20794965Y-42620838D01*
X20647162Y-42699840D01*
X20486787Y-42748490D01*
X20361794Y-42760800D01*
X20278206Y-42760800D01*
X20153213Y-42748490D01*
X19992838Y-42699840D01*
X19845035Y-42620838D01*
X19715483Y-42514517D01*
X19609162Y-42384965D01*
X19530160Y-42237162D01*
X19481510Y-42076787D01*
X19465084Y-41910000D01*
X19481510Y-41743213D01*
X19530160Y-41582838D01*
X19609162Y-41435035D01*
X19715483Y-41305483D01*
X19845035Y-41199162D01*
X19992838Y-41120160D01*
X20153213Y-41071510D01*
X20278206Y-41059200D01*
X20361794Y-41059200D01*
X20486787Y-41071510D01*
X20486787Y-41071510D01*
G37*
G36*
X25618999Y-39918052D02*
G01*
X25755639Y-39974650D01*
X25878605Y-40056813D01*
X25983187Y-40161395D01*
X26065350Y-40284361D01*
X26121948Y-40421001D01*
X26150800Y-40566051D01*
X26150800Y-40713949D01*
X26121948Y-40858999D01*
X26065350Y-40995639D01*
X25983187Y-41118605D01*
X25878605Y-41223187D01*
X25755639Y-41305350D01*
X25618999Y-41361948D01*
X25473949Y-41390800D01*
X25326051Y-41390800D01*
X25181001Y-41361948D01*
X25044361Y-41305350D01*
X24921395Y-41223187D01*
X24816813Y-41118605D01*
X24734650Y-40995639D01*
X24678052Y-40858999D01*
X24649200Y-40713949D01*
X24649200Y-40566051D01*
X24678052Y-40421001D01*
X24734650Y-40284361D01*
X24816813Y-40161395D01*
X24921395Y-40056813D01*
X25044361Y-39974650D01*
X25181001Y-39918052D01*
X25326051Y-39889200D01*
X25473949Y-39889200D01*
X25618999Y-39918052D01*
X25618999Y-39918052D01*
G37*
G36*
X30572029Y-39894632D02*
G01*
X30627182Y-39900064D01*
X30768709Y-39942996D01*
X30768711Y-39942997D01*
X30899139Y-40012712D01*
X31013464Y-40106536D01*
X31107288Y-40220861D01*
X31177003Y-40351289D01*
X31219936Y-40492819D01*
X31234432Y-40640000D01*
X31219936Y-40787181D01*
X31177003Y-40928711D01*
X31107288Y-41059139D01*
X31013464Y-41173464D01*
X30899139Y-41267288D01*
X30768711Y-41337003D01*
X30768709Y-41337004D01*
X30627182Y-41379936D01*
X30516878Y-41390800D01*
X30443122Y-41390800D01*
X30332818Y-41379936D01*
X30191291Y-41337004D01*
X30191289Y-41337003D01*
X30060861Y-41267288D01*
X29946536Y-41173464D01*
X29852712Y-41059139D01*
X29782997Y-40928711D01*
X29740064Y-40787181D01*
X29725568Y-40640000D01*
X29740064Y-40492819D01*
X29782997Y-40351289D01*
X29852712Y-40220861D01*
X29946536Y-40106536D01*
X30060861Y-40012712D01*
X30191289Y-39942997D01*
X30191291Y-39942996D01*
X30332818Y-39900064D01*
X30387971Y-39894632D01*
X30443122Y-39889200D01*
X30516878Y-39889200D01*
X30572029Y-39894632D01*
X30572029Y-39894632D01*
G37*
G36*
X20486787Y-38531510D02*
G01*
X20647162Y-38580160D01*
X20794965Y-38659162D01*
X20924517Y-38765483D01*
X21030838Y-38895035D01*
X21109840Y-39042838D01*
X21158490Y-39203213D01*
X21174916Y-39370000D01*
X21158490Y-39536787D01*
X21109840Y-39697162D01*
X21030838Y-39844965D01*
X20924517Y-39974517D01*
X20794965Y-40080838D01*
X20647162Y-40159840D01*
X20486787Y-40208490D01*
X20361794Y-40220800D01*
X20278206Y-40220800D01*
X20153213Y-40208490D01*
X19992838Y-40159840D01*
X19845035Y-40080838D01*
X19715483Y-39974517D01*
X19609162Y-39844965D01*
X19530160Y-39697162D01*
X19481510Y-39536787D01*
X19465084Y-39370000D01*
X19481510Y-39203213D01*
X19530160Y-39042838D01*
X19609162Y-38895035D01*
X19715483Y-38765483D01*
X19845035Y-38659162D01*
X19992838Y-38580160D01*
X20153213Y-38531510D01*
X20278206Y-38519200D01*
X20361794Y-38519200D01*
X20486787Y-38531510D01*
X20486787Y-38531510D01*
G37*
G36*
X35726787Y-38531510D02*
G01*
X35887162Y-38580160D01*
X36034965Y-38659162D01*
X36164517Y-38765483D01*
X36270838Y-38895035D01*
X36349840Y-39042838D01*
X36398490Y-39203213D01*
X36414916Y-39370000D01*
X36398490Y-39536787D01*
X36349840Y-39697162D01*
X36270838Y-39844965D01*
X36164517Y-39974517D01*
X36034965Y-40080838D01*
X35887162Y-40159840D01*
X35726787Y-40208490D01*
X35601794Y-40220800D01*
X35518206Y-40220800D01*
X35393213Y-40208490D01*
X35232838Y-40159840D01*
X35085035Y-40080838D01*
X34955483Y-39974517D01*
X34849162Y-39844965D01*
X34770160Y-39697162D01*
X34721510Y-39536787D01*
X34705084Y-39370000D01*
X34721510Y-39203213D01*
X34770160Y-39042838D01*
X34849162Y-38895035D01*
X34955483Y-38765483D01*
X35085035Y-38659162D01*
X35232838Y-38580160D01*
X35393213Y-38531510D01*
X35518206Y-38519200D01*
X35601794Y-38519200D01*
X35726787Y-38531510D01*
X35726787Y-38531510D01*
G37*
G36*
X35726787Y-35991510D02*
G01*
X35887162Y-36040160D01*
X36034965Y-36119162D01*
X36164517Y-36225483D01*
X36270838Y-36355035D01*
X36349840Y-36502838D01*
X36398490Y-36663213D01*
X36414916Y-36830000D01*
X36398490Y-36996787D01*
X36349840Y-37157162D01*
X36270838Y-37304965D01*
X36164517Y-37434517D01*
X36034965Y-37540838D01*
X35887162Y-37619840D01*
X35726787Y-37668490D01*
X35601794Y-37680800D01*
X35518206Y-37680800D01*
X35393213Y-37668490D01*
X35232838Y-37619840D01*
X35085035Y-37540838D01*
X34955483Y-37434517D01*
X34849162Y-37304965D01*
X34770160Y-37157162D01*
X34721510Y-36996787D01*
X34705084Y-36830000D01*
X34721510Y-36663213D01*
X34770160Y-36502838D01*
X34849162Y-36355035D01*
X34955483Y-36225483D01*
X35085035Y-36119162D01*
X35232838Y-36040160D01*
X35393213Y-35991510D01*
X35518206Y-35979200D01*
X35601794Y-35979200D01*
X35726787Y-35991510D01*
X35726787Y-35991510D01*
G37*
G36*
X20486787Y-35991510D02*
G01*
X20647162Y-36040160D01*
X20794965Y-36119162D01*
X20924517Y-36225483D01*
X21030838Y-36355035D01*
X21109840Y-36502838D01*
X21158490Y-36663213D01*
X21174916Y-36830000D01*
X21158490Y-36996787D01*
X21109840Y-37157162D01*
X21030838Y-37304965D01*
X20924517Y-37434517D01*
X20794965Y-37540838D01*
X20647162Y-37619840D01*
X20486787Y-37668490D01*
X20361794Y-37680800D01*
X20278206Y-37680800D01*
X20153213Y-37668490D01*
X19992838Y-37619840D01*
X19845035Y-37540838D01*
X19715483Y-37434517D01*
X19609162Y-37304965D01*
X19530160Y-37157162D01*
X19481510Y-36996787D01*
X19465084Y-36830000D01*
X19481510Y-36663213D01*
X19530160Y-36502838D01*
X19609162Y-36355035D01*
X19715483Y-36225483D01*
X19845035Y-36119162D01*
X19992838Y-36040160D01*
X20153213Y-35991510D01*
X20278206Y-35979200D01*
X20361794Y-35979200D01*
X20486787Y-35991510D01*
X20486787Y-35991510D01*
G37*
G36*
X25618999Y-34838052D02*
G01*
X25755639Y-34894650D01*
X25878605Y-34976813D01*
X25983187Y-35081395D01*
X26065350Y-35204361D01*
X26121948Y-35341001D01*
X26150800Y-35486051D01*
X26150800Y-35633949D01*
X26121948Y-35778999D01*
X26065350Y-35915639D01*
X25983187Y-36038605D01*
X25878605Y-36143187D01*
X25755639Y-36225350D01*
X25618999Y-36281948D01*
X25473949Y-36310800D01*
X25326051Y-36310800D01*
X25181001Y-36281948D01*
X25044361Y-36225350D01*
X24921395Y-36143187D01*
X24816813Y-36038605D01*
X24734650Y-35915639D01*
X24678052Y-35778999D01*
X24649200Y-35633949D01*
X24649200Y-35486051D01*
X24678052Y-35341001D01*
X24734650Y-35204361D01*
X24816813Y-35081395D01*
X24921395Y-34976813D01*
X25044361Y-34894650D01*
X25181001Y-34838052D01*
X25326051Y-34809200D01*
X25473949Y-34809200D01*
X25618999Y-34838052D01*
X25618999Y-34838052D01*
G37*
G36*
X30627182Y-34820064D02*
G01*
X30768709Y-34862996D01*
X30768711Y-34862997D01*
X30899139Y-34932712D01*
X31013464Y-35026536D01*
X31107288Y-35140861D01*
X31177003Y-35271289D01*
X31219936Y-35412819D01*
X31234432Y-35560000D01*
X31219936Y-35707181D01*
X31177003Y-35848711D01*
X31107288Y-35979139D01*
X31013464Y-36093464D01*
X30899139Y-36187288D01*
X30768711Y-36257003D01*
X30768709Y-36257004D01*
X30627182Y-36299936D01*
X30572029Y-36305368D01*
X30516878Y-36310800D01*
X30443122Y-36310800D01*
X30387971Y-36305368D01*
X30332818Y-36299936D01*
X30191291Y-36257004D01*
X30191289Y-36257003D01*
X30060861Y-36187288D01*
X29946536Y-36093464D01*
X29852712Y-35979139D01*
X29782997Y-35848711D01*
X29740064Y-35707181D01*
X29725568Y-35560000D01*
X29740064Y-35412819D01*
X29782997Y-35271289D01*
X29852712Y-35140861D01*
X29946536Y-35026536D01*
X30060861Y-34932712D01*
X30191289Y-34862997D01*
X30191291Y-34862996D01*
X30332818Y-34820064D01*
X30443122Y-34809200D01*
X30516878Y-34809200D01*
X30627182Y-34820064D01*
X30627182Y-34820064D01*
G37*
G36*
X35726787Y-33451510D02*
G01*
X35887162Y-33500160D01*
X36034965Y-33579162D01*
X36164517Y-33685483D01*
X36270838Y-33815035D01*
X36349840Y-33962838D01*
X36398490Y-34123213D01*
X36414916Y-34290000D01*
X36398490Y-34456787D01*
X36349840Y-34617162D01*
X36270838Y-34764965D01*
X36164517Y-34894517D01*
X36034965Y-35000838D01*
X35887162Y-35079840D01*
X35726787Y-35128490D01*
X35601794Y-35140800D01*
X35518206Y-35140800D01*
X35393213Y-35128490D01*
X35232838Y-35079840D01*
X35085035Y-35000838D01*
X34955483Y-34894517D01*
X34849162Y-34764965D01*
X34770160Y-34617162D01*
X34721510Y-34456787D01*
X34705084Y-34290000D01*
X34721510Y-34123213D01*
X34770160Y-33962838D01*
X34849162Y-33815035D01*
X34955483Y-33685483D01*
X35085035Y-33579162D01*
X35232838Y-33500160D01*
X35393213Y-33451510D01*
X35518206Y-33439200D01*
X35601794Y-33439200D01*
X35726787Y-33451510D01*
X35726787Y-33451510D01*
G37*
G36*
X20486787Y-33451510D02*
G01*
X20647162Y-33500160D01*
X20794965Y-33579162D01*
X20924517Y-33685483D01*
X21030838Y-33815035D01*
X21109840Y-33962838D01*
X21158490Y-34123213D01*
X21174916Y-34290000D01*
X21158490Y-34456787D01*
X21109840Y-34617162D01*
X21030838Y-34764965D01*
X20924517Y-34894517D01*
X20794965Y-35000838D01*
X20647162Y-35079840D01*
X20486787Y-35128490D01*
X20361794Y-35140800D01*
X20278206Y-35140800D01*
X20153213Y-35128490D01*
X19992838Y-35079840D01*
X19845035Y-35000838D01*
X19715483Y-34894517D01*
X19609162Y-34764965D01*
X19530160Y-34617162D01*
X19481510Y-34456787D01*
X19465084Y-34290000D01*
X19481510Y-34123213D01*
X19530160Y-33962838D01*
X19609162Y-33815035D01*
X19715483Y-33685483D01*
X19845035Y-33579162D01*
X19992838Y-33500160D01*
X20153213Y-33451510D01*
X20278206Y-33439200D01*
X20361794Y-33439200D01*
X20486787Y-33451510D01*
X20486787Y-33451510D01*
G37*
G36*
X35726787Y-30911510D02*
G01*
X35887162Y-30960160D01*
X36034965Y-31039162D01*
X36164517Y-31145483D01*
X36270838Y-31275035D01*
X36349840Y-31422838D01*
X36398490Y-31583213D01*
X36414916Y-31750000D01*
X36398490Y-31916787D01*
X36349840Y-32077162D01*
X36270838Y-32224965D01*
X36164517Y-32354517D01*
X36034965Y-32460838D01*
X35887162Y-32539840D01*
X35726787Y-32588490D01*
X35601794Y-32600800D01*
X35518206Y-32600800D01*
X35393213Y-32588490D01*
X35232838Y-32539840D01*
X35085035Y-32460838D01*
X34955483Y-32354517D01*
X34849162Y-32224965D01*
X34770160Y-32077162D01*
X34721510Y-31916787D01*
X34705084Y-31750000D01*
X34721510Y-31583213D01*
X34770160Y-31422838D01*
X34849162Y-31275035D01*
X34955483Y-31145483D01*
X35085035Y-31039162D01*
X35232838Y-30960160D01*
X35393213Y-30911510D01*
X35518206Y-30899200D01*
X35601794Y-30899200D01*
X35726787Y-30911510D01*
X35726787Y-30911510D01*
G37*
G36*
X20486787Y-30911510D02*
G01*
X20647162Y-30960160D01*
X20794965Y-31039162D01*
X20924517Y-31145483D01*
X21030838Y-31275035D01*
X21109840Y-31422838D01*
X21158490Y-31583213D01*
X21174916Y-31750000D01*
X21158490Y-31916787D01*
X21109840Y-32077162D01*
X21030838Y-32224965D01*
X20924517Y-32354517D01*
X20794965Y-32460838D01*
X20647162Y-32539840D01*
X20486787Y-32588490D01*
X20361794Y-32600800D01*
X20278206Y-32600800D01*
X20153213Y-32588490D01*
X19992838Y-32539840D01*
X19845035Y-32460838D01*
X19715483Y-32354517D01*
X19609162Y-32224965D01*
X19530160Y-32077162D01*
X19481510Y-31916787D01*
X19465084Y-31750000D01*
X19481510Y-31583213D01*
X19530160Y-31422838D01*
X19609162Y-31275035D01*
X19715483Y-31145483D01*
X19845035Y-31039162D01*
X19992838Y-30960160D01*
X20153213Y-30911510D01*
X20278206Y-30899200D01*
X20361794Y-30899200D01*
X20486787Y-30911510D01*
X20486787Y-30911510D01*
G37*
G36*
X30698999Y-29758052D02*
G01*
X30835639Y-29814650D01*
X30958605Y-29896813D01*
X31063187Y-30001395D01*
X31145350Y-30124361D01*
X31201948Y-30261001D01*
X31230800Y-30406051D01*
X31230800Y-30553949D01*
X31201948Y-30698999D01*
X31145350Y-30835639D01*
X31063187Y-30958605D01*
X30958605Y-31063187D01*
X30835639Y-31145350D01*
X30698999Y-31201948D01*
X30553949Y-31230800D01*
X30406051Y-31230800D01*
X30261001Y-31201948D01*
X30124361Y-31145350D01*
X30001395Y-31063187D01*
X29896813Y-30958605D01*
X29814650Y-30835639D01*
X29758052Y-30698999D01*
X29729200Y-30553949D01*
X29729200Y-30406051D01*
X29758052Y-30261001D01*
X29814650Y-30124361D01*
X29896813Y-30001395D01*
X30001395Y-29896813D01*
X30124361Y-29814650D01*
X30261001Y-29758052D01*
X30406051Y-29729200D01*
X30553949Y-29729200D01*
X30698999Y-29758052D01*
X30698999Y-29758052D01*
G37*
G36*
X25547182Y-29740064D02*
G01*
X25688709Y-29782996D01*
X25688711Y-29782997D01*
X25819139Y-29852712D01*
X25933464Y-29946536D01*
X26027288Y-30060861D01*
X26097003Y-30191289D01*
X26139936Y-30332819D01*
X26154432Y-30480000D01*
X26139936Y-30627181D01*
X26097003Y-30768711D01*
X26027288Y-30899139D01*
X25933464Y-31013464D01*
X25819139Y-31107288D01*
X25688711Y-31177003D01*
X25688709Y-31177004D01*
X25547182Y-31219936D01*
X25492029Y-31225368D01*
X25436878Y-31230800D01*
X25363122Y-31230800D01*
X25307971Y-31225368D01*
X25252818Y-31219936D01*
X25111291Y-31177004D01*
X25111289Y-31177003D01*
X24980861Y-31107288D01*
X24866536Y-31013464D01*
X24772712Y-30899139D01*
X24702997Y-30768711D01*
X24660064Y-30627181D01*
X24645568Y-30480000D01*
X24660064Y-30332819D01*
X24702997Y-30191289D01*
X24772712Y-30060861D01*
X24866536Y-29946536D01*
X24980861Y-29852712D01*
X25111289Y-29782997D01*
X25111291Y-29782996D01*
X25252818Y-29740064D01*
X25363122Y-29729200D01*
X25436878Y-29729200D01*
X25547182Y-29740064D01*
X25547182Y-29740064D01*
G37*
G36*
X35726787Y-28371510D02*
G01*
X35887162Y-28420160D01*
X36034965Y-28499162D01*
X36164517Y-28605483D01*
X36270838Y-28735035D01*
X36349840Y-28882838D01*
X36398490Y-29043213D01*
X36414916Y-29210000D01*
X36398490Y-29376787D01*
X36349840Y-29537162D01*
X36270838Y-29684965D01*
X36164517Y-29814517D01*
X36034965Y-29920838D01*
X35887162Y-29999840D01*
X35726787Y-30048490D01*
X35601794Y-30060800D01*
X35518206Y-30060800D01*
X35393213Y-30048490D01*
X35232838Y-29999840D01*
X35085035Y-29920838D01*
X34955483Y-29814517D01*
X34849162Y-29684965D01*
X34770160Y-29537162D01*
X34721510Y-29376787D01*
X34705084Y-29210000D01*
X34721510Y-29043213D01*
X34770160Y-28882838D01*
X34849162Y-28735035D01*
X34955483Y-28605483D01*
X35085035Y-28499162D01*
X35232838Y-28420160D01*
X35393213Y-28371510D01*
X35518206Y-28359200D01*
X35601794Y-28359200D01*
X35726787Y-28371510D01*
X35726787Y-28371510D01*
G37*
G36*
X20486787Y-28371510D02*
G01*
X20647162Y-28420160D01*
X20794965Y-28499162D01*
X20924517Y-28605483D01*
X21030838Y-28735035D01*
X21109840Y-28882838D01*
X21158490Y-29043213D01*
X21174916Y-29210000D01*
X21158490Y-29376787D01*
X21109840Y-29537162D01*
X21030838Y-29684965D01*
X20924517Y-29814517D01*
X20794965Y-29920838D01*
X20647162Y-29999840D01*
X20486787Y-30048490D01*
X20361794Y-30060800D01*
X20278206Y-30060800D01*
X20153213Y-30048490D01*
X19992838Y-29999840D01*
X19845035Y-29920838D01*
X19715483Y-29814517D01*
X19609162Y-29684965D01*
X19530160Y-29537162D01*
X19481510Y-29376787D01*
X19465084Y-29210000D01*
X19481510Y-29043213D01*
X19530160Y-28882838D01*
X19609162Y-28735035D01*
X19715483Y-28605483D01*
X19845035Y-28499162D01*
X19992838Y-28420160D01*
X20153213Y-28371510D01*
X20278206Y-28359200D01*
X20361794Y-28359200D01*
X20486787Y-28371510D01*
X20486787Y-28371510D01*
G37*
G36*
X35726787Y-25831510D02*
G01*
X35887162Y-25880160D01*
X36034965Y-25959162D01*
X36164517Y-26065483D01*
X36270838Y-26195035D01*
X36349840Y-26342838D01*
X36398490Y-26503213D01*
X36414916Y-26670000D01*
X36398490Y-26836787D01*
X36349840Y-26997162D01*
X36270838Y-27144965D01*
X36164517Y-27274517D01*
X36034965Y-27380838D01*
X35887162Y-27459840D01*
X35726787Y-27508490D01*
X35601794Y-27520800D01*
X35518206Y-27520800D01*
X35393213Y-27508490D01*
X35232838Y-27459840D01*
X35085035Y-27380838D01*
X34955483Y-27274517D01*
X34849162Y-27144965D01*
X34770160Y-26997162D01*
X34721510Y-26836787D01*
X34705084Y-26670000D01*
X34721510Y-26503213D01*
X34770160Y-26342838D01*
X34849162Y-26195035D01*
X34955483Y-26065483D01*
X35085035Y-25959162D01*
X35232838Y-25880160D01*
X35393213Y-25831510D01*
X35518206Y-25819200D01*
X35601794Y-25819200D01*
X35726787Y-25831510D01*
X35726787Y-25831510D01*
G37*
G36*
X20486787Y-25831510D02*
G01*
X20647162Y-25880160D01*
X20794965Y-25959162D01*
X20924517Y-26065483D01*
X21030838Y-26195035D01*
X21109840Y-26342838D01*
X21158490Y-26503213D01*
X21174916Y-26670000D01*
X21158490Y-26836787D01*
X21109840Y-26997162D01*
X21030838Y-27144965D01*
X20924517Y-27274517D01*
X20794965Y-27380838D01*
X20647162Y-27459840D01*
X20486787Y-27508490D01*
X20361794Y-27520800D01*
X20278206Y-27520800D01*
X20153213Y-27508490D01*
X19992838Y-27459840D01*
X19845035Y-27380838D01*
X19715483Y-27274517D01*
X19609162Y-27144965D01*
X19530160Y-26997162D01*
X19481510Y-26836787D01*
X19465084Y-26670000D01*
X19481510Y-26503213D01*
X19530160Y-26342838D01*
X19609162Y-26195035D01*
X19715483Y-26065483D01*
X19845035Y-25959162D01*
X19992838Y-25880160D01*
X20153213Y-25831510D01*
X20278206Y-25819200D01*
X20361794Y-25819200D01*
X20486787Y-25831510D01*
X20486787Y-25831510D01*
G37*
G36*
X21170800Y-24980800D02*
G01*
X19469200Y-24980800D01*
X19469200Y-23279200D01*
X21170800Y-23279200D01*
X21170800Y-24980800D01*
X21170800Y-24980800D01*
G37*
G36*
X35726787Y-23291510D02*
G01*
X35887162Y-23340160D01*
X36034965Y-23419162D01*
X36164517Y-23525483D01*
X36270838Y-23655035D01*
X36349840Y-23802838D01*
X36398490Y-23963213D01*
X36414916Y-24130000D01*
X36398490Y-24296787D01*
X36349840Y-24457162D01*
X36270838Y-24604965D01*
X36164517Y-24734517D01*
X36034965Y-24840838D01*
X35887162Y-24919840D01*
X35726787Y-24968490D01*
X35601794Y-24980800D01*
X35518206Y-24980800D01*
X35393213Y-24968490D01*
X35232838Y-24919840D01*
X35085035Y-24840838D01*
X34955483Y-24734517D01*
X34849162Y-24604965D01*
X34770160Y-24457162D01*
X34721510Y-24296787D01*
X34705084Y-24130000D01*
X34721510Y-23963213D01*
X34770160Y-23802838D01*
X34849162Y-23655035D01*
X34955483Y-23525483D01*
X35085035Y-23419162D01*
X35232838Y-23340160D01*
X35393213Y-23291510D01*
X35518206Y-23279200D01*
X35601794Y-23279200D01*
X35726787Y-23291510D01*
X35726787Y-23291510D01*
G37*
G36*
X33907611Y-16884065D02*
G01*
X34107352Y-16923796D01*
X34389579Y-17040699D01*
X34643578Y-17210415D01*
X34859585Y-17426422D01*
X35029301Y-17680421D01*
X35146204Y-17962648D01*
X35205800Y-18262259D01*
X35205800Y-18567741D01*
X35146204Y-18867352D01*
X35029301Y-19149579D01*
X34859585Y-19403578D01*
X34643578Y-19619585D01*
X34389579Y-19789301D01*
X34107352Y-19906204D01*
X33907611Y-19945935D01*
X33807742Y-19965800D01*
X33502258Y-19965800D01*
X33402389Y-19945935D01*
X33202648Y-19906204D01*
X32920421Y-19789301D01*
X32666422Y-19619585D01*
X32450415Y-19403578D01*
X32280699Y-19149579D01*
X32163796Y-18867352D01*
X32104200Y-18567741D01*
X32104200Y-18262259D01*
X32163796Y-17962648D01*
X32280699Y-17680421D01*
X32450415Y-17426422D01*
X32666422Y-17210415D01*
X32920421Y-17040699D01*
X33202648Y-16923796D01*
X33402389Y-16884065D01*
X33502258Y-16864200D01*
X33807742Y-16864200D01*
X33907611Y-16884065D01*
X33907611Y-16884065D01*
G37*
G36*
X22477611Y-16884065D02*
G01*
X22677352Y-16923796D01*
X22959579Y-17040699D01*
X23213578Y-17210415D01*
X23429585Y-17426422D01*
X23599301Y-17680421D01*
X23716204Y-17962648D01*
X23775800Y-18262259D01*
X23775800Y-18567741D01*
X23716204Y-18867352D01*
X23599301Y-19149579D01*
X23429585Y-19403578D01*
X23213578Y-19619585D01*
X22959579Y-19789301D01*
X22677352Y-19906204D01*
X22477611Y-19945935D01*
X22377742Y-19965800D01*
X22072258Y-19965800D01*
X21972389Y-19945935D01*
X21772648Y-19906204D01*
X21490421Y-19789301D01*
X21236422Y-19619585D01*
X21020415Y-19403578D01*
X20850699Y-19149579D01*
X20733796Y-18867352D01*
X20674200Y-18567741D01*
X20674200Y-18262259D01*
X20733796Y-17962648D01*
X20850699Y-17680421D01*
X21020415Y-17426422D01*
X21236422Y-17210415D01*
X21490421Y-17040699D01*
X21772648Y-16923796D01*
X21972389Y-16884065D01*
X22072258Y-16864200D01*
X22377742Y-16864200D01*
X22477611Y-16884065D01*
X22477611Y-16884065D01*
G37*
G36*
X30559728Y-14634320D02*
G01*
X30639337Y-14642161D01*
X30792550Y-14688638D01*
X30792553Y-14688639D01*
X30933752Y-14764111D01*
X31057517Y-14865683D01*
X31159089Y-14989448D01*
X31234561Y-15130647D01*
X31234562Y-15130650D01*
X31281039Y-15283863D01*
X31296732Y-15443200D01*
X31281039Y-15602537D01*
X31234562Y-15755750D01*
X31234561Y-15755753D01*
X31159089Y-15896952D01*
X31057517Y-16020717D01*
X30933752Y-16122289D01*
X30792553Y-16197761D01*
X30792550Y-16197762D01*
X30639337Y-16244239D01*
X30559728Y-16252080D01*
X30519924Y-16256000D01*
X30440076Y-16256000D01*
X30400272Y-16252080D01*
X30320663Y-16244239D01*
X30167450Y-16197762D01*
X30167447Y-16197761D01*
X30026248Y-16122289D01*
X29902483Y-16020717D01*
X29800911Y-15896952D01*
X29725439Y-15755753D01*
X29725438Y-15755750D01*
X29678961Y-15602537D01*
X29663268Y-15443200D01*
X29678961Y-15283863D01*
X29725438Y-15130650D01*
X29725439Y-15130647D01*
X29800911Y-14989448D01*
X29902483Y-14865683D01*
X30026248Y-14764111D01*
X30167447Y-14688639D01*
X30167450Y-14688638D01*
X30320663Y-14642161D01*
X30400272Y-14634320D01*
X30440076Y-14630400D01*
X30519924Y-14630400D01*
X30559728Y-14634320D01*
X30559728Y-14634320D01*
G37*
G36*
X28019728Y-14634320D02*
G01*
X28099337Y-14642161D01*
X28252550Y-14688638D01*
X28252553Y-14688639D01*
X28393752Y-14764111D01*
X28517517Y-14865683D01*
X28619089Y-14989448D01*
X28694561Y-15130647D01*
X28694562Y-15130650D01*
X28741039Y-15283863D01*
X28756732Y-15443200D01*
X28741039Y-15602537D01*
X28694562Y-15755750D01*
X28694561Y-15755753D01*
X28619089Y-15896952D01*
X28517517Y-16020717D01*
X28393752Y-16122289D01*
X28252553Y-16197761D01*
X28252550Y-16197762D01*
X28099337Y-16244239D01*
X28019728Y-16252080D01*
X27979924Y-16256000D01*
X27900076Y-16256000D01*
X27860272Y-16252080D01*
X27780663Y-16244239D01*
X27627450Y-16197762D01*
X27627447Y-16197761D01*
X27486248Y-16122289D01*
X27362483Y-16020717D01*
X27260911Y-15896952D01*
X27185439Y-15755753D01*
X27185438Y-15755750D01*
X27138961Y-15602537D01*
X27123268Y-15443200D01*
X27138961Y-15283863D01*
X27185438Y-15130650D01*
X27185439Y-15130647D01*
X27260911Y-14989448D01*
X27362483Y-14865683D01*
X27486248Y-14764111D01*
X27627447Y-14688639D01*
X27627450Y-14688638D01*
X27780663Y-14642161D01*
X27860272Y-14634320D01*
X27900076Y-14630400D01*
X27979924Y-14630400D01*
X28019728Y-14634320D01*
X28019728Y-14634320D01*
G37*
G36*
X25479728Y-14634320D02*
G01*
X25559337Y-14642161D01*
X25712550Y-14688638D01*
X25712553Y-14688639D01*
X25853752Y-14764111D01*
X25977517Y-14865683D01*
X26079089Y-14989448D01*
X26154561Y-15130647D01*
X26154562Y-15130650D01*
X26201039Y-15283863D01*
X26216732Y-15443200D01*
X26201039Y-15602537D01*
X26154562Y-15755750D01*
X26154561Y-15755753D01*
X26079089Y-15896952D01*
X25977517Y-16020717D01*
X25853752Y-16122289D01*
X25712553Y-16197761D01*
X25712550Y-16197762D01*
X25559337Y-16244239D01*
X25479728Y-16252080D01*
X25439924Y-16256000D01*
X25360076Y-16256000D01*
X25320272Y-16252080D01*
X25240663Y-16244239D01*
X25087450Y-16197762D01*
X25087447Y-16197761D01*
X24946248Y-16122289D01*
X24822483Y-16020717D01*
X24720911Y-15896952D01*
X24645439Y-15755753D01*
X24645438Y-15755750D01*
X24598961Y-15602537D01*
X24583268Y-15443200D01*
X24598961Y-15283863D01*
X24645438Y-15130650D01*
X24645439Y-15130647D01*
X24720911Y-14989448D01*
X24822483Y-14865683D01*
X24946248Y-14764111D01*
X25087447Y-14688639D01*
X25087450Y-14688638D01*
X25240663Y-14642161D01*
X25320272Y-14634320D01*
X25360076Y-14630400D01*
X25439924Y-14630400D01*
X25479728Y-14634320D01*
X25479728Y-14634320D01*
G37*
G36*
X24209728Y-13084920D02*
G01*
X24289337Y-13092761D01*
X24442550Y-13139238D01*
X24442553Y-13139239D01*
X24583752Y-13214711D01*
X24707517Y-13316283D01*
X24809089Y-13440048D01*
X24884561Y-13581247D01*
X24884562Y-13581250D01*
X24931039Y-13734463D01*
X24946732Y-13893800D01*
X24931039Y-14053137D01*
X24884562Y-14206350D01*
X24884561Y-14206353D01*
X24809089Y-14347552D01*
X24707517Y-14471317D01*
X24583752Y-14572889D01*
X24442553Y-14648361D01*
X24442550Y-14648362D01*
X24289337Y-14694839D01*
X24209728Y-14702680D01*
X24169924Y-14706600D01*
X24090076Y-14706600D01*
X24050272Y-14702680D01*
X23970663Y-14694839D01*
X23817450Y-14648362D01*
X23817447Y-14648361D01*
X23676248Y-14572889D01*
X23552483Y-14471317D01*
X23450911Y-14347552D01*
X23375439Y-14206353D01*
X23375438Y-14206350D01*
X23328961Y-14053137D01*
X23313268Y-13893800D01*
X23328961Y-13734463D01*
X23375438Y-13581250D01*
X23375439Y-13581247D01*
X23450911Y-13440048D01*
X23552483Y-13316283D01*
X23676248Y-13214711D01*
X23817447Y-13139239D01*
X23817450Y-13139238D01*
X23970663Y-13092761D01*
X24050272Y-13084920D01*
X24090076Y-13081000D01*
X24169924Y-13081000D01*
X24209728Y-13084920D01*
X24209728Y-13084920D01*
G37*
G36*
X29289728Y-13084920D02*
G01*
X29369337Y-13092761D01*
X29522550Y-13139238D01*
X29522553Y-13139239D01*
X29663752Y-13214711D01*
X29787517Y-13316283D01*
X29889089Y-13440048D01*
X29964561Y-13581247D01*
X29964562Y-13581250D01*
X30011039Y-13734463D01*
X30026732Y-13893800D01*
X30011039Y-14053137D01*
X29964562Y-14206350D01*
X29964561Y-14206353D01*
X29889089Y-14347552D01*
X29787517Y-14471317D01*
X29663752Y-14572889D01*
X29522553Y-14648361D01*
X29522550Y-14648362D01*
X29369337Y-14694839D01*
X29289728Y-14702680D01*
X29249924Y-14706600D01*
X29170076Y-14706600D01*
X29130272Y-14702680D01*
X29050663Y-14694839D01*
X28897450Y-14648362D01*
X28897447Y-14648361D01*
X28756248Y-14572889D01*
X28632483Y-14471317D01*
X28530911Y-14347552D01*
X28455439Y-14206353D01*
X28455438Y-14206350D01*
X28408961Y-14053137D01*
X28393268Y-13893800D01*
X28408961Y-13734463D01*
X28455438Y-13581250D01*
X28455439Y-13581247D01*
X28530911Y-13440048D01*
X28632483Y-13316283D01*
X28756248Y-13214711D01*
X28897447Y-13139239D01*
X28897450Y-13139238D01*
X29050663Y-13092761D01*
X29130272Y-13084920D01*
X29170076Y-13081000D01*
X29249924Y-13081000D01*
X29289728Y-13084920D01*
X29289728Y-13084920D01*
G37*
G36*
X26749728Y-13084920D02*
G01*
X26829337Y-13092761D01*
X26982550Y-13139238D01*
X26982553Y-13139239D01*
X27123752Y-13214711D01*
X27247517Y-13316283D01*
X27349089Y-13440048D01*
X27424561Y-13581247D01*
X27424562Y-13581250D01*
X27471039Y-13734463D01*
X27486732Y-13893800D01*
X27471039Y-14053137D01*
X27424562Y-14206350D01*
X27424561Y-14206353D01*
X27349089Y-14347552D01*
X27247517Y-14471317D01*
X27123752Y-14572889D01*
X26982553Y-14648361D01*
X26982550Y-14648362D01*
X26829337Y-14694839D01*
X26749728Y-14702680D01*
X26709924Y-14706600D01*
X26630076Y-14706600D01*
X26590272Y-14702680D01*
X26510663Y-14694839D01*
X26357450Y-14648362D01*
X26357447Y-14648361D01*
X26216248Y-14572889D01*
X26092483Y-14471317D01*
X25990911Y-14347552D01*
X25915439Y-14206353D01*
X25915438Y-14206350D01*
X25868961Y-14053137D01*
X25853268Y-13893800D01*
X25868961Y-13734463D01*
X25915438Y-13581250D01*
X25915439Y-13581247D01*
X25990911Y-13440048D01*
X26092483Y-13316283D01*
X26216248Y-13214711D01*
X26357447Y-13139239D01*
X26357450Y-13139238D01*
X26510663Y-13092761D01*
X26590272Y-13084920D01*
X26630076Y-13081000D01*
X26709924Y-13081000D01*
X26749728Y-13084920D01*
X26749728Y-13084920D01*
G37*
G36*
X31829728Y-13084920D02*
G01*
X31909337Y-13092761D01*
X32062550Y-13139238D01*
X32062553Y-13139239D01*
X32203752Y-13214711D01*
X32327517Y-13316283D01*
X32429089Y-13440048D01*
X32504561Y-13581247D01*
X32504562Y-13581250D01*
X32551039Y-13734463D01*
X32566732Y-13893800D01*
X32551039Y-14053137D01*
X32504562Y-14206350D01*
X32504561Y-14206353D01*
X32429089Y-14347552D01*
X32327517Y-14471317D01*
X32203752Y-14572889D01*
X32062553Y-14648361D01*
X32062550Y-14648362D01*
X31909337Y-14694839D01*
X31829728Y-14702680D01*
X31789924Y-14706600D01*
X31710076Y-14706600D01*
X31670272Y-14702680D01*
X31590663Y-14694839D01*
X31437450Y-14648362D01*
X31437447Y-14648361D01*
X31296248Y-14572889D01*
X31172483Y-14471317D01*
X31070911Y-14347552D01*
X30995439Y-14206353D01*
X30995438Y-14206350D01*
X30948961Y-14053137D01*
X30933268Y-13893800D01*
X30948961Y-13734463D01*
X30995438Y-13581250D01*
X30995439Y-13581247D01*
X31070911Y-13440048D01*
X31172483Y-13316283D01*
X31296248Y-13214711D01*
X31437447Y-13139239D01*
X31437450Y-13139238D01*
X31590663Y-13092761D01*
X31670272Y-13084920D01*
X31710076Y-13081000D01*
X31789924Y-13081000D01*
X31829728Y-13084920D01*
X31829728Y-13084920D01*
G37*
M02*
