G04 #@! TF.GenerationSoftware,KiCad,Pcbnew,(5.0.2)-1*
G04 #@! TF.CreationDate,2019-04-28T13:20:51-07:00*
G04 #@! TF.ProjectId,programmer,70726f67-7261-46d6-9d65-722e6b696361,rev?*
G04 #@! TF.SameCoordinates,Original*
G04 #@! TF.FileFunction,Soldermask,Top*
G04 #@! TF.FilePolarity,Negative*
%FSLAX46Y46*%
G04 Gerber Fmt 4.6, Leading zero omitted, Abs format (unit mm)*
G04 Created by KiCad (PCBNEW (5.0.2)-1) date 4/28/2019 1:20:51 PM*
%MOMM*%
%LPD*%
G01*
G04 APERTURE LIST*
%ADD10C,0.304800*%
G04 APERTURE END LIST*
D10*
G36*
X34996352Y-62008796D02*
X35278579Y-62125699D01*
X35532578Y-62295415D01*
X35748585Y-62511422D01*
X35918301Y-62765421D01*
X36035204Y-63047648D01*
X36094800Y-63347259D01*
X36094800Y-63652741D01*
X36035204Y-63952352D01*
X35918301Y-64234579D01*
X35748585Y-64488578D01*
X35532578Y-64704585D01*
X35278579Y-64874301D01*
X34996352Y-64991204D01*
X34696741Y-65050800D01*
X34391259Y-65050800D01*
X34091648Y-64991204D01*
X33809421Y-64874301D01*
X33555422Y-64704585D01*
X33339415Y-64488578D01*
X33169699Y-64234579D01*
X33052796Y-63952352D01*
X32993200Y-63652741D01*
X32993200Y-63347259D01*
X33052796Y-63047648D01*
X33169699Y-62765421D01*
X33339415Y-62511422D01*
X33555422Y-62295415D01*
X33809421Y-62125699D01*
X34091648Y-62008796D01*
X34391259Y-61949200D01*
X34696741Y-61949200D01*
X34996352Y-62008796D01*
X34996352Y-62008796D01*
G37*
G36*
X21788352Y-62008796D02*
X22070579Y-62125699D01*
X22324578Y-62295415D01*
X22540585Y-62511422D01*
X22710301Y-62765421D01*
X22827204Y-63047648D01*
X22886800Y-63347259D01*
X22886800Y-63652741D01*
X22827204Y-63952352D01*
X22710301Y-64234579D01*
X22540585Y-64488578D01*
X22324578Y-64704585D01*
X22070579Y-64874301D01*
X21788352Y-64991204D01*
X21488741Y-65050800D01*
X21183259Y-65050800D01*
X20883648Y-64991204D01*
X20601421Y-64874301D01*
X20347422Y-64704585D01*
X20131415Y-64488578D01*
X19961699Y-64234579D01*
X19844796Y-63952352D01*
X19785200Y-63652741D01*
X19785200Y-63347259D01*
X19844796Y-63047648D01*
X19961699Y-62765421D01*
X20131415Y-62511422D01*
X20347422Y-62295415D01*
X20601421Y-62125699D01*
X20883648Y-62008796D01*
X21183259Y-61949200D01*
X21488741Y-61949200D01*
X21788352Y-62008796D01*
X21788352Y-62008796D01*
G37*
G36*
X35726787Y-58851510D02*
X35887160Y-58900160D01*
X35887162Y-58900161D01*
X36034966Y-58979163D01*
X36164517Y-59085483D01*
X36270837Y-59215034D01*
X36349839Y-59362838D01*
X36349840Y-59362840D01*
X36398490Y-59523213D01*
X36414916Y-59690000D01*
X36398490Y-59856787D01*
X36349840Y-60017160D01*
X36349839Y-60017162D01*
X36270837Y-60164966D01*
X36164517Y-60294517D01*
X36034966Y-60400837D01*
X35887162Y-60479839D01*
X35887160Y-60479840D01*
X35726787Y-60528490D01*
X35601794Y-60540800D01*
X35518206Y-60540800D01*
X35393213Y-60528490D01*
X35232840Y-60479840D01*
X35232838Y-60479839D01*
X35085034Y-60400837D01*
X34955483Y-60294517D01*
X34849163Y-60164966D01*
X34770161Y-60017162D01*
X34770160Y-60017160D01*
X34721510Y-59856787D01*
X34705084Y-59690000D01*
X34721510Y-59523213D01*
X34770160Y-59362840D01*
X34770161Y-59362838D01*
X34849163Y-59215034D01*
X34955483Y-59085483D01*
X35085034Y-58979163D01*
X35232838Y-58900161D01*
X35232840Y-58900160D01*
X35393213Y-58851510D01*
X35518206Y-58839200D01*
X35601794Y-58839200D01*
X35726787Y-58851510D01*
X35726787Y-58851510D01*
G37*
G36*
X20486787Y-58851510D02*
X20647160Y-58900160D01*
X20647162Y-58900161D01*
X20794966Y-58979163D01*
X20924517Y-59085483D01*
X21030837Y-59215034D01*
X21109839Y-59362838D01*
X21109840Y-59362840D01*
X21158490Y-59523213D01*
X21174916Y-59690000D01*
X21158490Y-59856787D01*
X21109840Y-60017160D01*
X21109839Y-60017162D01*
X21030837Y-60164966D01*
X20924517Y-60294517D01*
X20794966Y-60400837D01*
X20647162Y-60479839D01*
X20647160Y-60479840D01*
X20486787Y-60528490D01*
X20361794Y-60540800D01*
X20278206Y-60540800D01*
X20153213Y-60528490D01*
X19992840Y-60479840D01*
X19992838Y-60479839D01*
X19845034Y-60400837D01*
X19715483Y-60294517D01*
X19609163Y-60164966D01*
X19530161Y-60017162D01*
X19530160Y-60017160D01*
X19481510Y-59856787D01*
X19465084Y-59690000D01*
X19481510Y-59523213D01*
X19530160Y-59362840D01*
X19530161Y-59362838D01*
X19609163Y-59215034D01*
X19715483Y-59085483D01*
X19845034Y-58979163D01*
X19992838Y-58900161D01*
X19992840Y-58900160D01*
X20153213Y-58851510D01*
X20278206Y-58839200D01*
X20361794Y-58839200D01*
X20486787Y-58851510D01*
X20486787Y-58851510D01*
G37*
G36*
X20486787Y-56311510D02*
X20647160Y-56360160D01*
X20647162Y-56360161D01*
X20794966Y-56439163D01*
X20924517Y-56545483D01*
X21030837Y-56675034D01*
X21109839Y-56822838D01*
X21109840Y-56822840D01*
X21158490Y-56983213D01*
X21174916Y-57150000D01*
X21158490Y-57316787D01*
X21109840Y-57477160D01*
X21109839Y-57477162D01*
X21030837Y-57624966D01*
X20924517Y-57754517D01*
X20794966Y-57860837D01*
X20647162Y-57939839D01*
X20647160Y-57939840D01*
X20486787Y-57988490D01*
X20361794Y-58000800D01*
X20278206Y-58000800D01*
X20153213Y-57988490D01*
X19992840Y-57939840D01*
X19992838Y-57939839D01*
X19845034Y-57860837D01*
X19715483Y-57754517D01*
X19609163Y-57624966D01*
X19530161Y-57477162D01*
X19530160Y-57477160D01*
X19481510Y-57316787D01*
X19465084Y-57150000D01*
X19481510Y-56983213D01*
X19530160Y-56822840D01*
X19530161Y-56822838D01*
X19609163Y-56675034D01*
X19715483Y-56545483D01*
X19845034Y-56439163D01*
X19992838Y-56360161D01*
X19992840Y-56360160D01*
X20153213Y-56311510D01*
X20278206Y-56299200D01*
X20361794Y-56299200D01*
X20486787Y-56311510D01*
X20486787Y-56311510D01*
G37*
G36*
X35726787Y-56311510D02*
X35887160Y-56360160D01*
X35887162Y-56360161D01*
X36034966Y-56439163D01*
X36164517Y-56545483D01*
X36270837Y-56675034D01*
X36349839Y-56822838D01*
X36349840Y-56822840D01*
X36398490Y-56983213D01*
X36414916Y-57150000D01*
X36398490Y-57316787D01*
X36349840Y-57477160D01*
X36349839Y-57477162D01*
X36270837Y-57624966D01*
X36164517Y-57754517D01*
X36034966Y-57860837D01*
X35887162Y-57939839D01*
X35887160Y-57939840D01*
X35726787Y-57988490D01*
X35601794Y-58000800D01*
X35518206Y-58000800D01*
X35393213Y-57988490D01*
X35232840Y-57939840D01*
X35232838Y-57939839D01*
X35085034Y-57860837D01*
X34955483Y-57754517D01*
X34849163Y-57624966D01*
X34770161Y-57477162D01*
X34770160Y-57477160D01*
X34721510Y-57316787D01*
X34705084Y-57150000D01*
X34721510Y-56983213D01*
X34770160Y-56822840D01*
X34770161Y-56822838D01*
X34849163Y-56675034D01*
X34955483Y-56545483D01*
X35085034Y-56439163D01*
X35232838Y-56360161D01*
X35232840Y-56360160D01*
X35393213Y-56311510D01*
X35518206Y-56299200D01*
X35601794Y-56299200D01*
X35726787Y-56311510D01*
X35726787Y-56311510D01*
G37*
G36*
X35726787Y-53771510D02*
X35887160Y-53820160D01*
X35887162Y-53820161D01*
X36034966Y-53899163D01*
X36164517Y-54005483D01*
X36270837Y-54135034D01*
X36349839Y-54282838D01*
X36349840Y-54282840D01*
X36398490Y-54443213D01*
X36414916Y-54610000D01*
X36398490Y-54776787D01*
X36349840Y-54937160D01*
X36349839Y-54937162D01*
X36270837Y-55084966D01*
X36164517Y-55214517D01*
X36034966Y-55320837D01*
X35887162Y-55399839D01*
X35887160Y-55399840D01*
X35726787Y-55448490D01*
X35601794Y-55460800D01*
X35518206Y-55460800D01*
X35393213Y-55448490D01*
X35232840Y-55399840D01*
X35232838Y-55399839D01*
X35085034Y-55320837D01*
X34955483Y-55214517D01*
X34849163Y-55084966D01*
X34770161Y-54937162D01*
X34770160Y-54937160D01*
X34721510Y-54776787D01*
X34705084Y-54610000D01*
X34721510Y-54443213D01*
X34770160Y-54282840D01*
X34770161Y-54282838D01*
X34849163Y-54135034D01*
X34955483Y-54005483D01*
X35085034Y-53899163D01*
X35232838Y-53820161D01*
X35232840Y-53820160D01*
X35393213Y-53771510D01*
X35518206Y-53759200D01*
X35601794Y-53759200D01*
X35726787Y-53771510D01*
X35726787Y-53771510D01*
G37*
G36*
X20486787Y-53771510D02*
X20647160Y-53820160D01*
X20647162Y-53820161D01*
X20794966Y-53899163D01*
X20924517Y-54005483D01*
X21030837Y-54135034D01*
X21109839Y-54282838D01*
X21109840Y-54282840D01*
X21158490Y-54443213D01*
X21174916Y-54610000D01*
X21158490Y-54776787D01*
X21109840Y-54937160D01*
X21109839Y-54937162D01*
X21030837Y-55084966D01*
X20924517Y-55214517D01*
X20794966Y-55320837D01*
X20647162Y-55399839D01*
X20647160Y-55399840D01*
X20486787Y-55448490D01*
X20361794Y-55460800D01*
X20278206Y-55460800D01*
X20153213Y-55448490D01*
X19992840Y-55399840D01*
X19992838Y-55399839D01*
X19845034Y-55320837D01*
X19715483Y-55214517D01*
X19609163Y-55084966D01*
X19530161Y-54937162D01*
X19530160Y-54937160D01*
X19481510Y-54776787D01*
X19465084Y-54610000D01*
X19481510Y-54443213D01*
X19530160Y-54282840D01*
X19530161Y-54282838D01*
X19609163Y-54135034D01*
X19715483Y-54005483D01*
X19845034Y-53899163D01*
X19992838Y-53820161D01*
X19992840Y-53820160D01*
X20153213Y-53771510D01*
X20278206Y-53759200D01*
X20361794Y-53759200D01*
X20486787Y-53771510D01*
X20486787Y-53771510D01*
G37*
G36*
X35726787Y-51231510D02*
X35887160Y-51280160D01*
X35887162Y-51280161D01*
X36034966Y-51359163D01*
X36164517Y-51465483D01*
X36270837Y-51595034D01*
X36349839Y-51742838D01*
X36349840Y-51742840D01*
X36398490Y-51903213D01*
X36414916Y-52070000D01*
X36398490Y-52236787D01*
X36349840Y-52397160D01*
X36349839Y-52397162D01*
X36270837Y-52544966D01*
X36164517Y-52674517D01*
X36034966Y-52780837D01*
X35887162Y-52859839D01*
X35887160Y-52859840D01*
X35726787Y-52908490D01*
X35601794Y-52920800D01*
X35518206Y-52920800D01*
X35393213Y-52908490D01*
X35232840Y-52859840D01*
X35232838Y-52859839D01*
X35085034Y-52780837D01*
X34955483Y-52674517D01*
X34849163Y-52544966D01*
X34770161Y-52397162D01*
X34770160Y-52397160D01*
X34721510Y-52236787D01*
X34705084Y-52070000D01*
X34721510Y-51903213D01*
X34770160Y-51742840D01*
X34770161Y-51742838D01*
X34849163Y-51595034D01*
X34955483Y-51465483D01*
X35085034Y-51359163D01*
X35232838Y-51280161D01*
X35232840Y-51280160D01*
X35393213Y-51231510D01*
X35518206Y-51219200D01*
X35601794Y-51219200D01*
X35726787Y-51231510D01*
X35726787Y-51231510D01*
G37*
G36*
X20486787Y-51231510D02*
X20647160Y-51280160D01*
X20647162Y-51280161D01*
X20794966Y-51359163D01*
X20924517Y-51465483D01*
X21030837Y-51595034D01*
X21109839Y-51742838D01*
X21109840Y-51742840D01*
X21158490Y-51903213D01*
X21174916Y-52070000D01*
X21158490Y-52236787D01*
X21109840Y-52397160D01*
X21109839Y-52397162D01*
X21030837Y-52544966D01*
X20924517Y-52674517D01*
X20794966Y-52780837D01*
X20647162Y-52859839D01*
X20647160Y-52859840D01*
X20486787Y-52908490D01*
X20361794Y-52920800D01*
X20278206Y-52920800D01*
X20153213Y-52908490D01*
X19992840Y-52859840D01*
X19992838Y-52859839D01*
X19845034Y-52780837D01*
X19715483Y-52674517D01*
X19609163Y-52544966D01*
X19530161Y-52397162D01*
X19530160Y-52397160D01*
X19481510Y-52236787D01*
X19465084Y-52070000D01*
X19481510Y-51903213D01*
X19530160Y-51742840D01*
X19530161Y-51742838D01*
X19609163Y-51595034D01*
X19715483Y-51465483D01*
X19845034Y-51359163D01*
X19992838Y-51280161D01*
X19992840Y-51280160D01*
X20153213Y-51231510D01*
X20278206Y-51219200D01*
X20361794Y-51219200D01*
X20486787Y-51231510D01*
X20486787Y-51231510D01*
G37*
G36*
X20486787Y-48691510D02*
X20647160Y-48740160D01*
X20647162Y-48740161D01*
X20794966Y-48819163D01*
X20924517Y-48925483D01*
X21030837Y-49055034D01*
X21109839Y-49202838D01*
X21109840Y-49202840D01*
X21158490Y-49363213D01*
X21174916Y-49530000D01*
X21158490Y-49696787D01*
X21109840Y-49857160D01*
X21109839Y-49857162D01*
X21030837Y-50004966D01*
X20924517Y-50134517D01*
X20794966Y-50240837D01*
X20647162Y-50319839D01*
X20647160Y-50319840D01*
X20486787Y-50368490D01*
X20361794Y-50380800D01*
X20278206Y-50380800D01*
X20153213Y-50368490D01*
X19992840Y-50319840D01*
X19992838Y-50319839D01*
X19845034Y-50240837D01*
X19715483Y-50134517D01*
X19609163Y-50004966D01*
X19530161Y-49857162D01*
X19530160Y-49857160D01*
X19481510Y-49696787D01*
X19465084Y-49530000D01*
X19481510Y-49363213D01*
X19530160Y-49202840D01*
X19530161Y-49202838D01*
X19609163Y-49055034D01*
X19715483Y-48925483D01*
X19845034Y-48819163D01*
X19992838Y-48740161D01*
X19992840Y-48740160D01*
X20153213Y-48691510D01*
X20278206Y-48679200D01*
X20361794Y-48679200D01*
X20486787Y-48691510D01*
X20486787Y-48691510D01*
G37*
G36*
X35726787Y-48691510D02*
X35887160Y-48740160D01*
X35887162Y-48740161D01*
X36034966Y-48819163D01*
X36164517Y-48925483D01*
X36270837Y-49055034D01*
X36349839Y-49202838D01*
X36349840Y-49202840D01*
X36398490Y-49363213D01*
X36414916Y-49530000D01*
X36398490Y-49696787D01*
X36349840Y-49857160D01*
X36349839Y-49857162D01*
X36270837Y-50004966D01*
X36164517Y-50134517D01*
X36034966Y-50240837D01*
X35887162Y-50319839D01*
X35887160Y-50319840D01*
X35726787Y-50368490D01*
X35601794Y-50380800D01*
X35518206Y-50380800D01*
X35393213Y-50368490D01*
X35232840Y-50319840D01*
X35232838Y-50319839D01*
X35085034Y-50240837D01*
X34955483Y-50134517D01*
X34849163Y-50004966D01*
X34770161Y-49857162D01*
X34770160Y-49857160D01*
X34721510Y-49696787D01*
X34705084Y-49530000D01*
X34721510Y-49363213D01*
X34770160Y-49202840D01*
X34770161Y-49202838D01*
X34849163Y-49055034D01*
X34955483Y-48925483D01*
X35085034Y-48819163D01*
X35232838Y-48740161D01*
X35232840Y-48740160D01*
X35393213Y-48691510D01*
X35518206Y-48679200D01*
X35601794Y-48679200D01*
X35726787Y-48691510D01*
X35726787Y-48691510D01*
G37*
G36*
X35726787Y-46151510D02*
X35887160Y-46200160D01*
X35887162Y-46200161D01*
X36034966Y-46279163D01*
X36164517Y-46385483D01*
X36270837Y-46515034D01*
X36349839Y-46662838D01*
X36349840Y-46662840D01*
X36398490Y-46823213D01*
X36414916Y-46990000D01*
X36398490Y-47156787D01*
X36349840Y-47317160D01*
X36349839Y-47317162D01*
X36270837Y-47464966D01*
X36164517Y-47594517D01*
X36034966Y-47700837D01*
X35887162Y-47779839D01*
X35887160Y-47779840D01*
X35726787Y-47828490D01*
X35601794Y-47840800D01*
X35518206Y-47840800D01*
X35393213Y-47828490D01*
X35232840Y-47779840D01*
X35232838Y-47779839D01*
X35085034Y-47700837D01*
X34955483Y-47594517D01*
X34849163Y-47464966D01*
X34770161Y-47317162D01*
X34770160Y-47317160D01*
X34721510Y-47156787D01*
X34705084Y-46990000D01*
X34721510Y-46823213D01*
X34770160Y-46662840D01*
X34770161Y-46662838D01*
X34849163Y-46515034D01*
X34955483Y-46385483D01*
X35085034Y-46279163D01*
X35232838Y-46200161D01*
X35232840Y-46200160D01*
X35393213Y-46151510D01*
X35518206Y-46139200D01*
X35601794Y-46139200D01*
X35726787Y-46151510D01*
X35726787Y-46151510D01*
G37*
G36*
X20486787Y-46151510D02*
X20647160Y-46200160D01*
X20647162Y-46200161D01*
X20794966Y-46279163D01*
X20924517Y-46385483D01*
X21030837Y-46515034D01*
X21109839Y-46662838D01*
X21109840Y-46662840D01*
X21158490Y-46823213D01*
X21174916Y-46990000D01*
X21158490Y-47156787D01*
X21109840Y-47317160D01*
X21109839Y-47317162D01*
X21030837Y-47464966D01*
X20924517Y-47594517D01*
X20794966Y-47700837D01*
X20647162Y-47779839D01*
X20647160Y-47779840D01*
X20486787Y-47828490D01*
X20361794Y-47840800D01*
X20278206Y-47840800D01*
X20153213Y-47828490D01*
X19992840Y-47779840D01*
X19992838Y-47779839D01*
X19845034Y-47700837D01*
X19715483Y-47594517D01*
X19609163Y-47464966D01*
X19530161Y-47317162D01*
X19530160Y-47317160D01*
X19481510Y-47156787D01*
X19465084Y-46990000D01*
X19481510Y-46823213D01*
X19530160Y-46662840D01*
X19530161Y-46662838D01*
X19609163Y-46515034D01*
X19715483Y-46385483D01*
X19845034Y-46279163D01*
X19992838Y-46200161D01*
X19992840Y-46200160D01*
X20153213Y-46151510D01*
X20278206Y-46139200D01*
X20361794Y-46139200D01*
X20486787Y-46151510D01*
X20486787Y-46151510D01*
G37*
G36*
X30572029Y-44974632D02*
X30627182Y-44980064D01*
X30686480Y-44998052D01*
X30768710Y-45022996D01*
X30827929Y-45054650D01*
X30899140Y-45092713D01*
X31013464Y-45186536D01*
X31057209Y-45239839D01*
X31107286Y-45300859D01*
X31177004Y-45431290D01*
X31219936Y-45572819D01*
X31234432Y-45720000D01*
X31219936Y-45867181D01*
X31177004Y-46008710D01*
X31141230Y-46075637D01*
X31107287Y-46139140D01*
X31013464Y-46253464D01*
X30899140Y-46347287D01*
X30838427Y-46379739D01*
X30768710Y-46417004D01*
X30627182Y-46459936D01*
X30516878Y-46470800D01*
X30443122Y-46470800D01*
X30332818Y-46459936D01*
X30191290Y-46417004D01*
X30121573Y-46379739D01*
X30060860Y-46347287D01*
X29946536Y-46253464D01*
X29852713Y-46139140D01*
X29818770Y-46075637D01*
X29782996Y-46008710D01*
X29740064Y-45867181D01*
X29725568Y-45720000D01*
X29740064Y-45572819D01*
X29782996Y-45431290D01*
X29852714Y-45300859D01*
X29902792Y-45239839D01*
X29946536Y-45186536D01*
X30060860Y-45092713D01*
X30132071Y-45054650D01*
X30191290Y-45022996D01*
X30273520Y-44998052D01*
X30332818Y-44980064D01*
X30387971Y-44974632D01*
X30443122Y-44969200D01*
X30516878Y-44969200D01*
X30572029Y-44974632D01*
X30572029Y-44974632D01*
G37*
G36*
X25618998Y-44998052D02*
X25619001Y-44998053D01*
X25619000Y-44998053D01*
X25755637Y-45054649D01*
X25812605Y-45092714D01*
X25878610Y-45136817D01*
X25983183Y-45241390D01*
X25983185Y-45241393D01*
X26065351Y-45364363D01*
X26093073Y-45431291D01*
X26121948Y-45501002D01*
X26150800Y-45646051D01*
X26150800Y-45793949D01*
X26121948Y-45938998D01*
X26121947Y-45939000D01*
X26065351Y-46075637D01*
X25984291Y-46196951D01*
X25983183Y-46198610D01*
X25878610Y-46303183D01*
X25878607Y-46303185D01*
X25755637Y-46385351D01*
X25649954Y-46429126D01*
X25618998Y-46441948D01*
X25473949Y-46470800D01*
X25326051Y-46470800D01*
X25181002Y-46441948D01*
X25150046Y-46429126D01*
X25044363Y-46385351D01*
X24921393Y-46303185D01*
X24921390Y-46303183D01*
X24816817Y-46198610D01*
X24815709Y-46196951D01*
X24734649Y-46075637D01*
X24678053Y-45939000D01*
X24678052Y-45938998D01*
X24649200Y-45793949D01*
X24649200Y-45646051D01*
X24678052Y-45501002D01*
X24706927Y-45431291D01*
X24734649Y-45364363D01*
X24816815Y-45241393D01*
X24816817Y-45241390D01*
X24921390Y-45136817D01*
X24987395Y-45092714D01*
X25044363Y-45054649D01*
X25181000Y-44998053D01*
X25180999Y-44998053D01*
X25181002Y-44998052D01*
X25326051Y-44969200D01*
X25473949Y-44969200D01*
X25618998Y-44998052D01*
X25618998Y-44998052D01*
G37*
G36*
X35726787Y-43611510D02*
X35887160Y-43660160D01*
X35887162Y-43660161D01*
X36034966Y-43739163D01*
X36164517Y-43845483D01*
X36270837Y-43975034D01*
X36349839Y-44122838D01*
X36349840Y-44122840D01*
X36398490Y-44283213D01*
X36414916Y-44450000D01*
X36398490Y-44616787D01*
X36349840Y-44777160D01*
X36349839Y-44777162D01*
X36270837Y-44924966D01*
X36164517Y-45054517D01*
X36034966Y-45160837D01*
X35887162Y-45239839D01*
X35887160Y-45239840D01*
X35726787Y-45288490D01*
X35601794Y-45300800D01*
X35518206Y-45300800D01*
X35393213Y-45288490D01*
X35232840Y-45239840D01*
X35232838Y-45239839D01*
X35085034Y-45160837D01*
X34955483Y-45054517D01*
X34849163Y-44924966D01*
X34770161Y-44777162D01*
X34770160Y-44777160D01*
X34721510Y-44616787D01*
X34705084Y-44450000D01*
X34721510Y-44283213D01*
X34770160Y-44122840D01*
X34770161Y-44122838D01*
X34849163Y-43975034D01*
X34955483Y-43845483D01*
X35085034Y-43739163D01*
X35232838Y-43660161D01*
X35232840Y-43660160D01*
X35393213Y-43611510D01*
X35518206Y-43599200D01*
X35601794Y-43599200D01*
X35726787Y-43611510D01*
X35726787Y-43611510D01*
G37*
G36*
X20486787Y-43611510D02*
X20647160Y-43660160D01*
X20647162Y-43660161D01*
X20794966Y-43739163D01*
X20924517Y-43845483D01*
X21030837Y-43975034D01*
X21109839Y-44122838D01*
X21109840Y-44122840D01*
X21158490Y-44283213D01*
X21174916Y-44450000D01*
X21158490Y-44616787D01*
X21109840Y-44777160D01*
X21109839Y-44777162D01*
X21030837Y-44924966D01*
X20924517Y-45054517D01*
X20794966Y-45160837D01*
X20647162Y-45239839D01*
X20647160Y-45239840D01*
X20486787Y-45288490D01*
X20361794Y-45300800D01*
X20278206Y-45300800D01*
X20153213Y-45288490D01*
X19992840Y-45239840D01*
X19992838Y-45239839D01*
X19845034Y-45160837D01*
X19715483Y-45054517D01*
X19609163Y-44924966D01*
X19530161Y-44777162D01*
X19530160Y-44777160D01*
X19481510Y-44616787D01*
X19465084Y-44450000D01*
X19481510Y-44283213D01*
X19530160Y-44122840D01*
X19530161Y-44122838D01*
X19609163Y-43975034D01*
X19715483Y-43845483D01*
X19845034Y-43739163D01*
X19992838Y-43660161D01*
X19992840Y-43660160D01*
X20153213Y-43611510D01*
X20278206Y-43599200D01*
X20361794Y-43599200D01*
X20486787Y-43611510D01*
X20486787Y-43611510D01*
G37*
G36*
X35726787Y-41071510D02*
X35887160Y-41120160D01*
X35887162Y-41120161D01*
X36034966Y-41199163D01*
X36164517Y-41305483D01*
X36270837Y-41435034D01*
X36349839Y-41582838D01*
X36349840Y-41582840D01*
X36398490Y-41743213D01*
X36414916Y-41910000D01*
X36398490Y-42076787D01*
X36349840Y-42237160D01*
X36349839Y-42237162D01*
X36270837Y-42384966D01*
X36164517Y-42514517D01*
X36034966Y-42620837D01*
X35887162Y-42699839D01*
X35887160Y-42699840D01*
X35726787Y-42748490D01*
X35601794Y-42760800D01*
X35518206Y-42760800D01*
X35393213Y-42748490D01*
X35232840Y-42699840D01*
X35232838Y-42699839D01*
X35085034Y-42620837D01*
X34955483Y-42514517D01*
X34849163Y-42384966D01*
X34770161Y-42237162D01*
X34770160Y-42237160D01*
X34721510Y-42076787D01*
X34705084Y-41910000D01*
X34721510Y-41743213D01*
X34770160Y-41582840D01*
X34770161Y-41582838D01*
X34849163Y-41435034D01*
X34955483Y-41305483D01*
X35085034Y-41199163D01*
X35232838Y-41120161D01*
X35232840Y-41120160D01*
X35393213Y-41071510D01*
X35518206Y-41059200D01*
X35601794Y-41059200D01*
X35726787Y-41071510D01*
X35726787Y-41071510D01*
G37*
G36*
X20486787Y-41071510D02*
X20647160Y-41120160D01*
X20647162Y-41120161D01*
X20794966Y-41199163D01*
X20924517Y-41305483D01*
X21030837Y-41435034D01*
X21109839Y-41582838D01*
X21109840Y-41582840D01*
X21158490Y-41743213D01*
X21174916Y-41910000D01*
X21158490Y-42076787D01*
X21109840Y-42237160D01*
X21109839Y-42237162D01*
X21030837Y-42384966D01*
X20924517Y-42514517D01*
X20794966Y-42620837D01*
X20647162Y-42699839D01*
X20647160Y-42699840D01*
X20486787Y-42748490D01*
X20361794Y-42760800D01*
X20278206Y-42760800D01*
X20153213Y-42748490D01*
X19992840Y-42699840D01*
X19992838Y-42699839D01*
X19845034Y-42620837D01*
X19715483Y-42514517D01*
X19609163Y-42384966D01*
X19530161Y-42237162D01*
X19530160Y-42237160D01*
X19481510Y-42076787D01*
X19465084Y-41910000D01*
X19481510Y-41743213D01*
X19530160Y-41582840D01*
X19530161Y-41582838D01*
X19609163Y-41435034D01*
X19715483Y-41305483D01*
X19845034Y-41199163D01*
X19992838Y-41120161D01*
X19992840Y-41120160D01*
X20153213Y-41071510D01*
X20278206Y-41059200D01*
X20361794Y-41059200D01*
X20486787Y-41071510D01*
X20486787Y-41071510D01*
G37*
G36*
X25618998Y-39918052D02*
X25619001Y-39918053D01*
X25619000Y-39918053D01*
X25755637Y-39974649D01*
X25812605Y-40012714D01*
X25878610Y-40056817D01*
X25983183Y-40161390D01*
X25983185Y-40161393D01*
X26065351Y-40284363D01*
X26093073Y-40351291D01*
X26121948Y-40421002D01*
X26150800Y-40566051D01*
X26150800Y-40713949D01*
X26121948Y-40858998D01*
X26121947Y-40859000D01*
X26065351Y-40995637D01*
X25984291Y-41116951D01*
X25983183Y-41118610D01*
X25878610Y-41223183D01*
X25878607Y-41223185D01*
X25755637Y-41305351D01*
X25649954Y-41349126D01*
X25618998Y-41361948D01*
X25473949Y-41390800D01*
X25326051Y-41390800D01*
X25181002Y-41361948D01*
X25150046Y-41349126D01*
X25044363Y-41305351D01*
X24921393Y-41223185D01*
X24921390Y-41223183D01*
X24816817Y-41118610D01*
X24815709Y-41116951D01*
X24734649Y-40995637D01*
X24678053Y-40859000D01*
X24678052Y-40858998D01*
X24649200Y-40713949D01*
X24649200Y-40566051D01*
X24678052Y-40421002D01*
X24706927Y-40351291D01*
X24734649Y-40284363D01*
X24816815Y-40161393D01*
X24816817Y-40161390D01*
X24921390Y-40056817D01*
X24987395Y-40012714D01*
X25044363Y-39974649D01*
X25181000Y-39918053D01*
X25180999Y-39918053D01*
X25181002Y-39918052D01*
X25326051Y-39889200D01*
X25473949Y-39889200D01*
X25618998Y-39918052D01*
X25618998Y-39918052D01*
G37*
G36*
X30572029Y-39894632D02*
X30627182Y-39900064D01*
X30686480Y-39918052D01*
X30768710Y-39942996D01*
X30827929Y-39974650D01*
X30899140Y-40012713D01*
X31013464Y-40106536D01*
X31057209Y-40159839D01*
X31107286Y-40220859D01*
X31177004Y-40351290D01*
X31219936Y-40492819D01*
X31234432Y-40640000D01*
X31219936Y-40787181D01*
X31177004Y-40928710D01*
X31141230Y-40995637D01*
X31107287Y-41059140D01*
X31013464Y-41173464D01*
X30899140Y-41267287D01*
X30838427Y-41299739D01*
X30768710Y-41337004D01*
X30697945Y-41358470D01*
X30627182Y-41379936D01*
X30516878Y-41390800D01*
X30443122Y-41390800D01*
X30332818Y-41379936D01*
X30262055Y-41358470D01*
X30191290Y-41337004D01*
X30121573Y-41299739D01*
X30060860Y-41267287D01*
X29946536Y-41173464D01*
X29852713Y-41059140D01*
X29818770Y-40995637D01*
X29782996Y-40928710D01*
X29740064Y-40787181D01*
X29725568Y-40640000D01*
X29740064Y-40492819D01*
X29782996Y-40351290D01*
X29852714Y-40220859D01*
X29902792Y-40159839D01*
X29946536Y-40106536D01*
X30060860Y-40012713D01*
X30132071Y-39974650D01*
X30191290Y-39942996D01*
X30273520Y-39918052D01*
X30332818Y-39900064D01*
X30387971Y-39894632D01*
X30443122Y-39889200D01*
X30516878Y-39889200D01*
X30572029Y-39894632D01*
X30572029Y-39894632D01*
G37*
G36*
X20486787Y-38531510D02*
X20647160Y-38580160D01*
X20647162Y-38580161D01*
X20794966Y-38659163D01*
X20924517Y-38765483D01*
X21030837Y-38895034D01*
X21109839Y-39042838D01*
X21109840Y-39042840D01*
X21158490Y-39203213D01*
X21174916Y-39370000D01*
X21158490Y-39536787D01*
X21109840Y-39697160D01*
X21109839Y-39697162D01*
X21030837Y-39844966D01*
X20924517Y-39974517D01*
X20794966Y-40080837D01*
X20647162Y-40159839D01*
X20647160Y-40159840D01*
X20486787Y-40208490D01*
X20361794Y-40220800D01*
X20278206Y-40220800D01*
X20153213Y-40208490D01*
X19992840Y-40159840D01*
X19992838Y-40159839D01*
X19845034Y-40080837D01*
X19715483Y-39974517D01*
X19609163Y-39844966D01*
X19530161Y-39697162D01*
X19530160Y-39697160D01*
X19481510Y-39536787D01*
X19465084Y-39370000D01*
X19481510Y-39203213D01*
X19530160Y-39042840D01*
X19530161Y-39042838D01*
X19609163Y-38895034D01*
X19715483Y-38765483D01*
X19845034Y-38659163D01*
X19992838Y-38580161D01*
X19992840Y-38580160D01*
X20153213Y-38531510D01*
X20278206Y-38519200D01*
X20361794Y-38519200D01*
X20486787Y-38531510D01*
X20486787Y-38531510D01*
G37*
G36*
X35726787Y-38531510D02*
X35887160Y-38580160D01*
X35887162Y-38580161D01*
X36034966Y-38659163D01*
X36164517Y-38765483D01*
X36270837Y-38895034D01*
X36349839Y-39042838D01*
X36349840Y-39042840D01*
X36398490Y-39203213D01*
X36414916Y-39370000D01*
X36398490Y-39536787D01*
X36349840Y-39697160D01*
X36349839Y-39697162D01*
X36270837Y-39844966D01*
X36164517Y-39974517D01*
X36034966Y-40080837D01*
X35887162Y-40159839D01*
X35887160Y-40159840D01*
X35726787Y-40208490D01*
X35601794Y-40220800D01*
X35518206Y-40220800D01*
X35393213Y-40208490D01*
X35232840Y-40159840D01*
X35232838Y-40159839D01*
X35085034Y-40080837D01*
X34955483Y-39974517D01*
X34849163Y-39844966D01*
X34770161Y-39697162D01*
X34770160Y-39697160D01*
X34721510Y-39536787D01*
X34705084Y-39370000D01*
X34721510Y-39203213D01*
X34770160Y-39042840D01*
X34770161Y-39042838D01*
X34849163Y-38895034D01*
X34955483Y-38765483D01*
X35085034Y-38659163D01*
X35232838Y-38580161D01*
X35232840Y-38580160D01*
X35393213Y-38531510D01*
X35518206Y-38519200D01*
X35601794Y-38519200D01*
X35726787Y-38531510D01*
X35726787Y-38531510D01*
G37*
G36*
X35726787Y-35991510D02*
X35887160Y-36040160D01*
X35887162Y-36040161D01*
X36034966Y-36119163D01*
X36164517Y-36225483D01*
X36270837Y-36355034D01*
X36349839Y-36502838D01*
X36349840Y-36502840D01*
X36398490Y-36663213D01*
X36414916Y-36830000D01*
X36398490Y-36996787D01*
X36349840Y-37157160D01*
X36349839Y-37157162D01*
X36270837Y-37304966D01*
X36164517Y-37434517D01*
X36034966Y-37540837D01*
X35887162Y-37619839D01*
X35887160Y-37619840D01*
X35726787Y-37668490D01*
X35601794Y-37680800D01*
X35518206Y-37680800D01*
X35393213Y-37668490D01*
X35232840Y-37619840D01*
X35232838Y-37619839D01*
X35085034Y-37540837D01*
X34955483Y-37434517D01*
X34849163Y-37304966D01*
X34770161Y-37157162D01*
X34770160Y-37157160D01*
X34721510Y-36996787D01*
X34705084Y-36830000D01*
X34721510Y-36663213D01*
X34770160Y-36502840D01*
X34770161Y-36502838D01*
X34849163Y-36355034D01*
X34955483Y-36225483D01*
X35085034Y-36119163D01*
X35232838Y-36040161D01*
X35232840Y-36040160D01*
X35393213Y-35991510D01*
X35518206Y-35979200D01*
X35601794Y-35979200D01*
X35726787Y-35991510D01*
X35726787Y-35991510D01*
G37*
G36*
X20486787Y-35991510D02*
X20647160Y-36040160D01*
X20647162Y-36040161D01*
X20794966Y-36119163D01*
X20924517Y-36225483D01*
X21030837Y-36355034D01*
X21109839Y-36502838D01*
X21109840Y-36502840D01*
X21158490Y-36663213D01*
X21174916Y-36830000D01*
X21158490Y-36996787D01*
X21109840Y-37157160D01*
X21109839Y-37157162D01*
X21030837Y-37304966D01*
X20924517Y-37434517D01*
X20794966Y-37540837D01*
X20647162Y-37619839D01*
X20647160Y-37619840D01*
X20486787Y-37668490D01*
X20361794Y-37680800D01*
X20278206Y-37680800D01*
X20153213Y-37668490D01*
X19992840Y-37619840D01*
X19992838Y-37619839D01*
X19845034Y-37540837D01*
X19715483Y-37434517D01*
X19609163Y-37304966D01*
X19530161Y-37157162D01*
X19530160Y-37157160D01*
X19481510Y-36996787D01*
X19465084Y-36830000D01*
X19481510Y-36663213D01*
X19530160Y-36502840D01*
X19530161Y-36502838D01*
X19609163Y-36355034D01*
X19715483Y-36225483D01*
X19845034Y-36119163D01*
X19992838Y-36040161D01*
X19992840Y-36040160D01*
X20153213Y-35991510D01*
X20278206Y-35979200D01*
X20361794Y-35979200D01*
X20486787Y-35991510D01*
X20486787Y-35991510D01*
G37*
G36*
X25618998Y-34838052D02*
X25619001Y-34838053D01*
X25619000Y-34838053D01*
X25755637Y-34894649D01*
X25812605Y-34932714D01*
X25878610Y-34976817D01*
X25983183Y-35081390D01*
X25983185Y-35081393D01*
X26065351Y-35204363D01*
X26093073Y-35271291D01*
X26121948Y-35341002D01*
X26150800Y-35486051D01*
X26150800Y-35633949D01*
X26121948Y-35778998D01*
X26121947Y-35779000D01*
X26065351Y-35915637D01*
X25984291Y-36036951D01*
X25983183Y-36038610D01*
X25878610Y-36143183D01*
X25878607Y-36143185D01*
X25755637Y-36225351D01*
X25649954Y-36269126D01*
X25618998Y-36281948D01*
X25473949Y-36310800D01*
X25326051Y-36310800D01*
X25181002Y-36281948D01*
X25150046Y-36269126D01*
X25044363Y-36225351D01*
X24921393Y-36143185D01*
X24921390Y-36143183D01*
X24816817Y-36038610D01*
X24815709Y-36036951D01*
X24734649Y-35915637D01*
X24678053Y-35779000D01*
X24678052Y-35778998D01*
X24649200Y-35633949D01*
X24649200Y-35486051D01*
X24678052Y-35341002D01*
X24706927Y-35271291D01*
X24734649Y-35204363D01*
X24816815Y-35081393D01*
X24816817Y-35081390D01*
X24921390Y-34976817D01*
X24987395Y-34932714D01*
X25044363Y-34894649D01*
X25181000Y-34838053D01*
X25180999Y-34838053D01*
X25181002Y-34838052D01*
X25326051Y-34809200D01*
X25473949Y-34809200D01*
X25618998Y-34838052D01*
X25618998Y-34838052D01*
G37*
G36*
X30627182Y-34820064D02*
X30686480Y-34838052D01*
X30768710Y-34862996D01*
X30827929Y-34894650D01*
X30899140Y-34932713D01*
X31013464Y-35026536D01*
X31057209Y-35079839D01*
X31107286Y-35140859D01*
X31177004Y-35271290D01*
X31219936Y-35412819D01*
X31234432Y-35560000D01*
X31219936Y-35707181D01*
X31177004Y-35848710D01*
X31141230Y-35915637D01*
X31107287Y-35979140D01*
X31013464Y-36093464D01*
X30899140Y-36187287D01*
X30838427Y-36219739D01*
X30768710Y-36257004D01*
X30697945Y-36278470D01*
X30627182Y-36299936D01*
X30572029Y-36305368D01*
X30516878Y-36310800D01*
X30443122Y-36310800D01*
X30387971Y-36305368D01*
X30332818Y-36299936D01*
X30262055Y-36278470D01*
X30191290Y-36257004D01*
X30121573Y-36219739D01*
X30060860Y-36187287D01*
X29946536Y-36093464D01*
X29852713Y-35979140D01*
X29818770Y-35915637D01*
X29782996Y-35848710D01*
X29740064Y-35707181D01*
X29725568Y-35560000D01*
X29740064Y-35412819D01*
X29782996Y-35271290D01*
X29852714Y-35140859D01*
X29902792Y-35079839D01*
X29946536Y-35026536D01*
X30060860Y-34932713D01*
X30132071Y-34894650D01*
X30191290Y-34862996D01*
X30273520Y-34838052D01*
X30332818Y-34820064D01*
X30443122Y-34809200D01*
X30516878Y-34809200D01*
X30627182Y-34820064D01*
X30627182Y-34820064D01*
G37*
G36*
X35726787Y-33451510D02*
X35887160Y-33500160D01*
X35887162Y-33500161D01*
X36034966Y-33579163D01*
X36164517Y-33685483D01*
X36270837Y-33815034D01*
X36349839Y-33962838D01*
X36349840Y-33962840D01*
X36398490Y-34123213D01*
X36414916Y-34290000D01*
X36398490Y-34456787D01*
X36349840Y-34617160D01*
X36349839Y-34617162D01*
X36270837Y-34764966D01*
X36164517Y-34894517D01*
X36034966Y-35000837D01*
X35887162Y-35079839D01*
X35887160Y-35079840D01*
X35726787Y-35128490D01*
X35601794Y-35140800D01*
X35518206Y-35140800D01*
X35393213Y-35128490D01*
X35232840Y-35079840D01*
X35232838Y-35079839D01*
X35085034Y-35000837D01*
X34955483Y-34894517D01*
X34849163Y-34764966D01*
X34770161Y-34617162D01*
X34770160Y-34617160D01*
X34721510Y-34456787D01*
X34705084Y-34290000D01*
X34721510Y-34123213D01*
X34770160Y-33962840D01*
X34770161Y-33962838D01*
X34849163Y-33815034D01*
X34955483Y-33685483D01*
X35085034Y-33579163D01*
X35232838Y-33500161D01*
X35232840Y-33500160D01*
X35393213Y-33451510D01*
X35518206Y-33439200D01*
X35601794Y-33439200D01*
X35726787Y-33451510D01*
X35726787Y-33451510D01*
G37*
G36*
X20486787Y-33451510D02*
X20647160Y-33500160D01*
X20647162Y-33500161D01*
X20794966Y-33579163D01*
X20924517Y-33685483D01*
X21030837Y-33815034D01*
X21109839Y-33962838D01*
X21109840Y-33962840D01*
X21158490Y-34123213D01*
X21174916Y-34290000D01*
X21158490Y-34456787D01*
X21109840Y-34617160D01*
X21109839Y-34617162D01*
X21030837Y-34764966D01*
X20924517Y-34894517D01*
X20794966Y-35000837D01*
X20647162Y-35079839D01*
X20647160Y-35079840D01*
X20486787Y-35128490D01*
X20361794Y-35140800D01*
X20278206Y-35140800D01*
X20153213Y-35128490D01*
X19992840Y-35079840D01*
X19992838Y-35079839D01*
X19845034Y-35000837D01*
X19715483Y-34894517D01*
X19609163Y-34764966D01*
X19530161Y-34617162D01*
X19530160Y-34617160D01*
X19481510Y-34456787D01*
X19465084Y-34290000D01*
X19481510Y-34123213D01*
X19530160Y-33962840D01*
X19530161Y-33962838D01*
X19609163Y-33815034D01*
X19715483Y-33685483D01*
X19845034Y-33579163D01*
X19992838Y-33500161D01*
X19992840Y-33500160D01*
X20153213Y-33451510D01*
X20278206Y-33439200D01*
X20361794Y-33439200D01*
X20486787Y-33451510D01*
X20486787Y-33451510D01*
G37*
G36*
X35726787Y-30911510D02*
X35887160Y-30960160D01*
X35887162Y-30960161D01*
X36034966Y-31039163D01*
X36164517Y-31145483D01*
X36270837Y-31275034D01*
X36349839Y-31422838D01*
X36349840Y-31422840D01*
X36398490Y-31583213D01*
X36414916Y-31750000D01*
X36398490Y-31916787D01*
X36349840Y-32077160D01*
X36349839Y-32077162D01*
X36270837Y-32224966D01*
X36164517Y-32354517D01*
X36034966Y-32460837D01*
X35887162Y-32539839D01*
X35887160Y-32539840D01*
X35726787Y-32588490D01*
X35601794Y-32600800D01*
X35518206Y-32600800D01*
X35393213Y-32588490D01*
X35232840Y-32539840D01*
X35232838Y-32539839D01*
X35085034Y-32460837D01*
X34955483Y-32354517D01*
X34849163Y-32224966D01*
X34770161Y-32077162D01*
X34770160Y-32077160D01*
X34721510Y-31916787D01*
X34705084Y-31750000D01*
X34721510Y-31583213D01*
X34770160Y-31422840D01*
X34770161Y-31422838D01*
X34849163Y-31275034D01*
X34955483Y-31145483D01*
X35085034Y-31039163D01*
X35232838Y-30960161D01*
X35232840Y-30960160D01*
X35393213Y-30911510D01*
X35518206Y-30899200D01*
X35601794Y-30899200D01*
X35726787Y-30911510D01*
X35726787Y-30911510D01*
G37*
G36*
X20486787Y-30911510D02*
X20647160Y-30960160D01*
X20647162Y-30960161D01*
X20794966Y-31039163D01*
X20924517Y-31145483D01*
X21030837Y-31275034D01*
X21109839Y-31422838D01*
X21109840Y-31422840D01*
X21158490Y-31583213D01*
X21174916Y-31750000D01*
X21158490Y-31916787D01*
X21109840Y-32077160D01*
X21109839Y-32077162D01*
X21030837Y-32224966D01*
X20924517Y-32354517D01*
X20794966Y-32460837D01*
X20647162Y-32539839D01*
X20647160Y-32539840D01*
X20486787Y-32588490D01*
X20361794Y-32600800D01*
X20278206Y-32600800D01*
X20153213Y-32588490D01*
X19992840Y-32539840D01*
X19992838Y-32539839D01*
X19845034Y-32460837D01*
X19715483Y-32354517D01*
X19609163Y-32224966D01*
X19530161Y-32077162D01*
X19530160Y-32077160D01*
X19481510Y-31916787D01*
X19465084Y-31750000D01*
X19481510Y-31583213D01*
X19530160Y-31422840D01*
X19530161Y-31422838D01*
X19609163Y-31275034D01*
X19715483Y-31145483D01*
X19845034Y-31039163D01*
X19992838Y-30960161D01*
X19992840Y-30960160D01*
X20153213Y-30911510D01*
X20278206Y-30899200D01*
X20361794Y-30899200D01*
X20486787Y-30911510D01*
X20486787Y-30911510D01*
G37*
G36*
X30698998Y-29758052D02*
X30699001Y-29758053D01*
X30699000Y-29758053D01*
X30835637Y-29814649D01*
X30892605Y-29852714D01*
X30958610Y-29896817D01*
X31063183Y-30001390D01*
X31063185Y-30001393D01*
X31145351Y-30124363D01*
X31173073Y-30191291D01*
X31201948Y-30261002D01*
X31230800Y-30406051D01*
X31230800Y-30553949D01*
X31201948Y-30698998D01*
X31201947Y-30699000D01*
X31145351Y-30835637D01*
X31064291Y-30956951D01*
X31063183Y-30958610D01*
X30958610Y-31063183D01*
X30958607Y-31063185D01*
X30835637Y-31145351D01*
X30729954Y-31189126D01*
X30698998Y-31201948D01*
X30553949Y-31230800D01*
X30406051Y-31230800D01*
X30261002Y-31201948D01*
X30230046Y-31189126D01*
X30124363Y-31145351D01*
X30001393Y-31063185D01*
X30001390Y-31063183D01*
X29896817Y-30958610D01*
X29895709Y-30956951D01*
X29814649Y-30835637D01*
X29758053Y-30699000D01*
X29758052Y-30698998D01*
X29729200Y-30553949D01*
X29729200Y-30406051D01*
X29758052Y-30261002D01*
X29786927Y-30191291D01*
X29814649Y-30124363D01*
X29896815Y-30001393D01*
X29896817Y-30001390D01*
X30001390Y-29896817D01*
X30067395Y-29852714D01*
X30124363Y-29814649D01*
X30261000Y-29758053D01*
X30260999Y-29758053D01*
X30261002Y-29758052D01*
X30406051Y-29729200D01*
X30553949Y-29729200D01*
X30698998Y-29758052D01*
X30698998Y-29758052D01*
G37*
G36*
X25547182Y-29740064D02*
X25606480Y-29758052D01*
X25688710Y-29782996D01*
X25747929Y-29814650D01*
X25819140Y-29852713D01*
X25933464Y-29946536D01*
X25977209Y-29999839D01*
X26027286Y-30060859D01*
X26097004Y-30191290D01*
X26139936Y-30332819D01*
X26154432Y-30480000D01*
X26139936Y-30627181D01*
X26097004Y-30768710D01*
X26061230Y-30835637D01*
X26027287Y-30899140D01*
X25933464Y-31013464D01*
X25819140Y-31107287D01*
X25758427Y-31139739D01*
X25688710Y-31177004D01*
X25547182Y-31219936D01*
X25492029Y-31225368D01*
X25436878Y-31230800D01*
X25363122Y-31230800D01*
X25307971Y-31225368D01*
X25252818Y-31219936D01*
X25111290Y-31177004D01*
X25041573Y-31139739D01*
X24980860Y-31107287D01*
X24866536Y-31013464D01*
X24772713Y-30899140D01*
X24738770Y-30835637D01*
X24702996Y-30768710D01*
X24660064Y-30627181D01*
X24645568Y-30480000D01*
X24660064Y-30332819D01*
X24702996Y-30191290D01*
X24772714Y-30060859D01*
X24822792Y-29999839D01*
X24866536Y-29946536D01*
X24980860Y-29852713D01*
X25052071Y-29814650D01*
X25111290Y-29782996D01*
X25193520Y-29758052D01*
X25252818Y-29740064D01*
X25363122Y-29729200D01*
X25436878Y-29729200D01*
X25547182Y-29740064D01*
X25547182Y-29740064D01*
G37*
G36*
X35726787Y-28371510D02*
X35887160Y-28420160D01*
X35887162Y-28420161D01*
X36034966Y-28499163D01*
X36164517Y-28605483D01*
X36270837Y-28735034D01*
X36349839Y-28882838D01*
X36349840Y-28882840D01*
X36398490Y-29043213D01*
X36414916Y-29210000D01*
X36398490Y-29376787D01*
X36349840Y-29537160D01*
X36349839Y-29537162D01*
X36270837Y-29684966D01*
X36164517Y-29814517D01*
X36034966Y-29920837D01*
X35887162Y-29999839D01*
X35887160Y-29999840D01*
X35726787Y-30048490D01*
X35601794Y-30060800D01*
X35518206Y-30060800D01*
X35393213Y-30048490D01*
X35232840Y-29999840D01*
X35232838Y-29999839D01*
X35085034Y-29920837D01*
X34955483Y-29814517D01*
X34849163Y-29684966D01*
X34770161Y-29537162D01*
X34770160Y-29537160D01*
X34721510Y-29376787D01*
X34705084Y-29210000D01*
X34721510Y-29043213D01*
X34770160Y-28882840D01*
X34770161Y-28882838D01*
X34849163Y-28735034D01*
X34955483Y-28605483D01*
X35085034Y-28499163D01*
X35232838Y-28420161D01*
X35232840Y-28420160D01*
X35393213Y-28371510D01*
X35518206Y-28359200D01*
X35601794Y-28359200D01*
X35726787Y-28371510D01*
X35726787Y-28371510D01*
G37*
G36*
X20486787Y-28371510D02*
X20647160Y-28420160D01*
X20647162Y-28420161D01*
X20794966Y-28499163D01*
X20924517Y-28605483D01*
X21030837Y-28735034D01*
X21109839Y-28882838D01*
X21109840Y-28882840D01*
X21158490Y-29043213D01*
X21174916Y-29210000D01*
X21158490Y-29376787D01*
X21109840Y-29537160D01*
X21109839Y-29537162D01*
X21030837Y-29684966D01*
X20924517Y-29814517D01*
X20794966Y-29920837D01*
X20647162Y-29999839D01*
X20647160Y-29999840D01*
X20486787Y-30048490D01*
X20361794Y-30060800D01*
X20278206Y-30060800D01*
X20153213Y-30048490D01*
X19992840Y-29999840D01*
X19992838Y-29999839D01*
X19845034Y-29920837D01*
X19715483Y-29814517D01*
X19609163Y-29684966D01*
X19530161Y-29537162D01*
X19530160Y-29537160D01*
X19481510Y-29376787D01*
X19465084Y-29210000D01*
X19481510Y-29043213D01*
X19530160Y-28882840D01*
X19530161Y-28882838D01*
X19609163Y-28735034D01*
X19715483Y-28605483D01*
X19845034Y-28499163D01*
X19992838Y-28420161D01*
X19992840Y-28420160D01*
X20153213Y-28371510D01*
X20278206Y-28359200D01*
X20361794Y-28359200D01*
X20486787Y-28371510D01*
X20486787Y-28371510D01*
G37*
G36*
X35726787Y-25831510D02*
X35887160Y-25880160D01*
X35887162Y-25880161D01*
X36034966Y-25959163D01*
X36164517Y-26065483D01*
X36270837Y-26195034D01*
X36349839Y-26342838D01*
X36349840Y-26342840D01*
X36398490Y-26503213D01*
X36414916Y-26670000D01*
X36398490Y-26836787D01*
X36349840Y-26997160D01*
X36349839Y-26997162D01*
X36270837Y-27144966D01*
X36164517Y-27274517D01*
X36034966Y-27380837D01*
X35887162Y-27459839D01*
X35887160Y-27459840D01*
X35726787Y-27508490D01*
X35601794Y-27520800D01*
X35518206Y-27520800D01*
X35393213Y-27508490D01*
X35232840Y-27459840D01*
X35232838Y-27459839D01*
X35085034Y-27380837D01*
X34955483Y-27274517D01*
X34849163Y-27144966D01*
X34770161Y-26997162D01*
X34770160Y-26997160D01*
X34721510Y-26836787D01*
X34705084Y-26670000D01*
X34721510Y-26503213D01*
X34770160Y-26342840D01*
X34770161Y-26342838D01*
X34849163Y-26195034D01*
X34955483Y-26065483D01*
X35085034Y-25959163D01*
X35232838Y-25880161D01*
X35232840Y-25880160D01*
X35393213Y-25831510D01*
X35518206Y-25819200D01*
X35601794Y-25819200D01*
X35726787Y-25831510D01*
X35726787Y-25831510D01*
G37*
G36*
X20486787Y-25831510D02*
X20647160Y-25880160D01*
X20647162Y-25880161D01*
X20794966Y-25959163D01*
X20924517Y-26065483D01*
X21030837Y-26195034D01*
X21109839Y-26342838D01*
X21109840Y-26342840D01*
X21158490Y-26503213D01*
X21174916Y-26670000D01*
X21158490Y-26836787D01*
X21109840Y-26997160D01*
X21109839Y-26997162D01*
X21030837Y-27144966D01*
X20924517Y-27274517D01*
X20794966Y-27380837D01*
X20647162Y-27459839D01*
X20647160Y-27459840D01*
X20486787Y-27508490D01*
X20361794Y-27520800D01*
X20278206Y-27520800D01*
X20153213Y-27508490D01*
X19992840Y-27459840D01*
X19992838Y-27459839D01*
X19845034Y-27380837D01*
X19715483Y-27274517D01*
X19609163Y-27144966D01*
X19530161Y-26997162D01*
X19530160Y-26997160D01*
X19481510Y-26836787D01*
X19465084Y-26670000D01*
X19481510Y-26503213D01*
X19530160Y-26342840D01*
X19530161Y-26342838D01*
X19609163Y-26195034D01*
X19715483Y-26065483D01*
X19845034Y-25959163D01*
X19992838Y-25880161D01*
X19992840Y-25880160D01*
X20153213Y-25831510D01*
X20278206Y-25819200D01*
X20361794Y-25819200D01*
X20486787Y-25831510D01*
X20486787Y-25831510D01*
G37*
G36*
X21170800Y-24980800D02*
X19469200Y-24980800D01*
X19469200Y-23279200D01*
X21170800Y-23279200D01*
X21170800Y-24980800D01*
X21170800Y-24980800D01*
G37*
G36*
X35726787Y-23291510D02*
X35887160Y-23340160D01*
X35887162Y-23340161D01*
X36034966Y-23419163D01*
X36164517Y-23525483D01*
X36270837Y-23655034D01*
X36349839Y-23802838D01*
X36349840Y-23802840D01*
X36398490Y-23963213D01*
X36414916Y-24130000D01*
X36398490Y-24296787D01*
X36349840Y-24457160D01*
X36349839Y-24457162D01*
X36270837Y-24604966D01*
X36164517Y-24734517D01*
X36034966Y-24840837D01*
X35887162Y-24919839D01*
X35887160Y-24919840D01*
X35726787Y-24968490D01*
X35601794Y-24980800D01*
X35518206Y-24980800D01*
X35393213Y-24968490D01*
X35232840Y-24919840D01*
X35232838Y-24919839D01*
X35085034Y-24840837D01*
X34955483Y-24734517D01*
X34849163Y-24604966D01*
X34770161Y-24457162D01*
X34770160Y-24457160D01*
X34721510Y-24296787D01*
X34705084Y-24130000D01*
X34721510Y-23963213D01*
X34770160Y-23802840D01*
X34770161Y-23802838D01*
X34849163Y-23655034D01*
X34955483Y-23525483D01*
X35085034Y-23419163D01*
X35232838Y-23340161D01*
X35232840Y-23340160D01*
X35393213Y-23291510D01*
X35518206Y-23279200D01*
X35601794Y-23279200D01*
X35726787Y-23291510D01*
X35726787Y-23291510D01*
G37*
G36*
X34107352Y-16923796D02*
X34389579Y-17040699D01*
X34643578Y-17210415D01*
X34859585Y-17426422D01*
X35029301Y-17680421D01*
X35146204Y-17962648D01*
X35205800Y-18262259D01*
X35205800Y-18567741D01*
X35146204Y-18867352D01*
X35029301Y-19149579D01*
X34859585Y-19403578D01*
X34643578Y-19619585D01*
X34389579Y-19789301D01*
X34107352Y-19906204D01*
X33807741Y-19965800D01*
X33502259Y-19965800D01*
X33202648Y-19906204D01*
X32920421Y-19789301D01*
X32666422Y-19619585D01*
X32450415Y-19403578D01*
X32280699Y-19149579D01*
X32163796Y-18867352D01*
X32104200Y-18567741D01*
X32104200Y-18262259D01*
X32163796Y-17962648D01*
X32280699Y-17680421D01*
X32450415Y-17426422D01*
X32666422Y-17210415D01*
X32920421Y-17040699D01*
X33202648Y-16923796D01*
X33502259Y-16864200D01*
X33807741Y-16864200D01*
X34107352Y-16923796D01*
X34107352Y-16923796D01*
G37*
G36*
X22677352Y-16923796D02*
X22959579Y-17040699D01*
X23213578Y-17210415D01*
X23429585Y-17426422D01*
X23599301Y-17680421D01*
X23716204Y-17962648D01*
X23775800Y-18262259D01*
X23775800Y-18567741D01*
X23716204Y-18867352D01*
X23599301Y-19149579D01*
X23429585Y-19403578D01*
X23213578Y-19619585D01*
X22959579Y-19789301D01*
X22677352Y-19906204D01*
X22377741Y-19965800D01*
X22072259Y-19965800D01*
X21772648Y-19906204D01*
X21490421Y-19789301D01*
X21236422Y-19619585D01*
X21020415Y-19403578D01*
X20850699Y-19149579D01*
X20733796Y-18867352D01*
X20674200Y-18567741D01*
X20674200Y-18262259D01*
X20733796Y-17962648D01*
X20850699Y-17680421D01*
X21020415Y-17426422D01*
X21236422Y-17210415D01*
X21490421Y-17040699D01*
X21772648Y-16923796D01*
X22072259Y-16864200D01*
X22377741Y-16864200D01*
X22677352Y-16923796D01*
X22677352Y-16923796D01*
G37*
G36*
X30559728Y-14634320D02*
X30639337Y-14642161D01*
X30741479Y-14673146D01*
X30792551Y-14688638D01*
X30826155Y-14706600D01*
X30933752Y-14764112D01*
X30933754Y-14764113D01*
X30933753Y-14764113D01*
X31057517Y-14865683D01*
X31159087Y-14989447D01*
X31234562Y-15130649D01*
X31234562Y-15130650D01*
X31281039Y-15283863D01*
X31296732Y-15443200D01*
X31281039Y-15602537D01*
X31250054Y-15704679D01*
X31234562Y-15755751D01*
X31194220Y-15831225D01*
X31159088Y-15896952D01*
X31057517Y-16020717D01*
X30933752Y-16122288D01*
X30868025Y-16157420D01*
X30792551Y-16197762D01*
X30741479Y-16213254D01*
X30639337Y-16244239D01*
X30559728Y-16252080D01*
X30519924Y-16256000D01*
X30440076Y-16256000D01*
X30400272Y-16252080D01*
X30320663Y-16244239D01*
X30218521Y-16213254D01*
X30167449Y-16197762D01*
X30091975Y-16157420D01*
X30026248Y-16122288D01*
X29902483Y-16020717D01*
X29800912Y-15896952D01*
X29765780Y-15831225D01*
X29725438Y-15755751D01*
X29709946Y-15704679D01*
X29678961Y-15602537D01*
X29663268Y-15443200D01*
X29678961Y-15283863D01*
X29725438Y-15130650D01*
X29725438Y-15130649D01*
X29800913Y-14989447D01*
X29902483Y-14865683D01*
X30026247Y-14764113D01*
X30026246Y-14764113D01*
X30026248Y-14764112D01*
X30133845Y-14706600D01*
X30167449Y-14688638D01*
X30218521Y-14673146D01*
X30320663Y-14642161D01*
X30400272Y-14634320D01*
X30440076Y-14630400D01*
X30519924Y-14630400D01*
X30559728Y-14634320D01*
X30559728Y-14634320D01*
G37*
G36*
X28019728Y-14634320D02*
X28099337Y-14642161D01*
X28201479Y-14673146D01*
X28252551Y-14688638D01*
X28286155Y-14706600D01*
X28393752Y-14764112D01*
X28393754Y-14764113D01*
X28393753Y-14764113D01*
X28517517Y-14865683D01*
X28619087Y-14989447D01*
X28694562Y-15130649D01*
X28694562Y-15130650D01*
X28741039Y-15283863D01*
X28756732Y-15443200D01*
X28741039Y-15602537D01*
X28710054Y-15704679D01*
X28694562Y-15755751D01*
X28654220Y-15831225D01*
X28619088Y-15896952D01*
X28517517Y-16020717D01*
X28393752Y-16122288D01*
X28328025Y-16157420D01*
X28252551Y-16197762D01*
X28201479Y-16213254D01*
X28099337Y-16244239D01*
X28019728Y-16252080D01*
X27979924Y-16256000D01*
X27900076Y-16256000D01*
X27860272Y-16252080D01*
X27780663Y-16244239D01*
X27678521Y-16213254D01*
X27627449Y-16197762D01*
X27551975Y-16157420D01*
X27486248Y-16122288D01*
X27362483Y-16020717D01*
X27260912Y-15896952D01*
X27225780Y-15831225D01*
X27185438Y-15755751D01*
X27169946Y-15704679D01*
X27138961Y-15602537D01*
X27123268Y-15443200D01*
X27138961Y-15283863D01*
X27185438Y-15130650D01*
X27185438Y-15130649D01*
X27260913Y-14989447D01*
X27362483Y-14865683D01*
X27486247Y-14764113D01*
X27486246Y-14764113D01*
X27486248Y-14764112D01*
X27593845Y-14706600D01*
X27627449Y-14688638D01*
X27678521Y-14673146D01*
X27780663Y-14642161D01*
X27860272Y-14634320D01*
X27900076Y-14630400D01*
X27979924Y-14630400D01*
X28019728Y-14634320D01*
X28019728Y-14634320D01*
G37*
G36*
X25479728Y-14634320D02*
X25559337Y-14642161D01*
X25661479Y-14673146D01*
X25712551Y-14688638D01*
X25746155Y-14706600D01*
X25853752Y-14764112D01*
X25853754Y-14764113D01*
X25853753Y-14764113D01*
X25977517Y-14865683D01*
X26079087Y-14989447D01*
X26154562Y-15130649D01*
X26154562Y-15130650D01*
X26201039Y-15283863D01*
X26216732Y-15443200D01*
X26201039Y-15602537D01*
X26170054Y-15704679D01*
X26154562Y-15755751D01*
X26114220Y-15831225D01*
X26079088Y-15896952D01*
X25977517Y-16020717D01*
X25853752Y-16122288D01*
X25788025Y-16157420D01*
X25712551Y-16197762D01*
X25661479Y-16213254D01*
X25559337Y-16244239D01*
X25479728Y-16252080D01*
X25439924Y-16256000D01*
X25360076Y-16256000D01*
X25320272Y-16252080D01*
X25240663Y-16244239D01*
X25138521Y-16213254D01*
X25087449Y-16197762D01*
X25011975Y-16157420D01*
X24946248Y-16122288D01*
X24822483Y-16020717D01*
X24720912Y-15896952D01*
X24685780Y-15831225D01*
X24645438Y-15755751D01*
X24629946Y-15704679D01*
X24598961Y-15602537D01*
X24583268Y-15443200D01*
X24598961Y-15283863D01*
X24645438Y-15130650D01*
X24645438Y-15130649D01*
X24720913Y-14989447D01*
X24822483Y-14865683D01*
X24946247Y-14764113D01*
X24946246Y-14764113D01*
X24946248Y-14764112D01*
X25053845Y-14706600D01*
X25087449Y-14688638D01*
X25138521Y-14673146D01*
X25240663Y-14642161D01*
X25320272Y-14634320D01*
X25360076Y-14630400D01*
X25439924Y-14630400D01*
X25479728Y-14634320D01*
X25479728Y-14634320D01*
G37*
G36*
X24209728Y-13084920D02*
X24289337Y-13092761D01*
X24391479Y-13123746D01*
X24442551Y-13139238D01*
X24518025Y-13179580D01*
X24583752Y-13214712D01*
X24583754Y-13214713D01*
X24583753Y-13214713D01*
X24707517Y-13316283D01*
X24809087Y-13440047D01*
X24884562Y-13581249D01*
X24884562Y-13581250D01*
X24931039Y-13734463D01*
X24946732Y-13893800D01*
X24931039Y-14053137D01*
X24900054Y-14155279D01*
X24884562Y-14206351D01*
X24844220Y-14281825D01*
X24809088Y-14347552D01*
X24707517Y-14471317D01*
X24583752Y-14572888D01*
X24518025Y-14608020D01*
X24442551Y-14648362D01*
X24391479Y-14663854D01*
X24289337Y-14694839D01*
X24209728Y-14702680D01*
X24169924Y-14706600D01*
X24090076Y-14706600D01*
X24050272Y-14702680D01*
X23970663Y-14694839D01*
X23868521Y-14663854D01*
X23817449Y-14648362D01*
X23741975Y-14608020D01*
X23676248Y-14572888D01*
X23552483Y-14471317D01*
X23450912Y-14347552D01*
X23415780Y-14281825D01*
X23375438Y-14206351D01*
X23359946Y-14155279D01*
X23328961Y-14053137D01*
X23313268Y-13893800D01*
X23328961Y-13734463D01*
X23375438Y-13581250D01*
X23375438Y-13581249D01*
X23450913Y-13440047D01*
X23552483Y-13316283D01*
X23676247Y-13214713D01*
X23676246Y-13214713D01*
X23676248Y-13214712D01*
X23741975Y-13179580D01*
X23817449Y-13139238D01*
X23868521Y-13123746D01*
X23970663Y-13092761D01*
X24050272Y-13084920D01*
X24090076Y-13081000D01*
X24169924Y-13081000D01*
X24209728Y-13084920D01*
X24209728Y-13084920D01*
G37*
G36*
X29289728Y-13084920D02*
X29369337Y-13092761D01*
X29471479Y-13123746D01*
X29522551Y-13139238D01*
X29598025Y-13179580D01*
X29663752Y-13214712D01*
X29663754Y-13214713D01*
X29663753Y-13214713D01*
X29787517Y-13316283D01*
X29889087Y-13440047D01*
X29964562Y-13581249D01*
X29964562Y-13581250D01*
X30011039Y-13734463D01*
X30026732Y-13893800D01*
X30011039Y-14053137D01*
X29980054Y-14155279D01*
X29964562Y-14206351D01*
X29924220Y-14281825D01*
X29889088Y-14347552D01*
X29787517Y-14471317D01*
X29663752Y-14572888D01*
X29598025Y-14608020D01*
X29522551Y-14648362D01*
X29471479Y-14663854D01*
X29369337Y-14694839D01*
X29289728Y-14702680D01*
X29249924Y-14706600D01*
X29170076Y-14706600D01*
X29130272Y-14702680D01*
X29050663Y-14694839D01*
X28948521Y-14663854D01*
X28897449Y-14648362D01*
X28821975Y-14608020D01*
X28756248Y-14572888D01*
X28632483Y-14471317D01*
X28530912Y-14347552D01*
X28495780Y-14281825D01*
X28455438Y-14206351D01*
X28439946Y-14155279D01*
X28408961Y-14053137D01*
X28393268Y-13893800D01*
X28408961Y-13734463D01*
X28455438Y-13581250D01*
X28455438Y-13581249D01*
X28530913Y-13440047D01*
X28632483Y-13316283D01*
X28756247Y-13214713D01*
X28756246Y-13214713D01*
X28756248Y-13214712D01*
X28821975Y-13179580D01*
X28897449Y-13139238D01*
X28948521Y-13123746D01*
X29050663Y-13092761D01*
X29130272Y-13084920D01*
X29170076Y-13081000D01*
X29249924Y-13081000D01*
X29289728Y-13084920D01*
X29289728Y-13084920D01*
G37*
G36*
X26749728Y-13084920D02*
X26829337Y-13092761D01*
X26931479Y-13123746D01*
X26982551Y-13139238D01*
X27058025Y-13179580D01*
X27123752Y-13214712D01*
X27123754Y-13214713D01*
X27123753Y-13214713D01*
X27247517Y-13316283D01*
X27349087Y-13440047D01*
X27424562Y-13581249D01*
X27424562Y-13581250D01*
X27471039Y-13734463D01*
X27486732Y-13893800D01*
X27471039Y-14053137D01*
X27440054Y-14155279D01*
X27424562Y-14206351D01*
X27384220Y-14281825D01*
X27349088Y-14347552D01*
X27247517Y-14471317D01*
X27123752Y-14572888D01*
X27058025Y-14608020D01*
X26982551Y-14648362D01*
X26931479Y-14663854D01*
X26829337Y-14694839D01*
X26749728Y-14702680D01*
X26709924Y-14706600D01*
X26630076Y-14706600D01*
X26590272Y-14702680D01*
X26510663Y-14694839D01*
X26408521Y-14663854D01*
X26357449Y-14648362D01*
X26281975Y-14608020D01*
X26216248Y-14572888D01*
X26092483Y-14471317D01*
X25990912Y-14347552D01*
X25955780Y-14281825D01*
X25915438Y-14206351D01*
X25899946Y-14155279D01*
X25868961Y-14053137D01*
X25853268Y-13893800D01*
X25868961Y-13734463D01*
X25915438Y-13581250D01*
X25915438Y-13581249D01*
X25990913Y-13440047D01*
X26092483Y-13316283D01*
X26216247Y-13214713D01*
X26216246Y-13214713D01*
X26216248Y-13214712D01*
X26281975Y-13179580D01*
X26357449Y-13139238D01*
X26408521Y-13123746D01*
X26510663Y-13092761D01*
X26590272Y-13084920D01*
X26630076Y-13081000D01*
X26709924Y-13081000D01*
X26749728Y-13084920D01*
X26749728Y-13084920D01*
G37*
G36*
X31829728Y-13084920D02*
X31909337Y-13092761D01*
X32011479Y-13123746D01*
X32062551Y-13139238D01*
X32138025Y-13179580D01*
X32203752Y-13214712D01*
X32203754Y-13214713D01*
X32203753Y-13214713D01*
X32327517Y-13316283D01*
X32429087Y-13440047D01*
X32504562Y-13581249D01*
X32504562Y-13581250D01*
X32551039Y-13734463D01*
X32566732Y-13893800D01*
X32551039Y-14053137D01*
X32520054Y-14155279D01*
X32504562Y-14206351D01*
X32464220Y-14281825D01*
X32429088Y-14347552D01*
X32327517Y-14471317D01*
X32203752Y-14572888D01*
X32138025Y-14608020D01*
X32062551Y-14648362D01*
X32011479Y-14663854D01*
X31909337Y-14694839D01*
X31829728Y-14702680D01*
X31789924Y-14706600D01*
X31710076Y-14706600D01*
X31670272Y-14702680D01*
X31590663Y-14694839D01*
X31488521Y-14663854D01*
X31437449Y-14648362D01*
X31361975Y-14608020D01*
X31296248Y-14572888D01*
X31172483Y-14471317D01*
X31070912Y-14347552D01*
X31035780Y-14281825D01*
X30995438Y-14206351D01*
X30979946Y-14155279D01*
X30948961Y-14053137D01*
X30933268Y-13893800D01*
X30948961Y-13734463D01*
X30995438Y-13581250D01*
X30995438Y-13581249D01*
X31070913Y-13440047D01*
X31172483Y-13316283D01*
X31296247Y-13214713D01*
X31296246Y-13214713D01*
X31296248Y-13214712D01*
X31361975Y-13179580D01*
X31437449Y-13139238D01*
X31488521Y-13123746D01*
X31590663Y-13092761D01*
X31670272Y-13084920D01*
X31710076Y-13081000D01*
X31789924Y-13081000D01*
X31829728Y-13084920D01*
X31829728Y-13084920D01*
G37*
M02*
