M48
; DRILL file {KiCad (5.1.2)-1} date 5/24/2019 6:20:00 PM
; FORMAT={-:-/ absolute / inch / decimal}
; #@! TF.CreationDate,2019-05-24T18:20:00-07:00
; #@! TF.GenerationSoftware,Kicad,Pcbnew,(5.1.2)-1
FMAT,2
INCH
T1C0.0276
T2C0.0315
T3C0.0394
T4C0.1181
%
G90
G05
T1
X1.0Y-1.6
X1.0Y-1.8
X1.2Y-1.8
X1.0Y-1.2
X1.2Y-1.2
X1.0Y-1.4
X1.2Y-1.4
X1.2Y-1.6
T2
X0.8Y-0.95
X0.8Y-1.05
X0.8Y-1.15
X0.8Y-1.25
X0.8Y-1.35
X0.8Y-1.45
X0.8Y-1.55
X0.8Y-1.65
X0.8Y-1.75
X0.8Y-1.85
X0.8Y-1.95
X0.8Y-2.05
X0.8Y-2.15
X0.8Y-2.25
X0.8Y-2.35
X1.4Y-0.95
X1.4Y-1.05
X1.4Y-1.15
X1.4Y-1.25
X1.4Y-1.35
X1.4Y-1.45
X1.4Y-1.55
X1.4Y-1.65
X1.4Y-1.75
X1.4Y-1.85
X1.4Y-1.95
X1.4Y-2.05
X1.4Y-2.15
X1.4Y-2.25
X1.4Y-2.35
T3
X1.0Y-0.6
X1.05Y-0.555
X1.1Y-0.6
X1.15Y-0.555
X1.2Y-0.6
X0.95Y-0.555
X1.25Y-0.555
T4
X0.875Y-0.725
X1.36Y-2.5
X0.84Y-2.5
X1.325Y-0.725
T0
M30
