G04 #@! TF.GenerationSoftware,KiCad,Pcbnew,(5.0.1)-3*
G04 #@! TF.CreationDate,2018-11-02T11:31:53-07:00*
G04 #@! TF.ProjectId,SMOL,534D4F4C2E6B696361645F7063620000,rev?*
G04 #@! TF.SameCoordinates,Original*
G04 #@! TF.FileFunction,Soldermask,Bot*
G04 #@! TF.FilePolarity,Negative*
%FSLAX46Y46*%
G04 Gerber Fmt 4.6, Leading zero omitted, Abs format (unit mm)*
G04 Created by KiCad (PCBNEW (5.0.1)-3) date 11/2/2018 11:31:53 AM*
%MOMM*%
%LPD*%
G01*
G04 APERTURE LIST*
%ADD10C,0.304800*%
G04 APERTURE END LIST*
D10*
G36*
X103096598Y-96666373D02*
X104030344Y-97053143D01*
X104030345Y-97053144D01*
X104870695Y-97614647D01*
X105585353Y-98329305D01*
X105959688Y-98889538D01*
X106146857Y-99169656D01*
X106533627Y-100103402D01*
X106730800Y-101094659D01*
X106730800Y-102105341D01*
X106533627Y-103096598D01*
X106146857Y-104030344D01*
X106146856Y-104030345D01*
X105585353Y-104870695D01*
X104870695Y-105585353D01*
X104310462Y-105959688D01*
X104030344Y-106146857D01*
X103096598Y-106533627D01*
X102105341Y-106730800D01*
X101094659Y-106730800D01*
X100103402Y-106533627D01*
X99169656Y-106146857D01*
X98889538Y-105959688D01*
X98329305Y-105585353D01*
X97614647Y-104870695D01*
X97053144Y-104030345D01*
X97053143Y-104030344D01*
X96666373Y-103096598D01*
X96469200Y-102105341D01*
X96469200Y-101094659D01*
X96666373Y-100103402D01*
X97053143Y-99169656D01*
X97240312Y-98889538D01*
X97614647Y-98329305D01*
X98329305Y-97614647D01*
X99169655Y-97053144D01*
X99169656Y-97053143D01*
X100103402Y-96666373D01*
X101094659Y-96469200D01*
X102105341Y-96469200D01*
X103096598Y-96666373D01*
X103096598Y-96666373D01*
G37*
M02*
