G04 #@! TF.FileFunction,Copper,L1,Top,Signal*
%FSLAX46Y46*%
G04 Gerber Fmt 4.6, Leading zero omitted, Abs format (unit mm)*
G04 Created by KiCad (PCBNEW 4.0.6) date 07/21/18 19:11:10*
%MOMM*%
%LPD*%
G01*
G04 APERTURE LIST*
%ADD10C,0.304800*%
%ADD11R,0.900000X1.200000*%
%ADD12R,1.200000X0.900000*%
%ADD13C,3.000000*%
%ADD14R,1.270000X3.810000*%
%ADD15R,1.000000X0.700000*%
%ADD16R,0.400000X0.710000*%
%ADD17O,1.016000X0.762000*%
%ADD18C,0.609600*%
%ADD19C,0.254000*%
%ADD20C,0.406400*%
%ADD21C,0.203200*%
G04 APERTURE END LIST*
D10*
D11*
X99060000Y-97071000D03*
X99060000Y-99271000D03*
D12*
X100287000Y-106426000D03*
X98087000Y-106426000D03*
X103208000Y-95885000D03*
X101008000Y-95885000D03*
D11*
X105156000Y-96944000D03*
X105156000Y-99144000D03*
X105156000Y-101008000D03*
X105156000Y-103208000D03*
X103632000Y-103970000D03*
X103632000Y-101770000D03*
D13*
X96393000Y-98298000D03*
D14*
X106934000Y-101600000D03*
D15*
X100808000Y-97475000D03*
X100808000Y-98425000D03*
X100808000Y-99375000D03*
X103408000Y-99375000D03*
X103408000Y-97475000D03*
X103408000Y-98425000D03*
D16*
X102862000Y-106570000D03*
X101862000Y-106570000D03*
X102362000Y-108060000D03*
D15*
X98903000Y-101869200D03*
X98903000Y-102819200D03*
X98903000Y-103769200D03*
X101503000Y-103769200D03*
X101503000Y-101869200D03*
X101503000Y-102819200D03*
D17*
X97028000Y-100838000D03*
X97028000Y-101854000D03*
X97028000Y-102870000D03*
X97028000Y-103886000D03*
X97028000Y-104902000D03*
D18*
X101727000Y-108000800D03*
D19*
X99060000Y-97071000D02*
X97108750Y-97071000D01*
X97108750Y-97071000D02*
X97126350Y-97053400D01*
X97126350Y-97053400D02*
X97205800Y-97053400D01*
X97205800Y-97053400D02*
X96393000Y-98298000D01*
X103408000Y-97475000D02*
X102616000Y-97536000D01*
X101473000Y-99314000D02*
X100808000Y-99375000D01*
X101600000Y-99314000D02*
X101473000Y-99314000D01*
X101727000Y-99187000D02*
X101600000Y-99314000D01*
X101981000Y-98679000D02*
X101727000Y-99187000D01*
X102108000Y-98171000D02*
X101981000Y-98679000D01*
X102235000Y-97790000D02*
X102108000Y-98171000D01*
X102616000Y-97536000D02*
X102235000Y-97790000D01*
X102623103Y-95221812D02*
X102870000Y-95377000D01*
X102870000Y-95377000D02*
X103208000Y-95885000D01*
X96393000Y-98298000D02*
X97282000Y-96774000D01*
X101727000Y-94996000D02*
X102623103Y-95221812D01*
X102623103Y-95221812D02*
X102642997Y-95226825D01*
X100584000Y-94996000D02*
X101727000Y-94996000D01*
X99702907Y-95122506D02*
X100584000Y-94996000D01*
X99314000Y-95250000D02*
X99702907Y-95122506D01*
X98552000Y-95631000D02*
X99314000Y-95250000D01*
X97790000Y-96139000D02*
X98552000Y-95631000D01*
X97282000Y-96774000D02*
X97790000Y-96139000D01*
X103408000Y-97475000D02*
X103208000Y-95885000D01*
X95732600Y-102336600D02*
X95808800Y-101295200D01*
X95808800Y-104724200D02*
X96037400Y-105181400D01*
X96037400Y-105181400D02*
X96596200Y-105867200D01*
X96596200Y-105867200D02*
X97205800Y-106400600D01*
X98087000Y-106426000D02*
X97205800Y-106400600D01*
X95732600Y-102336600D02*
X95808800Y-104724200D01*
X96113600Y-100888800D02*
X97028000Y-100838000D01*
X95808800Y-101295200D02*
X96113600Y-100888800D01*
X97028000Y-100838000D02*
X98653600Y-100787200D01*
X99618800Y-102717600D02*
X98903000Y-102819200D01*
X99618800Y-102717600D02*
X99974400Y-102158800D01*
X100076000Y-101803200D02*
X99974400Y-102158800D01*
X99974400Y-100939600D02*
X100076000Y-101803200D01*
X98653600Y-100787200D02*
X99974400Y-100939600D01*
X103987600Y-106984800D02*
X104343200Y-106222800D01*
X102260400Y-107238800D02*
X102971600Y-107289600D01*
X102971600Y-107289600D02*
X103479600Y-107340400D01*
X103479600Y-107340400D02*
X103987600Y-106984800D01*
X101862000Y-106570000D02*
X102260400Y-107238800D01*
X105359200Y-105206800D02*
X105156000Y-103208000D01*
X104343200Y-106222800D02*
X105359200Y-105206800D01*
X100808000Y-98425000D02*
X99568000Y-98552000D01*
X99568000Y-98552000D02*
X99060000Y-99271000D01*
X98087000Y-106426000D02*
X99009200Y-107391200D01*
X99009200Y-107391200D02*
X99644200Y-107619800D01*
X99644200Y-107619800D02*
X100431600Y-107594400D01*
X100431600Y-107594400D02*
X101320600Y-107340400D01*
X101320600Y-107340400D02*
X101625400Y-107061000D01*
X101625400Y-107061000D02*
X101862000Y-106570000D01*
X101503000Y-102819200D02*
X102260400Y-102768400D01*
X102311200Y-99618800D02*
X102463600Y-98958400D01*
X102463600Y-98958400D02*
X102692200Y-98628200D01*
X102692200Y-98628200D02*
X103408000Y-98425000D01*
X102412800Y-100685600D02*
X102311200Y-99618800D01*
X102565200Y-101447600D02*
X102412800Y-100685600D01*
X102616000Y-102108000D02*
X102565200Y-101447600D01*
X102514400Y-102565200D02*
X102616000Y-102108000D01*
X102260400Y-102768400D02*
X102514400Y-102565200D01*
X101503000Y-102819200D02*
X100711000Y-102997000D01*
X100330000Y-105664000D02*
X100287000Y-106426000D01*
X100457000Y-104648000D02*
X100330000Y-105664000D01*
X100457000Y-103505000D02*
X100457000Y-104648000D01*
X100711000Y-102997000D02*
X100457000Y-103505000D01*
X100287000Y-106426000D02*
X99441000Y-105791000D01*
X97536000Y-105410000D02*
X97028000Y-104902000D01*
X97917000Y-105537000D02*
X97536000Y-105410000D01*
X98298000Y-105537000D02*
X97917000Y-105537000D01*
X98933000Y-105537000D02*
X98298000Y-105537000D01*
X99441000Y-105791000D02*
X98933000Y-105537000D01*
X105156000Y-96944000D02*
X104873688Y-97757181D01*
X104394000Y-98171000D02*
X103408000Y-98425000D01*
X104873688Y-97757181D02*
X104394000Y-98171000D01*
X100808000Y-97475000D02*
X101008000Y-95885000D01*
X101549200Y-104394000D02*
X101503000Y-103769200D01*
X101752400Y-104749600D02*
X101549200Y-104394000D01*
X101955600Y-104952800D02*
X101752400Y-104749600D01*
X102311200Y-105105200D02*
X101955600Y-104952800D01*
X102666800Y-105714800D02*
X102311200Y-105105200D01*
X102862000Y-106570000D02*
X102666800Y-105714800D01*
X102971600Y-102768400D02*
X103632000Y-101770000D01*
X102616000Y-103225600D02*
X102971600Y-102768400D01*
X102412800Y-103479600D02*
X102616000Y-103225600D01*
X101503000Y-103769200D02*
X102412800Y-103479600D01*
D20*
X102362000Y-108060000D02*
X101727000Y-108000800D01*
D19*
X105156000Y-99144000D02*
X105156000Y-101008000D01*
X103408000Y-99375000D02*
X105156000Y-99144000D01*
X98903000Y-101869200D02*
X97028000Y-101854000D01*
X98903000Y-103769200D02*
X98171000Y-103632000D01*
X97663000Y-103251000D02*
X97028000Y-102870000D01*
X97917000Y-103505000D02*
X97663000Y-103251000D01*
X98171000Y-103632000D02*
X97917000Y-103505000D01*
X100380800Y-102565200D02*
X100685600Y-102158800D01*
X99974400Y-103428800D02*
X100228400Y-102870000D01*
X100228400Y-102870000D02*
X100380800Y-102565200D01*
X97790000Y-104394000D02*
X98044000Y-104775000D01*
X98044000Y-104775000D02*
X98425000Y-104902000D01*
X97028000Y-103886000D02*
X97790000Y-104394000D01*
X98933000Y-104902000D02*
X98425000Y-104902000D01*
X99441000Y-104775000D02*
X98933000Y-104902000D01*
X99695000Y-104648000D02*
X99441000Y-104775000D01*
X99949000Y-104140000D02*
X99695000Y-104648000D01*
X99949000Y-104140000D02*
X99974400Y-103428800D01*
X100888800Y-101955600D02*
X101503000Y-101869200D01*
X100685600Y-102158800D02*
X100888800Y-101955600D01*
D21*
G36*
X99352855Y-107201038D02*
X99505639Y-107305430D01*
X99687000Y-107342157D01*
X100887000Y-107342157D01*
X101056428Y-107310277D01*
X101139594Y-107256762D01*
X101145206Y-107270311D01*
X101262597Y-107387702D01*
X101081385Y-107568598D01*
X100965133Y-107848564D01*
X100964899Y-108116258D01*
X98670010Y-107493398D01*
X98659915Y-107485600D01*
X98808257Y-107485600D01*
X99032311Y-107392794D01*
X99203794Y-107221311D01*
X99267278Y-107068047D01*
X99352855Y-107201038D01*
X99352855Y-107201038D01*
G37*
X99352855Y-107201038D02*
X99505639Y-107305430D01*
X99687000Y-107342157D01*
X100887000Y-107342157D01*
X101056428Y-107310277D01*
X101139594Y-107256762D01*
X101145206Y-107270311D01*
X101262597Y-107387702D01*
X101081385Y-107568598D01*
X100965133Y-107848564D01*
X100964899Y-108116258D01*
X98670010Y-107493398D01*
X98659915Y-107485600D01*
X98808257Y-107485600D01*
X99032311Y-107392794D01*
X99203794Y-107221311D01*
X99267278Y-107068047D01*
X99352855Y-107201038D01*
G36*
X106586536Y-97298978D02*
X107449193Y-98593213D01*
X107449193Y-99085400D01*
X107238800Y-99085400D01*
X107086400Y-99237800D01*
X107086400Y-101447600D01*
X107106400Y-101447600D01*
X107106400Y-101752400D01*
X107086400Y-101752400D01*
X107086400Y-103962200D01*
X107238800Y-104114600D01*
X107449193Y-104114600D01*
X107449193Y-104587216D01*
X105923532Y-106562263D01*
X103695443Y-107839078D01*
X103028157Y-107924738D01*
X103028157Y-107705000D01*
X102996277Y-107535572D01*
X102903349Y-107391157D01*
X103062000Y-107391157D01*
X103231428Y-107359277D01*
X103387038Y-107259145D01*
X103491430Y-107106361D01*
X103528157Y-106925000D01*
X103528157Y-106215000D01*
X103496277Y-106045572D01*
X103396145Y-105889962D01*
X103289350Y-105816993D01*
X103236352Y-105584799D01*
X103200227Y-105504069D01*
X103171420Y-105420438D01*
X103021433Y-105163317D01*
X103060743Y-105179600D01*
X103327200Y-105179600D01*
X103479600Y-105027200D01*
X103479600Y-104122400D01*
X103459600Y-104122400D01*
X103459600Y-103817600D01*
X103479600Y-103817600D01*
X103479600Y-103797600D01*
X103784400Y-103797600D01*
X103784400Y-103817600D01*
X103804400Y-103817600D01*
X103804400Y-104122400D01*
X103784400Y-104122400D01*
X103784400Y-105027200D01*
X103936800Y-105179600D01*
X104203257Y-105179600D01*
X104427311Y-105086794D01*
X104598794Y-104915311D01*
X104691600Y-104691257D01*
X104691600Y-104417600D01*
X104851200Y-104417600D01*
X105003600Y-104265200D01*
X105003600Y-103360400D01*
X104983600Y-103360400D01*
X104983600Y-103055600D01*
X105003600Y-103055600D01*
X105003600Y-103035600D01*
X105308400Y-103035600D01*
X105308400Y-103055600D01*
X105328400Y-103055600D01*
X105328400Y-103360400D01*
X105308400Y-103360400D01*
X105308400Y-104265200D01*
X105460800Y-104417600D01*
X105727257Y-104417600D01*
X105951311Y-104324794D01*
X106122794Y-104153311D01*
X106144527Y-104100842D01*
X106177743Y-104114600D01*
X106629200Y-104114600D01*
X106781600Y-103962200D01*
X106781600Y-101752400D01*
X106761600Y-101752400D01*
X106761600Y-101447600D01*
X106781600Y-101447600D01*
X106781600Y-99237800D01*
X106629200Y-99085400D01*
X106177743Y-99085400D01*
X106072157Y-99129135D01*
X106072157Y-98544000D01*
X106040277Y-98374572D01*
X105940145Y-98218962D01*
X105787361Y-98114570D01*
X105606000Y-98077843D01*
X105350244Y-98077843D01*
X105395521Y-98019820D01*
X105398195Y-98010157D01*
X105606000Y-98010157D01*
X105775428Y-97978277D01*
X105931038Y-97878145D01*
X106035430Y-97725361D01*
X106072157Y-97544000D01*
X106072157Y-96899768D01*
X106586536Y-97298978D01*
X106586536Y-97298978D01*
G37*
X106586536Y-97298978D02*
X107449193Y-98593213D01*
X107449193Y-99085400D01*
X107238800Y-99085400D01*
X107086400Y-99237800D01*
X107086400Y-101447600D01*
X107106400Y-101447600D01*
X107106400Y-101752400D01*
X107086400Y-101752400D01*
X107086400Y-103962200D01*
X107238800Y-104114600D01*
X107449193Y-104114600D01*
X107449193Y-104587216D01*
X105923532Y-106562263D01*
X103695443Y-107839078D01*
X103028157Y-107924738D01*
X103028157Y-107705000D01*
X102996277Y-107535572D01*
X102903349Y-107391157D01*
X103062000Y-107391157D01*
X103231428Y-107359277D01*
X103387038Y-107259145D01*
X103491430Y-107106361D01*
X103528157Y-106925000D01*
X103528157Y-106215000D01*
X103496277Y-106045572D01*
X103396145Y-105889962D01*
X103289350Y-105816993D01*
X103236352Y-105584799D01*
X103200227Y-105504069D01*
X103171420Y-105420438D01*
X103021433Y-105163317D01*
X103060743Y-105179600D01*
X103327200Y-105179600D01*
X103479600Y-105027200D01*
X103479600Y-104122400D01*
X103459600Y-104122400D01*
X103459600Y-103817600D01*
X103479600Y-103817600D01*
X103479600Y-103797600D01*
X103784400Y-103797600D01*
X103784400Y-103817600D01*
X103804400Y-103817600D01*
X103804400Y-104122400D01*
X103784400Y-104122400D01*
X103784400Y-105027200D01*
X103936800Y-105179600D01*
X104203257Y-105179600D01*
X104427311Y-105086794D01*
X104598794Y-104915311D01*
X104691600Y-104691257D01*
X104691600Y-104417600D01*
X104851200Y-104417600D01*
X105003600Y-104265200D01*
X105003600Y-103360400D01*
X104983600Y-103360400D01*
X104983600Y-103055600D01*
X105003600Y-103055600D01*
X105003600Y-103035600D01*
X105308400Y-103035600D01*
X105308400Y-103055600D01*
X105328400Y-103055600D01*
X105328400Y-103360400D01*
X105308400Y-103360400D01*
X105308400Y-104265200D01*
X105460800Y-104417600D01*
X105727257Y-104417600D01*
X105951311Y-104324794D01*
X106122794Y-104153311D01*
X106144527Y-104100842D01*
X106177743Y-104114600D01*
X106629200Y-104114600D01*
X106781600Y-103962200D01*
X106781600Y-101752400D01*
X106761600Y-101752400D01*
X106761600Y-101447600D01*
X106781600Y-101447600D01*
X106781600Y-99237800D01*
X106629200Y-99085400D01*
X106177743Y-99085400D01*
X106072157Y-99129135D01*
X106072157Y-98544000D01*
X106040277Y-98374572D01*
X105940145Y-98218962D01*
X105787361Y-98114570D01*
X105606000Y-98077843D01*
X105350244Y-98077843D01*
X105395521Y-98019820D01*
X105398195Y-98010157D01*
X105606000Y-98010157D01*
X105775428Y-97978277D01*
X105931038Y-97878145D01*
X106035430Y-97725361D01*
X106072157Y-97544000D01*
X106072157Y-96899768D01*
X106586536Y-97298978D01*
G36*
X101037023Y-104669049D02*
X101041972Y-104683844D01*
X101245173Y-105039445D01*
X101296141Y-105098087D01*
X101339308Y-105162692D01*
X101542508Y-105365892D01*
X101634341Y-105427253D01*
X101725472Y-105489765D01*
X101903774Y-105566180D01*
X101995823Y-105723977D01*
X101962000Y-105757800D01*
X101962000Y-106417600D01*
X102034400Y-106417600D01*
X102034400Y-106722400D01*
X101962000Y-106722400D01*
X101962000Y-106742400D01*
X101762000Y-106742400D01*
X101762000Y-106722400D01*
X101689600Y-106722400D01*
X101689600Y-106417600D01*
X101762000Y-106417600D01*
X101762000Y-105757800D01*
X101609600Y-105605400D01*
X101540743Y-105605400D01*
X101316689Y-105698206D01*
X101277052Y-105737843D01*
X101221145Y-105650962D01*
X101068361Y-105546570D01*
X100936757Y-105519919D01*
X101036689Y-104720461D01*
X101034054Y-104683925D01*
X101037015Y-104669039D01*
X101037023Y-104669049D01*
X101037023Y-104669049D01*
G37*
X101037023Y-104669049D02*
X101041972Y-104683844D01*
X101245173Y-105039445D01*
X101296141Y-105098087D01*
X101339308Y-105162692D01*
X101542508Y-105365892D01*
X101634341Y-105427253D01*
X101725472Y-105489765D01*
X101903774Y-105566180D01*
X101995823Y-105723977D01*
X101962000Y-105757800D01*
X101962000Y-106417600D01*
X102034400Y-106417600D01*
X102034400Y-106722400D01*
X101962000Y-106722400D01*
X101962000Y-106742400D01*
X101762000Y-106742400D01*
X101762000Y-106722400D01*
X101689600Y-106722400D01*
X101689600Y-106417600D01*
X101762000Y-106417600D01*
X101762000Y-105757800D01*
X101609600Y-105605400D01*
X101540743Y-105605400D01*
X101316689Y-105698206D01*
X101277052Y-105737843D01*
X101221145Y-105650962D01*
X101068361Y-105546570D01*
X100936757Y-105519919D01*
X101036689Y-104720461D01*
X101034054Y-104683925D01*
X101037015Y-104669039D01*
X101037023Y-104669049D01*
G36*
X98239400Y-106273600D02*
X98259400Y-106273600D01*
X98259400Y-106578400D01*
X98239400Y-106578400D01*
X98239400Y-106598400D01*
X97934600Y-106598400D01*
X97934600Y-106578400D01*
X97914600Y-106578400D01*
X97914600Y-106273600D01*
X97934600Y-106273600D01*
X97934600Y-106253600D01*
X98239400Y-106253600D01*
X98239400Y-106273600D01*
X98239400Y-106273600D01*
G37*
X98239400Y-106273600D02*
X98259400Y-106273600D01*
X98259400Y-106578400D01*
X98239400Y-106578400D01*
X98239400Y-106598400D01*
X97934600Y-106598400D01*
X97934600Y-106578400D01*
X97914600Y-106578400D01*
X97914600Y-106273600D01*
X97934600Y-106273600D01*
X97934600Y-106253600D01*
X98239400Y-106253600D01*
X98239400Y-106273600D01*
G36*
X96561326Y-105676396D02*
X96882091Y-105740200D01*
X96924845Y-105740200D01*
X96877400Y-105854743D01*
X96877400Y-106108664D01*
X96623243Y-105912336D01*
X96387333Y-105560138D01*
X96561326Y-105676396D01*
X96561326Y-105676396D01*
G37*
X96561326Y-105676396D02*
X96882091Y-105740200D01*
X96924845Y-105740200D01*
X96877400Y-105854743D01*
X96877400Y-106108664D01*
X96623243Y-105912336D01*
X96387333Y-105560138D01*
X96561326Y-105676396D01*
G36*
X99212400Y-99118600D02*
X99232400Y-99118600D01*
X99232400Y-99423400D01*
X99212400Y-99423400D01*
X99212400Y-100328200D01*
X99364800Y-100480600D01*
X99631257Y-100480600D01*
X99855311Y-100387794D01*
X100026794Y-100216311D01*
X100068796Y-100114908D01*
X100126639Y-100154430D01*
X100308000Y-100191157D01*
X101308000Y-100191157D01*
X101477428Y-100159277D01*
X101633038Y-100059145D01*
X101737430Y-99906361D01*
X101744920Y-99869373D01*
X101748160Y-99868729D01*
X101831232Y-100740987D01*
X101839913Y-100769942D01*
X101839945Y-100800171D01*
X101890519Y-101053043D01*
X101003000Y-101053043D01*
X100833572Y-101084923D01*
X100677962Y-101185055D01*
X100573570Y-101337839D01*
X100541163Y-101497867D01*
X100537130Y-101501467D01*
X100475708Y-101542508D01*
X100272508Y-101745708D01*
X100249318Y-101780415D01*
X100218240Y-101808280D01*
X99941760Y-102176920D01*
X99919794Y-102123889D01*
X99869157Y-102073252D01*
X99869157Y-101519200D01*
X99837277Y-101349772D01*
X99737145Y-101194162D01*
X99584361Y-101089770D01*
X99403000Y-101053043D01*
X98403000Y-101053043D01*
X98233572Y-101084923D01*
X98077962Y-101185055D01*
X98071664Y-101194273D01*
X98097916Y-101141643D01*
X97979229Y-100990400D01*
X97180400Y-100990400D01*
X97180400Y-101010400D01*
X96875600Y-101010400D01*
X96875600Y-100990400D01*
X96076771Y-100990400D01*
X95958084Y-101141643D01*
X96086238Y-101398563D01*
X96153768Y-101464283D01*
X96107695Y-101533235D01*
X96043891Y-101854000D01*
X96107695Y-102174765D01*
X96232801Y-102362000D01*
X96107695Y-102549235D01*
X96043891Y-102870000D01*
X96107695Y-103190765D01*
X96232801Y-103378000D01*
X96107695Y-103565235D01*
X96043891Y-103886000D01*
X96107695Y-104206765D01*
X96232801Y-104394000D01*
X96107695Y-104581235D01*
X96043891Y-104902000D01*
X96085030Y-105108818D01*
X95758000Y-104620585D01*
X95758000Y-100153550D01*
X96001981Y-100254860D01*
X96109341Y-100254954D01*
X96086238Y-100277437D01*
X95958084Y-100534357D01*
X96076771Y-100685600D01*
X96875600Y-100685600D01*
X96875600Y-100665600D01*
X97180400Y-100665600D01*
X97180400Y-100685600D01*
X97979229Y-100685600D01*
X98097916Y-100534357D01*
X97969762Y-100277437D01*
X97693224Y-100008311D01*
X97519392Y-99939059D01*
X98035949Y-99423402D01*
X98152798Y-99423402D01*
X98000400Y-99575800D01*
X98000400Y-99992257D01*
X98093206Y-100216311D01*
X98264689Y-100387794D01*
X98488743Y-100480600D01*
X98755200Y-100480600D01*
X98907600Y-100328200D01*
X98907600Y-99423400D01*
X98887600Y-99423400D01*
X98887600Y-99118600D01*
X98907600Y-99118600D01*
X98907600Y-99098600D01*
X99212400Y-99098600D01*
X99212400Y-99118600D01*
X99212400Y-99118600D01*
G37*
X99212400Y-99118600D02*
X99232400Y-99118600D01*
X99232400Y-99423400D01*
X99212400Y-99423400D01*
X99212400Y-100328200D01*
X99364800Y-100480600D01*
X99631257Y-100480600D01*
X99855311Y-100387794D01*
X100026794Y-100216311D01*
X100068796Y-100114908D01*
X100126639Y-100154430D01*
X100308000Y-100191157D01*
X101308000Y-100191157D01*
X101477428Y-100159277D01*
X101633038Y-100059145D01*
X101737430Y-99906361D01*
X101744920Y-99869373D01*
X101748160Y-99868729D01*
X101831232Y-100740987D01*
X101839913Y-100769942D01*
X101839945Y-100800171D01*
X101890519Y-101053043D01*
X101003000Y-101053043D01*
X100833572Y-101084923D01*
X100677962Y-101185055D01*
X100573570Y-101337839D01*
X100541163Y-101497867D01*
X100537130Y-101501467D01*
X100475708Y-101542508D01*
X100272508Y-101745708D01*
X100249318Y-101780415D01*
X100218240Y-101808280D01*
X99941760Y-102176920D01*
X99919794Y-102123889D01*
X99869157Y-102073252D01*
X99869157Y-101519200D01*
X99837277Y-101349772D01*
X99737145Y-101194162D01*
X99584361Y-101089770D01*
X99403000Y-101053043D01*
X98403000Y-101053043D01*
X98233572Y-101084923D01*
X98077962Y-101185055D01*
X98071664Y-101194273D01*
X98097916Y-101141643D01*
X97979229Y-100990400D01*
X97180400Y-100990400D01*
X97180400Y-101010400D01*
X96875600Y-101010400D01*
X96875600Y-100990400D01*
X96076771Y-100990400D01*
X95958084Y-101141643D01*
X96086238Y-101398563D01*
X96153768Y-101464283D01*
X96107695Y-101533235D01*
X96043891Y-101854000D01*
X96107695Y-102174765D01*
X96232801Y-102362000D01*
X96107695Y-102549235D01*
X96043891Y-102870000D01*
X96107695Y-103190765D01*
X96232801Y-103378000D01*
X96107695Y-103565235D01*
X96043891Y-103886000D01*
X96107695Y-104206765D01*
X96232801Y-104394000D01*
X96107695Y-104581235D01*
X96043891Y-104902000D01*
X96085030Y-105108818D01*
X95758000Y-104620585D01*
X95758000Y-100153550D01*
X96001981Y-100254860D01*
X96109341Y-100254954D01*
X96086238Y-100277437D01*
X95958084Y-100534357D01*
X96076771Y-100685600D01*
X96875600Y-100685600D01*
X96875600Y-100665600D01*
X97180400Y-100665600D01*
X97180400Y-100685600D01*
X97979229Y-100685600D01*
X98097916Y-100534357D01*
X97969762Y-100277437D01*
X97693224Y-100008311D01*
X97519392Y-99939059D01*
X98035949Y-99423402D01*
X98152798Y-99423402D01*
X98000400Y-99575800D01*
X98000400Y-99992257D01*
X98093206Y-100216311D01*
X98264689Y-100387794D01*
X98488743Y-100480600D01*
X98755200Y-100480600D01*
X98907600Y-100328200D01*
X98907600Y-99423400D01*
X98887600Y-99423400D01*
X98887600Y-99118600D01*
X98907600Y-99118600D01*
X98907600Y-99098600D01*
X99212400Y-99098600D01*
X99212400Y-99118600D01*
G36*
X99075400Y-102953043D02*
X98730600Y-102953043D01*
X98730600Y-102685357D01*
X99075400Y-102685357D01*
X99075400Y-102953043D01*
X99075400Y-102953043D01*
G37*
X99075400Y-102953043D02*
X98730600Y-102953043D01*
X98730600Y-102685357D01*
X99075400Y-102685357D01*
X99075400Y-102953043D01*
G36*
X100980400Y-98558843D02*
X100635600Y-98558843D01*
X100635600Y-98291157D01*
X100980400Y-98291157D01*
X100980400Y-98558843D01*
X100980400Y-98558843D01*
G37*
X100980400Y-98558843D02*
X100635600Y-98558843D01*
X100635600Y-98291157D01*
X100980400Y-98291157D01*
X100980400Y-98558843D01*
M02*
