G04 #@! TF.GenerationSoftware,KiCad,Pcbnew,(5.0.2)-1*
G04 #@! TF.CreationDate,2019-03-21T21:09:29-07:00*
G04 #@! TF.ProjectId,SMOL,534d4f4c-2e6b-4696-9361-645f70636258,rev?*
G04 #@! TF.SameCoordinates,Original*
G04 #@! TF.FileFunction,Soldermask,Bot*
G04 #@! TF.FilePolarity,Negative*
%FSLAX46Y46*%
G04 Gerber Fmt 4.6, Leading zero omitted, Abs format (unit mm)*
G04 Created by KiCad (PCBNEW (5.0.2)-1) date 3/21/2019 9:09:29 PM*
%MOMM*%
%LPD*%
G01*
G04 APERTURE LIST*
%ADD10C,0.304800*%
G04 APERTURE END LIST*
D10*
G36*
X103096598Y-96666373D02*
X104030344Y-97053143D01*
X104030345Y-97053144D01*
X104870695Y-97614647D01*
X105585353Y-98329305D01*
X105959688Y-98889538D01*
X106146857Y-99169656D01*
X106533627Y-100103402D01*
X106730800Y-101094659D01*
X106730800Y-102105341D01*
X106533627Y-103096598D01*
X106146857Y-104030344D01*
X106146856Y-104030345D01*
X105768667Y-104596346D01*
X105757119Y-104617950D01*
X105750006Y-104641400D01*
X105747604Y-104665786D01*
X105750006Y-104690172D01*
X105757119Y-104713621D01*
X105768670Y-104735232D01*
X105784216Y-104754174D01*
X105803158Y-104769720D01*
X105888610Y-104826817D01*
X105993183Y-104931390D01*
X105993185Y-104931393D01*
X106075351Y-105054363D01*
X106119126Y-105160046D01*
X106131948Y-105191002D01*
X106160800Y-105336051D01*
X106160800Y-105483949D01*
X106131948Y-105628998D01*
X106131947Y-105629000D01*
X106075351Y-105765637D01*
X106075350Y-105765638D01*
X105993183Y-105888610D01*
X105888610Y-105993183D01*
X105888607Y-105993185D01*
X105765637Y-106075351D01*
X105659954Y-106119126D01*
X105628998Y-106131948D01*
X105483949Y-106160800D01*
X105336051Y-106160800D01*
X105191002Y-106131948D01*
X105160046Y-106119126D01*
X105054363Y-106075351D01*
X104931393Y-105993185D01*
X104931390Y-105993183D01*
X104826817Y-105888610D01*
X104769720Y-105803158D01*
X104754175Y-105784216D01*
X104735233Y-105768670D01*
X104713622Y-105757119D01*
X104690173Y-105750006D01*
X104665786Y-105747604D01*
X104641400Y-105750006D01*
X104617951Y-105757119D01*
X104596346Y-105768667D01*
X104260333Y-105993183D01*
X104030344Y-106146857D01*
X103096598Y-106533627D01*
X102105341Y-106730800D01*
X101094659Y-106730800D01*
X100103402Y-106533627D01*
X99169656Y-106146857D01*
X98939667Y-105993183D01*
X98603654Y-105768667D01*
X98582050Y-105757119D01*
X98558600Y-105750006D01*
X98534214Y-105747604D01*
X98509828Y-105750006D01*
X98486379Y-105757119D01*
X98464768Y-105768670D01*
X98445826Y-105784216D01*
X98430280Y-105803158D01*
X98373183Y-105888610D01*
X98268610Y-105993183D01*
X98268607Y-105993185D01*
X98145637Y-106075351D01*
X98039954Y-106119126D01*
X98008998Y-106131948D01*
X97863949Y-106160800D01*
X97716051Y-106160800D01*
X97571002Y-106131948D01*
X97540046Y-106119126D01*
X97434363Y-106075351D01*
X97311393Y-105993185D01*
X97311390Y-105993183D01*
X97206817Y-105888610D01*
X97124650Y-105765638D01*
X97124649Y-105765637D01*
X97068053Y-105629000D01*
X97068052Y-105628998D01*
X97039200Y-105483949D01*
X97039200Y-105336051D01*
X97068052Y-105191002D01*
X97080874Y-105160046D01*
X97124649Y-105054363D01*
X97206815Y-104931393D01*
X97206817Y-104931390D01*
X97311390Y-104826817D01*
X97396842Y-104769720D01*
X97415784Y-104754175D01*
X97431330Y-104735233D01*
X97442881Y-104713622D01*
X97449994Y-104690173D01*
X97452396Y-104665786D01*
X97449994Y-104641400D01*
X97442881Y-104617951D01*
X97431333Y-104596346D01*
X97053144Y-104030345D01*
X97053143Y-104030344D01*
X96666373Y-103096598D01*
X96469200Y-102105341D01*
X96469200Y-101094659D01*
X96666373Y-100103402D01*
X97053143Y-99169656D01*
X97240312Y-98889538D01*
X97614647Y-98329305D01*
X98329305Y-97614647D01*
X99169655Y-97053144D01*
X99169656Y-97053143D01*
X100103402Y-96666373D01*
X101094659Y-96469200D01*
X102105341Y-96469200D01*
X103096598Y-96666373D01*
X103096598Y-96666373D01*
G37*
M02*
