G04 #@! TF.GenerationSoftware,KiCad,Pcbnew,(5.0.2)-1*
G04 #@! TF.CreationDate,2019-04-28T13:22:12-07:00*
G04 #@! TF.ProjectId,SMOL,534d4f4c-2e6b-4696-9361-645f70636258,rev?*
G04 #@! TF.SameCoordinates,Original*
G04 #@! TF.FileFunction,Legend,Bot*
G04 #@! TF.FilePolarity,Positive*
%FSLAX46Y46*%
G04 Gerber Fmt 4.6, Leading zero omitted, Abs format (unit mm)*
G04 Created by KiCad (PCBNEW (5.0.2)-1) date 4/28/2019 1:22:12 PM*
%MOMM*%
%LPD*%
G01*
G04 APERTURE LIST*
%ADD10C,0.010000*%
G04 APERTURE END LIST*
D10*
G04 #@! TO.C,G\002A\002A\002A*
G36*
X107076200Y-104930639D02*
X107046845Y-104935414D01*
X107028288Y-104945032D01*
X106986884Y-104972728D01*
X106946320Y-105005189D01*
X106945217Y-105006181D01*
X106905176Y-105042402D01*
X106871787Y-104963645D01*
X106838454Y-104899305D01*
X106804866Y-104862404D01*
X106771442Y-104853174D01*
X106738602Y-104871847D01*
X106727808Y-104884381D01*
X106719203Y-104908331D01*
X106723441Y-104945138D01*
X106740378Y-104998513D01*
X106772711Y-105086655D01*
X106675082Y-105096044D01*
X106625232Y-105102192D01*
X106587320Y-105109394D01*
X106569340Y-105116121D01*
X106569190Y-105116301D01*
X106560263Y-105144488D01*
X106561359Y-105181299D01*
X106571295Y-105211646D01*
X106577163Y-105218362D01*
X106600710Y-105225505D01*
X106642634Y-105229386D01*
X106685902Y-105229365D01*
X106732168Y-105229650D01*
X106764934Y-105233956D01*
X106776614Y-105240701D01*
X106773472Y-105262006D01*
X106764109Y-105299803D01*
X106756898Y-105324831D01*
X106745135Y-105386663D01*
X106751771Y-105430694D01*
X106776036Y-105455087D01*
X106813136Y-105458612D01*
X106838357Y-105451786D01*
X106856548Y-105435488D01*
X106871878Y-105403685D01*
X106888512Y-105350349D01*
X106888898Y-105348986D01*
X106901017Y-105307232D01*
X106910049Y-105278416D01*
X106913125Y-105270475D01*
X106925993Y-105274597D01*
X106955895Y-105289792D01*
X106987049Y-105307384D01*
X107044247Y-105338022D01*
X107084376Y-105351688D01*
X107112275Y-105349225D01*
X107131872Y-105332692D01*
X107146687Y-105303894D01*
X107143048Y-105275851D01*
X107118790Y-105244115D01*
X107071733Y-105204233D01*
X107067586Y-105201066D01*
X107027429Y-105169545D01*
X107006943Y-105149749D01*
X107002690Y-105137169D01*
X107011239Y-105127298D01*
X107011321Y-105127241D01*
X107076596Y-105075797D01*
X107116806Y-105033288D01*
X107132948Y-104997783D01*
X107126021Y-104967356D01*
X107105211Y-104945879D01*
X107076200Y-104930639D01*
X107076200Y-104930639D01*
G37*
X107076200Y-104930639D02*
X107046845Y-104935414D01*
X107028288Y-104945032D01*
X106986884Y-104972728D01*
X106946320Y-105005189D01*
X106945217Y-105006181D01*
X106905176Y-105042402D01*
X106871787Y-104963645D01*
X106838454Y-104899305D01*
X106804866Y-104862404D01*
X106771442Y-104853174D01*
X106738602Y-104871847D01*
X106727808Y-104884381D01*
X106719203Y-104908331D01*
X106723441Y-104945138D01*
X106740378Y-104998513D01*
X106772711Y-105086655D01*
X106675082Y-105096044D01*
X106625232Y-105102192D01*
X106587320Y-105109394D01*
X106569340Y-105116121D01*
X106569190Y-105116301D01*
X106560263Y-105144488D01*
X106561359Y-105181299D01*
X106571295Y-105211646D01*
X106577163Y-105218362D01*
X106600710Y-105225505D01*
X106642634Y-105229386D01*
X106685902Y-105229365D01*
X106732168Y-105229650D01*
X106764934Y-105233956D01*
X106776614Y-105240701D01*
X106773472Y-105262006D01*
X106764109Y-105299803D01*
X106756898Y-105324831D01*
X106745135Y-105386663D01*
X106751771Y-105430694D01*
X106776036Y-105455087D01*
X106813136Y-105458612D01*
X106838357Y-105451786D01*
X106856548Y-105435488D01*
X106871878Y-105403685D01*
X106888512Y-105350349D01*
X106888898Y-105348986D01*
X106901017Y-105307232D01*
X106910049Y-105278416D01*
X106913125Y-105270475D01*
X106925993Y-105274597D01*
X106955895Y-105289792D01*
X106987049Y-105307384D01*
X107044247Y-105338022D01*
X107084376Y-105351688D01*
X107112275Y-105349225D01*
X107131872Y-105332692D01*
X107146687Y-105303894D01*
X107143048Y-105275851D01*
X107118790Y-105244115D01*
X107071733Y-105204233D01*
X107067586Y-105201066D01*
X107027429Y-105169545D01*
X107006943Y-105149749D01*
X107002690Y-105137169D01*
X107011239Y-105127298D01*
X107011321Y-105127241D01*
X107076596Y-105075797D01*
X107116806Y-105033288D01*
X107132948Y-104997783D01*
X107126021Y-104967356D01*
X107105211Y-104945879D01*
X107076200Y-104930639D01*
G36*
X107697370Y-103894956D02*
X107619002Y-103857934D01*
X107559881Y-103840382D01*
X107518794Y-103842322D01*
X107494523Y-103863767D01*
X107486191Y-103897604D01*
X107493294Y-103937330D01*
X107519889Y-103966382D01*
X107558538Y-104011740D01*
X107573350Y-104068296D01*
X107564350Y-104132145D01*
X107531562Y-104199379D01*
X107518396Y-104217921D01*
X107473364Y-104263137D01*
X107428476Y-104280555D01*
X107384320Y-104269999D01*
X107371630Y-104261602D01*
X107347952Y-104238552D01*
X107335528Y-104210171D01*
X107333443Y-104170062D01*
X107340782Y-104111831D01*
X107346061Y-104082524D01*
X107363226Y-103970897D01*
X107367474Y-103881291D01*
X107358080Y-103810250D01*
X107334321Y-103754323D01*
X107295472Y-103710062D01*
X107263046Y-103686688D01*
X107189688Y-103655387D01*
X107116831Y-103652160D01*
X107045347Y-103676840D01*
X106976111Y-103729262D01*
X106962777Y-103742889D01*
X106907572Y-103820047D01*
X106869056Y-103911793D01*
X106851603Y-104007308D01*
X106851112Y-104019317D01*
X106844871Y-104073589D01*
X106827709Y-104108247D01*
X106820990Y-104115109D01*
X106795641Y-104150284D01*
X106798208Y-104184686D01*
X106828360Y-104217808D01*
X106885780Y-104249150D01*
X106914585Y-104260454D01*
X106957378Y-104273586D01*
X106992888Y-104280520D01*
X107001048Y-104280873D01*
X107034777Y-104268505D01*
X107052323Y-104240259D01*
X107052595Y-104204110D01*
X107034516Y-104168039D01*
X107018457Y-104152679D01*
X106992753Y-104116700D01*
X106981895Y-104064169D01*
X106985301Y-104002180D01*
X107002390Y-103937842D01*
X107032584Y-103878250D01*
X107041948Y-103865142D01*
X107088569Y-103816722D01*
X107133677Y-103794106D01*
X107175377Y-103798151D01*
X107182480Y-103801836D01*
X107207933Y-103821093D01*
X107223622Y-103846032D01*
X107230218Y-103881655D01*
X107228393Y-103932959D01*
X107218819Y-104004947D01*
X107213879Y-104035257D01*
X107201198Y-104121456D01*
X107196674Y-104186708D01*
X107200927Y-104237283D01*
X107214568Y-104279444D01*
X107238218Y-104319454D01*
X107242363Y-104325244D01*
X107295308Y-104378026D01*
X107356605Y-104407109D01*
X107422511Y-104414313D01*
X107489293Y-104401456D01*
X107553209Y-104370358D01*
X107610518Y-104322838D01*
X107657485Y-104260716D01*
X107690369Y-104185811D01*
X107705428Y-104099944D01*
X107705430Y-104099916D01*
X107713033Y-104053287D01*
X107727852Y-104013741D01*
X107733009Y-104005663D01*
X107751339Y-103965836D01*
X107741989Y-103930474D01*
X107704788Y-103899057D01*
X107697370Y-103894956D01*
X107697370Y-103894956D01*
G37*
X107697370Y-103894956D02*
X107619002Y-103857934D01*
X107559881Y-103840382D01*
X107518794Y-103842322D01*
X107494523Y-103863767D01*
X107486191Y-103897604D01*
X107493294Y-103937330D01*
X107519889Y-103966382D01*
X107558538Y-104011740D01*
X107573350Y-104068296D01*
X107564350Y-104132145D01*
X107531562Y-104199379D01*
X107518396Y-104217921D01*
X107473364Y-104263137D01*
X107428476Y-104280555D01*
X107384320Y-104269999D01*
X107371630Y-104261602D01*
X107347952Y-104238552D01*
X107335528Y-104210171D01*
X107333443Y-104170062D01*
X107340782Y-104111831D01*
X107346061Y-104082524D01*
X107363226Y-103970897D01*
X107367474Y-103881291D01*
X107358080Y-103810250D01*
X107334321Y-103754323D01*
X107295472Y-103710062D01*
X107263046Y-103686688D01*
X107189688Y-103655387D01*
X107116831Y-103652160D01*
X107045347Y-103676840D01*
X106976111Y-103729262D01*
X106962777Y-103742889D01*
X106907572Y-103820047D01*
X106869056Y-103911793D01*
X106851603Y-104007308D01*
X106851112Y-104019317D01*
X106844871Y-104073589D01*
X106827709Y-104108247D01*
X106820990Y-104115109D01*
X106795641Y-104150284D01*
X106798208Y-104184686D01*
X106828360Y-104217808D01*
X106885780Y-104249150D01*
X106914585Y-104260454D01*
X106957378Y-104273586D01*
X106992888Y-104280520D01*
X107001048Y-104280873D01*
X107034777Y-104268505D01*
X107052323Y-104240259D01*
X107052595Y-104204110D01*
X107034516Y-104168039D01*
X107018457Y-104152679D01*
X106992753Y-104116700D01*
X106981895Y-104064169D01*
X106985301Y-104002180D01*
X107002390Y-103937842D01*
X107032584Y-103878250D01*
X107041948Y-103865142D01*
X107088569Y-103816722D01*
X107133677Y-103794106D01*
X107175377Y-103798151D01*
X107182480Y-103801836D01*
X107207933Y-103821093D01*
X107223622Y-103846032D01*
X107230218Y-103881655D01*
X107228393Y-103932959D01*
X107218819Y-104004947D01*
X107213879Y-104035257D01*
X107201198Y-104121456D01*
X107196674Y-104186708D01*
X107200927Y-104237283D01*
X107214568Y-104279444D01*
X107238218Y-104319454D01*
X107242363Y-104325244D01*
X107295308Y-104378026D01*
X107356605Y-104407109D01*
X107422511Y-104414313D01*
X107489293Y-104401456D01*
X107553209Y-104370358D01*
X107610518Y-104322838D01*
X107657485Y-104260716D01*
X107690369Y-104185811D01*
X107705428Y-104099944D01*
X107705430Y-104099916D01*
X107713033Y-104053287D01*
X107727852Y-104013741D01*
X107733009Y-104005663D01*
X107751339Y-103965836D01*
X107741989Y-103930474D01*
X107704788Y-103899057D01*
X107697370Y-103894956D01*
G36*
X107894726Y-102699284D02*
X107864746Y-102705712D01*
X107832501Y-102735312D01*
X107796874Y-102786340D01*
X107747782Y-102865165D01*
X107721822Y-102835875D01*
X107669820Y-102779550D01*
X107630771Y-102744382D01*
X107600859Y-102728809D01*
X107576268Y-102731263D01*
X107553180Y-102750190D01*
X107542999Y-102762689D01*
X107530014Y-102787554D01*
X107531971Y-102813625D01*
X107551023Y-102846010D01*
X107589316Y-102889822D01*
X107601996Y-102903000D01*
X107628491Y-102931833D01*
X107643446Y-102951274D01*
X107644795Y-102955384D01*
X107631159Y-102963638D01*
X107599795Y-102979932D01*
X107570949Y-102994181D01*
X107515051Y-103025094D01*
X107483247Y-103053104D01*
X107472124Y-103081653D01*
X107472587Y-103093211D01*
X107487730Y-103123195D01*
X107516605Y-103144523D01*
X107546352Y-103148414D01*
X107571666Y-103139457D01*
X107610849Y-103123421D01*
X107630517Y-103114859D01*
X107668192Y-103099683D01*
X107694051Y-103092159D01*
X107699984Y-103092303D01*
X107705357Y-103108067D01*
X107711983Y-103143231D01*
X107716585Y-103175874D01*
X107731135Y-103237718D01*
X107755582Y-103277438D01*
X107787978Y-103293043D01*
X107822735Y-103284603D01*
X107847201Y-103260062D01*
X107857951Y-103218134D01*
X107855517Y-103155576D01*
X107850099Y-103118856D01*
X107841572Y-103069126D01*
X107932527Y-103083984D01*
X107982646Y-103091050D01*
X108013654Y-103090666D01*
X108034104Y-103081101D01*
X108052540Y-103060629D01*
X108053396Y-103059505D01*
X108071618Y-103031190D01*
X108070159Y-103011409D01*
X108050240Y-102989564D01*
X108013476Y-102966711D01*
X107964648Y-102949778D01*
X107954250Y-102947613D01*
X107914092Y-102939166D01*
X107886479Y-102931144D01*
X107881190Y-102928558D01*
X107882250Y-102913339D01*
X107895462Y-102881914D01*
X107912119Y-102851259D01*
X107940377Y-102797205D01*
X107950329Y-102758890D01*
X107942505Y-102731015D01*
X107925789Y-102714150D01*
X107894726Y-102699284D01*
X107894726Y-102699284D01*
G37*
X107894726Y-102699284D02*
X107864746Y-102705712D01*
X107832501Y-102735312D01*
X107796874Y-102786340D01*
X107747782Y-102865165D01*
X107721822Y-102835875D01*
X107669820Y-102779550D01*
X107630771Y-102744382D01*
X107600859Y-102728809D01*
X107576268Y-102731263D01*
X107553180Y-102750190D01*
X107542999Y-102762689D01*
X107530014Y-102787554D01*
X107531971Y-102813625D01*
X107551023Y-102846010D01*
X107589316Y-102889822D01*
X107601996Y-102903000D01*
X107628491Y-102931833D01*
X107643446Y-102951274D01*
X107644795Y-102955384D01*
X107631159Y-102963638D01*
X107599795Y-102979932D01*
X107570949Y-102994181D01*
X107515051Y-103025094D01*
X107483247Y-103053104D01*
X107472124Y-103081653D01*
X107472587Y-103093211D01*
X107487730Y-103123195D01*
X107516605Y-103144523D01*
X107546352Y-103148414D01*
X107571666Y-103139457D01*
X107610849Y-103123421D01*
X107630517Y-103114859D01*
X107668192Y-103099683D01*
X107694051Y-103092159D01*
X107699984Y-103092303D01*
X107705357Y-103108067D01*
X107711983Y-103143231D01*
X107716585Y-103175874D01*
X107731135Y-103237718D01*
X107755582Y-103277438D01*
X107787978Y-103293043D01*
X107822735Y-103284603D01*
X107847201Y-103260062D01*
X107857951Y-103218134D01*
X107855517Y-103155576D01*
X107850099Y-103118856D01*
X107841572Y-103069126D01*
X107932527Y-103083984D01*
X107982646Y-103091050D01*
X108013654Y-103090666D01*
X108034104Y-103081101D01*
X108052540Y-103060629D01*
X108053396Y-103059505D01*
X108071618Y-103031190D01*
X108070159Y-103011409D01*
X108050240Y-102989564D01*
X108013476Y-102966711D01*
X107964648Y-102949778D01*
X107954250Y-102947613D01*
X107914092Y-102939166D01*
X107886479Y-102931144D01*
X107881190Y-102928558D01*
X107882250Y-102913339D01*
X107895462Y-102881914D01*
X107912119Y-102851259D01*
X107940377Y-102797205D01*
X107950329Y-102758890D01*
X107942505Y-102731015D01*
X107925789Y-102714150D01*
X107894726Y-102699284D01*
G36*
X108104349Y-101368748D02*
X108078514Y-101369858D01*
X108043071Y-101387971D01*
X108029075Y-101407648D01*
X108021179Y-101419146D01*
X108007968Y-101427593D01*
X107985560Y-101433396D01*
X107950073Y-101436964D01*
X107897628Y-101438708D01*
X107824347Y-101439035D01*
X107736815Y-101438450D01*
X107641158Y-101437289D01*
X107570073Y-101435512D01*
X107519900Y-101432700D01*
X107486972Y-101428437D01*
X107467629Y-101422308D01*
X107458204Y-101413891D01*
X107455540Y-101406371D01*
X107437767Y-101369407D01*
X107406968Y-101349581D01*
X107371847Y-101349577D01*
X107341666Y-101371329D01*
X107333814Y-101395311D01*
X107327554Y-101439423D01*
X107323216Y-101495577D01*
X107321133Y-101555695D01*
X107321634Y-101611692D01*
X107325053Y-101655484D01*
X107329245Y-101674249D01*
X107351604Y-101706312D01*
X107381186Y-101715855D01*
X107411938Y-101705287D01*
X107437801Y-101677007D01*
X107452724Y-101633422D01*
X107453722Y-101624829D01*
X107458301Y-101571563D01*
X107664028Y-101572991D01*
X107736673Y-101573838D01*
X107798164Y-101575212D01*
X107843525Y-101576951D01*
X107867778Y-101578887D01*
X107870481Y-101579748D01*
X107858558Y-101586971D01*
X107825396Y-101602999D01*
X107775757Y-101625629D01*
X107714404Y-101652644D01*
X107699459Y-101659109D01*
X107635249Y-101687290D01*
X107580856Y-101712121D01*
X107541339Y-101731221D01*
X107521759Y-101742206D01*
X107520673Y-101743232D01*
X107516488Y-101762867D01*
X107515293Y-101798121D01*
X107515476Y-101805149D01*
X107517318Y-101856972D01*
X107679185Y-101933080D01*
X107742114Y-101962500D01*
X107796557Y-101987639D01*
X107836991Y-102005971D01*
X107857905Y-102014968D01*
X107858625Y-102015230D01*
X107870856Y-102020709D01*
X107868754Y-102024568D01*
X107849518Y-102026983D01*
X107810354Y-102028125D01*
X107748456Y-102028175D01*
X107664905Y-102027352D01*
X107460165Y-102024808D01*
X107450869Y-101963660D01*
X107437500Y-101912041D01*
X107415507Y-101885775D01*
X107382412Y-101882650D01*
X107365261Y-101887473D01*
X107342400Y-101899431D01*
X107327010Y-101919322D01*
X107317977Y-101951852D01*
X107314189Y-102001728D01*
X107314538Y-102073651D01*
X107315247Y-102099114D01*
X107321077Y-102170793D01*
X107334176Y-102217020D01*
X107355885Y-102239961D01*
X107387545Y-102241765D01*
X107401303Y-102237780D01*
X107433170Y-102220388D01*
X107445789Y-102193661D01*
X107446000Y-102192389D01*
X107450130Y-102181551D01*
X107461006Y-102173607D01*
X107482331Y-102168176D01*
X107517799Y-102164878D01*
X107571111Y-102163336D01*
X107645962Y-102163170D01*
X107724843Y-102163782D01*
X107810097Y-102164991D01*
X107885544Y-102166758D01*
X107946691Y-102168912D01*
X107989034Y-102171298D01*
X108008073Y-102173750D01*
X108008513Y-102173983D01*
X108016811Y-102193131D01*
X108016753Y-102197988D01*
X108026307Y-102222307D01*
X108053829Y-102236641D01*
X108089559Y-102236310D01*
X108093995Y-102235043D01*
X108122992Y-102223878D01*
X108136190Y-102215865D01*
X108139157Y-102199070D01*
X108141723Y-102161664D01*
X108143390Y-102111275D01*
X108143520Y-102103814D01*
X108145145Y-101999270D01*
X107944089Y-101905397D01*
X107874934Y-101872754D01*
X107815221Y-101843898D01*
X107769470Y-101821066D01*
X107742206Y-101806496D01*
X107736635Y-101802699D01*
X107746445Y-101794291D01*
X107777806Y-101777449D01*
X107826138Y-101754434D01*
X107886851Y-101727514D01*
X107902452Y-101720849D01*
X107988320Y-101684681D01*
X108051866Y-101657594D01*
X108096426Y-101636870D01*
X108125338Y-101619801D01*
X108141932Y-101603669D01*
X108149548Y-101585759D01*
X108151523Y-101563358D01*
X108151187Y-101533751D01*
X108151162Y-101518460D01*
X108149778Y-101449016D01*
X108142819Y-101403581D01*
X108128327Y-101378159D01*
X108104349Y-101368748D01*
X108104349Y-101368748D01*
G37*
X108104349Y-101368748D02*
X108078514Y-101369858D01*
X108043071Y-101387971D01*
X108029075Y-101407648D01*
X108021179Y-101419146D01*
X108007968Y-101427593D01*
X107985560Y-101433396D01*
X107950073Y-101436964D01*
X107897628Y-101438708D01*
X107824347Y-101439035D01*
X107736815Y-101438450D01*
X107641158Y-101437289D01*
X107570073Y-101435512D01*
X107519900Y-101432700D01*
X107486972Y-101428437D01*
X107467629Y-101422308D01*
X107458204Y-101413891D01*
X107455540Y-101406371D01*
X107437767Y-101369407D01*
X107406968Y-101349581D01*
X107371847Y-101349577D01*
X107341666Y-101371329D01*
X107333814Y-101395311D01*
X107327554Y-101439423D01*
X107323216Y-101495577D01*
X107321133Y-101555695D01*
X107321634Y-101611692D01*
X107325053Y-101655484D01*
X107329245Y-101674249D01*
X107351604Y-101706312D01*
X107381186Y-101715855D01*
X107411938Y-101705287D01*
X107437801Y-101677007D01*
X107452724Y-101633422D01*
X107453722Y-101624829D01*
X107458301Y-101571563D01*
X107664028Y-101572991D01*
X107736673Y-101573838D01*
X107798164Y-101575212D01*
X107843525Y-101576951D01*
X107867778Y-101578887D01*
X107870481Y-101579748D01*
X107858558Y-101586971D01*
X107825396Y-101602999D01*
X107775757Y-101625629D01*
X107714404Y-101652644D01*
X107699459Y-101659109D01*
X107635249Y-101687290D01*
X107580856Y-101712121D01*
X107541339Y-101731221D01*
X107521759Y-101742206D01*
X107520673Y-101743232D01*
X107516488Y-101762867D01*
X107515293Y-101798121D01*
X107515476Y-101805149D01*
X107517318Y-101856972D01*
X107679185Y-101933080D01*
X107742114Y-101962500D01*
X107796557Y-101987639D01*
X107836991Y-102005971D01*
X107857905Y-102014968D01*
X107858625Y-102015230D01*
X107870856Y-102020709D01*
X107868754Y-102024568D01*
X107849518Y-102026983D01*
X107810354Y-102028125D01*
X107748456Y-102028175D01*
X107664905Y-102027352D01*
X107460165Y-102024808D01*
X107450869Y-101963660D01*
X107437500Y-101912041D01*
X107415507Y-101885775D01*
X107382412Y-101882650D01*
X107365261Y-101887473D01*
X107342400Y-101899431D01*
X107327010Y-101919322D01*
X107317977Y-101951852D01*
X107314189Y-102001728D01*
X107314538Y-102073651D01*
X107315247Y-102099114D01*
X107321077Y-102170793D01*
X107334176Y-102217020D01*
X107355885Y-102239961D01*
X107387545Y-102241765D01*
X107401303Y-102237780D01*
X107433170Y-102220388D01*
X107445789Y-102193661D01*
X107446000Y-102192389D01*
X107450130Y-102181551D01*
X107461006Y-102173607D01*
X107482331Y-102168176D01*
X107517799Y-102164878D01*
X107571111Y-102163336D01*
X107645962Y-102163170D01*
X107724843Y-102163782D01*
X107810097Y-102164991D01*
X107885544Y-102166758D01*
X107946691Y-102168912D01*
X107989034Y-102171298D01*
X108008073Y-102173750D01*
X108008513Y-102173983D01*
X108016811Y-102193131D01*
X108016753Y-102197988D01*
X108026307Y-102222307D01*
X108053829Y-102236641D01*
X108089559Y-102236310D01*
X108093995Y-102235043D01*
X108122992Y-102223878D01*
X108136190Y-102215865D01*
X108139157Y-102199070D01*
X108141723Y-102161664D01*
X108143390Y-102111275D01*
X108143520Y-102103814D01*
X108145145Y-101999270D01*
X107944089Y-101905397D01*
X107874934Y-101872754D01*
X107815221Y-101843898D01*
X107769470Y-101821066D01*
X107742206Y-101806496D01*
X107736635Y-101802699D01*
X107746445Y-101794291D01*
X107777806Y-101777449D01*
X107826138Y-101754434D01*
X107886851Y-101727514D01*
X107902452Y-101720849D01*
X107988320Y-101684681D01*
X108051866Y-101657594D01*
X108096426Y-101636870D01*
X108125338Y-101619801D01*
X108141932Y-101603669D01*
X108149548Y-101585759D01*
X108151523Y-101563358D01*
X108151187Y-101533751D01*
X108151162Y-101518460D01*
X108149778Y-101449016D01*
X108142819Y-101403581D01*
X108128327Y-101378159D01*
X108104349Y-101368748D01*
G36*
X107834605Y-100319316D02*
X107807837Y-100325933D01*
X107787048Y-100335132D01*
X107773681Y-100349244D01*
X107764050Y-100375407D01*
X107754460Y-100420764D01*
X107752016Y-100433895D01*
X107734586Y-100528249D01*
X107698516Y-100511441D01*
X107635175Y-100483178D01*
X107591097Y-100467594D01*
X107560719Y-100463907D01*
X107538476Y-100471334D01*
X107521137Y-100486530D01*
X107502016Y-100520391D01*
X107509754Y-100552653D01*
X107544875Y-100584383D01*
X107578460Y-100603194D01*
X107627763Y-100628198D01*
X107653662Y-100646667D01*
X107657859Y-100664998D01*
X107642050Y-100689582D01*
X107610597Y-100723976D01*
X107575879Y-100763337D01*
X107558118Y-100790934D01*
X107553261Y-100813837D01*
X107553956Y-100822805D01*
X107567104Y-100859875D01*
X107596885Y-100876137D01*
X107616750Y-100877963D01*
X107649930Y-100865757D01*
X107693731Y-100828609D01*
X107703054Y-100818909D01*
X107735469Y-100786855D01*
X107761388Y-100765750D01*
X107772526Y-100760600D01*
X107786340Y-100773039D01*
X107805325Y-100802874D01*
X107813595Y-100818958D01*
X107847154Y-100873806D01*
X107883309Y-100907378D01*
X107918764Y-100917270D01*
X107938902Y-100910478D01*
X107964993Y-100884064D01*
X107970572Y-100847904D01*
X107955582Y-100798348D01*
X107936536Y-100760387D01*
X107895627Y-100686257D01*
X107980866Y-100669079D01*
X108045665Y-100649835D01*
X108087059Y-100624070D01*
X108103768Y-100593736D01*
X108094518Y-100560784D01*
X108068750Y-100534743D01*
X108045371Y-100528969D01*
X108003964Y-100528691D01*
X107961895Y-100532893D01*
X107874259Y-100545657D01*
X107882700Y-100477106D01*
X107888198Y-100402453D01*
X107882574Y-100352405D01*
X107864989Y-100325258D01*
X107834605Y-100319316D01*
X107834605Y-100319316D01*
G37*
X107834605Y-100319316D02*
X107807837Y-100325933D01*
X107787048Y-100335132D01*
X107773681Y-100349244D01*
X107764050Y-100375407D01*
X107754460Y-100420764D01*
X107752016Y-100433895D01*
X107734586Y-100528249D01*
X107698516Y-100511441D01*
X107635175Y-100483178D01*
X107591097Y-100467594D01*
X107560719Y-100463907D01*
X107538476Y-100471334D01*
X107521137Y-100486530D01*
X107502016Y-100520391D01*
X107509754Y-100552653D01*
X107544875Y-100584383D01*
X107578460Y-100603194D01*
X107627763Y-100628198D01*
X107653662Y-100646667D01*
X107657859Y-100664998D01*
X107642050Y-100689582D01*
X107610597Y-100723976D01*
X107575879Y-100763337D01*
X107558118Y-100790934D01*
X107553261Y-100813837D01*
X107553956Y-100822805D01*
X107567104Y-100859875D01*
X107596885Y-100876137D01*
X107616750Y-100877963D01*
X107649930Y-100865757D01*
X107693731Y-100828609D01*
X107703054Y-100818909D01*
X107735469Y-100786855D01*
X107761388Y-100765750D01*
X107772526Y-100760600D01*
X107786340Y-100773039D01*
X107805325Y-100802874D01*
X107813595Y-100818958D01*
X107847154Y-100873806D01*
X107883309Y-100907378D01*
X107918764Y-100917270D01*
X107938902Y-100910478D01*
X107964993Y-100884064D01*
X107970572Y-100847904D01*
X107955582Y-100798348D01*
X107936536Y-100760387D01*
X107895627Y-100686257D01*
X107980866Y-100669079D01*
X108045665Y-100649835D01*
X108087059Y-100624070D01*
X108103768Y-100593736D01*
X108094518Y-100560784D01*
X108068750Y-100534743D01*
X108045371Y-100528969D01*
X108003964Y-100528691D01*
X107961895Y-100532893D01*
X107874259Y-100545657D01*
X107882700Y-100477106D01*
X107888198Y-100402453D01*
X107882574Y-100352405D01*
X107864989Y-100325258D01*
X107834605Y-100319316D01*
G36*
X107532716Y-99187181D02*
X107437407Y-99158043D01*
X107336540Y-99150541D01*
X107240225Y-99166374D01*
X107151138Y-99202412D01*
X107071958Y-99255537D01*
X107005369Y-99322623D01*
X106954039Y-99400544D01*
X106920654Y-99486178D01*
X106907888Y-99576400D01*
X106918424Y-99668089D01*
X106942768Y-99734991D01*
X106977748Y-99787709D01*
X107028853Y-99841656D01*
X107086066Y-99887373D01*
X107130024Y-99911882D01*
X107237010Y-99941466D01*
X107348597Y-99944111D01*
X107461364Y-99919952D01*
X107520147Y-99896462D01*
X107558966Y-99876355D01*
X107590470Y-99853577D01*
X107621833Y-99821658D01*
X107658360Y-99776451D01*
X107556577Y-99699055D01*
X107490334Y-99756164D01*
X107410466Y-99794196D01*
X107322609Y-99810280D01*
X107251179Y-99805561D01*
X107183680Y-99782022D01*
X107121823Y-99740408D01*
X107073613Y-99687314D01*
X107049821Y-99639660D01*
X107041567Y-99568407D01*
X107057129Y-99495092D01*
X107093269Y-99425709D01*
X107146732Y-99366257D01*
X107214279Y-99322739D01*
X107223431Y-99318765D01*
X107311713Y-99293695D01*
X107394999Y-99290694D01*
X107470174Y-99307248D01*
X107534112Y-99340834D01*
X107583699Y-99388935D01*
X107615814Y-99449035D01*
X107627338Y-99518610D01*
X107615155Y-99595143D01*
X107603558Y-99625751D01*
X107556577Y-99699055D01*
X107658360Y-99776451D01*
X107660233Y-99774130D01*
X107669948Y-99761448D01*
X107708109Y-99709790D01*
X107732342Y-99671122D01*
X107746834Y-99636765D01*
X107755766Y-99598041D01*
X107759152Y-99576447D01*
X107760531Y-99476860D01*
X107736357Y-99385251D01*
X107688848Y-99304510D01*
X107620230Y-99237523D01*
X107532716Y-99187181D01*
X107532716Y-99187181D01*
G37*
X107532716Y-99187181D02*
X107437407Y-99158043D01*
X107336540Y-99150541D01*
X107240225Y-99166374D01*
X107151138Y-99202412D01*
X107071958Y-99255537D01*
X107005369Y-99322623D01*
X106954039Y-99400544D01*
X106920654Y-99486178D01*
X106907888Y-99576400D01*
X106918424Y-99668089D01*
X106942768Y-99734991D01*
X106977748Y-99787709D01*
X107028853Y-99841656D01*
X107086066Y-99887373D01*
X107130024Y-99911882D01*
X107237010Y-99941466D01*
X107348597Y-99944111D01*
X107461364Y-99919952D01*
X107520147Y-99896462D01*
X107558966Y-99876355D01*
X107590470Y-99853577D01*
X107621833Y-99821658D01*
X107658360Y-99776451D01*
X107556577Y-99699055D01*
X107490334Y-99756164D01*
X107410466Y-99794196D01*
X107322609Y-99810280D01*
X107251179Y-99805561D01*
X107183680Y-99782022D01*
X107121823Y-99740408D01*
X107073613Y-99687314D01*
X107049821Y-99639660D01*
X107041567Y-99568407D01*
X107057129Y-99495092D01*
X107093269Y-99425709D01*
X107146732Y-99366257D01*
X107214279Y-99322739D01*
X107223431Y-99318765D01*
X107311713Y-99293695D01*
X107394999Y-99290694D01*
X107470174Y-99307248D01*
X107534112Y-99340834D01*
X107583699Y-99388935D01*
X107615814Y-99449035D01*
X107627338Y-99518610D01*
X107615155Y-99595143D01*
X107603558Y-99625751D01*
X107556577Y-99699055D01*
X107658360Y-99776451D01*
X107660233Y-99774130D01*
X107669948Y-99761448D01*
X107708109Y-99709790D01*
X107732342Y-99671122D01*
X107746834Y-99636765D01*
X107755766Y-99598041D01*
X107759152Y-99576447D01*
X107760531Y-99476860D01*
X107736357Y-99385251D01*
X107688848Y-99304510D01*
X107620230Y-99237523D01*
X107532716Y-99187181D01*
G36*
X107182394Y-98242694D02*
X107150410Y-98250453D01*
X107103110Y-98273044D01*
X107085880Y-98282309D01*
X107005622Y-98326045D01*
X106979909Y-98235057D01*
X106965433Y-98187758D01*
X106952485Y-98152193D01*
X106944084Y-98136379D01*
X106921294Y-98131995D01*
X106887030Y-98135676D01*
X106856034Y-98144986D01*
X106844668Y-98152833D01*
X106841850Y-98172604D01*
X106844232Y-98211593D01*
X106851294Y-98261363D01*
X106851304Y-98261422D01*
X106868105Y-98356640D01*
X106775165Y-98355719D01*
X106707996Y-98359695D01*
X106666049Y-98373883D01*
X106647857Y-98399289D01*
X106651948Y-98436918D01*
X106652787Y-98439353D01*
X106661954Y-98461338D01*
X106674779Y-98474439D01*
X106698518Y-98481962D01*
X106740431Y-98487223D01*
X106762242Y-98489279D01*
X106857103Y-98498032D01*
X106829018Y-98575947D01*
X106813816Y-98622650D01*
X106804059Y-98661392D01*
X106801983Y-98678504D01*
X106815553Y-98709609D01*
X106845663Y-98731403D01*
X106880629Y-98735443D01*
X106880775Y-98735410D01*
X106899131Y-98726361D01*
X106916876Y-98704487D01*
X106938674Y-98663639D01*
X106944542Y-98651359D01*
X106965506Y-98609537D01*
X106982830Y-98579584D01*
X106991388Y-98569136D01*
X107006788Y-98575028D01*
X107036597Y-98594826D01*
X107067926Y-98619085D01*
X107118299Y-98654718D01*
X107156237Y-98667274D01*
X107185099Y-98657090D01*
X107204028Y-98632566D01*
X107209926Y-98594465D01*
X107190433Y-98550800D01*
X107147077Y-98504536D01*
X107131932Y-98492330D01*
X107101617Y-98467576D01*
X107084326Y-98450391D01*
X107082625Y-98446373D01*
X107095757Y-98436645D01*
X107125744Y-98416754D01*
X107157106Y-98396700D01*
X107210123Y-98357315D01*
X107236536Y-98321989D01*
X107237348Y-98288867D01*
X107225978Y-98269290D01*
X107205451Y-98249171D01*
X107182394Y-98242694D01*
X107182394Y-98242694D01*
G37*
X107182394Y-98242694D02*
X107150410Y-98250453D01*
X107103110Y-98273044D01*
X107085880Y-98282309D01*
X107005622Y-98326045D01*
X106979909Y-98235057D01*
X106965433Y-98187758D01*
X106952485Y-98152193D01*
X106944084Y-98136379D01*
X106921294Y-98131995D01*
X106887030Y-98135676D01*
X106856034Y-98144986D01*
X106844668Y-98152833D01*
X106841850Y-98172604D01*
X106844232Y-98211593D01*
X106851294Y-98261363D01*
X106851304Y-98261422D01*
X106868105Y-98356640D01*
X106775165Y-98355719D01*
X106707996Y-98359695D01*
X106666049Y-98373883D01*
X106647857Y-98399289D01*
X106651948Y-98436918D01*
X106652787Y-98439353D01*
X106661954Y-98461338D01*
X106674779Y-98474439D01*
X106698518Y-98481962D01*
X106740431Y-98487223D01*
X106762242Y-98489279D01*
X106857103Y-98498032D01*
X106829018Y-98575947D01*
X106813816Y-98622650D01*
X106804059Y-98661392D01*
X106801983Y-98678504D01*
X106815553Y-98709609D01*
X106845663Y-98731403D01*
X106880629Y-98735443D01*
X106880775Y-98735410D01*
X106899131Y-98726361D01*
X106916876Y-98704487D01*
X106938674Y-98663639D01*
X106944542Y-98651359D01*
X106965506Y-98609537D01*
X106982830Y-98579584D01*
X106991388Y-98569136D01*
X107006788Y-98575028D01*
X107036597Y-98594826D01*
X107067926Y-98619085D01*
X107118299Y-98654718D01*
X107156237Y-98667274D01*
X107185099Y-98657090D01*
X107204028Y-98632566D01*
X107209926Y-98594465D01*
X107190433Y-98550800D01*
X107147077Y-98504536D01*
X107131932Y-98492330D01*
X107101617Y-98467576D01*
X107084326Y-98450391D01*
X107082625Y-98446373D01*
X107095757Y-98436645D01*
X107125744Y-98416754D01*
X107157106Y-98396700D01*
X107210123Y-98357315D01*
X107236536Y-98321989D01*
X107237348Y-98288867D01*
X107225978Y-98269290D01*
X107205451Y-98249171D01*
X107182394Y-98242694D01*
G36*
X106364212Y-97265522D02*
X106327505Y-97275736D01*
X106310558Y-97292396D01*
X106297278Y-97323297D01*
X106305599Y-97357206D01*
X106336967Y-97399044D01*
X106344192Y-97406773D01*
X106367459Y-97435952D01*
X106376781Y-97457791D01*
X106375593Y-97462468D01*
X106358723Y-97479742D01*
X106325938Y-97510734D01*
X106281285Y-97551838D01*
X106228816Y-97599433D01*
X106172575Y-97649907D01*
X106116611Y-97699649D01*
X106064972Y-97745041D01*
X106021705Y-97782471D01*
X105990860Y-97808325D01*
X105976485Y-97818987D01*
X105976184Y-97819072D01*
X105962036Y-97810030D01*
X105933635Y-97784307D01*
X105895573Y-97746246D01*
X105865942Y-97714910D01*
X105767981Y-97609073D01*
X105840057Y-97520279D01*
X105912130Y-97431480D01*
X105878359Y-97400253D01*
X105858742Y-97385089D01*
X105839154Y-97379728D01*
X105815498Y-97386115D01*
X105783673Y-97406199D01*
X105739579Y-97441924D01*
X105680018Y-97494432D01*
X105633118Y-97537021D01*
X105604178Y-97565455D01*
X105589784Y-97584031D01*
X105586519Y-97597042D01*
X105590206Y-97607420D01*
X105602362Y-97622846D01*
X105630410Y-97655312D01*
X105671021Y-97701156D01*
X105720864Y-97756735D01*
X105776612Y-97818392D01*
X105834935Y-97882469D01*
X105892506Y-97945322D01*
X105945996Y-98003292D01*
X105992079Y-98052728D01*
X106027421Y-98089978D01*
X106048699Y-98111386D01*
X106052230Y-98114478D01*
X106075750Y-98120866D01*
X106096556Y-98120313D01*
X106135605Y-98105323D01*
X106152170Y-98076566D01*
X106145851Y-98037868D01*
X106116238Y-97993064D01*
X106110603Y-97986931D01*
X106088236Y-97957165D01*
X106079581Y-97932705D01*
X106080016Y-97929496D01*
X106091231Y-97915734D01*
X106119330Y-97886792D01*
X106160286Y-97846467D01*
X106210069Y-97798553D01*
X106264655Y-97746845D01*
X106320012Y-97695139D01*
X106372116Y-97647232D01*
X106416937Y-97606916D01*
X106450446Y-97577995D01*
X106465535Y-97566199D01*
X106483396Y-97568429D01*
X106512675Y-97593691D01*
X106521074Y-97602723D01*
X106561926Y-97636479D01*
X106602140Y-97651426D01*
X106636252Y-97648385D01*
X106658793Y-97628169D01*
X106664298Y-97591596D01*
X106662703Y-97581557D01*
X106651134Y-97560171D01*
X106624394Y-97523660D01*
X106586953Y-97477202D01*
X106543274Y-97425965D01*
X106497830Y-97375119D01*
X106455083Y-97329834D01*
X106419505Y-97295278D01*
X106404264Y-97282457D01*
X106364212Y-97265522D01*
X106364212Y-97265522D01*
G37*
X106364212Y-97265522D02*
X106327505Y-97275736D01*
X106310558Y-97292396D01*
X106297278Y-97323297D01*
X106305599Y-97357206D01*
X106336967Y-97399044D01*
X106344192Y-97406773D01*
X106367459Y-97435952D01*
X106376781Y-97457791D01*
X106375593Y-97462468D01*
X106358723Y-97479742D01*
X106325938Y-97510734D01*
X106281285Y-97551838D01*
X106228816Y-97599433D01*
X106172575Y-97649907D01*
X106116611Y-97699649D01*
X106064972Y-97745041D01*
X106021705Y-97782471D01*
X105990860Y-97808325D01*
X105976485Y-97818987D01*
X105976184Y-97819072D01*
X105962036Y-97810030D01*
X105933635Y-97784307D01*
X105895573Y-97746246D01*
X105865942Y-97714910D01*
X105767981Y-97609073D01*
X105840057Y-97520279D01*
X105912130Y-97431480D01*
X105878359Y-97400253D01*
X105858742Y-97385089D01*
X105839154Y-97379728D01*
X105815498Y-97386115D01*
X105783673Y-97406199D01*
X105739579Y-97441924D01*
X105680018Y-97494432D01*
X105633118Y-97537021D01*
X105604178Y-97565455D01*
X105589784Y-97584031D01*
X105586519Y-97597042D01*
X105590206Y-97607420D01*
X105602362Y-97622846D01*
X105630410Y-97655312D01*
X105671021Y-97701156D01*
X105720864Y-97756735D01*
X105776612Y-97818392D01*
X105834935Y-97882469D01*
X105892506Y-97945322D01*
X105945996Y-98003292D01*
X105992079Y-98052728D01*
X106027421Y-98089978D01*
X106048699Y-98111386D01*
X106052230Y-98114478D01*
X106075750Y-98120866D01*
X106096556Y-98120313D01*
X106135605Y-98105323D01*
X106152170Y-98076566D01*
X106145851Y-98037868D01*
X106116238Y-97993064D01*
X106110603Y-97986931D01*
X106088236Y-97957165D01*
X106079581Y-97932705D01*
X106080016Y-97929496D01*
X106091231Y-97915734D01*
X106119330Y-97886792D01*
X106160286Y-97846467D01*
X106210069Y-97798553D01*
X106264655Y-97746845D01*
X106320012Y-97695139D01*
X106372116Y-97647232D01*
X106416937Y-97606916D01*
X106450446Y-97577995D01*
X106465535Y-97566199D01*
X106483396Y-97568429D01*
X106512675Y-97593691D01*
X106521074Y-97602723D01*
X106561926Y-97636479D01*
X106602140Y-97651426D01*
X106636252Y-97648385D01*
X106658793Y-97628169D01*
X106664298Y-97591596D01*
X106662703Y-97581557D01*
X106651134Y-97560171D01*
X106624394Y-97523660D01*
X106586953Y-97477202D01*
X106543274Y-97425965D01*
X106497830Y-97375119D01*
X106455083Y-97329834D01*
X106419505Y-97295278D01*
X106404264Y-97282457D01*
X106364212Y-97265522D01*
G36*
X105534748Y-96436464D02*
X105501256Y-96444509D01*
X105462874Y-96475891D01*
X105423859Y-96522427D01*
X105397359Y-96555078D01*
X105380951Y-96567536D01*
X105369174Y-96563162D01*
X105365340Y-96558562D01*
X105323420Y-96502623D01*
X105294307Y-96465652D01*
X105274177Y-96443805D01*
X105259189Y-96433239D01*
X105245515Y-96430109D01*
X105237295Y-96430160D01*
X105204695Y-96444583D01*
X105184808Y-96468219D01*
X105173899Y-96490743D01*
X105174261Y-96512192D01*
X105187967Y-96540693D01*
X105212873Y-96578292D01*
X105239418Y-96617125D01*
X105258350Y-96645691D01*
X105265156Y-96657016D01*
X105253757Y-96663982D01*
X105222327Y-96677058D01*
X105177634Y-96693428D01*
X105176923Y-96693676D01*
X105127820Y-96712004D01*
X105099297Y-96727238D01*
X105084771Y-96743989D01*
X105078596Y-96762472D01*
X105080214Y-96801130D01*
X105103435Y-96825583D01*
X105144935Y-96834912D01*
X105201399Y-96828195D01*
X105253825Y-96811168D01*
X105285025Y-96801145D01*
X105303225Y-96800000D01*
X105303604Y-96800242D01*
X105307494Y-96816402D01*
X105309765Y-96852493D01*
X105309980Y-96893778D01*
X105315030Y-96959237D01*
X105333010Y-96999923D01*
X105364197Y-97016309D01*
X105382025Y-97015964D01*
X105415641Y-96997966D01*
X105436487Y-96955231D01*
X105444191Y-96892226D01*
X105446640Y-96848870D01*
X105451052Y-96817759D01*
X105454052Y-96809282D01*
X105470619Y-96807888D01*
X105505150Y-96815315D01*
X105539913Y-96826414D01*
X105602766Y-96842770D01*
X105647020Y-96839358D01*
X105674552Y-96815860D01*
X105680684Y-96802555D01*
X105679589Y-96767441D01*
X105652461Y-96734551D01*
X105601507Y-96706170D01*
X105580086Y-96698266D01*
X105539701Y-96684066D01*
X105511292Y-96672715D01*
X105504304Y-96669062D01*
X105507004Y-96655065D01*
X105523623Y-96626249D01*
X105542632Y-96599487D01*
X105578962Y-96545503D01*
X105593930Y-96504965D01*
X105588211Y-96473651D01*
X105566393Y-96450214D01*
X105534748Y-96436464D01*
X105534748Y-96436464D01*
G37*
X105534748Y-96436464D02*
X105501256Y-96444509D01*
X105462874Y-96475891D01*
X105423859Y-96522427D01*
X105397359Y-96555078D01*
X105380951Y-96567536D01*
X105369174Y-96563162D01*
X105365340Y-96558562D01*
X105323420Y-96502623D01*
X105294307Y-96465652D01*
X105274177Y-96443805D01*
X105259189Y-96433239D01*
X105245515Y-96430109D01*
X105237295Y-96430160D01*
X105204695Y-96444583D01*
X105184808Y-96468219D01*
X105173899Y-96490743D01*
X105174261Y-96512192D01*
X105187967Y-96540693D01*
X105212873Y-96578292D01*
X105239418Y-96617125D01*
X105258350Y-96645691D01*
X105265156Y-96657016D01*
X105253757Y-96663982D01*
X105222327Y-96677058D01*
X105177634Y-96693428D01*
X105176923Y-96693676D01*
X105127820Y-96712004D01*
X105099297Y-96727238D01*
X105084771Y-96743989D01*
X105078596Y-96762472D01*
X105080214Y-96801130D01*
X105103435Y-96825583D01*
X105144935Y-96834912D01*
X105201399Y-96828195D01*
X105253825Y-96811168D01*
X105285025Y-96801145D01*
X105303225Y-96800000D01*
X105303604Y-96800242D01*
X105307494Y-96816402D01*
X105309765Y-96852493D01*
X105309980Y-96893778D01*
X105315030Y-96959237D01*
X105333010Y-96999923D01*
X105364197Y-97016309D01*
X105382025Y-97015964D01*
X105415641Y-96997966D01*
X105436487Y-96955231D01*
X105444191Y-96892226D01*
X105446640Y-96848870D01*
X105451052Y-96817759D01*
X105454052Y-96809282D01*
X105470619Y-96807888D01*
X105505150Y-96815315D01*
X105539913Y-96826414D01*
X105602766Y-96842770D01*
X105647020Y-96839358D01*
X105674552Y-96815860D01*
X105680684Y-96802555D01*
X105679589Y-96767441D01*
X105652461Y-96734551D01*
X105601507Y-96706170D01*
X105580086Y-96698266D01*
X105539701Y-96684066D01*
X105511292Y-96672715D01*
X105504304Y-96669062D01*
X105507004Y-96655065D01*
X105523623Y-96626249D01*
X105542632Y-96599487D01*
X105578962Y-96545503D01*
X105593930Y-96504965D01*
X105588211Y-96473651D01*
X105566393Y-96450214D01*
X105534748Y-96436464D01*
G36*
X97165365Y-105223955D02*
X97128865Y-105177214D01*
X97096088Y-105138977D01*
X97072323Y-105115291D01*
X97066566Y-105111258D01*
X97032476Y-105107427D01*
X96997871Y-105121457D01*
X96978770Y-105144095D01*
X96964496Y-105154181D01*
X96930760Y-105155114D01*
X96876466Y-105147491D01*
X96824067Y-105136852D01*
X96791082Y-105125209D01*
X96778190Y-105109992D01*
X96786077Y-105088615D01*
X96815423Y-105058500D01*
X96866914Y-105017070D01*
X96921917Y-104975959D01*
X96942540Y-104957667D01*
X96944845Y-104939794D01*
X96929583Y-104911410D01*
X96926625Y-104906808D01*
X96876591Y-104836527D01*
X96833846Y-104792564D01*
X96797219Y-104774299D01*
X96765546Y-104781108D01*
X96740530Y-104807800D01*
X96726724Y-104837167D01*
X96732248Y-104863923D01*
X96743598Y-104882549D01*
X96770072Y-104921614D01*
X96586784Y-105058506D01*
X96519166Y-105109098D01*
X96454494Y-105157647D01*
X96398403Y-105199914D01*
X96356518Y-105231662D01*
X96342679Y-105242253D01*
X96281858Y-105289108D01*
X96244200Y-105252964D01*
X96214086Y-105229780D01*
X96187175Y-105227005D01*
X96167490Y-105233798D01*
X96134181Y-105259003D01*
X96125929Y-105281648D01*
X96124726Y-105298771D01*
X96126695Y-105312619D01*
X96135093Y-105329487D01*
X96153182Y-105355667D01*
X96184227Y-105397456D01*
X96189844Y-105404980D01*
X96219532Y-105441508D01*
X96243885Y-105465643D01*
X96256877Y-105472059D01*
X96272088Y-105462007D01*
X96305575Y-105437970D01*
X96353128Y-105403030D01*
X96410528Y-105360273D01*
X96443521Y-105335482D01*
X96503784Y-105290557D01*
X96555898Y-105252630D01*
X96595839Y-105224563D01*
X96619589Y-105209206D01*
X96624299Y-105207214D01*
X96628300Y-105221592D01*
X96630435Y-105254834D01*
X96630551Y-105274244D01*
X96627102Y-105317067D01*
X96614472Y-105342725D01*
X96588538Y-105361421D01*
X96564750Y-105379845D01*
X96556159Y-105403314D01*
X96563711Y-105435735D01*
X96588361Y-105481016D01*
X96631054Y-105543071D01*
X96633412Y-105546319D01*
X96674360Y-105598974D01*
X96706422Y-105629578D01*
X96734389Y-105640799D01*
X96763048Y-105635296D01*
X96778930Y-105627224D01*
X96798661Y-105613299D01*
X96804630Y-105596751D01*
X96797701Y-105568741D01*
X96787268Y-105541656D01*
X96774629Y-105497812D01*
X96766299Y-105444581D01*
X96762338Y-105388627D01*
X96762800Y-105336613D01*
X96767741Y-105295200D01*
X96777220Y-105271048D01*
X96784961Y-105267593D01*
X96807048Y-105271577D01*
X96849666Y-105280000D01*
X96905716Y-105291441D01*
X96943090Y-105299218D01*
X97011992Y-105315114D01*
X97058457Y-105329944D01*
X97088093Y-105345946D01*
X97105695Y-105364165D01*
X97141551Y-105394590D01*
X97170620Y-105401003D01*
X97201508Y-105397198D01*
X97218911Y-105378385D01*
X97225560Y-105363244D01*
X97240705Y-105324792D01*
X97165365Y-105223955D01*
X97165365Y-105223955D01*
G37*
X97165365Y-105223955D02*
X97128865Y-105177214D01*
X97096088Y-105138977D01*
X97072323Y-105115291D01*
X97066566Y-105111258D01*
X97032476Y-105107427D01*
X96997871Y-105121457D01*
X96978770Y-105144095D01*
X96964496Y-105154181D01*
X96930760Y-105155114D01*
X96876466Y-105147491D01*
X96824067Y-105136852D01*
X96791082Y-105125209D01*
X96778190Y-105109992D01*
X96786077Y-105088615D01*
X96815423Y-105058500D01*
X96866914Y-105017070D01*
X96921917Y-104975959D01*
X96942540Y-104957667D01*
X96944845Y-104939794D01*
X96929583Y-104911410D01*
X96926625Y-104906808D01*
X96876591Y-104836527D01*
X96833846Y-104792564D01*
X96797219Y-104774299D01*
X96765546Y-104781108D01*
X96740530Y-104807800D01*
X96726724Y-104837167D01*
X96732248Y-104863923D01*
X96743598Y-104882549D01*
X96770072Y-104921614D01*
X96586784Y-105058506D01*
X96519166Y-105109098D01*
X96454494Y-105157647D01*
X96398403Y-105199914D01*
X96356518Y-105231662D01*
X96342679Y-105242253D01*
X96281858Y-105289108D01*
X96244200Y-105252964D01*
X96214086Y-105229780D01*
X96187175Y-105227005D01*
X96167490Y-105233798D01*
X96134181Y-105259003D01*
X96125929Y-105281648D01*
X96124726Y-105298771D01*
X96126695Y-105312619D01*
X96135093Y-105329487D01*
X96153182Y-105355667D01*
X96184227Y-105397456D01*
X96189844Y-105404980D01*
X96219532Y-105441508D01*
X96243885Y-105465643D01*
X96256877Y-105472059D01*
X96272088Y-105462007D01*
X96305575Y-105437970D01*
X96353128Y-105403030D01*
X96410528Y-105360273D01*
X96443521Y-105335482D01*
X96503784Y-105290557D01*
X96555898Y-105252630D01*
X96595839Y-105224563D01*
X96619589Y-105209206D01*
X96624299Y-105207214D01*
X96628300Y-105221592D01*
X96630435Y-105254834D01*
X96630551Y-105274244D01*
X96627102Y-105317067D01*
X96614472Y-105342725D01*
X96588538Y-105361421D01*
X96564750Y-105379845D01*
X96556159Y-105403314D01*
X96563711Y-105435735D01*
X96588361Y-105481016D01*
X96631054Y-105543071D01*
X96633412Y-105546319D01*
X96674360Y-105598974D01*
X96706422Y-105629578D01*
X96734389Y-105640799D01*
X96763048Y-105635296D01*
X96778930Y-105627224D01*
X96798661Y-105613299D01*
X96804630Y-105596751D01*
X96797701Y-105568741D01*
X96787268Y-105541656D01*
X96774629Y-105497812D01*
X96766299Y-105444581D01*
X96762338Y-105388627D01*
X96762800Y-105336613D01*
X96767741Y-105295200D01*
X96777220Y-105271048D01*
X96784961Y-105267593D01*
X96807048Y-105271577D01*
X96849666Y-105280000D01*
X96905716Y-105291441D01*
X96943090Y-105299218D01*
X97011992Y-105315114D01*
X97058457Y-105329944D01*
X97088093Y-105345946D01*
X97105695Y-105364165D01*
X97141551Y-105394590D01*
X97170620Y-105401003D01*
X97201508Y-105397198D01*
X97218911Y-105378385D01*
X97225560Y-105363244D01*
X97240705Y-105324792D01*
X97165365Y-105223955D01*
G36*
X95913110Y-102428387D02*
X95886506Y-102403049D01*
X95853993Y-102400373D01*
X95837254Y-102405981D01*
X95806569Y-102431677D01*
X95797771Y-102467483D01*
X95802299Y-102484933D01*
X95806632Y-102510527D01*
X95803834Y-102519381D01*
X95788142Y-102525783D01*
X95748992Y-102536892D01*
X95690585Y-102551658D01*
X95617112Y-102569035D01*
X95532764Y-102587978D01*
X95505254Y-102593963D01*
X95214938Y-102656641D01*
X95196464Y-102614155D01*
X95172363Y-102579030D01*
X95140471Y-102556641D01*
X95109951Y-102553100D01*
X95106731Y-102554269D01*
X95077780Y-102578739D01*
X95066877Y-102620647D01*
X95073400Y-102682547D01*
X95074467Y-102687566D01*
X95084661Y-102735838D01*
X95092429Y-102775308D01*
X95095309Y-102792199D01*
X95107470Y-102812054D01*
X95117787Y-102814897D01*
X95139206Y-102811445D01*
X95181099Y-102802989D01*
X95236453Y-102790985D01*
X95272788Y-102782780D01*
X95408526Y-102751684D01*
X95398639Y-102798389D01*
X95387830Y-102904763D01*
X95401351Y-103002257D01*
X95438399Y-103087852D01*
X95494634Y-103155399D01*
X95575002Y-103211234D01*
X95662815Y-103242688D01*
X95753329Y-103249506D01*
X95836688Y-103232474D01*
X95780636Y-103103557D01*
X95735790Y-103112926D01*
X95694565Y-103108689D01*
X95646981Y-103091274D01*
X95603050Y-103069834D01*
X95575913Y-103047348D01*
X95555533Y-103013961D01*
X95545359Y-102991525D01*
X95523528Y-102918220D01*
X95522871Y-102870678D01*
X95545405Y-102799995D01*
X95588621Y-102743854D01*
X95647706Y-102706425D01*
X95717837Y-102691885D01*
X95729188Y-102691943D01*
X95791059Y-102705399D01*
X95840367Y-102742358D01*
X95879273Y-102804522D01*
X95882863Y-102812623D01*
X95906900Y-102894169D01*
X95906816Y-102967165D01*
X95883617Y-103028732D01*
X95838321Y-103075989D01*
X95780636Y-103103557D01*
X95836688Y-103232474D01*
X95841808Y-103231426D01*
X95923518Y-103188195D01*
X95935044Y-103179408D01*
X95989270Y-103119068D01*
X96025339Y-103042855D01*
X96042897Y-102956816D01*
X96041593Y-102866990D01*
X96021077Y-102779421D01*
X95981000Y-102700157D01*
X95964231Y-102677832D01*
X95945391Y-102651026D01*
X95945797Y-102637037D01*
X95951372Y-102633488D01*
X95959507Y-102615639D01*
X95958254Y-102577375D01*
X95954410Y-102554429D01*
X95935260Y-102478232D01*
X95913110Y-102428387D01*
X95913110Y-102428387D01*
G37*
X95913110Y-102428387D02*
X95886506Y-102403049D01*
X95853993Y-102400373D01*
X95837254Y-102405981D01*
X95806569Y-102431677D01*
X95797771Y-102467483D01*
X95802299Y-102484933D01*
X95806632Y-102510527D01*
X95803834Y-102519381D01*
X95788142Y-102525783D01*
X95748992Y-102536892D01*
X95690585Y-102551658D01*
X95617112Y-102569035D01*
X95532764Y-102587978D01*
X95505254Y-102593963D01*
X95214938Y-102656641D01*
X95196464Y-102614155D01*
X95172363Y-102579030D01*
X95140471Y-102556641D01*
X95109951Y-102553100D01*
X95106731Y-102554269D01*
X95077780Y-102578739D01*
X95066877Y-102620647D01*
X95073400Y-102682547D01*
X95074467Y-102687566D01*
X95084661Y-102735838D01*
X95092429Y-102775308D01*
X95095309Y-102792199D01*
X95107470Y-102812054D01*
X95117787Y-102814897D01*
X95139206Y-102811445D01*
X95181099Y-102802989D01*
X95236453Y-102790985D01*
X95272788Y-102782780D01*
X95408526Y-102751684D01*
X95398639Y-102798389D01*
X95387830Y-102904763D01*
X95401351Y-103002257D01*
X95438399Y-103087852D01*
X95494634Y-103155399D01*
X95575002Y-103211234D01*
X95662815Y-103242688D01*
X95753329Y-103249506D01*
X95836688Y-103232474D01*
X95780636Y-103103557D01*
X95735790Y-103112926D01*
X95694565Y-103108689D01*
X95646981Y-103091274D01*
X95603050Y-103069834D01*
X95575913Y-103047348D01*
X95555533Y-103013961D01*
X95545359Y-102991525D01*
X95523528Y-102918220D01*
X95522871Y-102870678D01*
X95545405Y-102799995D01*
X95588621Y-102743854D01*
X95647706Y-102706425D01*
X95717837Y-102691885D01*
X95729188Y-102691943D01*
X95791059Y-102705399D01*
X95840367Y-102742358D01*
X95879273Y-102804522D01*
X95882863Y-102812623D01*
X95906900Y-102894169D01*
X95906816Y-102967165D01*
X95883617Y-103028732D01*
X95838321Y-103075989D01*
X95780636Y-103103557D01*
X95836688Y-103232474D01*
X95841808Y-103231426D01*
X95923518Y-103188195D01*
X95935044Y-103179408D01*
X95989270Y-103119068D01*
X96025339Y-103042855D01*
X96042897Y-102956816D01*
X96041593Y-102866990D01*
X96021077Y-102779421D01*
X95981000Y-102700157D01*
X95964231Y-102677832D01*
X95945391Y-102651026D01*
X95945797Y-102637037D01*
X95951372Y-102633488D01*
X95959507Y-102615639D01*
X95958254Y-102577375D01*
X95954410Y-102554429D01*
X95935260Y-102478232D01*
X95913110Y-102428387D01*
G36*
X96183314Y-103448240D02*
X96146362Y-103415151D01*
X96109614Y-103394985D01*
X96067897Y-103387593D01*
X96016027Y-103392826D01*
X95948835Y-103410538D01*
X95865090Y-103439152D01*
X95801408Y-103462142D01*
X95748235Y-103481276D01*
X95710700Y-103494708D01*
X95693946Y-103500593D01*
X95693568Y-103500706D01*
X95685968Y-103490366D01*
X95678438Y-103474757D01*
X95650081Y-103434608D01*
X95612598Y-103419689D01*
X95579511Y-103426408D01*
X95552860Y-103445979D01*
X95542953Y-103476713D01*
X95549744Y-103522353D01*
X95573181Y-103586651D01*
X95577139Y-103595872D01*
X95596227Y-103637892D01*
X95610645Y-103659340D01*
X95626740Y-103665643D01*
X95650850Y-103662239D01*
X95653830Y-103661599D01*
X95688707Y-103651370D01*
X95738885Y-103633444D01*
X95793855Y-103611589D01*
X95797016Y-103610261D01*
X95885637Y-103575199D01*
X95961609Y-103549740D01*
X96021478Y-103534816D01*
X96061785Y-103531364D01*
X96075111Y-103535168D01*
X96104081Y-103570147D01*
X96123150Y-103625253D01*
X96130364Y-103693524D01*
X96129117Y-103728009D01*
X96122168Y-103813989D01*
X95992381Y-103864990D01*
X95935978Y-103886531D01*
X95889276Y-103903206D01*
X95858565Y-103912836D01*
X95850313Y-103914307D01*
X95837280Y-103901470D01*
X95820457Y-103871795D01*
X95816537Y-103863181D01*
X95789120Y-103820796D01*
X95756276Y-103804885D01*
X95719904Y-103816259D01*
X95714920Y-103819858D01*
X95698876Y-103834589D01*
X95691014Y-103851767D01*
X95691681Y-103877119D01*
X95701215Y-103916372D01*
X95719953Y-103975248D01*
X95725066Y-103990571D01*
X95761098Y-104098169D01*
X95983621Y-104012641D01*
X96206139Y-103927116D01*
X96243241Y-103959333D01*
X96282951Y-103981938D01*
X96317475Y-103980147D01*
X96341482Y-103955117D01*
X96347403Y-103936745D01*
X96346603Y-103907232D01*
X96337438Y-103866918D01*
X96322891Y-103823653D01*
X96305940Y-103785290D01*
X96289573Y-103759678D01*
X96277969Y-103753942D01*
X96270859Y-103744614D01*
X96266542Y-103714913D01*
X96265919Y-103693750D01*
X96255917Y-103591924D01*
X96225835Y-103507095D01*
X96183314Y-103448240D01*
X96183314Y-103448240D01*
G37*
X96183314Y-103448240D02*
X96146362Y-103415151D01*
X96109614Y-103394985D01*
X96067897Y-103387593D01*
X96016027Y-103392826D01*
X95948835Y-103410538D01*
X95865090Y-103439152D01*
X95801408Y-103462142D01*
X95748235Y-103481276D01*
X95710700Y-103494708D01*
X95693946Y-103500593D01*
X95693568Y-103500706D01*
X95685968Y-103490366D01*
X95678438Y-103474757D01*
X95650081Y-103434608D01*
X95612598Y-103419689D01*
X95579511Y-103426408D01*
X95552860Y-103445979D01*
X95542953Y-103476713D01*
X95549744Y-103522353D01*
X95573181Y-103586651D01*
X95577139Y-103595872D01*
X95596227Y-103637892D01*
X95610645Y-103659340D01*
X95626740Y-103665643D01*
X95650850Y-103662239D01*
X95653830Y-103661599D01*
X95688707Y-103651370D01*
X95738885Y-103633444D01*
X95793855Y-103611589D01*
X95797016Y-103610261D01*
X95885637Y-103575199D01*
X95961609Y-103549740D01*
X96021478Y-103534816D01*
X96061785Y-103531364D01*
X96075111Y-103535168D01*
X96104081Y-103570147D01*
X96123150Y-103625253D01*
X96130364Y-103693524D01*
X96129117Y-103728009D01*
X96122168Y-103813989D01*
X95992381Y-103864990D01*
X95935978Y-103886531D01*
X95889276Y-103903206D01*
X95858565Y-103912836D01*
X95850313Y-103914307D01*
X95837280Y-103901470D01*
X95820457Y-103871795D01*
X95816537Y-103863181D01*
X95789120Y-103820796D01*
X95756276Y-103804885D01*
X95719904Y-103816259D01*
X95714920Y-103819858D01*
X95698876Y-103834589D01*
X95691014Y-103851767D01*
X95691681Y-103877119D01*
X95701215Y-103916372D01*
X95719953Y-103975248D01*
X95725066Y-103990571D01*
X95761098Y-104098169D01*
X95983621Y-104012641D01*
X96206139Y-103927116D01*
X96243241Y-103959333D01*
X96282951Y-103981938D01*
X96317475Y-103980147D01*
X96341482Y-103955117D01*
X96347403Y-103936745D01*
X96346603Y-103907232D01*
X96337438Y-103866918D01*
X96322891Y-103823653D01*
X96305940Y-103785290D01*
X96289573Y-103759678D01*
X96277969Y-103753942D01*
X96270859Y-103744614D01*
X96266542Y-103714913D01*
X96265919Y-103693750D01*
X96255917Y-103591924D01*
X96225835Y-103507095D01*
X96183314Y-103448240D01*
G36*
X96610514Y-104355139D02*
X96550691Y-104268542D01*
X96480839Y-104206472D01*
X96420790Y-104175069D01*
X96333825Y-104153963D01*
X96250822Y-104157881D01*
X96174490Y-104183644D01*
X96107533Y-104228063D01*
X96052661Y-104287958D01*
X96012581Y-104360141D01*
X95990002Y-104441431D01*
X95987631Y-104528643D01*
X96008175Y-104618591D01*
X96019699Y-104646703D01*
X96042819Y-104687424D01*
X96075307Y-104733472D01*
X96090096Y-104751687D01*
X96123761Y-104795286D01*
X96152864Y-104840204D01*
X96161588Y-104856531D01*
X96187961Y-104896365D01*
X96220408Y-104913124D01*
X96263164Y-104907456D01*
X96319370Y-104880644D01*
X96372951Y-104847424D01*
X96403594Y-104820713D01*
X96414353Y-104795981D01*
X96408277Y-104768697D01*
X96402484Y-104757248D01*
X96382038Y-104730444D01*
X96354455Y-104721718D01*
X96329072Y-104722801D01*
X96271063Y-104718836D01*
X96222276Y-104692839D01*
X96179259Y-104642395D01*
X96156130Y-104602050D01*
X96125959Y-104521438D01*
X96121959Y-104449664D01*
X96143751Y-104387986D01*
X96190962Y-104337664D01*
X96243490Y-104307850D01*
X96310082Y-104290704D01*
X96371177Y-104300122D01*
X96427344Y-104336475D01*
X96479163Y-104400136D01*
X96527203Y-104491477D01*
X96527523Y-104492208D01*
X96550800Y-104549903D01*
X96562062Y-104592896D01*
X96563426Y-104630938D01*
X96561439Y-104648605D01*
X96561001Y-104700870D01*
X96578877Y-104732712D01*
X96616270Y-104746162D01*
X96619116Y-104746427D01*
X96648895Y-104740603D01*
X96672564Y-104714915D01*
X96693564Y-104665190D01*
X96696684Y-104604507D01*
X96681741Y-104528935D01*
X96661368Y-104467555D01*
X96610514Y-104355139D01*
X96610514Y-104355139D01*
G37*
X96610514Y-104355139D02*
X96550691Y-104268542D01*
X96480839Y-104206472D01*
X96420790Y-104175069D01*
X96333825Y-104153963D01*
X96250822Y-104157881D01*
X96174490Y-104183644D01*
X96107533Y-104228063D01*
X96052661Y-104287958D01*
X96012581Y-104360141D01*
X95990002Y-104441431D01*
X95987631Y-104528643D01*
X96008175Y-104618591D01*
X96019699Y-104646703D01*
X96042819Y-104687424D01*
X96075307Y-104733472D01*
X96090096Y-104751687D01*
X96123761Y-104795286D01*
X96152864Y-104840204D01*
X96161588Y-104856531D01*
X96187961Y-104896365D01*
X96220408Y-104913124D01*
X96263164Y-104907456D01*
X96319370Y-104880644D01*
X96372951Y-104847424D01*
X96403594Y-104820713D01*
X96414353Y-104795981D01*
X96408277Y-104768697D01*
X96402484Y-104757248D01*
X96382038Y-104730444D01*
X96354455Y-104721718D01*
X96329072Y-104722801D01*
X96271063Y-104718836D01*
X96222276Y-104692839D01*
X96179259Y-104642395D01*
X96156130Y-104602050D01*
X96125959Y-104521438D01*
X96121959Y-104449664D01*
X96143751Y-104387986D01*
X96190962Y-104337664D01*
X96243490Y-104307850D01*
X96310082Y-104290704D01*
X96371177Y-104300122D01*
X96427344Y-104336475D01*
X96479163Y-104400136D01*
X96527203Y-104491477D01*
X96527523Y-104492208D01*
X96550800Y-104549903D01*
X96562062Y-104592896D01*
X96563426Y-104630938D01*
X96561439Y-104648605D01*
X96561001Y-104700870D01*
X96578877Y-104732712D01*
X96616270Y-104746162D01*
X96619116Y-104746427D01*
X96648895Y-104740603D01*
X96672564Y-104714915D01*
X96693564Y-104665190D01*
X96696684Y-104604507D01*
X96681741Y-104528935D01*
X96661368Y-104467555D01*
X96610514Y-104355139D01*
G36*
X95839006Y-101765899D02*
X95817737Y-101739225D01*
X95787899Y-101713885D01*
X95770155Y-101700706D01*
X95688268Y-101657314D01*
X95600237Y-101639705D01*
X95511072Y-101647714D01*
X95425775Y-101681178D01*
X95378529Y-101713415D01*
X95331040Y-101766676D01*
X95292038Y-101838043D01*
X95265445Y-101917751D01*
X95255173Y-101996046D01*
X95255943Y-102018839D01*
X95269072Y-102090472D01*
X95294520Y-102163434D01*
X95327982Y-102227502D01*
X95361109Y-102268833D01*
X95419026Y-102309842D01*
X95490347Y-102341809D01*
X95562955Y-102360069D01*
X95578561Y-102360960D01*
X95513763Y-102211939D01*
X95500416Y-102205957D01*
X95481081Y-102190008D01*
X95470453Y-102180573D01*
X95422529Y-102123481D01*
X95397160Y-102055093D01*
X95392626Y-101970710D01*
X95392777Y-101968154D01*
X95403605Y-101917275D01*
X95426577Y-101866349D01*
X95456224Y-101825368D01*
X95481440Y-101806296D01*
X95490244Y-101807246D01*
X95497263Y-101821211D01*
X95503194Y-101851913D01*
X95508733Y-101903070D01*
X95514578Y-101978408D01*
X95515113Y-101986095D01*
X95521238Y-102075482D01*
X95524862Y-102139725D01*
X95525292Y-102181858D01*
X95521824Y-102204918D01*
X95513763Y-102211939D01*
X95578561Y-102360960D01*
X95604095Y-102362426D01*
X95643772Y-102359329D01*
X95668970Y-102354891D01*
X95673381Y-102352441D01*
X95673049Y-102336859D01*
X95670958Y-102297534D01*
X95667381Y-102238890D01*
X95662589Y-102165350D01*
X95656854Y-102081335D01*
X95656196Y-102071927D01*
X95650811Y-101987021D01*
X95647124Y-101912053D01*
X95645265Y-101851462D01*
X95645361Y-101809674D01*
X95647548Y-101791130D01*
X95647912Y-101790708D01*
X95664196Y-101794348D01*
X95692473Y-101812478D01*
X95705751Y-101823160D01*
X95734326Y-101850487D01*
X95751602Y-101878156D01*
X95763650Y-101917543D01*
X95768788Y-101941161D01*
X95774463Y-101992405D01*
X95775327Y-102060483D01*
X95771383Y-102134412D01*
X95768854Y-102159730D01*
X95761393Y-102232570D01*
X95758961Y-102282504D01*
X95762157Y-102314499D01*
X95771577Y-102333535D01*
X95787814Y-102344591D01*
X95791147Y-102345972D01*
X95829445Y-102348683D01*
X95861047Y-102324353D01*
X95885748Y-102273420D01*
X95903339Y-102196330D01*
X95913624Y-102093514D01*
X95914270Y-102081239D01*
X95915684Y-102013473D01*
X95910758Y-101959999D01*
X95897377Y-101907187D01*
X95879481Y-101857085D01*
X95857615Y-101802367D01*
X95839006Y-101765899D01*
X95839006Y-101765899D01*
G37*
X95839006Y-101765899D02*
X95817737Y-101739225D01*
X95787899Y-101713885D01*
X95770155Y-101700706D01*
X95688268Y-101657314D01*
X95600237Y-101639705D01*
X95511072Y-101647714D01*
X95425775Y-101681178D01*
X95378529Y-101713415D01*
X95331040Y-101766676D01*
X95292038Y-101838043D01*
X95265445Y-101917751D01*
X95255173Y-101996046D01*
X95255943Y-102018839D01*
X95269072Y-102090472D01*
X95294520Y-102163434D01*
X95327982Y-102227502D01*
X95361109Y-102268833D01*
X95419026Y-102309842D01*
X95490347Y-102341809D01*
X95562955Y-102360069D01*
X95578561Y-102360960D01*
X95513763Y-102211939D01*
X95500416Y-102205957D01*
X95481081Y-102190008D01*
X95470453Y-102180573D01*
X95422529Y-102123481D01*
X95397160Y-102055093D01*
X95392626Y-101970710D01*
X95392777Y-101968154D01*
X95403605Y-101917275D01*
X95426577Y-101866349D01*
X95456224Y-101825368D01*
X95481440Y-101806296D01*
X95490244Y-101807246D01*
X95497263Y-101821211D01*
X95503194Y-101851913D01*
X95508733Y-101903070D01*
X95514578Y-101978408D01*
X95515113Y-101986095D01*
X95521238Y-102075482D01*
X95524862Y-102139725D01*
X95525292Y-102181858D01*
X95521824Y-102204918D01*
X95513763Y-102211939D01*
X95578561Y-102360960D01*
X95604095Y-102362426D01*
X95643772Y-102359329D01*
X95668970Y-102354891D01*
X95673381Y-102352441D01*
X95673049Y-102336859D01*
X95670958Y-102297534D01*
X95667381Y-102238890D01*
X95662589Y-102165350D01*
X95656854Y-102081335D01*
X95656196Y-102071927D01*
X95650811Y-101987021D01*
X95647124Y-101912053D01*
X95645265Y-101851462D01*
X95645361Y-101809674D01*
X95647548Y-101791130D01*
X95647912Y-101790708D01*
X95664196Y-101794348D01*
X95692473Y-101812478D01*
X95705751Y-101823160D01*
X95734326Y-101850487D01*
X95751602Y-101878156D01*
X95763650Y-101917543D01*
X95768788Y-101941161D01*
X95774463Y-101992405D01*
X95775327Y-102060483D01*
X95771383Y-102134412D01*
X95768854Y-102159730D01*
X95761393Y-102232570D01*
X95758961Y-102282504D01*
X95762157Y-102314499D01*
X95771577Y-102333535D01*
X95787814Y-102344591D01*
X95791147Y-102345972D01*
X95829445Y-102348683D01*
X95861047Y-102324353D01*
X95885748Y-102273420D01*
X95903339Y-102196330D01*
X95913624Y-102093514D01*
X95914270Y-102081239D01*
X95915684Y-102013473D01*
X95910758Y-101959999D01*
X95897377Y-101907187D01*
X95879481Y-101857085D01*
X95857615Y-101802367D01*
X95839006Y-101765899D01*
G36*
X95858419Y-100933663D02*
X95798079Y-100869103D01*
X95720029Y-100825142D01*
X95626789Y-100803701D01*
X95619003Y-100803035D01*
X95557419Y-100807597D01*
X95487919Y-100826783D01*
X95420492Y-100856506D01*
X95365139Y-100892686D01*
X95341339Y-100916474D01*
X95297270Y-100992423D01*
X95268949Y-101083299D01*
X95258287Y-101179420D01*
X95267199Y-101271100D01*
X95269490Y-101280637D01*
X95275262Y-101324791D01*
X95271315Y-101363076D01*
X95269100Y-101369145D01*
X95261521Y-101410961D01*
X95279349Y-101442273D01*
X95304689Y-101455581D01*
X95345479Y-101464053D01*
X95396720Y-101468769D01*
X95446962Y-101469292D01*
X95484761Y-101465195D01*
X95492690Y-101462694D01*
X95520845Y-101438388D01*
X95528119Y-101405011D01*
X95515812Y-101370990D01*
X95485213Y-101344741D01*
X95473837Y-101340026D01*
X95437808Y-101314067D01*
X95412315Y-101268429D01*
X95398298Y-101209992D01*
X95396699Y-101145638D01*
X95408459Y-101082245D01*
X95431531Y-101031259D01*
X95479367Y-100980499D01*
X95541854Y-100949640D01*
X95611725Y-100940792D01*
X95681697Y-100956068D01*
X95685352Y-100957627D01*
X95727431Y-100990500D01*
X95757853Y-101043135D01*
X95776297Y-101109435D01*
X95782443Y-101183297D01*
X95775973Y-101258623D01*
X95756564Y-101329310D01*
X95723899Y-101389263D01*
X95708931Y-101406938D01*
X95685801Y-101437497D01*
X95683503Y-101464955D01*
X95689168Y-101481171D01*
X95715450Y-101519499D01*
X95748387Y-101530888D01*
X95786757Y-101515512D01*
X95829335Y-101473550D01*
X95840149Y-101459396D01*
X95873910Y-101395366D01*
X95898553Y-101313106D01*
X95912910Y-101221484D01*
X95915810Y-101129360D01*
X95906082Y-101045604D01*
X95898543Y-101016899D01*
X95858419Y-100933663D01*
X95858419Y-100933663D01*
G37*
X95858419Y-100933663D02*
X95798079Y-100869103D01*
X95720029Y-100825142D01*
X95626789Y-100803701D01*
X95619003Y-100803035D01*
X95557419Y-100807597D01*
X95487919Y-100826783D01*
X95420492Y-100856506D01*
X95365139Y-100892686D01*
X95341339Y-100916474D01*
X95297270Y-100992423D01*
X95268949Y-101083299D01*
X95258287Y-101179420D01*
X95267199Y-101271100D01*
X95269490Y-101280637D01*
X95275262Y-101324791D01*
X95271315Y-101363076D01*
X95269100Y-101369145D01*
X95261521Y-101410961D01*
X95279349Y-101442273D01*
X95304689Y-101455581D01*
X95345479Y-101464053D01*
X95396720Y-101468769D01*
X95446962Y-101469292D01*
X95484761Y-101465195D01*
X95492690Y-101462694D01*
X95520845Y-101438388D01*
X95528119Y-101405011D01*
X95515812Y-101370990D01*
X95485213Y-101344741D01*
X95473837Y-101340026D01*
X95437808Y-101314067D01*
X95412315Y-101268429D01*
X95398298Y-101209992D01*
X95396699Y-101145638D01*
X95408459Y-101082245D01*
X95431531Y-101031259D01*
X95479367Y-100980499D01*
X95541854Y-100949640D01*
X95611725Y-100940792D01*
X95681697Y-100956068D01*
X95685352Y-100957627D01*
X95727431Y-100990500D01*
X95757853Y-101043135D01*
X95776297Y-101109435D01*
X95782443Y-101183297D01*
X95775973Y-101258623D01*
X95756564Y-101329310D01*
X95723899Y-101389263D01*
X95708931Y-101406938D01*
X95685801Y-101437497D01*
X95683503Y-101464955D01*
X95689168Y-101481171D01*
X95715450Y-101519499D01*
X95748387Y-101530888D01*
X95786757Y-101515512D01*
X95829335Y-101473550D01*
X95840149Y-101459396D01*
X95873910Y-101395366D01*
X95898553Y-101313106D01*
X95912910Y-101221484D01*
X95915810Y-101129360D01*
X95906082Y-101045604D01*
X95898543Y-101016899D01*
X95858419Y-100933663D01*
G36*
X96016440Y-100012221D02*
X95995439Y-99994841D01*
X95962155Y-99979733D01*
X95954351Y-99976640D01*
X95909671Y-99962142D01*
X95874227Y-99961682D01*
X95832637Y-99975482D01*
X95825548Y-99978521D01*
X95751297Y-100024688D01*
X95692240Y-100092481D01*
X95647839Y-100182845D01*
X95617559Y-100296713D01*
X95607920Y-100359707D01*
X95600993Y-100382230D01*
X95581981Y-100383598D01*
X95575172Y-100381768D01*
X95540076Y-100358599D01*
X95524469Y-100315397D01*
X95528352Y-100252562D01*
X95551724Y-100170488D01*
X95576842Y-100108188D01*
X95600759Y-100048005D01*
X95609614Y-100006924D01*
X95603261Y-99980088D01*
X95581572Y-99962629D01*
X95572642Y-99958724D01*
X95536148Y-99953594D01*
X95504296Y-99971080D01*
X95474034Y-100013416D01*
X95460114Y-100041194D01*
X95428544Y-100112683D01*
X95408289Y-100168644D01*
X95396748Y-100218123D01*
X95391327Y-100270177D01*
X95390690Y-100283074D01*
X95396768Y-100368640D01*
X95423205Y-100434938D01*
X95467481Y-100480618D01*
X95498022Y-100495243D01*
X95548613Y-100512530D01*
X95611529Y-100530054D01*
X95662687Y-100542005D01*
X95737749Y-100559555D01*
X95786978Y-100574846D01*
X95812601Y-100588677D01*
X95817689Y-100597776D01*
X95821822Y-100627385D01*
X95830362Y-100664038D01*
X95850566Y-100698879D01*
X95881053Y-100712675D01*
X95913647Y-100703260D01*
X95919283Y-100697862D01*
X95803259Y-100431032D01*
X95783825Y-100431407D01*
X95780287Y-100430468D01*
X95760546Y-100424077D01*
X95751120Y-100414440D01*
X95748999Y-100393312D01*
X95751169Y-100352446D01*
X95751258Y-100350974D01*
X95766736Y-100253888D01*
X95800629Y-100176052D01*
X95828829Y-100138887D01*
X95856687Y-100110139D01*
X95875451Y-100098885D01*
X95893934Y-100100799D01*
X95901044Y-100103410D01*
X95926155Y-100127059D01*
X95935706Y-100168269D01*
X95930625Y-100221687D01*
X95911843Y-100281952D01*
X95880291Y-100343710D01*
X95852426Y-100383306D01*
X95823706Y-100416580D01*
X95803259Y-100431032D01*
X95919283Y-100697862D01*
X95927694Y-100689799D01*
X95941485Y-100663497D01*
X95955345Y-100623107D01*
X95967556Y-100576416D01*
X95976397Y-100531210D01*
X95980147Y-100495276D01*
X95977091Y-100476399D01*
X95975071Y-100475259D01*
X95972957Y-100463317D01*
X95984247Y-100434745D01*
X96001770Y-100403587D01*
X96030324Y-100347659D01*
X96054405Y-100283292D01*
X96062674Y-100252400D01*
X96071362Y-100197689D01*
X96068966Y-100151484D01*
X96054332Y-100098625D01*
X96050022Y-100086437D01*
X96032262Y-100040032D01*
X96016440Y-100012221D01*
X96016440Y-100012221D01*
G37*
X96016440Y-100012221D02*
X95995439Y-99994841D01*
X95962155Y-99979733D01*
X95954351Y-99976640D01*
X95909671Y-99962142D01*
X95874227Y-99961682D01*
X95832637Y-99975482D01*
X95825548Y-99978521D01*
X95751297Y-100024688D01*
X95692240Y-100092481D01*
X95647839Y-100182845D01*
X95617559Y-100296713D01*
X95607920Y-100359707D01*
X95600993Y-100382230D01*
X95581981Y-100383598D01*
X95575172Y-100381768D01*
X95540076Y-100358599D01*
X95524469Y-100315397D01*
X95528352Y-100252562D01*
X95551724Y-100170488D01*
X95576842Y-100108188D01*
X95600759Y-100048005D01*
X95609614Y-100006924D01*
X95603261Y-99980088D01*
X95581572Y-99962629D01*
X95572642Y-99958724D01*
X95536148Y-99953594D01*
X95504296Y-99971080D01*
X95474034Y-100013416D01*
X95460114Y-100041194D01*
X95428544Y-100112683D01*
X95408289Y-100168644D01*
X95396748Y-100218123D01*
X95391327Y-100270177D01*
X95390690Y-100283074D01*
X95396768Y-100368640D01*
X95423205Y-100434938D01*
X95467481Y-100480618D01*
X95498022Y-100495243D01*
X95548613Y-100512530D01*
X95611529Y-100530054D01*
X95662687Y-100542005D01*
X95737749Y-100559555D01*
X95786978Y-100574846D01*
X95812601Y-100588677D01*
X95817689Y-100597776D01*
X95821822Y-100627385D01*
X95830362Y-100664038D01*
X95850566Y-100698879D01*
X95881053Y-100712675D01*
X95913647Y-100703260D01*
X95919283Y-100697862D01*
X95803259Y-100431032D01*
X95783825Y-100431407D01*
X95780287Y-100430468D01*
X95760546Y-100424077D01*
X95751120Y-100414440D01*
X95748999Y-100393312D01*
X95751169Y-100352446D01*
X95751258Y-100350974D01*
X95766736Y-100253888D01*
X95800629Y-100176052D01*
X95828829Y-100138887D01*
X95856687Y-100110139D01*
X95875451Y-100098885D01*
X95893934Y-100100799D01*
X95901044Y-100103410D01*
X95926155Y-100127059D01*
X95935706Y-100168269D01*
X95930625Y-100221687D01*
X95911843Y-100281952D01*
X95880291Y-100343710D01*
X95852426Y-100383306D01*
X95823706Y-100416580D01*
X95803259Y-100431032D01*
X95919283Y-100697862D01*
X95927694Y-100689799D01*
X95941485Y-100663497D01*
X95955345Y-100623107D01*
X95967556Y-100576416D01*
X95976397Y-100531210D01*
X95980147Y-100495276D01*
X95977091Y-100476399D01*
X95975071Y-100475259D01*
X95972957Y-100463317D01*
X95984247Y-100434745D01*
X96001770Y-100403587D01*
X96030324Y-100347659D01*
X96054405Y-100283292D01*
X96062674Y-100252400D01*
X96071362Y-100197689D01*
X96068966Y-100151484D01*
X96054332Y-100098625D01*
X96050022Y-100086437D01*
X96032262Y-100040032D01*
X96016440Y-100012221D01*
G36*
X96629871Y-99242762D02*
X96597135Y-99232120D01*
X96562846Y-99246794D01*
X96532692Y-99285160D01*
X96511724Y-99324076D01*
X95926950Y-99093234D01*
X95932552Y-99042118D01*
X95928831Y-98995457D01*
X95906720Y-98969104D01*
X95868266Y-98964964D01*
X95853586Y-98968418D01*
X95830226Y-98981457D01*
X95808728Y-99008962D01*
X95784994Y-99056598D01*
X95778015Y-99072822D01*
X95758229Y-99122638D01*
X95750146Y-99153135D01*
X95752974Y-99170305D01*
X95763828Y-99179146D01*
X95776506Y-99189408D01*
X95771845Y-99203372D01*
X95747280Y-99226879D01*
X95740312Y-99232774D01*
X95699598Y-99280072D01*
X95664026Y-99344812D01*
X95637729Y-99416645D01*
X95624838Y-99485216D01*
X95625301Y-99520824D01*
X95645034Y-99603519D01*
X95680669Y-99680536D01*
X95727264Y-99741603D01*
X95734712Y-99748591D01*
X95805816Y-99794927D01*
X95883697Y-99816603D01*
X95964035Y-99814930D01*
X96038091Y-99792551D01*
X95982728Y-99665224D01*
X95927790Y-99680177D01*
X95879263Y-99675680D01*
X95875259Y-99674095D01*
X95817409Y-99634950D01*
X95779529Y-99577834D01*
X95763473Y-99506442D01*
X95765456Y-99455342D01*
X95781429Y-99408106D01*
X95813133Y-99357307D01*
X95852683Y-99313604D01*
X95888405Y-99289167D01*
X95921786Y-99280565D01*
X95965394Y-99276051D01*
X95970712Y-99275918D01*
X96026732Y-99287391D01*
X96071112Y-99320064D01*
X96102072Y-99368675D01*
X96117842Y-99427964D01*
X96116642Y-99492672D01*
X96096694Y-99557537D01*
X96077214Y-99591193D01*
X96035420Y-99634379D01*
X95982728Y-99665224D01*
X96038091Y-99792551D01*
X96042515Y-99791214D01*
X96114816Y-99746763D01*
X96176621Y-99682885D01*
X96223606Y-99600886D01*
X96223770Y-99600505D01*
X96241407Y-99545460D01*
X96251840Y-99486519D01*
X96253819Y-99434104D01*
X96247612Y-99401739D01*
X96243946Y-99387717D01*
X96251325Y-99382047D01*
X96273779Y-99385166D01*
X96315338Y-99397510D01*
X96365817Y-99414592D01*
X96466987Y-99449577D01*
X96445014Y-99521166D01*
X96433985Y-99565098D01*
X96429704Y-99599504D01*
X96431129Y-99611347D01*
X96451878Y-99631152D01*
X96485697Y-99644701D01*
X96517424Y-99646399D01*
X96522038Y-99644887D01*
X96533545Y-99629636D01*
X96552652Y-99593376D01*
X96576759Y-99541436D01*
X96603264Y-99479144D01*
X96604861Y-99475225D01*
X96634265Y-99399708D01*
X96652123Y-99345258D01*
X96659519Y-99307694D01*
X96657549Y-99282830D01*
X96656107Y-99278969D01*
X96629871Y-99242762D01*
X96629871Y-99242762D01*
G37*
X96629871Y-99242762D02*
X96597135Y-99232120D01*
X96562846Y-99246794D01*
X96532692Y-99285160D01*
X96511724Y-99324076D01*
X95926950Y-99093234D01*
X95932552Y-99042118D01*
X95928831Y-98995457D01*
X95906720Y-98969104D01*
X95868266Y-98964964D01*
X95853586Y-98968418D01*
X95830226Y-98981457D01*
X95808728Y-99008962D01*
X95784994Y-99056598D01*
X95778015Y-99072822D01*
X95758229Y-99122638D01*
X95750146Y-99153135D01*
X95752974Y-99170305D01*
X95763828Y-99179146D01*
X95776506Y-99189408D01*
X95771845Y-99203372D01*
X95747280Y-99226879D01*
X95740312Y-99232774D01*
X95699598Y-99280072D01*
X95664026Y-99344812D01*
X95637729Y-99416645D01*
X95624838Y-99485216D01*
X95625301Y-99520824D01*
X95645034Y-99603519D01*
X95680669Y-99680536D01*
X95727264Y-99741603D01*
X95734712Y-99748591D01*
X95805816Y-99794927D01*
X95883697Y-99816603D01*
X95964035Y-99814930D01*
X96038091Y-99792551D01*
X95982728Y-99665224D01*
X95927790Y-99680177D01*
X95879263Y-99675680D01*
X95875259Y-99674095D01*
X95817409Y-99634950D01*
X95779529Y-99577834D01*
X95763473Y-99506442D01*
X95765456Y-99455342D01*
X95781429Y-99408106D01*
X95813133Y-99357307D01*
X95852683Y-99313604D01*
X95888405Y-99289167D01*
X95921786Y-99280565D01*
X95965394Y-99276051D01*
X95970712Y-99275918D01*
X96026732Y-99287391D01*
X96071112Y-99320064D01*
X96102072Y-99368675D01*
X96117842Y-99427964D01*
X96116642Y-99492672D01*
X96096694Y-99557537D01*
X96077214Y-99591193D01*
X96035420Y-99634379D01*
X95982728Y-99665224D01*
X96038091Y-99792551D01*
X96042515Y-99791214D01*
X96114816Y-99746763D01*
X96176621Y-99682885D01*
X96223606Y-99600886D01*
X96223770Y-99600505D01*
X96241407Y-99545460D01*
X96251840Y-99486519D01*
X96253819Y-99434104D01*
X96247612Y-99401739D01*
X96243946Y-99387717D01*
X96251325Y-99382047D01*
X96273779Y-99385166D01*
X96315338Y-99397510D01*
X96365817Y-99414592D01*
X96466987Y-99449577D01*
X96445014Y-99521166D01*
X96433985Y-99565098D01*
X96429704Y-99599504D01*
X96431129Y-99611347D01*
X96451878Y-99631152D01*
X96485697Y-99644701D01*
X96517424Y-99646399D01*
X96522038Y-99644887D01*
X96533545Y-99629636D01*
X96552652Y-99593376D01*
X96576759Y-99541436D01*
X96603264Y-99479144D01*
X96604861Y-99475225D01*
X96634265Y-99399708D01*
X96652123Y-99345258D01*
X96659519Y-99307694D01*
X96657549Y-99282830D01*
X96656107Y-99278969D01*
X96629871Y-99242762D01*
G36*
X96697377Y-98505830D02*
X96659635Y-98481864D01*
X96616843Y-98465726D01*
X96575428Y-98459663D01*
X96541821Y-98465917D01*
X96522452Y-98486739D01*
X96520596Y-98494425D01*
X96523365Y-98520503D01*
X96533983Y-98557962D01*
X96536112Y-98563818D01*
X96546497Y-98631238D01*
X96529968Y-98706642D01*
X96492152Y-98781318D01*
X96453700Y-98833537D01*
X96415291Y-98869369D01*
X96381013Y-98885947D01*
X96354948Y-98880411D01*
X96353144Y-98878725D01*
X96343282Y-98863604D01*
X96340373Y-98841825D01*
X96345206Y-98808878D01*
X96358579Y-98760251D01*
X96381295Y-98691429D01*
X96391330Y-98662497D01*
X96411168Y-98602967D01*
X96427070Y-98550000D01*
X96436708Y-98511619D01*
X96438433Y-98500617D01*
X96431053Y-98447353D01*
X96405055Y-98395487D01*
X96366482Y-98352921D01*
X96321375Y-98327550D01*
X96303322Y-98324023D01*
X96272233Y-98328036D01*
X96229244Y-98341067D01*
X96209567Y-98348938D01*
X96137217Y-98395126D01*
X96075297Y-98464386D01*
X96027236Y-98552418D01*
X96010966Y-98597261D01*
X95993159Y-98647221D01*
X95974807Y-98687285D01*
X95959902Y-98708756D01*
X95946615Y-98733606D01*
X95956519Y-98764261D01*
X95986658Y-98795830D01*
X96027181Y-98820298D01*
X96082159Y-98837137D01*
X96123021Y-98831901D01*
X96146758Y-98807182D01*
X96150363Y-98765580D01*
X96137961Y-98724660D01*
X96133361Y-98686493D01*
X96143732Y-98637632D01*
X96165377Y-98584666D01*
X96194600Y-98534185D01*
X96227710Y-98492772D01*
X96261009Y-98467021D01*
X96285197Y-98462107D01*
X96297107Y-98472125D01*
X96298624Y-98498951D01*
X96289342Y-98545098D01*
X96268853Y-98613077D01*
X96253681Y-98657767D01*
X96224588Y-98763351D01*
X96216253Y-98852670D01*
X96228506Y-98924851D01*
X96261182Y-98979025D01*
X96314114Y-99014314D01*
X96322415Y-99017451D01*
X96356994Y-99025085D01*
X96392862Y-99020618D01*
X96441207Y-99002613D01*
X96442543Y-99002035D01*
X96514822Y-98959317D01*
X96575058Y-98897844D01*
X96625860Y-98814378D01*
X96661560Y-98729302D01*
X96681966Y-98676015D01*
X96700199Y-98633870D01*
X96713402Y-98609254D01*
X96716877Y-98605624D01*
X96727784Y-98588867D01*
X96731982Y-98568265D01*
X96723635Y-98535378D01*
X96697377Y-98505830D01*
X96697377Y-98505830D01*
G37*
X96697377Y-98505830D02*
X96659635Y-98481864D01*
X96616843Y-98465726D01*
X96575428Y-98459663D01*
X96541821Y-98465917D01*
X96522452Y-98486739D01*
X96520596Y-98494425D01*
X96523365Y-98520503D01*
X96533983Y-98557962D01*
X96536112Y-98563818D01*
X96546497Y-98631238D01*
X96529968Y-98706642D01*
X96492152Y-98781318D01*
X96453700Y-98833537D01*
X96415291Y-98869369D01*
X96381013Y-98885947D01*
X96354948Y-98880411D01*
X96353144Y-98878725D01*
X96343282Y-98863604D01*
X96340373Y-98841825D01*
X96345206Y-98808878D01*
X96358579Y-98760251D01*
X96381295Y-98691429D01*
X96391330Y-98662497D01*
X96411168Y-98602967D01*
X96427070Y-98550000D01*
X96436708Y-98511619D01*
X96438433Y-98500617D01*
X96431053Y-98447353D01*
X96405055Y-98395487D01*
X96366482Y-98352921D01*
X96321375Y-98327550D01*
X96303322Y-98324023D01*
X96272233Y-98328036D01*
X96229244Y-98341067D01*
X96209567Y-98348938D01*
X96137217Y-98395126D01*
X96075297Y-98464386D01*
X96027236Y-98552418D01*
X96010966Y-98597261D01*
X95993159Y-98647221D01*
X95974807Y-98687285D01*
X95959902Y-98708756D01*
X95946615Y-98733606D01*
X95956519Y-98764261D01*
X95986658Y-98795830D01*
X96027181Y-98820298D01*
X96082159Y-98837137D01*
X96123021Y-98831901D01*
X96146758Y-98807182D01*
X96150363Y-98765580D01*
X96137961Y-98724660D01*
X96133361Y-98686493D01*
X96143732Y-98637632D01*
X96165377Y-98584666D01*
X96194600Y-98534185D01*
X96227710Y-98492772D01*
X96261009Y-98467021D01*
X96285197Y-98462107D01*
X96297107Y-98472125D01*
X96298624Y-98498951D01*
X96289342Y-98545098D01*
X96268853Y-98613077D01*
X96253681Y-98657767D01*
X96224588Y-98763351D01*
X96216253Y-98852670D01*
X96228506Y-98924851D01*
X96261182Y-98979025D01*
X96314114Y-99014314D01*
X96322415Y-99017451D01*
X96356994Y-99025085D01*
X96392862Y-99020618D01*
X96441207Y-99002613D01*
X96442543Y-99002035D01*
X96514822Y-98959317D01*
X96575058Y-98897844D01*
X96625860Y-98814378D01*
X96661560Y-98729302D01*
X96681966Y-98676015D01*
X96700199Y-98633870D01*
X96713402Y-98609254D01*
X96716877Y-98605624D01*
X96727784Y-98588867D01*
X96731982Y-98568265D01*
X96723635Y-98535378D01*
X96697377Y-98505830D01*
G36*
X97477053Y-97959438D02*
X97448709Y-97941217D01*
X97412646Y-97950128D01*
X97368914Y-97986151D01*
X97333530Y-98027787D01*
X97282700Y-98093725D01*
X97192278Y-98078293D01*
X97101859Y-98062864D01*
X96986196Y-97820985D01*
X96938809Y-97719944D01*
X96904882Y-97643199D01*
X96884471Y-97590882D01*
X96877633Y-97563120D01*
X96878090Y-97559924D01*
X96878621Y-97525581D01*
X96861041Y-97491389D01*
X96832610Y-97469200D01*
X96820821Y-97466407D01*
X96799340Y-97468641D01*
X96777369Y-97482170D01*
X96748967Y-97511558D01*
X96725634Y-97539614D01*
X96692161Y-97582770D01*
X96664820Y-97621285D01*
X96650227Y-97645525D01*
X96643623Y-97685046D01*
X96658358Y-97716236D01*
X96687730Y-97734046D01*
X96725026Y-97733438D01*
X96750298Y-97720805D01*
X96783983Y-97696431D01*
X96854806Y-97859310D01*
X96881064Y-97921046D01*
X96901851Y-97972508D01*
X96915231Y-98008727D01*
X96919280Y-98024725D01*
X96919045Y-98025052D01*
X96903394Y-98023812D01*
X96865619Y-98018326D01*
X96811367Y-98009480D01*
X96746280Y-97998143D01*
X96745460Y-97997997D01*
X96675125Y-97985033D01*
X96628371Y-97974948D01*
X96600916Y-97966062D01*
X96588480Y-97956686D01*
X96586780Y-97945135D01*
X96589126Y-97936469D01*
X96590208Y-97899743D01*
X96579604Y-97869936D01*
X96558347Y-97845517D01*
X96530291Y-97844086D01*
X96523054Y-97846067D01*
X96488379Y-97866611D01*
X96446641Y-97906513D01*
X96403407Y-97959877D01*
X96374623Y-98003101D01*
X96360438Y-98045746D01*
X96367874Y-98083970D01*
X96395144Y-98109331D01*
X96397348Y-98110248D01*
X96426402Y-98111546D01*
X96455133Y-98103598D01*
X96481805Y-98100386D01*
X96532938Y-98103593D01*
X96609285Y-98113308D01*
X96711593Y-98129630D01*
X96830527Y-98150786D01*
X96924907Y-98168203D01*
X97009842Y-98183930D01*
X97081465Y-98197247D01*
X97135900Y-98207433D01*
X97169274Y-98213767D01*
X97178126Y-98215543D01*
X97177461Y-98227368D01*
X97166106Y-98249864D01*
X97155017Y-98288504D01*
X97165095Y-98322921D01*
X97190750Y-98346104D01*
X97226404Y-98351038D01*
X97242750Y-98346098D01*
X97261556Y-98330517D01*
X97291892Y-98297466D01*
X97329847Y-98252063D01*
X97371511Y-98199428D01*
X97412977Y-98144684D01*
X97450330Y-98092950D01*
X97479664Y-98049339D01*
X97497063Y-98018983D01*
X97500146Y-98009068D01*
X97491262Y-97982332D01*
X97477053Y-97959438D01*
X97477053Y-97959438D01*
G37*
X97477053Y-97959438D02*
X97448709Y-97941217D01*
X97412646Y-97950128D01*
X97368914Y-97986151D01*
X97333530Y-98027787D01*
X97282700Y-98093725D01*
X97192278Y-98078293D01*
X97101859Y-98062864D01*
X96986196Y-97820985D01*
X96938809Y-97719944D01*
X96904882Y-97643199D01*
X96884471Y-97590882D01*
X96877633Y-97563120D01*
X96878090Y-97559924D01*
X96878621Y-97525581D01*
X96861041Y-97491389D01*
X96832610Y-97469200D01*
X96820821Y-97466407D01*
X96799340Y-97468641D01*
X96777369Y-97482170D01*
X96748967Y-97511558D01*
X96725634Y-97539614D01*
X96692161Y-97582770D01*
X96664820Y-97621285D01*
X96650227Y-97645525D01*
X96643623Y-97685046D01*
X96658358Y-97716236D01*
X96687730Y-97734046D01*
X96725026Y-97733438D01*
X96750298Y-97720805D01*
X96783983Y-97696431D01*
X96854806Y-97859310D01*
X96881064Y-97921046D01*
X96901851Y-97972508D01*
X96915231Y-98008727D01*
X96919280Y-98024725D01*
X96919045Y-98025052D01*
X96903394Y-98023812D01*
X96865619Y-98018326D01*
X96811367Y-98009480D01*
X96746280Y-97998143D01*
X96745460Y-97997997D01*
X96675125Y-97985033D01*
X96628371Y-97974948D01*
X96600916Y-97966062D01*
X96588480Y-97956686D01*
X96586780Y-97945135D01*
X96589126Y-97936469D01*
X96590208Y-97899743D01*
X96579604Y-97869936D01*
X96558347Y-97845517D01*
X96530291Y-97844086D01*
X96523054Y-97846067D01*
X96488379Y-97866611D01*
X96446641Y-97906513D01*
X96403407Y-97959877D01*
X96374623Y-98003101D01*
X96360438Y-98045746D01*
X96367874Y-98083970D01*
X96395144Y-98109331D01*
X96397348Y-98110248D01*
X96426402Y-98111546D01*
X96455133Y-98103598D01*
X96481805Y-98100386D01*
X96532938Y-98103593D01*
X96609285Y-98113308D01*
X96711593Y-98129630D01*
X96830527Y-98150786D01*
X96924907Y-98168203D01*
X97009842Y-98183930D01*
X97081465Y-98197247D01*
X97135900Y-98207433D01*
X97169274Y-98213767D01*
X97178126Y-98215543D01*
X97177461Y-98227368D01*
X97166106Y-98249864D01*
X97155017Y-98288504D01*
X97165095Y-98322921D01*
X97190750Y-98346104D01*
X97226404Y-98351038D01*
X97242750Y-98346098D01*
X97261556Y-98330517D01*
X97291892Y-98297466D01*
X97329847Y-98252063D01*
X97371511Y-98199428D01*
X97412977Y-98144684D01*
X97450330Y-98092950D01*
X97479664Y-98049339D01*
X97497063Y-98018983D01*
X97500146Y-98009068D01*
X97491262Y-97982332D01*
X97477053Y-97959438D01*
G36*
X97672083Y-97044438D02*
X97610191Y-96987021D01*
X97537611Y-96950183D01*
X97458254Y-96933557D01*
X97376027Y-96936768D01*
X97294844Y-96959441D01*
X97218615Y-97001214D01*
X97151251Y-97061710D01*
X97096662Y-97140556D01*
X97076531Y-97183853D01*
X97053560Y-97276820D01*
X97057846Y-97369174D01*
X97088677Y-97456635D01*
X97132239Y-97520511D01*
X97160567Y-97550215D01*
X97182256Y-97567228D01*
X97189033Y-97568946D01*
X97201323Y-97558452D01*
X97230038Y-97531839D01*
X97253983Y-97509208D01*
X97197224Y-97378675D01*
X97190356Y-97340302D01*
X97188193Y-97296888D01*
X97192246Y-97259633D01*
X97213019Y-97209998D01*
X97251129Y-97157961D01*
X97298349Y-97113118D01*
X97339387Y-97087882D01*
X97379079Y-97075927D01*
X97422932Y-97070227D01*
X97461294Y-97071146D01*
X97484523Y-97079056D01*
X97486860Y-97082228D01*
X97478797Y-97094965D01*
X97453782Y-97123491D01*
X97415283Y-97164088D01*
X97366765Y-97213037D01*
X97344144Y-97235282D01*
X97197224Y-97378675D01*
X97253983Y-97509208D01*
X97271417Y-97492727D01*
X97321694Y-97444739D01*
X97377106Y-97391492D01*
X97433887Y-97336608D01*
X97488274Y-97283713D01*
X97536504Y-97236421D01*
X97574811Y-97198356D01*
X97585154Y-97187908D01*
X97599927Y-97176762D01*
X97607865Y-97186783D01*
X97612224Y-97208264D01*
X97613198Y-97274203D01*
X97592461Y-97336958D01*
X97548476Y-97398750D01*
X97479698Y-97461811D01*
X97396229Y-97520913D01*
X97346434Y-97554469D01*
X97305723Y-97584385D01*
X97280078Y-97606158D01*
X97274806Y-97612516D01*
X97271842Y-97643760D01*
X97286326Y-97676919D01*
X97311020Y-97697577D01*
X97341066Y-97697215D01*
X97386704Y-97682319D01*
X97441396Y-97655886D01*
X97498597Y-97620913D01*
X97532834Y-97595954D01*
X97628414Y-97510424D01*
X97696084Y-97425240D01*
X97736147Y-97339631D01*
X97748912Y-97252820D01*
X97734684Y-97164032D01*
X97719371Y-97122806D01*
X97672083Y-97044438D01*
X97672083Y-97044438D01*
G37*
X97672083Y-97044438D02*
X97610191Y-96987021D01*
X97537611Y-96950183D01*
X97458254Y-96933557D01*
X97376027Y-96936768D01*
X97294844Y-96959441D01*
X97218615Y-97001214D01*
X97151251Y-97061710D01*
X97096662Y-97140556D01*
X97076531Y-97183853D01*
X97053560Y-97276820D01*
X97057846Y-97369174D01*
X97088677Y-97456635D01*
X97132239Y-97520511D01*
X97160567Y-97550215D01*
X97182256Y-97567228D01*
X97189033Y-97568946D01*
X97201323Y-97558452D01*
X97230038Y-97531839D01*
X97253983Y-97509208D01*
X97197224Y-97378675D01*
X97190356Y-97340302D01*
X97188193Y-97296888D01*
X97192246Y-97259633D01*
X97213019Y-97209998D01*
X97251129Y-97157961D01*
X97298349Y-97113118D01*
X97339387Y-97087882D01*
X97379079Y-97075927D01*
X97422932Y-97070227D01*
X97461294Y-97071146D01*
X97484523Y-97079056D01*
X97486860Y-97082228D01*
X97478797Y-97094965D01*
X97453782Y-97123491D01*
X97415283Y-97164088D01*
X97366765Y-97213037D01*
X97344144Y-97235282D01*
X97197224Y-97378675D01*
X97253983Y-97509208D01*
X97271417Y-97492727D01*
X97321694Y-97444739D01*
X97377106Y-97391492D01*
X97433887Y-97336608D01*
X97488274Y-97283713D01*
X97536504Y-97236421D01*
X97574811Y-97198356D01*
X97585154Y-97187908D01*
X97599927Y-97176762D01*
X97607865Y-97186783D01*
X97612224Y-97208264D01*
X97613198Y-97274203D01*
X97592461Y-97336958D01*
X97548476Y-97398750D01*
X97479698Y-97461811D01*
X97396229Y-97520913D01*
X97346434Y-97554469D01*
X97305723Y-97584385D01*
X97280078Y-97606158D01*
X97274806Y-97612516D01*
X97271842Y-97643760D01*
X97286326Y-97676919D01*
X97311020Y-97697577D01*
X97341066Y-97697215D01*
X97386704Y-97682319D01*
X97441396Y-97655886D01*
X97498597Y-97620913D01*
X97532834Y-97595954D01*
X97628414Y-97510424D01*
X97696084Y-97425240D01*
X97736147Y-97339631D01*
X97748912Y-97252820D01*
X97734684Y-97164032D01*
X97719371Y-97122806D01*
X97672083Y-97044438D01*
G36*
X98501382Y-96685805D02*
X98475268Y-96671252D01*
X98437643Y-96675786D01*
X98429627Y-96678335D01*
X98397182Y-96687611D01*
X98379168Y-96689580D01*
X98378125Y-96688834D01*
X98369406Y-96676149D01*
X98346517Y-96644090D01*
X98311936Y-96596097D01*
X98268141Y-96535606D01*
X98217612Y-96466053D01*
X98200420Y-96442440D01*
X98148605Y-96370891D01*
X98103171Y-96307389D01*
X98066511Y-96255332D01*
X98041005Y-96218116D01*
X98029043Y-96199146D01*
X98028472Y-96197468D01*
X98040128Y-96185879D01*
X98063943Y-96164159D01*
X98064931Y-96163280D01*
X98086982Y-96136403D01*
X98086618Y-96108345D01*
X98082093Y-96096528D01*
X98062527Y-96066372D01*
X98035833Y-96055679D01*
X97998049Y-96064622D01*
X97945220Y-96093361D01*
X97930294Y-96102939D01*
X97889408Y-96130818D01*
X97859237Y-96153461D01*
X97846443Y-96165806D01*
X97852376Y-96180574D01*
X97870933Y-96212042D01*
X97898057Y-96254124D01*
X97929696Y-96300736D01*
X97961800Y-96345787D01*
X97990311Y-96383192D01*
X97995177Y-96389163D01*
X98000364Y-96400370D01*
X97991626Y-96410578D01*
X97964266Y-96423010D01*
X97925864Y-96436702D01*
X97869019Y-96459358D01*
X97826760Y-96485899D01*
X97786027Y-96524415D01*
X97742483Y-96581349D01*
X97720205Y-96639284D01*
X97719563Y-96701471D01*
X97740926Y-96771162D01*
X97784657Y-96851611D01*
X97830682Y-96918668D01*
X97864722Y-96966626D01*
X97890758Y-97006057D01*
X97905314Y-97031547D01*
X97907113Y-97037839D01*
X97895950Y-97054996D01*
X97880325Y-97074746D01*
X97864419Y-97111868D01*
X97874210Y-97148591D01*
X97901427Y-97173779D01*
X97919189Y-97181779D01*
X97937223Y-97180663D01*
X97962956Y-97168013D01*
X98003807Y-97141419D01*
X98006473Y-97139620D01*
X98072806Y-97093652D01*
X98118240Y-97058920D01*
X98146077Y-97032101D01*
X98159615Y-97009868D01*
X98162152Y-96988906D01*
X98161473Y-96983570D01*
X98144479Y-96946774D01*
X98110530Y-96931875D01*
X98066170Y-96938262D01*
X98046795Y-96943669D01*
X98031041Y-96942842D01*
X98014553Y-96932190D01*
X97992976Y-96908128D01*
X97961941Y-96867070D01*
X97935369Y-96830573D01*
X97895883Y-96775408D01*
X97870722Y-96737331D01*
X97857124Y-96710934D01*
X97852343Y-96690811D01*
X97853623Y-96671553D01*
X97853827Y-96670334D01*
X97874969Y-96624360D01*
X97917157Y-96586139D01*
X97973333Y-96560665D01*
X98019905Y-96552944D01*
X98064132Y-96552646D01*
X98096522Y-96559416D01*
X98124343Y-96577604D01*
X98154871Y-96611556D01*
X98185288Y-96651859D01*
X98217262Y-96695023D01*
X98244241Y-96730790D01*
X98260447Y-96751495D01*
X98260551Y-96751621D01*
X98264691Y-96776394D01*
X98247779Y-96803569D01*
X98229089Y-96836660D01*
X98234397Y-96871646D01*
X98235349Y-96873889D01*
X98253181Y-96902994D01*
X98276611Y-96914769D01*
X98309570Y-96908677D01*
X98355999Y-96884182D01*
X98405641Y-96850873D01*
X98468349Y-96801963D01*
X98505710Y-96760940D01*
X98518846Y-96725868D01*
X98508881Y-96694810D01*
X98501382Y-96685805D01*
X98501382Y-96685805D01*
G37*
X98501382Y-96685805D02*
X98475268Y-96671252D01*
X98437643Y-96675786D01*
X98429627Y-96678335D01*
X98397182Y-96687611D01*
X98379168Y-96689580D01*
X98378125Y-96688834D01*
X98369406Y-96676149D01*
X98346517Y-96644090D01*
X98311936Y-96596097D01*
X98268141Y-96535606D01*
X98217612Y-96466053D01*
X98200420Y-96442440D01*
X98148605Y-96370891D01*
X98103171Y-96307389D01*
X98066511Y-96255332D01*
X98041005Y-96218116D01*
X98029043Y-96199146D01*
X98028472Y-96197468D01*
X98040128Y-96185879D01*
X98063943Y-96164159D01*
X98064931Y-96163280D01*
X98086982Y-96136403D01*
X98086618Y-96108345D01*
X98082093Y-96096528D01*
X98062527Y-96066372D01*
X98035833Y-96055679D01*
X97998049Y-96064622D01*
X97945220Y-96093361D01*
X97930294Y-96102939D01*
X97889408Y-96130818D01*
X97859237Y-96153461D01*
X97846443Y-96165806D01*
X97852376Y-96180574D01*
X97870933Y-96212042D01*
X97898057Y-96254124D01*
X97929696Y-96300736D01*
X97961800Y-96345787D01*
X97990311Y-96383192D01*
X97995177Y-96389163D01*
X98000364Y-96400370D01*
X97991626Y-96410578D01*
X97964266Y-96423010D01*
X97925864Y-96436702D01*
X97869019Y-96459358D01*
X97826760Y-96485899D01*
X97786027Y-96524415D01*
X97742483Y-96581349D01*
X97720205Y-96639284D01*
X97719563Y-96701471D01*
X97740926Y-96771162D01*
X97784657Y-96851611D01*
X97830682Y-96918668D01*
X97864722Y-96966626D01*
X97890758Y-97006057D01*
X97905314Y-97031547D01*
X97907113Y-97037839D01*
X97895950Y-97054996D01*
X97880325Y-97074746D01*
X97864419Y-97111868D01*
X97874210Y-97148591D01*
X97901427Y-97173779D01*
X97919189Y-97181779D01*
X97937223Y-97180663D01*
X97962956Y-97168013D01*
X98003807Y-97141419D01*
X98006473Y-97139620D01*
X98072806Y-97093652D01*
X98118240Y-97058920D01*
X98146077Y-97032101D01*
X98159615Y-97009868D01*
X98162152Y-96988906D01*
X98161473Y-96983570D01*
X98144479Y-96946774D01*
X98110530Y-96931875D01*
X98066170Y-96938262D01*
X98046795Y-96943669D01*
X98031041Y-96942842D01*
X98014553Y-96932190D01*
X97992976Y-96908128D01*
X97961941Y-96867070D01*
X97935369Y-96830573D01*
X97895883Y-96775408D01*
X97870722Y-96737331D01*
X97857124Y-96710934D01*
X97852343Y-96690811D01*
X97853623Y-96671553D01*
X97853827Y-96670334D01*
X97874969Y-96624360D01*
X97917157Y-96586139D01*
X97973333Y-96560665D01*
X98019905Y-96552944D01*
X98064132Y-96552646D01*
X98096522Y-96559416D01*
X98124343Y-96577604D01*
X98154871Y-96611556D01*
X98185288Y-96651859D01*
X98217262Y-96695023D01*
X98244241Y-96730790D01*
X98260447Y-96751495D01*
X98260551Y-96751621D01*
X98264691Y-96776394D01*
X98247779Y-96803569D01*
X98229089Y-96836660D01*
X98234397Y-96871646D01*
X98235349Y-96873889D01*
X98253181Y-96902994D01*
X98276611Y-96914769D01*
X98309570Y-96908677D01*
X98355999Y-96884182D01*
X98405641Y-96850873D01*
X98468349Y-96801963D01*
X98505710Y-96760940D01*
X98518846Y-96725868D01*
X98508881Y-96694810D01*
X98501382Y-96685805D01*
G36*
X99019832Y-96059593D02*
X98992123Y-96007449D01*
X98954175Y-95939453D01*
X98923624Y-95890210D01*
X98895515Y-95853087D01*
X98864893Y-95821445D01*
X98831985Y-95792903D01*
X98751750Y-95738177D01*
X98675321Y-95710569D01*
X98600543Y-95709595D01*
X98540448Y-95727670D01*
X98466392Y-95771888D01*
X98416911Y-95829753D01*
X98391510Y-95901927D01*
X98388265Y-95929912D01*
X98386778Y-95958800D01*
X98387782Y-95983354D01*
X98393072Y-96008627D01*
X98404437Y-96039679D01*
X98423672Y-96081573D01*
X98452571Y-96139363D01*
X98484737Y-96202165D01*
X98519120Y-96270807D01*
X98547790Y-96331292D01*
X98568644Y-96378929D01*
X98579588Y-96409019D01*
X98580576Y-96416563D01*
X98582595Y-96449735D01*
X98603722Y-96477169D01*
X98617321Y-96483817D01*
X98645074Y-96480793D01*
X98686825Y-96464099D01*
X98734892Y-96438168D01*
X98750208Y-96428084D01*
X98710860Y-96337589D01*
X98688056Y-96345160D01*
X98670500Y-96341800D01*
X98654020Y-96323398D01*
X98634431Y-96285844D01*
X98615735Y-96243872D01*
X98594997Y-96194203D01*
X98585654Y-96164828D01*
X98586761Y-96150628D01*
X98597372Y-96146508D01*
X98597745Y-96146491D01*
X98628625Y-96141484D01*
X98638116Y-96138280D01*
X98670800Y-96137065D01*
X98710820Y-96151739D01*
X98747141Y-96176761D01*
X98767471Y-96203351D01*
X98772584Y-96246676D01*
X98757590Y-96291979D01*
X98727278Y-96327908D01*
X98710860Y-96337589D01*
X98750208Y-96428084D01*
X98781591Y-96407414D01*
X98819237Y-96376269D01*
X98834670Y-96358694D01*
X98866004Y-96291904D01*
X98871349Y-96221794D01*
X98851447Y-96154178D01*
X98807033Y-96094865D01*
X98800503Y-96088943D01*
X98741741Y-96053438D01*
X98670801Y-96040408D01*
X98593491Y-96047369D01*
X98550754Y-96054324D01*
X98526622Y-96052405D01*
X98511984Y-96038090D01*
X98499009Y-96010831D01*
X98483645Y-95947389D01*
X98495466Y-95891074D01*
X98534260Y-95842742D01*
X98589487Y-95812238D01*
X98649898Y-95809369D01*
X98715102Y-95834091D01*
X98765671Y-95869682D01*
X98819792Y-95925120D01*
X98873671Y-95998703D01*
X98924158Y-96083939D01*
X98968093Y-96174337D01*
X99002319Y-96263405D01*
X99023676Y-96344650D01*
X99029037Y-96411070D01*
X99012151Y-96480422D01*
X98973326Y-96535058D01*
X98916289Y-96572016D01*
X98844774Y-96588337D01*
X98806094Y-96587943D01*
X98764171Y-96587239D01*
X98741492Y-96595381D01*
X98733367Y-96606057D01*
X98727328Y-96640111D01*
X98744020Y-96666310D01*
X98778718Y-96683392D01*
X98826697Y-96690092D01*
X98883234Y-96685149D01*
X98943599Y-96667297D01*
X98950911Y-96664211D01*
X99031995Y-96616484D01*
X99088627Y-96554677D01*
X99120964Y-96478561D01*
X99129463Y-96401816D01*
X99123165Y-96330460D01*
X99103803Y-96252536D01*
X99069863Y-96163691D01*
X99019832Y-96059593D01*
X99019832Y-96059593D01*
G37*
X99019832Y-96059593D02*
X98992123Y-96007449D01*
X98954175Y-95939453D01*
X98923624Y-95890210D01*
X98895515Y-95853087D01*
X98864893Y-95821445D01*
X98831985Y-95792903D01*
X98751750Y-95738177D01*
X98675321Y-95710569D01*
X98600543Y-95709595D01*
X98540448Y-95727670D01*
X98466392Y-95771888D01*
X98416911Y-95829753D01*
X98391510Y-95901927D01*
X98388265Y-95929912D01*
X98386778Y-95958800D01*
X98387782Y-95983354D01*
X98393072Y-96008627D01*
X98404437Y-96039679D01*
X98423672Y-96081573D01*
X98452571Y-96139363D01*
X98484737Y-96202165D01*
X98519120Y-96270807D01*
X98547790Y-96331292D01*
X98568644Y-96378929D01*
X98579588Y-96409019D01*
X98580576Y-96416563D01*
X98582595Y-96449735D01*
X98603722Y-96477169D01*
X98617321Y-96483817D01*
X98645074Y-96480793D01*
X98686825Y-96464099D01*
X98734892Y-96438168D01*
X98750208Y-96428084D01*
X98710860Y-96337589D01*
X98688056Y-96345160D01*
X98670500Y-96341800D01*
X98654020Y-96323398D01*
X98634431Y-96285844D01*
X98615735Y-96243872D01*
X98594997Y-96194203D01*
X98585654Y-96164828D01*
X98586761Y-96150628D01*
X98597372Y-96146508D01*
X98597745Y-96146491D01*
X98628625Y-96141484D01*
X98638116Y-96138280D01*
X98670800Y-96137065D01*
X98710820Y-96151739D01*
X98747141Y-96176761D01*
X98767471Y-96203351D01*
X98772584Y-96246676D01*
X98757590Y-96291979D01*
X98727278Y-96327908D01*
X98710860Y-96337589D01*
X98750208Y-96428084D01*
X98781591Y-96407414D01*
X98819237Y-96376269D01*
X98834670Y-96358694D01*
X98866004Y-96291904D01*
X98871349Y-96221794D01*
X98851447Y-96154178D01*
X98807033Y-96094865D01*
X98800503Y-96088943D01*
X98741741Y-96053438D01*
X98670801Y-96040408D01*
X98593491Y-96047369D01*
X98550754Y-96054324D01*
X98526622Y-96052405D01*
X98511984Y-96038090D01*
X98499009Y-96010831D01*
X98483645Y-95947389D01*
X98495466Y-95891074D01*
X98534260Y-95842742D01*
X98589487Y-95812238D01*
X98649898Y-95809369D01*
X98715102Y-95834091D01*
X98765671Y-95869682D01*
X98819792Y-95925120D01*
X98873671Y-95998703D01*
X98924158Y-96083939D01*
X98968093Y-96174337D01*
X99002319Y-96263405D01*
X99023676Y-96344650D01*
X99029037Y-96411070D01*
X99012151Y-96480422D01*
X98973326Y-96535058D01*
X98916289Y-96572016D01*
X98844774Y-96588337D01*
X98806094Y-96587943D01*
X98764171Y-96587239D01*
X98741492Y-96595381D01*
X98733367Y-96606057D01*
X98727328Y-96640111D01*
X98744020Y-96666310D01*
X98778718Y-96683392D01*
X98826697Y-96690092D01*
X98883234Y-96685149D01*
X98943599Y-96667297D01*
X98950911Y-96664211D01*
X99031995Y-96616484D01*
X99088627Y-96554677D01*
X99120964Y-96478561D01*
X99129463Y-96401816D01*
X99123165Y-96330460D01*
X99103803Y-96252536D01*
X99069863Y-96163691D01*
X99019832Y-96059593D01*
G04 #@! TD*
M02*
