G04 #@! TF.GenerationSoftware,KiCad,Pcbnew,(5.1.2)-1*
G04 #@! TF.CreationDate,2019-06-20T00:50:11-07:00*
G04 #@! TF.ProjectId,SMOL,534d4f4c-2e6b-4696-9361-645f70636258,rev?*
G04 #@! TF.SameCoordinates,Original*
G04 #@! TF.FileFunction,Copper,L1,Top*
G04 #@! TF.FilePolarity,Positive*
%FSLAX46Y46*%
G04 Gerber Fmt 4.6, Leading zero omitted, Abs format (unit mm)*
G04 Created by KiCad (PCBNEW (5.1.2)-1) date 2019-06-20 00:50:11*
%MOMM*%
%LPD*%
G04 APERTURE LIST*
%ADD10C,0.100000*%
%ADD11C,0.304800*%
%ADD12R,0.700000X1.000000*%
%ADD13R,0.900000X1.200000*%
%ADD14R,1.200000X0.900000*%
%ADD15C,0.400000*%
%ADD16R,1.000000X3.810000*%
%ADD17R,0.400000X0.710000*%
%ADD18R,0.508000X2.794000*%
%ADD19R,0.508000X3.302000*%
%ADD20C,0.609600*%
%ADD21C,0.254000*%
%ADD22C,0.406400*%
G04 APERTURE END LIST*
D10*
X96600000Y-96600000D03*
D11*
G36*
X98000000Y-98100000D02*
G01*
X95400000Y-98100000D01*
X95850000Y-97350000D01*
X96500000Y-96600000D01*
X97250000Y-95900000D01*
X98000000Y-95450000D01*
X98000000Y-98100000D01*
X98000000Y-98100000D01*
G37*
D12*
X102307000Y-96176000D03*
X101357000Y-96176000D03*
X100407000Y-96176000D03*
X100407000Y-98776000D03*
X102307000Y-98776000D03*
X101357000Y-98776000D03*
X101357000Y-100524000D03*
X100407000Y-100524000D03*
X102307000Y-100524000D03*
X102307000Y-103124000D03*
X101357000Y-103124000D03*
X100407000Y-103124000D03*
D13*
X103632000Y-100724000D03*
X103632000Y-102924000D03*
X105473500Y-99969500D03*
X105473500Y-97769500D03*
X103897000Y-98522000D03*
X103897000Y-96322000D03*
D14*
X95750000Y-103050000D03*
X97950000Y-103050000D03*
D13*
X98969400Y-98606000D03*
X98969400Y-96406000D03*
X97600000Y-99200001D03*
X97600000Y-101399999D03*
D15*
X106238149Y-102702801D03*
D11*
G36*
X106206917Y-103109064D02*
G01*
X105906858Y-102465585D01*
X106269381Y-102296538D01*
X106569440Y-102940017D01*
X106206917Y-103109064D01*
X106206917Y-103109064D01*
G37*
D15*
X107321004Y-103841890D03*
D11*
G36*
X107289772Y-104248153D02*
G01*
X106989713Y-103604674D01*
X107352236Y-103435627D01*
X107652295Y-104079106D01*
X107289772Y-104248153D01*
X107289772Y-104248153D01*
G37*
D15*
X106414697Y-104264508D03*
D11*
G36*
X106383465Y-104670771D02*
G01*
X106083406Y-104027292D01*
X106445929Y-103858245D01*
X106745988Y-104501724D01*
X106383465Y-104670771D01*
X106383465Y-104670771D01*
G37*
D16*
X107600000Y-100400000D03*
D17*
X95200000Y-100545000D03*
X96200000Y-100545000D03*
X95700000Y-99055000D03*
D18*
X99060000Y-106362500D03*
D19*
X100330000Y-106108500D03*
D18*
X101600000Y-106362500D03*
D19*
X102870000Y-106108500D03*
D18*
X104140000Y-106362500D03*
D13*
X105029000Y-101833501D03*
X105029000Y-104033499D03*
D20*
X99273360Y-96001840D03*
X103897000Y-96322000D03*
X101345357Y-95916099D03*
X94940000Y-102090000D03*
X96400000Y-101750000D03*
X106172000Y-102362000D03*
D21*
X100407000Y-96930000D02*
X100729000Y-97252000D01*
X100407000Y-96176000D02*
X100407000Y-96930000D01*
X102307000Y-98022000D02*
X102307000Y-98776000D01*
X102307000Y-97694000D02*
X102307000Y-98022000D01*
X101865000Y-97252000D02*
X102307000Y-97694000D01*
X100729000Y-97252000D02*
X101865000Y-97252000D01*
X103643000Y-98776000D02*
X103897000Y-98522000D01*
X102307000Y-98776000D02*
X103643000Y-98776000D01*
X95700000Y-99055000D02*
X96200000Y-98400000D01*
X96200000Y-97588099D02*
X96687256Y-96985415D01*
X97300000Y-97400000D02*
X96790593Y-96890593D01*
X99400000Y-97400000D02*
X97300000Y-97400000D01*
X100407000Y-96930000D02*
X99800000Y-97300000D01*
X99800000Y-97300000D02*
X99400000Y-97400000D01*
X96600000Y-97093341D02*
X96687255Y-96985416D01*
X96600000Y-98000000D02*
X96600000Y-97093341D01*
X96200000Y-98400000D02*
X96600000Y-98000000D01*
X105473500Y-99969500D02*
X105473500Y-99695000D01*
X104244500Y-98869500D02*
X103897000Y-98522000D01*
X104648000Y-98869500D02*
X104244500Y-98869500D01*
X105473500Y-99695000D02*
X104648000Y-98869500D01*
X101357000Y-102459000D02*
X101695667Y-102205000D01*
X101674500Y-102205000D02*
X101695667Y-102205000D01*
X101743080Y-102169440D02*
X101674500Y-102205000D01*
X101357000Y-103124000D02*
X101357000Y-102459000D01*
X107600000Y-100400000D02*
X106800000Y-100400000D01*
X105600000Y-96700000D02*
X103897000Y-96322000D01*
X106800000Y-98400000D02*
X106600000Y-97400000D01*
X106600000Y-97400000D02*
X106200000Y-96900000D01*
X106200000Y-96900000D02*
X105600000Y-96700000D01*
X102870000Y-106489500D02*
X102850000Y-104450000D01*
X101550000Y-103900000D02*
X101357000Y-103124000D01*
X102200000Y-104100000D02*
X101550000Y-103900000D01*
X102850000Y-104450000D02*
X102200000Y-104100000D01*
X103886000Y-96311000D02*
X103897000Y-96322000D01*
X101357000Y-96176000D02*
X101357000Y-95927742D01*
X101357000Y-95927742D02*
X101345357Y-95916099D01*
X95750000Y-103050000D02*
X94940000Y-102090000D01*
X99174000Y-96406000D02*
X99298760Y-96281240D01*
X98969400Y-96406000D02*
X99174000Y-96406000D01*
X106800000Y-98732340D02*
X107061000Y-98732340D01*
X106800000Y-98732340D02*
X106800000Y-98400000D01*
X106800000Y-100400000D02*
X106800000Y-98732340D01*
X107600000Y-99271340D02*
X107600000Y-100400000D01*
X107061000Y-98732340D02*
X107600000Y-99271340D01*
X107600000Y-100400000D02*
X107918074Y-100400000D01*
X107600000Y-100400000D02*
X107600000Y-101161100D01*
X106800000Y-100400000D02*
X106700000Y-100900000D01*
X103808000Y-100900000D02*
X103632000Y-100724000D01*
X106700000Y-100900000D02*
X103808000Y-100900000D01*
X103632000Y-100874000D02*
X103632000Y-100724000D01*
X102888000Y-101618000D02*
X103632000Y-100874000D01*
X102373000Y-101824000D02*
X102888000Y-101618000D01*
X101695667Y-102205000D02*
X101865000Y-102078000D01*
X101865000Y-102078000D02*
X102373000Y-101824000D01*
X107600000Y-100400000D02*
X107600000Y-102966000D01*
X107569000Y-103251000D02*
X107600000Y-102966000D01*
X107569000Y-103251000D02*
X107321004Y-103841890D01*
X101357000Y-98776000D02*
X101357000Y-100778000D01*
X98969400Y-98606000D02*
X99750000Y-97810000D01*
X101450000Y-98160000D02*
X101357000Y-98776000D01*
X101240000Y-97870000D02*
X101450000Y-98160000D01*
X100300000Y-97810000D02*
X101240000Y-97870000D01*
X99750000Y-97810000D02*
X100300000Y-97810000D01*
X98969400Y-98606000D02*
X97600000Y-99200001D01*
X100330000Y-106489500D02*
X100350000Y-104850000D01*
X101350000Y-101300000D02*
X101357000Y-100524000D01*
X101100000Y-101650000D02*
X101350000Y-101300000D01*
X100650000Y-101900000D02*
X101100000Y-101650000D01*
X100100000Y-101900000D02*
X100650000Y-101900000D01*
X99500000Y-102300000D02*
X100100000Y-101900000D01*
X99500000Y-103100000D02*
X99500000Y-102300000D01*
X99500000Y-103750000D02*
X99500000Y-103100000D01*
X99600000Y-103950000D02*
X99500000Y-103750000D01*
X99850000Y-104150000D02*
X99600000Y-103950000D01*
X100350000Y-104850000D02*
X99850000Y-104150000D01*
X102307000Y-96176000D02*
X102400000Y-96950000D01*
X102400000Y-96950000D02*
X102625000Y-97250000D01*
X102625000Y-97250000D02*
X102925000Y-97375000D01*
X102925000Y-97375000D02*
X103525000Y-97400000D01*
X103525000Y-97400000D02*
X104648000Y-97400000D01*
X104648000Y-97400000D02*
X104650000Y-97400000D01*
X104648000Y-97400000D02*
X105104000Y-97400000D01*
X105104000Y-97400000D02*
X105473500Y-97769500D01*
D22*
X95200000Y-100545000D02*
X95350000Y-101250000D01*
X95850000Y-101550000D02*
X96400000Y-101750000D01*
X95350000Y-101250000D02*
X95850000Y-101550000D01*
X106238149Y-102702801D02*
X106172000Y-102362000D01*
D21*
X100407000Y-98814000D02*
X100407000Y-98776000D01*
X100407000Y-98776000D02*
X99700000Y-99500000D01*
X98400000Y-100100000D02*
X97900000Y-100600000D01*
X99200000Y-99800000D02*
X98400000Y-100100000D01*
X99700000Y-99500000D02*
X99200000Y-99800000D01*
X97900000Y-100600000D02*
X97600000Y-101399999D01*
X97950000Y-103050000D02*
X97600000Y-101399999D01*
X106414697Y-104264508D02*
X105918000Y-104267000D01*
X105918000Y-104267000D02*
X105029000Y-104033499D01*
X100407000Y-100524000D02*
X99700000Y-101100000D01*
X98950000Y-104100000D02*
X99060000Y-106489500D01*
X99050000Y-101700000D02*
X98950000Y-104100000D01*
X99700000Y-101100000D02*
X99050000Y-101700000D01*
X100407000Y-103124000D02*
X100500000Y-103900000D01*
X101536075Y-104648000D02*
X101536075Y-106306500D01*
X101300000Y-104350000D02*
X101536075Y-104648000D01*
X100500000Y-103900000D02*
X101300000Y-104350000D01*
X103632000Y-102924000D02*
X103632000Y-103164666D01*
X103432000Y-103124000D02*
X103632000Y-102924000D01*
X102307000Y-103124000D02*
X103432000Y-103124000D01*
X103632000Y-102924000D02*
X103632000Y-104267000D01*
X104140000Y-104775000D02*
X104140000Y-106108500D01*
X103632000Y-104267000D02*
X104140000Y-104775000D01*
X103938501Y-102924000D02*
X105029000Y-101833501D01*
X103632000Y-102924000D02*
X103938501Y-102924000D01*
M02*
