G04 #@! TF.GenerationSoftware,KiCad,Pcbnew,(5.0.1)-3*
G04 #@! TF.CreationDate,2018-11-02T11:31:53-07:00*
G04 #@! TF.ProjectId,SMOL,534D4F4C2E6B696361645F7063620000,rev?*
G04 #@! TF.SameCoordinates,Original*
G04 #@! TF.FileFunction,Soldermask,Top*
G04 #@! TF.FilePolarity,Negative*
%FSLAX46Y46*%
G04 Gerber Fmt 4.6, Leading zero omitted, Abs format (unit mm)*
G04 Created by KiCad (PCBNEW (5.0.1)-3) date 11/2/2018 11:31:53 AM*
%MOMM*%
%LPD*%
G01*
G04 APERTURE LIST*
%ADD10C,0.304800*%
G04 APERTURE END LIST*
D10*
G36*
X104444800Y-107810300D02*
X103835200Y-107810300D01*
X103835200Y-104406700D01*
X104444800Y-104406700D01*
X104444800Y-107810300D01*
X104444800Y-107810300D01*
G37*
G36*
X101904800Y-107810300D02*
X101295200Y-107810300D01*
X101295200Y-104406700D01*
X101904800Y-104406700D01*
X101904800Y-107810300D01*
X101904800Y-107810300D01*
G37*
G36*
X100634800Y-107810300D02*
X100025200Y-107810300D01*
X100025200Y-104406700D01*
X100634800Y-104406700D01*
X100634800Y-107810300D01*
X100634800Y-107810300D01*
G37*
G36*
X99364800Y-107810300D02*
X98755200Y-107810300D01*
X98755200Y-104406700D01*
X99364800Y-104406700D01*
X99364800Y-107810300D01*
X99364800Y-107810300D01*
G37*
G36*
X103174800Y-107810300D02*
X102565200Y-107810300D01*
X102565200Y-104406700D01*
X103174800Y-104406700D01*
X103174800Y-107810300D01*
X103174800Y-107810300D01*
G37*
G36*
X105650800Y-104050800D02*
X105149200Y-104050800D01*
X105149200Y-103239200D01*
X105650800Y-103239200D01*
X105650800Y-104050800D01*
X105650800Y-104050800D01*
G37*
G36*
X106650800Y-104050800D02*
X106149200Y-104050800D01*
X106149200Y-103239200D01*
X106650800Y-103239200D01*
X106650800Y-104050800D01*
X106650800Y-104050800D01*
G37*
G36*
X102707800Y-103674800D02*
X100006200Y-103674800D01*
X100006200Y-102573200D01*
X102707800Y-102573200D01*
X102707800Y-103674800D01*
X102707800Y-103674800D01*
G37*
G36*
X104397800Y-103574800D02*
X103396200Y-103574800D01*
X103396200Y-102273200D01*
X104397800Y-102273200D01*
X104397800Y-103574800D01*
X104397800Y-103574800D01*
G37*
G36*
X98600800Y-103550800D02*
X97299200Y-103550800D01*
X97299200Y-102549200D01*
X98600800Y-102549200D01*
X98600800Y-103550800D01*
X98600800Y-103550800D01*
G37*
G36*
X96400800Y-103550800D02*
X95099200Y-103550800D01*
X95099200Y-102549200D01*
X96400800Y-102549200D01*
X96400800Y-103550800D01*
X96400800Y-103550800D01*
G37*
G36*
X106150800Y-102560800D02*
X105649200Y-102560800D01*
X105649200Y-101749200D01*
X106150800Y-101749200D01*
X106150800Y-102560800D01*
X106150800Y-102560800D01*
G37*
G36*
X108150800Y-102355800D02*
X107049200Y-102355800D01*
X107049200Y-98444200D01*
X108150800Y-98444200D01*
X108150800Y-102355800D01*
X108150800Y-102355800D01*
G37*
G36*
X98100800Y-102050799D02*
X97099200Y-102050799D01*
X97099200Y-100749199D01*
X98100800Y-100749199D01*
X98100800Y-102050799D01*
X98100800Y-102050799D01*
G37*
G36*
X104397800Y-101374800D02*
X103396200Y-101374800D01*
X103396200Y-100073200D01*
X104397800Y-100073200D01*
X104397800Y-101374800D01*
X104397800Y-101374800D01*
G37*
G36*
X102707800Y-101074800D02*
X100006200Y-101074800D01*
X100006200Y-99973200D01*
X102707800Y-99973200D01*
X102707800Y-101074800D01*
X102707800Y-101074800D01*
G37*
G36*
X95450800Y-100950800D02*
X94949200Y-100950800D01*
X94949200Y-100139200D01*
X95450800Y-100139200D01*
X95450800Y-100950800D01*
X95450800Y-100950800D01*
G37*
G36*
X96450800Y-100950800D02*
X95949200Y-100950800D01*
X95949200Y-100139200D01*
X96450800Y-100139200D01*
X96450800Y-100950800D01*
X96450800Y-100950800D01*
G37*
G36*
X106025800Y-100925800D02*
X105024200Y-100925800D01*
X105024200Y-99624200D01*
X106025800Y-99624200D01*
X106025800Y-100925800D01*
X106025800Y-100925800D01*
G37*
G36*
X98100800Y-99850801D02*
X97099200Y-99850801D01*
X97099200Y-98549201D01*
X98100800Y-98549201D01*
X98100800Y-99850801D01*
X98100800Y-99850801D01*
G37*
G36*
X95950800Y-99460800D02*
X95449200Y-99460800D01*
X95449200Y-98649200D01*
X95950800Y-98649200D01*
X95950800Y-99460800D01*
X95950800Y-99460800D01*
G37*
G36*
X102707800Y-99326800D02*
X100006200Y-99326800D01*
X100006200Y-98225200D01*
X102707800Y-98225200D01*
X102707800Y-99326800D01*
X102707800Y-99326800D01*
G37*
G36*
X99470200Y-99256800D02*
X98468600Y-99256800D01*
X98468600Y-97955200D01*
X99470200Y-97955200D01*
X99470200Y-99256800D01*
X99470200Y-99256800D01*
G37*
G36*
X104397800Y-99172800D02*
X103396200Y-99172800D01*
X103396200Y-97871200D01*
X104397800Y-97871200D01*
X104397800Y-99172800D01*
X104397800Y-99172800D01*
G37*
G36*
X106025800Y-98725800D02*
X105024200Y-98725800D01*
X105024200Y-97424200D01*
X106025800Y-97424200D01*
X106025800Y-98725800D01*
X106025800Y-98725800D01*
G37*
G36*
X98050800Y-98150800D02*
X94949200Y-98150800D01*
X94949200Y-95049200D01*
X98050800Y-95049200D01*
X98050800Y-98150800D01*
X98050800Y-98150800D01*
G37*
G36*
X99470200Y-97056800D02*
X98468600Y-97056800D01*
X98468600Y-95755200D01*
X99470200Y-95755200D01*
X99470200Y-97056800D01*
X99470200Y-97056800D01*
G37*
G36*
X104397800Y-96972800D02*
X103396200Y-96972800D01*
X103396200Y-95671200D01*
X104397800Y-95671200D01*
X104397800Y-96972800D01*
X104397800Y-96972800D01*
G37*
G36*
X102707800Y-96726800D02*
X100006200Y-96726800D01*
X100006200Y-95625200D01*
X102707800Y-95625200D01*
X102707800Y-96726800D01*
X102707800Y-96726800D01*
G37*
M02*
