G04 #@! TF.GenerationSoftware,KiCad,Pcbnew,(5.1.2)-1*
G04 #@! TF.CreationDate,2019-06-20T00:50:11-07:00*
G04 #@! TF.ProjectId,SMOL,534d4f4c-2e6b-4696-9361-645f70636258,rev?*
G04 #@! TF.SameCoordinates,Original*
G04 #@! TF.FileFunction,Soldermask,Bot*
G04 #@! TF.FilePolarity,Negative*
%FSLAX46Y46*%
G04 Gerber Fmt 4.6, Leading zero omitted, Abs format (unit mm)*
G04 Created by KiCad (PCBNEW (5.1.2)-1) date 2019-06-20 00:50:11*
%MOMM*%
%LPD*%
G04 APERTURE LIST*
%ADD10C,0.304800*%
G04 APERTURE END LIST*
D10*
G36*
X103096598Y-96666373D02*
G01*
X104030344Y-97053143D01*
X104030345Y-97053144D01*
X104870695Y-97614647D01*
X105585353Y-98329305D01*
X105960537Y-98890809D01*
X106146857Y-99169656D01*
X106533627Y-100103402D01*
X106730800Y-101094659D01*
X106730800Y-102105341D01*
X106533627Y-103096598D01*
X106146857Y-104030344D01*
X105601999Y-104845782D01*
X105590448Y-104867393D01*
X105583335Y-104890842D01*
X105580933Y-104915228D01*
X105583335Y-104939614D01*
X105590448Y-104963063D01*
X105601999Y-104984674D01*
X105617544Y-105003616D01*
X105636482Y-105019158D01*
X105697368Y-105059841D01*
X105760159Y-105122632D01*
X105809494Y-105196466D01*
X105843476Y-105278507D01*
X105860800Y-105365600D01*
X105860800Y-105454400D01*
X105843476Y-105541493D01*
X105809494Y-105623534D01*
X105760159Y-105697368D01*
X105697368Y-105760159D01*
X105623534Y-105809494D01*
X105541493Y-105843476D01*
X105454400Y-105860800D01*
X105365600Y-105860800D01*
X105278507Y-105843476D01*
X105196466Y-105809494D01*
X105122632Y-105760159D01*
X105059841Y-105697368D01*
X105019158Y-105636482D01*
X105003615Y-105617544D01*
X104984673Y-105601999D01*
X104963063Y-105590448D01*
X104939614Y-105583335D01*
X104915227Y-105580933D01*
X104890841Y-105583335D01*
X104867392Y-105590448D01*
X104845784Y-105601998D01*
X104813556Y-105623532D01*
X104030344Y-106146857D01*
X103096598Y-106533627D01*
X102105341Y-106730800D01*
X101094659Y-106730800D01*
X100103402Y-106533627D01*
X99169656Y-106146857D01*
X98386444Y-105623532D01*
X98354216Y-105601998D01*
X98332607Y-105590448D01*
X98309158Y-105583335D01*
X98284772Y-105580933D01*
X98260386Y-105583335D01*
X98236937Y-105590448D01*
X98215326Y-105601999D01*
X98196384Y-105617544D01*
X98180842Y-105636482D01*
X98140159Y-105697368D01*
X98077368Y-105760159D01*
X98003534Y-105809494D01*
X97921493Y-105843476D01*
X97834400Y-105860800D01*
X97745600Y-105860800D01*
X97658507Y-105843476D01*
X97576466Y-105809494D01*
X97502632Y-105760159D01*
X97439841Y-105697368D01*
X97390506Y-105623534D01*
X97356524Y-105541493D01*
X97339200Y-105454400D01*
X97339200Y-105365600D01*
X97356524Y-105278507D01*
X97390506Y-105196466D01*
X97439841Y-105122632D01*
X97502632Y-105059841D01*
X97563518Y-105019158D01*
X97582456Y-105003615D01*
X97598001Y-104984673D01*
X97609552Y-104963063D01*
X97616665Y-104939614D01*
X97619067Y-104915227D01*
X97616665Y-104890841D01*
X97609552Y-104867392D01*
X97598001Y-104845782D01*
X97053143Y-104030344D01*
X96666373Y-103096598D01*
X96469200Y-102105341D01*
X96469200Y-101094659D01*
X96666373Y-100103402D01*
X97053143Y-99169656D01*
X97239463Y-98890809D01*
X97614647Y-98329305D01*
X98329305Y-97614647D01*
X99169655Y-97053144D01*
X99169656Y-97053143D01*
X100103402Y-96666373D01*
X101094659Y-96469200D01*
X102105341Y-96469200D01*
X103096598Y-96666373D01*
X103096598Y-96666373D01*
G37*
M02*
