G04 #@! TF.GenerationSoftware,KiCad,Pcbnew,(5.0.2)-1*
G04 #@! TF.CreationDate,2019-03-21T21:09:29-07:00*
G04 #@! TF.ProjectId,SMOL,534d4f4c-2e6b-4696-9361-645f70636258,rev?*
G04 #@! TF.SameCoordinates,Original*
G04 #@! TF.FileFunction,Soldermask,Top*
G04 #@! TF.FilePolarity,Negative*
%FSLAX46Y46*%
G04 Gerber Fmt 4.6, Leading zero omitted, Abs format (unit mm)*
G04 Created by KiCad (PCBNEW (5.0.2)-1) date 3/21/2019 9:09:29 PM*
%MOMM*%
%LPD*%
G01*
G04 APERTURE LIST*
%ADD10C,0.304800*%
G04 APERTURE END LIST*
D10*
G36*
X104444800Y-105149845D02*
X104447202Y-105174231D01*
X104454315Y-105197680D01*
X104465866Y-105219291D01*
X104481412Y-105238233D01*
X104500354Y-105253779D01*
X104521965Y-105265330D01*
X104545414Y-105272443D01*
X104569800Y-105274845D01*
X104594186Y-105272443D01*
X104617635Y-105265330D01*
X104639246Y-105253779D01*
X104658188Y-105238233D01*
X104673734Y-105219291D01*
X104685285Y-105197681D01*
X104717244Y-105120525D01*
X104744649Y-105054363D01*
X104826815Y-104931393D01*
X104826817Y-104931390D01*
X104931390Y-104826817D01*
X105054362Y-104744650D01*
X105054363Y-104744649D01*
X105191000Y-104688053D01*
X105190999Y-104688053D01*
X105191002Y-104688052D01*
X105336051Y-104659200D01*
X105483949Y-104659200D01*
X105628998Y-104688052D01*
X105629001Y-104688053D01*
X105629000Y-104688053D01*
X105765637Y-104744649D01*
X105765638Y-104744650D01*
X105888610Y-104826817D01*
X105993183Y-104931390D01*
X105993185Y-104931393D01*
X106075351Y-105054363D01*
X106114900Y-105149845D01*
X106131948Y-105191002D01*
X106160800Y-105336051D01*
X106160800Y-105483949D01*
X106131948Y-105628998D01*
X106131947Y-105629000D01*
X106075351Y-105765637D01*
X106075350Y-105765638D01*
X105993183Y-105888610D01*
X105888610Y-105993183D01*
X105888607Y-105993185D01*
X105765637Y-106075351D01*
X105659954Y-106119126D01*
X105628998Y-106131948D01*
X105483949Y-106160800D01*
X105336051Y-106160800D01*
X105191002Y-106131948D01*
X105160046Y-106119126D01*
X105054363Y-106075351D01*
X104931393Y-105993185D01*
X104931390Y-105993183D01*
X104826817Y-105888610D01*
X104744650Y-105765638D01*
X104744649Y-105765637D01*
X104717244Y-105699475D01*
X104685285Y-105622319D01*
X104673734Y-105600708D01*
X104658188Y-105581766D01*
X104639246Y-105566221D01*
X104617635Y-105554670D01*
X104594186Y-105547557D01*
X104569800Y-105545155D01*
X104545413Y-105547557D01*
X104521964Y-105554670D01*
X104500353Y-105566221D01*
X104481411Y-105581767D01*
X104465866Y-105600709D01*
X104454315Y-105622320D01*
X104447202Y-105645769D01*
X104444800Y-105670155D01*
X104444800Y-107810300D01*
X103835200Y-107810300D01*
X103835200Y-104406700D01*
X104444800Y-104406700D01*
X104444800Y-105149845D01*
X104444800Y-105149845D01*
G37*
G36*
X99364800Y-107810300D02*
X98755200Y-107810300D01*
X98755200Y-105670155D01*
X98752798Y-105645769D01*
X98745685Y-105622320D01*
X98734134Y-105600709D01*
X98718588Y-105581767D01*
X98699646Y-105566221D01*
X98678035Y-105554670D01*
X98654586Y-105547557D01*
X98630200Y-105545155D01*
X98605814Y-105547557D01*
X98582365Y-105554670D01*
X98560754Y-105566221D01*
X98541812Y-105581767D01*
X98526266Y-105600709D01*
X98514715Y-105622319D01*
X98482756Y-105699475D01*
X98455351Y-105765637D01*
X98455350Y-105765638D01*
X98373183Y-105888610D01*
X98268610Y-105993183D01*
X98268607Y-105993185D01*
X98145637Y-106075351D01*
X98039954Y-106119126D01*
X98008998Y-106131948D01*
X97863949Y-106160800D01*
X97716051Y-106160800D01*
X97571002Y-106131948D01*
X97540046Y-106119126D01*
X97434363Y-106075351D01*
X97311393Y-105993185D01*
X97311390Y-105993183D01*
X97206817Y-105888610D01*
X97124650Y-105765638D01*
X97124649Y-105765637D01*
X97068053Y-105629000D01*
X97068052Y-105628998D01*
X97039200Y-105483949D01*
X97039200Y-105336051D01*
X97068052Y-105191002D01*
X97085100Y-105149845D01*
X97124649Y-105054363D01*
X97206815Y-104931393D01*
X97206817Y-104931390D01*
X97311390Y-104826817D01*
X97434362Y-104744650D01*
X97434363Y-104744649D01*
X97571000Y-104688053D01*
X97570999Y-104688053D01*
X97571002Y-104688052D01*
X97716051Y-104659200D01*
X97863949Y-104659200D01*
X98008998Y-104688052D01*
X98009001Y-104688053D01*
X98009000Y-104688053D01*
X98145637Y-104744649D01*
X98145638Y-104744650D01*
X98268610Y-104826817D01*
X98373183Y-104931390D01*
X98373185Y-104931393D01*
X98455351Y-105054363D01*
X98482756Y-105120525D01*
X98514715Y-105197681D01*
X98526266Y-105219292D01*
X98541812Y-105238234D01*
X98560754Y-105253779D01*
X98582365Y-105265330D01*
X98605814Y-105272443D01*
X98630200Y-105274845D01*
X98654587Y-105272443D01*
X98678036Y-105265330D01*
X98699647Y-105253779D01*
X98718589Y-105238233D01*
X98734134Y-105219291D01*
X98745685Y-105197680D01*
X98752798Y-105174231D01*
X98755200Y-105149845D01*
X98755200Y-104406700D01*
X99364800Y-104406700D01*
X99364800Y-107810300D01*
X99364800Y-107810300D01*
G37*
G36*
X103174800Y-107810300D02*
X102565200Y-107810300D01*
X102565200Y-104406700D01*
X103174800Y-104406700D01*
X103174800Y-107810300D01*
X103174800Y-107810300D01*
G37*
G36*
X101904800Y-107810300D02*
X101295200Y-107810300D01*
X101295200Y-104406700D01*
X101904800Y-104406700D01*
X101904800Y-107810300D01*
X101904800Y-107810300D01*
G37*
G36*
X100634800Y-107810300D02*
X100025200Y-107810300D01*
X100025200Y-104406700D01*
X100634800Y-104406700D01*
X100634800Y-107810300D01*
X100634800Y-107810300D01*
G37*
G36*
X106650800Y-104050800D02*
X106149200Y-104050800D01*
X106149200Y-103239200D01*
X106650800Y-103239200D01*
X106650800Y-104050800D01*
X106650800Y-104050800D01*
G37*
G36*
X105650800Y-104050800D02*
X105149200Y-104050800D01*
X105149200Y-103239200D01*
X105650800Y-103239200D01*
X105650800Y-104050800D01*
X105650800Y-104050800D01*
G37*
G36*
X102707800Y-103674800D02*
X100006200Y-103674800D01*
X100006200Y-102573200D01*
X102707800Y-102573200D01*
X102707800Y-103674800D01*
X102707800Y-103674800D01*
G37*
G36*
X104397800Y-103574800D02*
X103396200Y-103574800D01*
X103396200Y-102273200D01*
X104397800Y-102273200D01*
X104397800Y-103574800D01*
X104397800Y-103574800D01*
G37*
G36*
X96400800Y-103550800D02*
X95099200Y-103550800D01*
X95099200Y-102549200D01*
X96400800Y-102549200D01*
X96400800Y-103550800D01*
X96400800Y-103550800D01*
G37*
G36*
X98600800Y-103550800D02*
X97299200Y-103550800D01*
X97299200Y-102549200D01*
X98600800Y-102549200D01*
X98600800Y-103550800D01*
X98600800Y-103550800D01*
G37*
G36*
X106150800Y-102560800D02*
X105649200Y-102560800D01*
X105649200Y-101749200D01*
X106150800Y-101749200D01*
X106150800Y-102560800D01*
X106150800Y-102560800D01*
G37*
G36*
X108150800Y-102355800D02*
X107049200Y-102355800D01*
X107049200Y-98444200D01*
X108150800Y-98444200D01*
X108150800Y-102355800D01*
X108150800Y-102355800D01*
G37*
G36*
X98100800Y-102050799D02*
X97099200Y-102050799D01*
X97099200Y-100749199D01*
X98100800Y-100749199D01*
X98100800Y-102050799D01*
X98100800Y-102050799D01*
G37*
G36*
X104397800Y-101374800D02*
X103396200Y-101374800D01*
X103396200Y-100073200D01*
X104397800Y-100073200D01*
X104397800Y-101374800D01*
X104397800Y-101374800D01*
G37*
G36*
X102707800Y-101074800D02*
X100006200Y-101074800D01*
X100006200Y-99973200D01*
X102707800Y-99973200D01*
X102707800Y-101074800D01*
X102707800Y-101074800D01*
G37*
G36*
X95450800Y-100950800D02*
X94949200Y-100950800D01*
X94949200Y-100139200D01*
X95450800Y-100139200D01*
X95450800Y-100950800D01*
X95450800Y-100950800D01*
G37*
G36*
X96450800Y-100950800D02*
X95949200Y-100950800D01*
X95949200Y-100139200D01*
X96450800Y-100139200D01*
X96450800Y-100950800D01*
X96450800Y-100950800D01*
G37*
G36*
X106025800Y-100925800D02*
X105024200Y-100925800D01*
X105024200Y-99624200D01*
X106025800Y-99624200D01*
X106025800Y-100925800D01*
X106025800Y-100925800D01*
G37*
G36*
X98100800Y-99850801D02*
X97099200Y-99850801D01*
X97099200Y-98549201D01*
X98100800Y-98549201D01*
X98100800Y-99850801D01*
X98100800Y-99850801D01*
G37*
G36*
X95950800Y-99460800D02*
X95449200Y-99460800D01*
X95449200Y-98649200D01*
X95950800Y-98649200D01*
X95950800Y-99460800D01*
X95950800Y-99460800D01*
G37*
G36*
X102707800Y-99326800D02*
X100006200Y-99326800D01*
X100006200Y-98225200D01*
X102707800Y-98225200D01*
X102707800Y-99326800D01*
X102707800Y-99326800D01*
G37*
G36*
X99470200Y-99256800D02*
X98468600Y-99256800D01*
X98468600Y-97955200D01*
X99470200Y-97955200D01*
X99470200Y-99256800D01*
X99470200Y-99256800D01*
G37*
G36*
X104397800Y-99172800D02*
X103396200Y-99172800D01*
X103396200Y-97871200D01*
X104397800Y-97871200D01*
X104397800Y-99172800D01*
X104397800Y-99172800D01*
G37*
G36*
X106025800Y-98725800D02*
X105024200Y-98725800D01*
X105024200Y-97424200D01*
X106025800Y-97424200D01*
X106025800Y-98725800D01*
X106025800Y-98725800D01*
G37*
G36*
X98012380Y-95400478D02*
X98021808Y-95403846D01*
X98030387Y-95408983D01*
X98037807Y-95415702D01*
X98043772Y-95423737D01*
X98048054Y-95432781D01*
X98050864Y-95443977D01*
X98051651Y-95454617D01*
X98051651Y-98093862D01*
X98050066Y-98109956D01*
X98047160Y-98119535D01*
X98042444Y-98128359D01*
X98036095Y-98136095D01*
X98028359Y-98142444D01*
X98019535Y-98147160D01*
X98009956Y-98150066D01*
X97993862Y-98151651D01*
X95406138Y-98151651D01*
X95390044Y-98150066D01*
X95380465Y-98147160D01*
X95371641Y-98142444D01*
X95363905Y-98136095D01*
X95357556Y-98128359D01*
X95352840Y-98119535D01*
X95349934Y-98109956D01*
X95348954Y-98100000D01*
X95349934Y-98090044D01*
X95353284Y-98079000D01*
X95358086Y-98069466D01*
X95802917Y-97328081D01*
X95814527Y-97312065D01*
X96458796Y-96568678D01*
X96467176Y-96559983D01*
X97209949Y-95866728D01*
X97214549Y-95863263D01*
X97215170Y-95862683D01*
X97223737Y-95856228D01*
X97224473Y-95855787D01*
X97229065Y-95852327D01*
X97968161Y-95408869D01*
X97973732Y-95406231D01*
X97973737Y-95406228D01*
X97982781Y-95401946D01*
X97992487Y-95399510D01*
X98002481Y-95399014D01*
X98012380Y-95400478D01*
X98012380Y-95400478D01*
G37*
G36*
X99470200Y-97056800D02*
X98468600Y-97056800D01*
X98468600Y-95755200D01*
X99470200Y-95755200D01*
X99470200Y-97056800D01*
X99470200Y-97056800D01*
G37*
G36*
X104397800Y-96972800D02*
X103396200Y-96972800D01*
X103396200Y-95671200D01*
X104397800Y-95671200D01*
X104397800Y-96972800D01*
X104397800Y-96972800D01*
G37*
G36*
X102707800Y-96726800D02*
X100006200Y-96726800D01*
X100006200Y-95625200D01*
X102707800Y-95625200D01*
X102707800Y-96726800D01*
X102707800Y-96726800D01*
G37*
M02*
