G04 #@! TF.FileFunction,Legend,Top*
%FSLAX46Y46*%
G04 Gerber Fmt 4.6, Leading zero omitted, Abs format (unit mm)*
G04 Created by KiCad (PCBNEW 4.0.6) date 07/21/18 19:11:10*
%MOMM*%
%LPD*%
G01*
G04 APERTURE LIST*
%ADD10C,0.304800*%
%ADD11C,0.120000*%
%ADD12C,0.152400*%
G04 APERTURE END LIST*
D10*
D11*
X98425000Y-99187000D02*
X98425000Y-97155000D01*
X99695000Y-97155000D02*
X99695000Y-99187000D01*
X98171000Y-105791000D02*
X100203000Y-105791000D01*
X100203000Y-107061000D02*
X98171000Y-107061000D01*
X101092000Y-95250000D02*
X103124000Y-95250000D01*
X103124000Y-96520000D02*
X101092000Y-96520000D01*
X104521000Y-99060000D02*
X104521000Y-97028000D01*
X105791000Y-97028000D02*
X105791000Y-99060000D01*
X104521000Y-103124000D02*
X104521000Y-101092000D01*
X105791000Y-101092000D02*
X105791000Y-103124000D01*
X104267000Y-101854000D02*
X104267000Y-103886000D01*
X102997000Y-103886000D02*
X102997000Y-101854000D01*
D10*
X100965000Y-96774000D02*
G75*
G03X100965000Y-96774000I-127000J0D01*
G01*
D12*
X102806500Y-96964500D02*
X101981000Y-96964500D01*
X101981000Y-96964500D02*
X101409500Y-97536000D01*
X101409500Y-97536000D02*
X101409500Y-99885500D01*
X101409500Y-99885500D02*
X102806500Y-99885500D01*
X102806500Y-99885500D02*
X102806500Y-96964500D01*
X101854000Y-106997500D02*
X102870000Y-106997500D01*
X102870000Y-106997500D02*
X102870000Y-107442000D01*
X102870000Y-107442000D02*
X102679500Y-107632500D01*
X102679500Y-107632500D02*
X101854000Y-107632500D01*
X101854000Y-107632500D02*
X101854000Y-106997500D01*
D10*
X99060000Y-101168200D02*
G75*
G03X99060000Y-101168200I-127000J0D01*
G01*
D12*
X100901500Y-101358700D02*
X100076000Y-101358700D01*
X100076000Y-101358700D02*
X99504500Y-101930200D01*
X99504500Y-101930200D02*
X99504500Y-104279700D01*
X99504500Y-104279700D02*
X100901500Y-104279700D01*
X100901500Y-104279700D02*
X100901500Y-101358700D01*
X98366943Y-100101400D02*
X98403229Y-100137686D01*
X98439514Y-100246543D01*
X98439514Y-100319114D01*
X98403229Y-100427971D01*
X98330657Y-100500543D01*
X98258086Y-100536828D01*
X98112943Y-100573114D01*
X98004086Y-100573114D01*
X97858943Y-100536828D01*
X97786371Y-100500543D01*
X97713800Y-100427971D01*
X97677514Y-100319114D01*
X97677514Y-100246543D01*
X97713800Y-100137686D01*
X97750086Y-100101400D01*
X98439514Y-99375686D02*
X98439514Y-99811114D01*
X98439514Y-99593400D02*
X97677514Y-99593400D01*
X97786371Y-99665971D01*
X97858943Y-99738543D01*
X97895229Y-99811114D01*
X99822000Y-108031643D02*
X99785714Y-108067929D01*
X99676857Y-108104214D01*
X99604286Y-108104214D01*
X99495429Y-108067929D01*
X99422857Y-107995357D01*
X99386572Y-107922786D01*
X99350286Y-107777643D01*
X99350286Y-107668786D01*
X99386572Y-107523643D01*
X99422857Y-107451071D01*
X99495429Y-107378500D01*
X99604286Y-107342214D01*
X99676857Y-107342214D01*
X99785714Y-107378500D01*
X99822000Y-107414786D01*
X100112286Y-107414786D02*
X100148572Y-107378500D01*
X100221143Y-107342214D01*
X100402572Y-107342214D01*
X100475143Y-107378500D01*
X100511429Y-107414786D01*
X100547714Y-107487357D01*
X100547714Y-107559929D01*
X100511429Y-107668786D01*
X100076000Y-108104214D01*
X100547714Y-108104214D01*
X99568001Y-95785214D02*
X99205144Y-95785214D01*
X99205144Y-95023214D01*
X100221143Y-95785214D02*
X99785715Y-95785214D01*
X100003429Y-95785214D02*
X100003429Y-95023214D01*
X99930858Y-95132071D01*
X99858286Y-95204643D01*
X99785715Y-95240929D01*
X106897714Y-98107500D02*
X106534857Y-98361500D01*
X106897714Y-98542928D02*
X106135714Y-98542928D01*
X106135714Y-98252643D01*
X106172000Y-98180071D01*
X106208286Y-98143786D01*
X106280857Y-98107500D01*
X106389714Y-98107500D01*
X106462286Y-98143786D01*
X106498571Y-98180071D01*
X106534857Y-98252643D01*
X106534857Y-98542928D01*
X106897714Y-97381786D02*
X106897714Y-97817214D01*
X106897714Y-97599500D02*
X106135714Y-97599500D01*
X106244571Y-97672071D01*
X106317143Y-97744643D01*
X106353429Y-97817214D01*
X105029000Y-104929214D02*
X104775000Y-104566357D01*
X104593572Y-104929214D02*
X104593572Y-104167214D01*
X104883857Y-104167214D01*
X104956429Y-104203500D01*
X104992714Y-104239786D01*
X105029000Y-104312357D01*
X105029000Y-104421214D01*
X104992714Y-104493786D01*
X104956429Y-104530071D01*
X104883857Y-104566357D01*
X104593572Y-104566357D01*
X105319286Y-104239786D02*
X105355572Y-104203500D01*
X105428143Y-104167214D01*
X105609572Y-104167214D01*
X105682143Y-104203500D01*
X105718429Y-104239786D01*
X105754714Y-104312357D01*
X105754714Y-104384929D01*
X105718429Y-104493786D01*
X105283000Y-104929214D01*
X105754714Y-104929214D01*
X103568500Y-105691214D02*
X103314500Y-105328357D01*
X103133072Y-105691214D02*
X103133072Y-104929214D01*
X103423357Y-104929214D01*
X103495929Y-104965500D01*
X103532214Y-105001786D01*
X103568500Y-105074357D01*
X103568500Y-105183214D01*
X103532214Y-105255786D01*
X103495929Y-105292071D01*
X103423357Y-105328357D01*
X103133072Y-105328357D01*
X103822500Y-104929214D02*
X104294214Y-104929214D01*
X104040214Y-105219500D01*
X104149072Y-105219500D01*
X104221643Y-105255786D01*
X104257929Y-105292071D01*
X104294214Y-105364643D01*
X104294214Y-105546071D01*
X104257929Y-105618643D01*
X104221643Y-105654929D01*
X104149072Y-105691214D01*
X103931357Y-105691214D01*
X103858786Y-105654929D01*
X103822500Y-105618643D01*
X101690714Y-99132571D02*
X102307571Y-99132571D01*
X102380143Y-99096286D01*
X102416429Y-99060000D01*
X102452714Y-98987429D01*
X102452714Y-98842286D01*
X102416429Y-98769714D01*
X102380143Y-98733429D01*
X102307571Y-98697143D01*
X101690714Y-98697143D01*
X102452714Y-97935143D02*
X102452714Y-98370571D01*
X102452714Y-98152857D02*
X101690714Y-98152857D01*
X101799571Y-98225428D01*
X101872143Y-98298000D01*
X101908429Y-98370571D01*
X103813429Y-107541786D02*
X103740857Y-107505500D01*
X103668286Y-107432929D01*
X103559429Y-107324071D01*
X103486857Y-107287786D01*
X103414286Y-107287786D01*
X103450571Y-107469214D02*
X103378000Y-107432929D01*
X103305429Y-107360357D01*
X103269143Y-107215214D01*
X103269143Y-106961214D01*
X103305429Y-106816071D01*
X103378000Y-106743500D01*
X103450571Y-106707214D01*
X103595714Y-106707214D01*
X103668286Y-106743500D01*
X103740857Y-106816071D01*
X103777143Y-106961214D01*
X103777143Y-107215214D01*
X103740857Y-107360357D01*
X103668286Y-107432929D01*
X103595714Y-107469214D01*
X103450571Y-107469214D01*
X104502857Y-107469214D02*
X104067429Y-107469214D01*
X104285143Y-107469214D02*
X104285143Y-106707214D01*
X104212572Y-106816071D01*
X104140000Y-106888643D01*
X104067429Y-106924929D01*
X99811114Y-103577571D02*
X100427971Y-103577571D01*
X100500543Y-103541286D01*
X100536829Y-103505000D01*
X100573114Y-103432429D01*
X100573114Y-103287286D01*
X100536829Y-103214714D01*
X100500543Y-103178429D01*
X100427971Y-103142143D01*
X99811114Y-103142143D01*
X99883686Y-102815571D02*
X99847400Y-102779285D01*
X99811114Y-102706714D01*
X99811114Y-102525285D01*
X99847400Y-102452714D01*
X99883686Y-102416428D01*
X99956257Y-102380143D01*
X100028829Y-102380143D01*
X100137686Y-102416428D01*
X100573114Y-102851857D01*
X100573114Y-102380143D01*
M02*
