G04 #@! TF.GenerationSoftware,KiCad,Pcbnew,(5.0.1)-3*
G04 #@! TF.CreationDate,2018-11-02T11:31:53-07:00*
G04 #@! TF.ProjectId,SMOL,534D4F4C2E6B696361645F7063620000,rev?*
G04 #@! TF.SameCoordinates,Original*
G04 #@! TF.FileFunction,Legend,Top*
G04 #@! TF.FilePolarity,Positive*
%FSLAX46Y46*%
G04 Gerber Fmt 4.6, Leading zero omitted, Abs format (unit mm)*
G04 Created by KiCad (PCBNEW (5.0.1)-3) date 11/2/2018 11:31:53 AM*
%MOMM*%
%LPD*%
G01*
G04 APERTURE LIST*
%ADD10C,0.254000*%
%ADD11C,0.152400*%
G04 APERTURE END LIST*
D10*
X103084200Y-97048800D02*
G75*
G03X103084200Y-97048800I-101600J0D01*
G01*
X99643800Y-103035800D02*
G75*
G03X99643800Y-103035800I-127000J0D01*
G01*
D11*
G04 #@! TO.C,U1*
X102817500Y-98174500D02*
X102817500Y-97349000D01*
X102817500Y-97349000D02*
X102246000Y-96777500D01*
X102246000Y-96777500D02*
X99896500Y-96777500D01*
X99896500Y-96777500D02*
X99896500Y-98174500D01*
X99896500Y-98174500D02*
X102817500Y-98174500D01*
G04 #@! TO.C,U2*
X102817500Y-101125500D02*
X99896500Y-101125500D01*
X102817500Y-102522500D02*
X102817500Y-101125500D01*
X100468000Y-102522500D02*
X102817500Y-102522500D01*
X99896500Y-101951000D02*
X100468000Y-102522500D01*
X99896500Y-101125500D02*
X99896500Y-101951000D01*
G04 #@! TO.C,Q*
X106408000Y-102582500D02*
X106408000Y-103217500D01*
X105582500Y-102582500D02*
X106408000Y-102582500D01*
X105392000Y-102773000D02*
X105582500Y-102582500D01*
X105392000Y-103217500D02*
X105392000Y-102773000D01*
X106408000Y-103217500D02*
X105392000Y-103217500D01*
G04 #@! TO.C,D*
X96208000Y-100117500D02*
X95192000Y-100117500D01*
X95192000Y-100117500D02*
X95192000Y-99673000D01*
X95192000Y-99673000D02*
X95382500Y-99482500D01*
X95382500Y-99482500D02*
X96208000Y-99482500D01*
X96208000Y-99482500D02*
X96208000Y-100117500D01*
G04 #@! TO.C,U1*
X100649428Y-97058714D02*
X100649428Y-97675571D01*
X100685714Y-97748142D01*
X100722000Y-97784428D01*
X100794571Y-97820714D01*
X100939714Y-97820714D01*
X101012285Y-97784428D01*
X101048571Y-97748142D01*
X101084857Y-97675571D01*
X101084857Y-97058714D01*
X101846857Y-97820714D02*
X101411428Y-97820714D01*
X101629142Y-97820714D02*
X101629142Y-97058714D01*
X101556571Y-97167571D01*
X101484000Y-97240142D01*
X101411428Y-97276428D01*
G04 #@! TO.C,U2*
X101937571Y-102190485D02*
X101937571Y-101573628D01*
X101901285Y-101501057D01*
X101865000Y-101464771D01*
X101792428Y-101428485D01*
X101647285Y-101428485D01*
X101574714Y-101464771D01*
X101538428Y-101501057D01*
X101502142Y-101573628D01*
X101502142Y-102190485D01*
X101175571Y-102117914D02*
X101139285Y-102154200D01*
X101066714Y-102190485D01*
X100885285Y-102190485D01*
X100812714Y-102154200D01*
X100776428Y-102117914D01*
X100740142Y-102045342D01*
X100740142Y-101972771D01*
X100776428Y-101863914D01*
X101211857Y-101428485D01*
X100740142Y-101428485D01*
G04 #@! TO.C,3*
X104314285Y-101570000D02*
X104314285Y-102041714D01*
X104024000Y-101787714D01*
X104024000Y-101896571D01*
X103987714Y-101969142D01*
X103951428Y-102005428D01*
X103878857Y-102041714D01*
X103697428Y-102041714D01*
X103624857Y-102005428D01*
X103588571Y-101969142D01*
X103552285Y-101896571D01*
X103552285Y-101678857D01*
X103588571Y-101606285D01*
X103624857Y-101570000D01*
G04 #@! TO.C,L*
X105231085Y-99360057D02*
X105231085Y-98997200D01*
X105993085Y-98997200D01*
G04 #@! TO.C,C*
X103624857Y-97640257D02*
X103588571Y-97603971D01*
X103552285Y-97495114D01*
X103552285Y-97422542D01*
X103588571Y-97313685D01*
X103661142Y-97241114D01*
X103733714Y-97204828D01*
X103878857Y-97168542D01*
X103987714Y-97168542D01*
X104132857Y-97204828D01*
X104205428Y-97241114D01*
X104278000Y-97313685D01*
X104314285Y-97422542D01*
X104314285Y-97495114D01*
X104278000Y-97603971D01*
X104241714Y-97640257D01*
G04 #@! TO.C,2*
X96632285Y-102654485D02*
X96668571Y-102618200D01*
X96741142Y-102581914D01*
X96922571Y-102581914D01*
X96995142Y-102618200D01*
X97031428Y-102654485D01*
X97067714Y-102727057D01*
X97067714Y-102799628D01*
X97031428Y-102908485D01*
X96596000Y-103343914D01*
X97067714Y-103343914D01*
G04 #@! TO.C,C*
X98646457Y-97741857D02*
X98610171Y-97705571D01*
X98573885Y-97596714D01*
X98573885Y-97524142D01*
X98610171Y-97415285D01*
X98682742Y-97342714D01*
X98755314Y-97306428D01*
X98900457Y-97270142D01*
X99009314Y-97270142D01*
X99154457Y-97306428D01*
X99227028Y-97342714D01*
X99299600Y-97415285D01*
X99335885Y-97524142D01*
X99335885Y-97596714D01*
X99299600Y-97705571D01*
X99263314Y-97741857D01*
G04 #@! TO.C,1*
X97261635Y-100506715D02*
X97261635Y-100071286D01*
X97261635Y-100289001D02*
X98023635Y-100289001D01*
X97914778Y-100216429D01*
X97842207Y-100143858D01*
X97805921Y-100071286D01*
G04 #@! TO.C,Q*
X107590285Y-103667285D02*
X107517714Y-103631000D01*
X107445142Y-103558428D01*
X107336285Y-103449571D01*
X107263714Y-103413285D01*
X107191142Y-103413285D01*
X107227428Y-103594714D02*
X107154857Y-103558428D01*
X107082285Y-103485857D01*
X107046000Y-103340714D01*
X107046000Y-103086714D01*
X107082285Y-102941571D01*
X107154857Y-102869000D01*
X107227428Y-102832714D01*
X107372571Y-102832714D01*
X107445142Y-102869000D01*
X107517714Y-102941571D01*
X107554000Y-103086714D01*
X107554000Y-103340714D01*
X107517714Y-103485857D01*
X107445142Y-103558428D01*
X107372571Y-103594714D01*
X107227428Y-103594714D01*
G04 #@! TO.C,D*
X96300428Y-99294714D02*
X96300428Y-98532714D01*
X96481857Y-98532714D01*
X96590714Y-98569000D01*
X96663285Y-98641571D01*
X96699571Y-98714142D01*
X96735857Y-98859285D01*
X96735857Y-98968142D01*
X96699571Y-99113285D01*
X96663285Y-99185857D01*
X96590714Y-99258428D01*
X96481857Y-99294714D01*
X96300428Y-99294714D01*
G04 #@! TD*
M02*
