G04 #@! TF.FileFunction,Legend,Bot*
%FSLAX46Y46*%
G04 Gerber Fmt 4.6, Leading zero omitted, Abs format (unit mm)*
G04 Created by KiCad (PCBNEW 4.0.6) date 07/21/18 19:11:10*
%MOMM*%
%LPD*%
G01*
G04 APERTURE LIST*
%ADD10C,0.304800*%
%ADD11C,0.010000*%
G04 APERTURE END LIST*
D10*
D11*
G36*
X97518095Y-97419180D02*
X97489947Y-97374412D01*
X97437427Y-97307245D01*
X97369901Y-97228001D01*
X97296734Y-97147005D01*
X97227292Y-97074580D01*
X97170942Y-97021050D01*
X97137049Y-96996739D01*
X97134405Y-96996250D01*
X97106679Y-97012871D01*
X97058086Y-97054123D01*
X97044000Y-97067346D01*
X96983915Y-97156854D01*
X96971115Y-97257130D01*
X97007077Y-97355037D01*
X97010980Y-97360780D01*
X97068710Y-97402444D01*
X97154214Y-97420533D01*
X97170956Y-97419234D01*
X97170956Y-97337715D01*
X97107533Y-97325213D01*
X97077745Y-97293907D01*
X97053850Y-97244744D01*
X97059415Y-97207791D01*
X97086889Y-97166672D01*
X97112735Y-97136881D01*
X97137687Y-97135451D01*
X97177168Y-97165909D01*
X97207147Y-97194169D01*
X97256742Y-97244813D01*
X97271074Y-97274775D01*
X97254739Y-97298177D01*
X97243743Y-97306617D01*
X97170956Y-97337715D01*
X97170956Y-97419234D01*
X97247070Y-97413323D01*
X97315721Y-97386511D01*
X97362339Y-97368161D01*
X97397470Y-97391354D01*
X97407966Y-97404797D01*
X97442899Y-97482222D01*
X97433745Y-97549067D01*
X97389130Y-97599382D01*
X97317681Y-97627216D01*
X97228023Y-97626621D01*
X97133482Y-97594118D01*
X97067501Y-97548188D01*
X96987928Y-97476114D01*
X96906473Y-97390706D01*
X96834848Y-97304778D01*
X96784762Y-97231139D01*
X96769224Y-97195618D01*
X96769045Y-97097611D01*
X96816421Y-97013995D01*
X96905892Y-96953919D01*
X96965203Y-96924430D01*
X96981431Y-96899322D01*
X96969512Y-96876850D01*
X96922112Y-96856489D01*
X96855625Y-96871996D01*
X96783240Y-96917306D01*
X96718143Y-96986352D01*
X96711823Y-96995387D01*
X96668191Y-97071726D01*
X96656694Y-97137609D01*
X96675847Y-97215465D01*
X96694265Y-97260834D01*
X96744261Y-97343670D01*
X96824328Y-97441815D01*
X96920636Y-97541032D01*
X97019353Y-97627088D01*
X97106648Y-97685749D01*
X97107644Y-97686267D01*
X97187776Y-97719224D01*
X97261656Y-97736386D01*
X97274323Y-97737084D01*
X97382085Y-97716054D01*
X97466777Y-97660004D01*
X97520303Y-97579487D01*
X97534570Y-97485062D01*
X97518095Y-97419180D01*
X97518095Y-97419180D01*
G37*
X97518095Y-97419180D02*
X97489947Y-97374412D01*
X97437427Y-97307245D01*
X97369901Y-97228001D01*
X97296734Y-97147005D01*
X97227292Y-97074580D01*
X97170942Y-97021050D01*
X97137049Y-96996739D01*
X97134405Y-96996250D01*
X97106679Y-97012871D01*
X97058086Y-97054123D01*
X97044000Y-97067346D01*
X96983915Y-97156854D01*
X96971115Y-97257130D01*
X97007077Y-97355037D01*
X97010980Y-97360780D01*
X97068710Y-97402444D01*
X97154214Y-97420533D01*
X97170956Y-97419234D01*
X97170956Y-97337715D01*
X97107533Y-97325213D01*
X97077745Y-97293907D01*
X97053850Y-97244744D01*
X97059415Y-97207791D01*
X97086889Y-97166672D01*
X97112735Y-97136881D01*
X97137687Y-97135451D01*
X97177168Y-97165909D01*
X97207147Y-97194169D01*
X97256742Y-97244813D01*
X97271074Y-97274775D01*
X97254739Y-97298177D01*
X97243743Y-97306617D01*
X97170956Y-97337715D01*
X97170956Y-97419234D01*
X97247070Y-97413323D01*
X97315721Y-97386511D01*
X97362339Y-97368161D01*
X97397470Y-97391354D01*
X97407966Y-97404797D01*
X97442899Y-97482222D01*
X97433745Y-97549067D01*
X97389130Y-97599382D01*
X97317681Y-97627216D01*
X97228023Y-97626621D01*
X97133482Y-97594118D01*
X97067501Y-97548188D01*
X96987928Y-97476114D01*
X96906473Y-97390706D01*
X96834848Y-97304778D01*
X96784762Y-97231139D01*
X96769224Y-97195618D01*
X96769045Y-97097611D01*
X96816421Y-97013995D01*
X96905892Y-96953919D01*
X96965203Y-96924430D01*
X96981431Y-96899322D01*
X96969512Y-96876850D01*
X96922112Y-96856489D01*
X96855625Y-96871996D01*
X96783240Y-96917306D01*
X96718143Y-96986352D01*
X96711823Y-96995387D01*
X96668191Y-97071726D01*
X96656694Y-97137609D01*
X96675847Y-97215465D01*
X96694265Y-97260834D01*
X96744261Y-97343670D01*
X96824328Y-97441815D01*
X96920636Y-97541032D01*
X97019353Y-97627088D01*
X97106648Y-97685749D01*
X97107644Y-97686267D01*
X97187776Y-97719224D01*
X97261656Y-97736386D01*
X97274323Y-97737084D01*
X97382085Y-97716054D01*
X97466777Y-97660004D01*
X97520303Y-97579487D01*
X97534570Y-97485062D01*
X97518095Y-97419180D01*
G36*
X97251853Y-105930930D02*
X97215841Y-105915853D01*
X97151539Y-105912709D01*
X97042243Y-105912709D01*
X97056764Y-105823226D01*
X97056277Y-105740214D01*
X97030465Y-105694377D01*
X96991836Y-105688338D01*
X96952901Y-105724721D01*
X96927880Y-105796201D01*
X96914441Y-105858883D01*
X96895538Y-105880998D01*
X96855369Y-105869094D01*
X96808951Y-105845482D01*
X96733913Y-105821725D01*
X96688144Y-105833878D01*
X96676915Y-105870690D01*
X96705496Y-105920908D01*
X96755290Y-105960033D01*
X96831829Y-106006579D01*
X96768519Y-106080182D01*
X96726677Y-106135309D01*
X96705757Y-106175569D01*
X96705209Y-106179598D01*
X96724596Y-106213544D01*
X96772789Y-106217883D01*
X96834834Y-106192762D01*
X96855679Y-106178126D01*
X96900772Y-106145557D01*
X96931924Y-106140525D01*
X96962356Y-106168791D01*
X97005286Y-106236113D01*
X97011169Y-106245867D01*
X97051489Y-106278140D01*
X97094542Y-106273041D01*
X97120372Y-106238474D01*
X97118315Y-106203429D01*
X97096497Y-106132964D01*
X97086647Y-106101276D01*
X97085977Y-106065978D01*
X97119736Y-106044762D01*
X97166022Y-106033931D01*
X97233762Y-106012606D01*
X97259628Y-105977988D01*
X97260834Y-105964427D01*
X97251853Y-105930930D01*
X97251853Y-105930930D01*
G37*
X97251853Y-105930930D02*
X97215841Y-105915853D01*
X97151539Y-105912709D01*
X97042243Y-105912709D01*
X97056764Y-105823226D01*
X97056277Y-105740214D01*
X97030465Y-105694377D01*
X96991836Y-105688338D01*
X96952901Y-105724721D01*
X96927880Y-105796201D01*
X96914441Y-105858883D01*
X96895538Y-105880998D01*
X96855369Y-105869094D01*
X96808951Y-105845482D01*
X96733913Y-105821725D01*
X96688144Y-105833878D01*
X96676915Y-105870690D01*
X96705496Y-105920908D01*
X96755290Y-105960033D01*
X96831829Y-106006579D01*
X96768519Y-106080182D01*
X96726677Y-106135309D01*
X96705757Y-106175569D01*
X96705209Y-106179598D01*
X96724596Y-106213544D01*
X96772789Y-106217883D01*
X96834834Y-106192762D01*
X96855679Y-106178126D01*
X96900772Y-106145557D01*
X96931924Y-106140525D01*
X96962356Y-106168791D01*
X97005286Y-106236113D01*
X97011169Y-106245867D01*
X97051489Y-106278140D01*
X97094542Y-106273041D01*
X97120372Y-106238474D01*
X97118315Y-106203429D01*
X97096497Y-106132964D01*
X97086647Y-106101276D01*
X97085977Y-106065978D01*
X97119736Y-106044762D01*
X97166022Y-106033931D01*
X97233762Y-106012606D01*
X97259628Y-105977988D01*
X97260834Y-105964427D01*
X97251853Y-105930930D01*
G36*
X97980678Y-96630630D02*
X97916842Y-96527136D01*
X97893099Y-96496390D01*
X97834540Y-96418276D01*
X97807799Y-96367841D01*
X97808177Y-96334467D01*
X97816002Y-96322114D01*
X97833648Y-96272108D01*
X97807340Y-96236218D01*
X97773444Y-96228959D01*
X97718171Y-96246990D01*
X97652347Y-96291399D01*
X97592784Y-96347663D01*
X97556292Y-96401256D01*
X97551875Y-96420392D01*
X97562183Y-96457897D01*
X97602727Y-96463110D01*
X97619408Y-96460343D01*
X97665016Y-96460215D01*
X97707817Y-96485424D01*
X97761067Y-96544868D01*
X97778158Y-96566897D01*
X97837522Y-96650056D01*
X97863364Y-96706800D01*
X97857772Y-96749852D01*
X97822837Y-96791939D01*
X97816117Y-96798122D01*
X97765110Y-96826090D01*
X97696869Y-96844051D01*
X97633391Y-96848277D01*
X97596849Y-96835296D01*
X97576699Y-96809703D01*
X97535627Y-96758657D01*
X97517569Y-96736365D01*
X97471071Y-96666091D01*
X97464560Y-96615421D01*
X97469020Y-96604073D01*
X97482341Y-96544144D01*
X97461081Y-96502584D01*
X97431529Y-96493542D01*
X97390984Y-96509947D01*
X97330675Y-96551426D01*
X97301442Y-96575658D01*
X97231844Y-96647592D01*
X97208518Y-96702273D01*
X97225074Y-96740005D01*
X97261827Y-96748802D01*
X97297835Y-96744883D01*
X97329859Y-96747490D01*
X97369339Y-96772907D01*
X97422974Y-96827297D01*
X97497465Y-96916828D01*
X97531458Y-96959844D01*
X97611102Y-97063901D01*
X97660822Y-97136272D01*
X97685200Y-97185393D01*
X97688816Y-97219697D01*
X97682370Y-97237734D01*
X97664672Y-97298458D01*
X97684144Y-97331614D01*
X97731353Y-97334700D01*
X97796862Y-97305211D01*
X97833189Y-97277763D01*
X97905786Y-97215317D01*
X97821435Y-97112985D01*
X97763481Y-97038063D01*
X97740848Y-96993837D01*
X97751535Y-96973488D01*
X97779417Y-96969792D01*
X97822180Y-96952140D01*
X97882077Y-96907418D01*
X97911709Y-96879834D01*
X97977640Y-96797270D01*
X98000787Y-96717438D01*
X97980678Y-96630630D01*
X97980678Y-96630630D01*
G37*
X97980678Y-96630630D02*
X97916842Y-96527136D01*
X97893099Y-96496390D01*
X97834540Y-96418276D01*
X97807799Y-96367841D01*
X97808177Y-96334467D01*
X97816002Y-96322114D01*
X97833648Y-96272108D01*
X97807340Y-96236218D01*
X97773444Y-96228959D01*
X97718171Y-96246990D01*
X97652347Y-96291399D01*
X97592784Y-96347663D01*
X97556292Y-96401256D01*
X97551875Y-96420392D01*
X97562183Y-96457897D01*
X97602727Y-96463110D01*
X97619408Y-96460343D01*
X97665016Y-96460215D01*
X97707817Y-96485424D01*
X97761067Y-96544868D01*
X97778158Y-96566897D01*
X97837522Y-96650056D01*
X97863364Y-96706800D01*
X97857772Y-96749852D01*
X97822837Y-96791939D01*
X97816117Y-96798122D01*
X97765110Y-96826090D01*
X97696869Y-96844051D01*
X97633391Y-96848277D01*
X97596849Y-96835296D01*
X97576699Y-96809703D01*
X97535627Y-96758657D01*
X97517569Y-96736365D01*
X97471071Y-96666091D01*
X97464560Y-96615421D01*
X97469020Y-96604073D01*
X97482341Y-96544144D01*
X97461081Y-96502584D01*
X97431529Y-96493542D01*
X97390984Y-96509947D01*
X97330675Y-96551426D01*
X97301442Y-96575658D01*
X97231844Y-96647592D01*
X97208518Y-96702273D01*
X97225074Y-96740005D01*
X97261827Y-96748802D01*
X97297835Y-96744883D01*
X97329859Y-96747490D01*
X97369339Y-96772907D01*
X97422974Y-96827297D01*
X97497465Y-96916828D01*
X97531458Y-96959844D01*
X97611102Y-97063901D01*
X97660822Y-97136272D01*
X97685200Y-97185393D01*
X97688816Y-97219697D01*
X97682370Y-97237734D01*
X97664672Y-97298458D01*
X97684144Y-97331614D01*
X97731353Y-97334700D01*
X97796862Y-97305211D01*
X97833189Y-97277763D01*
X97905786Y-97215317D01*
X97821435Y-97112985D01*
X97763481Y-97038063D01*
X97740848Y-96993837D01*
X97751535Y-96973488D01*
X97779417Y-96969792D01*
X97822180Y-96952140D01*
X97882077Y-96907418D01*
X97911709Y-96879834D01*
X97977640Y-96797270D01*
X98000787Y-96717438D01*
X97980678Y-96630630D01*
G36*
X98440038Y-106529059D02*
X98364151Y-106437384D01*
X98246207Y-106358169D01*
X98243741Y-106356913D01*
X98160094Y-106312421D01*
X98091825Y-106272383D01*
X98062019Y-106251858D01*
X98029834Y-106236592D01*
X97995953Y-106255111D01*
X97958982Y-106297133D01*
X97917343Y-106361199D01*
X97896510Y-106416790D01*
X97895965Y-106423653D01*
X97902755Y-106452539D01*
X97932314Y-106462198D01*
X97998101Y-106456197D01*
X98011411Y-106454244D01*
X98139406Y-106456108D01*
X98244032Y-106500660D01*
X98317686Y-106584637D01*
X98318377Y-106585920D01*
X98340961Y-106639893D01*
X98331292Y-106676631D01*
X98310800Y-106699707D01*
X98280488Y-106724601D01*
X98247067Y-106729947D01*
X98193233Y-106715311D01*
X98140546Y-106695440D01*
X97985690Y-106644986D01*
X97866259Y-106629358D01*
X97777497Y-106648948D01*
X97714649Y-106704150D01*
X97697878Y-106731987D01*
X97666456Y-106805389D01*
X97663197Y-106866732D01*
X97687755Y-106942367D01*
X97694903Y-106959072D01*
X97763582Y-107054197D01*
X97869542Y-107123151D01*
X97932765Y-107144694D01*
X97983576Y-107165145D01*
X98001667Y-107185577D01*
X98017932Y-107212321D01*
X98057815Y-107207151D01*
X98107949Y-107175995D01*
X98154965Y-107124783D01*
X98161614Y-107114626D01*
X98197952Y-107036670D01*
X98193561Y-106990125D01*
X98150292Y-106977746D01*
X98082514Y-106996891D01*
X97993440Y-107012840D01*
X97908913Y-106993796D01*
X97841138Y-106947879D01*
X97802322Y-106883210D01*
X97803547Y-106811293D01*
X97832655Y-106772291D01*
X97890058Y-106761957D01*
X97981652Y-106780313D01*
X98074711Y-106812306D01*
X98194538Y-106851378D01*
X98281790Y-106862044D01*
X98348557Y-106844276D01*
X98393233Y-106811560D01*
X98456791Y-106722874D01*
X98471655Y-106626464D01*
X98440038Y-106529059D01*
X98440038Y-106529059D01*
G37*
X98440038Y-106529059D02*
X98364151Y-106437384D01*
X98246207Y-106358169D01*
X98243741Y-106356913D01*
X98160094Y-106312421D01*
X98091825Y-106272383D01*
X98062019Y-106251858D01*
X98029834Y-106236592D01*
X97995953Y-106255111D01*
X97958982Y-106297133D01*
X97917343Y-106361199D01*
X97896510Y-106416790D01*
X97895965Y-106423653D01*
X97902755Y-106452539D01*
X97932314Y-106462198D01*
X97998101Y-106456197D01*
X98011411Y-106454244D01*
X98139406Y-106456108D01*
X98244032Y-106500660D01*
X98317686Y-106584637D01*
X98318377Y-106585920D01*
X98340961Y-106639893D01*
X98331292Y-106676631D01*
X98310800Y-106699707D01*
X98280488Y-106724601D01*
X98247067Y-106729947D01*
X98193233Y-106715311D01*
X98140546Y-106695440D01*
X97985690Y-106644986D01*
X97866259Y-106629358D01*
X97777497Y-106648948D01*
X97714649Y-106704150D01*
X97697878Y-106731987D01*
X97666456Y-106805389D01*
X97663197Y-106866732D01*
X97687755Y-106942367D01*
X97694903Y-106959072D01*
X97763582Y-107054197D01*
X97869542Y-107123151D01*
X97932765Y-107144694D01*
X97983576Y-107165145D01*
X98001667Y-107185577D01*
X98017932Y-107212321D01*
X98057815Y-107207151D01*
X98107949Y-107175995D01*
X98154965Y-107124783D01*
X98161614Y-107114626D01*
X98197952Y-107036670D01*
X98193561Y-106990125D01*
X98150292Y-106977746D01*
X98082514Y-106996891D01*
X97993440Y-107012840D01*
X97908913Y-106993796D01*
X97841138Y-106947879D01*
X97802322Y-106883210D01*
X97803547Y-106811293D01*
X97832655Y-106772291D01*
X97890058Y-106761957D01*
X97981652Y-106780313D01*
X98074711Y-106812306D01*
X98194538Y-106851378D01*
X98281790Y-106862044D01*
X98348557Y-106844276D01*
X98393233Y-106811560D01*
X98456791Y-106722874D01*
X98471655Y-106626464D01*
X98440038Y-106529059D01*
G36*
X98682478Y-96093539D02*
X98664569Y-96024551D01*
X98655011Y-96006583D01*
X98636607Y-95987558D01*
X98612021Y-95982773D01*
X98572217Y-95995489D01*
X98508159Y-96028964D01*
X98410812Y-96086458D01*
X98377198Y-96106795D01*
X98270119Y-96171114D01*
X98200167Y-96210331D01*
X98159463Y-96227176D01*
X98140129Y-96224379D01*
X98134286Y-96204668D01*
X98133959Y-96191059D01*
X98158748Y-96121594D01*
X98227442Y-96051860D01*
X98331533Y-95988862D01*
X98425618Y-95950941D01*
X98509520Y-95917421D01*
X98548051Y-95885926D01*
X98551846Y-95862553D01*
X98520837Y-95821670D01*
X98452314Y-95813605D01*
X98350301Y-95838394D01*
X98294485Y-95860301D01*
X98153491Y-95940533D01*
X98056783Y-96039251D01*
X98007526Y-96152665D01*
X98001667Y-96210763D01*
X98012680Y-96300676D01*
X98040125Y-96377640D01*
X98046755Y-96388436D01*
X98139262Y-96485216D01*
X98248482Y-96531817D01*
X98307926Y-96530042D01*
X98307926Y-96406566D01*
X98275933Y-96402412D01*
X98236372Y-96388084D01*
X98228091Y-96368596D01*
X98255229Y-96338670D01*
X98321924Y-96293028D01*
X98397989Y-96246740D01*
X98481054Y-96198048D01*
X98528663Y-96174573D01*
X98550679Y-96174210D01*
X98556966Y-96194855D01*
X98557292Y-96212759D01*
X98533608Y-96282541D01*
X98473354Y-96345382D01*
X98392728Y-96390363D01*
X98307926Y-96406566D01*
X98307926Y-96530042D01*
X98373834Y-96528072D01*
X98449153Y-96504607D01*
X98575199Y-96432143D01*
X98654932Y-96334109D01*
X98688417Y-96210418D01*
X98689584Y-96179069D01*
X98682478Y-96093539D01*
X98682478Y-96093539D01*
G37*
X98682478Y-96093539D02*
X98664569Y-96024551D01*
X98655011Y-96006583D01*
X98636607Y-95987558D01*
X98612021Y-95982773D01*
X98572217Y-95995489D01*
X98508159Y-96028964D01*
X98410812Y-96086458D01*
X98377198Y-96106795D01*
X98270119Y-96171114D01*
X98200167Y-96210331D01*
X98159463Y-96227176D01*
X98140129Y-96224379D01*
X98134286Y-96204668D01*
X98133959Y-96191059D01*
X98158748Y-96121594D01*
X98227442Y-96051860D01*
X98331533Y-95988862D01*
X98425618Y-95950941D01*
X98509520Y-95917421D01*
X98548051Y-95885926D01*
X98551846Y-95862553D01*
X98520837Y-95821670D01*
X98452314Y-95813605D01*
X98350301Y-95838394D01*
X98294485Y-95860301D01*
X98153491Y-95940533D01*
X98056783Y-96039251D01*
X98007526Y-96152665D01*
X98001667Y-96210763D01*
X98012680Y-96300676D01*
X98040125Y-96377640D01*
X98046755Y-96388436D01*
X98139262Y-96485216D01*
X98248482Y-96531817D01*
X98307926Y-96530042D01*
X98307926Y-96406566D01*
X98275933Y-96402412D01*
X98236372Y-96388084D01*
X98228091Y-96368596D01*
X98255229Y-96338670D01*
X98321924Y-96293028D01*
X98397989Y-96246740D01*
X98481054Y-96198048D01*
X98528663Y-96174573D01*
X98550679Y-96174210D01*
X98556966Y-96194855D01*
X98557292Y-96212759D01*
X98533608Y-96282541D01*
X98473354Y-96345382D01*
X98392728Y-96390363D01*
X98307926Y-96406566D01*
X98307926Y-96530042D01*
X98373834Y-96528072D01*
X98449153Y-96504607D01*
X98575199Y-96432143D01*
X98654932Y-96334109D01*
X98688417Y-96210418D01*
X98689584Y-96179069D01*
X98682478Y-96093539D01*
G36*
X99540245Y-95857578D02*
X99496051Y-95831889D01*
X99452538Y-95806323D01*
X99378344Y-95753572D01*
X99282870Y-95680997D01*
X99175519Y-95595961D01*
X99065693Y-95505824D01*
X98962795Y-95417948D01*
X98927709Y-95386897D01*
X98934836Y-95369336D01*
X98947553Y-95363236D01*
X98978106Y-95331361D01*
X98977372Y-95286504D01*
X98949231Y-95253936D01*
X98930175Y-95250000D01*
X98880570Y-95260207D01*
X98805497Y-95286555D01*
X98719095Y-95322642D01*
X98635506Y-95362062D01*
X98568871Y-95398411D01*
X98533330Y-95425286D01*
X98530834Y-95430863D01*
X98548909Y-95466936D01*
X98566843Y-95485073D01*
X98608365Y-95500379D01*
X98671857Y-95485711D01*
X98692612Y-95477453D01*
X98756065Y-95455437D01*
X98799384Y-95460971D01*
X98849754Y-95497913D01*
X98852337Y-95500130D01*
X98885583Y-95531361D01*
X98905426Y-95563532D01*
X98914391Y-95609610D01*
X98914996Y-95682561D01*
X98909766Y-95795352D01*
X98909762Y-95795416D01*
X98900869Y-95911300D01*
X98888111Y-96015076D01*
X98873785Y-96089318D01*
X98868959Y-96104754D01*
X98853184Y-96176127D01*
X98874667Y-96211088D01*
X98934152Y-96210013D01*
X99017503Y-96180011D01*
X99092639Y-96136541D01*
X99133530Y-96092801D01*
X99137974Y-96057343D01*
X99103771Y-96038715D01*
X99053386Y-96040617D01*
X99043621Y-96018025D01*
X99036538Y-95955614D01*
X99033560Y-95866466D01*
X99033542Y-95858542D01*
X99035657Y-95767251D01*
X99041223Y-95701102D01*
X99049071Y-95673479D01*
X99049714Y-95673334D01*
X99076849Y-95689064D01*
X99131724Y-95730118D01*
X99195940Y-95782221D01*
X99266501Y-95844887D01*
X99299988Y-95886398D01*
X99302623Y-95916025D01*
X99294489Y-95929070D01*
X99277898Y-95968603D01*
X99303300Y-96007347D01*
X99334348Y-96030370D01*
X99371344Y-96030109D01*
X99433012Y-96005519D01*
X99446193Y-95999364D01*
X99524783Y-95950054D01*
X99556643Y-95901082D01*
X99540245Y-95857578D01*
X99540245Y-95857578D01*
G37*
X99540245Y-95857578D02*
X99496051Y-95831889D01*
X99452538Y-95806323D01*
X99378344Y-95753572D01*
X99282870Y-95680997D01*
X99175519Y-95595961D01*
X99065693Y-95505824D01*
X98962795Y-95417948D01*
X98927709Y-95386897D01*
X98934836Y-95369336D01*
X98947553Y-95363236D01*
X98978106Y-95331361D01*
X98977372Y-95286504D01*
X98949231Y-95253936D01*
X98930175Y-95250000D01*
X98880570Y-95260207D01*
X98805497Y-95286555D01*
X98719095Y-95322642D01*
X98635506Y-95362062D01*
X98568871Y-95398411D01*
X98533330Y-95425286D01*
X98530834Y-95430863D01*
X98548909Y-95466936D01*
X98566843Y-95485073D01*
X98608365Y-95500379D01*
X98671857Y-95485711D01*
X98692612Y-95477453D01*
X98756065Y-95455437D01*
X98799384Y-95460971D01*
X98849754Y-95497913D01*
X98852337Y-95500130D01*
X98885583Y-95531361D01*
X98905426Y-95563532D01*
X98914391Y-95609610D01*
X98914996Y-95682561D01*
X98909766Y-95795352D01*
X98909762Y-95795416D01*
X98900869Y-95911300D01*
X98888111Y-96015076D01*
X98873785Y-96089318D01*
X98868959Y-96104754D01*
X98853184Y-96176127D01*
X98874667Y-96211088D01*
X98934152Y-96210013D01*
X99017503Y-96180011D01*
X99092639Y-96136541D01*
X99133530Y-96092801D01*
X99137974Y-96057343D01*
X99103771Y-96038715D01*
X99053386Y-96040617D01*
X99043621Y-96018025D01*
X99036538Y-95955614D01*
X99033560Y-95866466D01*
X99033542Y-95858542D01*
X99035657Y-95767251D01*
X99041223Y-95701102D01*
X99049071Y-95673479D01*
X99049714Y-95673334D01*
X99076849Y-95689064D01*
X99131724Y-95730118D01*
X99195940Y-95782221D01*
X99266501Y-95844887D01*
X99299988Y-95886398D01*
X99302623Y-95916025D01*
X99294489Y-95929070D01*
X99277898Y-95968603D01*
X99303300Y-96007347D01*
X99334348Y-96030370D01*
X99371344Y-96030109D01*
X99433012Y-96005519D01*
X99446193Y-95999364D01*
X99524783Y-95950054D01*
X99556643Y-95901082D01*
X99540245Y-95857578D01*
G36*
X99386089Y-107324110D02*
X99333055Y-107319815D01*
X99246695Y-107353919D01*
X99195478Y-107377238D01*
X99171293Y-107368431D01*
X99157490Y-107318385D01*
X99154685Y-107303557D01*
X99126692Y-107227005D01*
X99082644Y-107195692D01*
X99035834Y-107207751D01*
X99015287Y-107250924D01*
X99021005Y-107322612D01*
X99029831Y-107384227D01*
X99016434Y-107412447D01*
X98968023Y-107422997D01*
X98937159Y-107425695D01*
X98867253Y-107442981D01*
X98827875Y-107474379D01*
X98825909Y-107509675D01*
X98862428Y-107536567D01*
X98922766Y-107549684D01*
X98972391Y-107553125D01*
X99019069Y-107560068D01*
X99023734Y-107587385D01*
X99019104Y-107599428D01*
X99001923Y-107663128D01*
X98996429Y-107711149D01*
X99008375Y-107768606D01*
X99041488Y-107785643D01*
X99082519Y-107762037D01*
X99112410Y-107713100D01*
X99142844Y-107652590D01*
X99174784Y-107637134D01*
X99223881Y-107663087D01*
X99248255Y-107681466D01*
X99303382Y-107713003D01*
X99344428Y-107718949D01*
X99375058Y-107686793D01*
X99369207Y-107635140D01*
X99330457Y-107579063D01*
X99306329Y-107558611D01*
X99235157Y-107506766D01*
X99319558Y-107463120D01*
X99382494Y-107415578D01*
X99403959Y-107367238D01*
X99386089Y-107324110D01*
X99386089Y-107324110D01*
G37*
X99386089Y-107324110D02*
X99333055Y-107319815D01*
X99246695Y-107353919D01*
X99195478Y-107377238D01*
X99171293Y-107368431D01*
X99157490Y-107318385D01*
X99154685Y-107303557D01*
X99126692Y-107227005D01*
X99082644Y-107195692D01*
X99035834Y-107207751D01*
X99015287Y-107250924D01*
X99021005Y-107322612D01*
X99029831Y-107384227D01*
X99016434Y-107412447D01*
X98968023Y-107422997D01*
X98937159Y-107425695D01*
X98867253Y-107442981D01*
X98827875Y-107474379D01*
X98825909Y-107509675D01*
X98862428Y-107536567D01*
X98922766Y-107549684D01*
X98972391Y-107553125D01*
X99019069Y-107560068D01*
X99023734Y-107587385D01*
X99019104Y-107599428D01*
X99001923Y-107663128D01*
X98996429Y-107711149D01*
X99008375Y-107768606D01*
X99041488Y-107785643D01*
X99082519Y-107762037D01*
X99112410Y-107713100D01*
X99142844Y-107652590D01*
X99174784Y-107637134D01*
X99223881Y-107663087D01*
X99248255Y-107681466D01*
X99303382Y-107713003D01*
X99344428Y-107718949D01*
X99375058Y-107686793D01*
X99369207Y-107635140D01*
X99330457Y-107579063D01*
X99306329Y-107558611D01*
X99235157Y-107506766D01*
X99319558Y-107463120D01*
X99382494Y-107415578D01*
X99403959Y-107367238D01*
X99386089Y-107324110D01*
G36*
X100233949Y-95627032D02*
X100203065Y-95577648D01*
X100154454Y-95574214D01*
X100095892Y-95616314D01*
X100079492Y-95635297D01*
X100007167Y-95692297D01*
X99909610Y-95718628D01*
X99832916Y-95722044D01*
X99803927Y-95706731D01*
X99821763Y-95674924D01*
X99885543Y-95628858D01*
X99961444Y-95587087D01*
X100068596Y-95526180D01*
X100133497Y-95470361D01*
X100164732Y-95410023D01*
X100171250Y-95352277D01*
X100149113Y-95275319D01*
X100087606Y-95224587D01*
X99994093Y-95201481D01*
X99875934Y-95207396D01*
X99740489Y-95243730D01*
X99695000Y-95261879D01*
X99603636Y-95306409D01*
X99556222Y-95347253D01*
X99545691Y-95394771D01*
X99563217Y-95455053D01*
X99591672Y-95501568D01*
X99628429Y-95508097D01*
X99681220Y-95473133D01*
X99732974Y-95421980D01*
X99798720Y-95361914D01*
X99860546Y-95334929D01*
X99929635Y-95329375D01*
X100008745Y-95338753D01*
X100039449Y-95364029D01*
X100022258Y-95400925D01*
X99957684Y-95445157D01*
X99913282Y-95466324D01*
X99782750Y-95535039D01*
X99702436Y-95606912D01*
X99669646Y-95684547D01*
X99668542Y-95702904D01*
X99690958Y-95778946D01*
X99751509Y-95830585D01*
X99840156Y-95855306D01*
X99946856Y-95850594D01*
X100061569Y-95813934D01*
X100078646Y-95805625D01*
X100150016Y-95772968D01*
X100204867Y-95754357D01*
X100216532Y-95752709D01*
X100244666Y-95737557D01*
X100247123Y-95687363D01*
X100233949Y-95627032D01*
X100233949Y-95627032D01*
G37*
X100233949Y-95627032D02*
X100203065Y-95577648D01*
X100154454Y-95574214D01*
X100095892Y-95616314D01*
X100079492Y-95635297D01*
X100007167Y-95692297D01*
X99909610Y-95718628D01*
X99832916Y-95722044D01*
X99803927Y-95706731D01*
X99821763Y-95674924D01*
X99885543Y-95628858D01*
X99961444Y-95587087D01*
X100068596Y-95526180D01*
X100133497Y-95470361D01*
X100164732Y-95410023D01*
X100171250Y-95352277D01*
X100149113Y-95275319D01*
X100087606Y-95224587D01*
X99994093Y-95201481D01*
X99875934Y-95207396D01*
X99740489Y-95243730D01*
X99695000Y-95261879D01*
X99603636Y-95306409D01*
X99556222Y-95347253D01*
X99545691Y-95394771D01*
X99563217Y-95455053D01*
X99591672Y-95501568D01*
X99628429Y-95508097D01*
X99681220Y-95473133D01*
X99732974Y-95421980D01*
X99798720Y-95361914D01*
X99860546Y-95334929D01*
X99929635Y-95329375D01*
X100008745Y-95338753D01*
X100039449Y-95364029D01*
X100022258Y-95400925D01*
X99957684Y-95445157D01*
X99913282Y-95466324D01*
X99782750Y-95535039D01*
X99702436Y-95606912D01*
X99669646Y-95684547D01*
X99668542Y-95702904D01*
X99690958Y-95778946D01*
X99751509Y-95830585D01*
X99840156Y-95855306D01*
X99946856Y-95850594D01*
X100061569Y-95813934D01*
X100078646Y-95805625D01*
X100150016Y-95772968D01*
X100204867Y-95754357D01*
X100216532Y-95752709D01*
X100244666Y-95737557D01*
X100247123Y-95687363D01*
X100233949Y-95627032D01*
G36*
X100930038Y-107447235D02*
X100894862Y-107407444D01*
X100859028Y-107391558D01*
X100786594Y-107378241D01*
X100699965Y-107370749D01*
X100693803Y-107370555D01*
X100627079Y-107373871D01*
X100598808Y-107392977D01*
X100594584Y-107417966D01*
X100618322Y-107464950D01*
X100657560Y-107483820D01*
X100720536Y-107499626D01*
X100683513Y-107678511D01*
X100663740Y-107772183D01*
X100647469Y-107845901D01*
X100638218Y-107883726D01*
X100638211Y-107883749D01*
X100628651Y-107873217D01*
X100610795Y-107821542D01*
X100588130Y-107739166D01*
X100582950Y-107718384D01*
X100556872Y-107619353D01*
X100534976Y-107561535D01*
X100511187Y-107534232D01*
X100479434Y-107526743D01*
X100474127Y-107526667D01*
X100426197Y-107542303D01*
X100369331Y-107593435D01*
X100301842Y-107678803D01*
X100244819Y-107756496D01*
X100213028Y-107794865D01*
X100200749Y-107797503D01*
X100202259Y-107768006D01*
X100207072Y-107738334D01*
X100221774Y-107648945D01*
X100237643Y-107548952D01*
X100240069Y-107533282D01*
X100254607Y-107462432D01*
X100277035Y-107429844D01*
X100319377Y-107421024D01*
X100333382Y-107420834D01*
X100390251Y-107411431D01*
X100409068Y-107377643D01*
X100409375Y-107369479D01*
X100404824Y-107330662D01*
X100383514Y-107306157D01*
X100333960Y-107289832D01*
X100244677Y-107275556D01*
X100229716Y-107273552D01*
X100146927Y-107265364D01*
X100101533Y-107270740D01*
X100079155Y-107292297D01*
X100075013Y-107301698D01*
X100077605Y-107352196D01*
X100097198Y-107370370D01*
X100114572Y-107386103D01*
X100122067Y-107415211D01*
X100119360Y-107467839D01*
X100106128Y-107554135D01*
X100088259Y-107651522D01*
X100061607Y-107774372D01*
X100033994Y-107870320D01*
X100008672Y-107928810D01*
X99999474Y-107939688D01*
X99961971Y-107989589D01*
X99972405Y-108037593D01*
X100027231Y-108069561D01*
X100032344Y-108070769D01*
X100097875Y-108086090D01*
X100137516Y-108096647D01*
X100166233Y-108080849D01*
X100214668Y-108030128D01*
X100274021Y-107954133D01*
X100296266Y-107922591D01*
X100355408Y-107838821D01*
X100403562Y-107774984D01*
X100432919Y-107741269D01*
X100437386Y-107738467D01*
X100449779Y-107762240D01*
X100470079Y-107825765D01*
X100494636Y-107917153D01*
X100504222Y-107956278D01*
X100556276Y-108174223D01*
X100653667Y-108190053D01*
X100746809Y-108195943D01*
X100795088Y-108176584D01*
X100797490Y-108132628D01*
X100784214Y-108106406D01*
X100769520Y-108049981D01*
X100768582Y-107961955D01*
X100778937Y-107855848D01*
X100798118Y-107745181D01*
X100823660Y-107643475D01*
X100853099Y-107564251D01*
X100883969Y-107521029D01*
X100891595Y-107517440D01*
X100930360Y-107489354D01*
X100930038Y-107447235D01*
X100930038Y-107447235D01*
G37*
X100930038Y-107447235D02*
X100894862Y-107407444D01*
X100859028Y-107391558D01*
X100786594Y-107378241D01*
X100699965Y-107370749D01*
X100693803Y-107370555D01*
X100627079Y-107373871D01*
X100598808Y-107392977D01*
X100594584Y-107417966D01*
X100618322Y-107464950D01*
X100657560Y-107483820D01*
X100720536Y-107499626D01*
X100683513Y-107678511D01*
X100663740Y-107772183D01*
X100647469Y-107845901D01*
X100638218Y-107883726D01*
X100638211Y-107883749D01*
X100628651Y-107873217D01*
X100610795Y-107821542D01*
X100588130Y-107739166D01*
X100582950Y-107718384D01*
X100556872Y-107619353D01*
X100534976Y-107561535D01*
X100511187Y-107534232D01*
X100479434Y-107526743D01*
X100474127Y-107526667D01*
X100426197Y-107542303D01*
X100369331Y-107593435D01*
X100301842Y-107678803D01*
X100244819Y-107756496D01*
X100213028Y-107794865D01*
X100200749Y-107797503D01*
X100202259Y-107768006D01*
X100207072Y-107738334D01*
X100221774Y-107648945D01*
X100237643Y-107548952D01*
X100240069Y-107533282D01*
X100254607Y-107462432D01*
X100277035Y-107429844D01*
X100319377Y-107421024D01*
X100333382Y-107420834D01*
X100390251Y-107411431D01*
X100409068Y-107377643D01*
X100409375Y-107369479D01*
X100404824Y-107330662D01*
X100383514Y-107306157D01*
X100333960Y-107289832D01*
X100244677Y-107275556D01*
X100229716Y-107273552D01*
X100146927Y-107265364D01*
X100101533Y-107270740D01*
X100079155Y-107292297D01*
X100075013Y-107301698D01*
X100077605Y-107352196D01*
X100097198Y-107370370D01*
X100114572Y-107386103D01*
X100122067Y-107415211D01*
X100119360Y-107467839D01*
X100106128Y-107554135D01*
X100088259Y-107651522D01*
X100061607Y-107774372D01*
X100033994Y-107870320D01*
X100008672Y-107928810D01*
X99999474Y-107939688D01*
X99961971Y-107989589D01*
X99972405Y-108037593D01*
X100027231Y-108069561D01*
X100032344Y-108070769D01*
X100097875Y-108086090D01*
X100137516Y-108096647D01*
X100166233Y-108080849D01*
X100214668Y-108030128D01*
X100274021Y-107954133D01*
X100296266Y-107922591D01*
X100355408Y-107838821D01*
X100403562Y-107774984D01*
X100432919Y-107741269D01*
X100437386Y-107738467D01*
X100449779Y-107762240D01*
X100470079Y-107825765D01*
X100494636Y-107917153D01*
X100504222Y-107956278D01*
X100556276Y-108174223D01*
X100653667Y-108190053D01*
X100746809Y-108195943D01*
X100795088Y-108176584D01*
X100797490Y-108132628D01*
X100784214Y-108106406D01*
X100769520Y-108049981D01*
X100768582Y-107961955D01*
X100778937Y-107855848D01*
X100798118Y-107745181D01*
X100823660Y-107643475D01*
X100853099Y-107564251D01*
X100883969Y-107521029D01*
X100891595Y-107517440D01*
X100930360Y-107489354D01*
X100930038Y-107447235D01*
G36*
X101094616Y-95261513D02*
X101041473Y-95174198D01*
X100959655Y-95107980D01*
X100857226Y-95069164D01*
X100742252Y-95064055D01*
X100622798Y-95098960D01*
X100610491Y-95105116D01*
X100556767Y-95130438D01*
X100528823Y-95138446D01*
X100528183Y-95138026D01*
X100521104Y-95109996D01*
X100510042Y-95048130D01*
X100505630Y-95020251D01*
X100497395Y-94950442D01*
X100506132Y-94916969D01*
X100539207Y-94904130D01*
X100561480Y-94901188D01*
X100620515Y-94880036D01*
X100643162Y-94829956D01*
X100645740Y-94797134D01*
X100634391Y-94779833D01*
X100598109Y-94775262D01*
X100525885Y-94780630D01*
X100471183Y-94786346D01*
X100363594Y-94798784D01*
X100298229Y-94810965D01*
X100264606Y-94827394D01*
X100252246Y-94852574D01*
X100250625Y-94881145D01*
X100270303Y-94924487D01*
X100301759Y-94932500D01*
X100328891Y-94935808D01*
X100349236Y-94951203D01*
X100365369Y-94986897D01*
X100379867Y-95051100D01*
X100395308Y-95152024D01*
X100412817Y-95286382D01*
X100427218Y-95406930D01*
X100433494Y-95485928D01*
X100431217Y-95534184D01*
X100419958Y-95562502D01*
X100401153Y-95580341D01*
X100364145Y-95626535D01*
X100356459Y-95656407D01*
X100368770Y-95684318D01*
X100413335Y-95697318D01*
X100475521Y-95699792D01*
X100546539Y-95695417D01*
X100589129Y-95684347D01*
X100594584Y-95677772D01*
X100618332Y-95667250D01*
X100679362Y-95663766D01*
X100733490Y-95666015D01*
X100795050Y-95662073D01*
X100795050Y-95539703D01*
X100700430Y-95530830D01*
X100624625Y-95491564D01*
X100621042Y-95488125D01*
X100574697Y-95411239D01*
X100579878Y-95328955D01*
X100625654Y-95258320D01*
X100706839Y-95206856D01*
X100802624Y-95196674D01*
X100894790Y-95227549D01*
X100937569Y-95262194D01*
X100977561Y-95312780D01*
X100982672Y-95357488D01*
X100965011Y-95408726D01*
X100927457Y-95473399D01*
X100884150Y-95515371D01*
X100883736Y-95515595D01*
X100795050Y-95539703D01*
X100795050Y-95662073D01*
X100873058Y-95657076D01*
X100981877Y-95605889D01*
X101063488Y-95510508D01*
X101082614Y-95474214D01*
X101111018Y-95363620D01*
X101094616Y-95261513D01*
X101094616Y-95261513D01*
G37*
X101094616Y-95261513D02*
X101041473Y-95174198D01*
X100959655Y-95107980D01*
X100857226Y-95069164D01*
X100742252Y-95064055D01*
X100622798Y-95098960D01*
X100610491Y-95105116D01*
X100556767Y-95130438D01*
X100528823Y-95138446D01*
X100528183Y-95138026D01*
X100521104Y-95109996D01*
X100510042Y-95048130D01*
X100505630Y-95020251D01*
X100497395Y-94950442D01*
X100506132Y-94916969D01*
X100539207Y-94904130D01*
X100561480Y-94901188D01*
X100620515Y-94880036D01*
X100643162Y-94829956D01*
X100645740Y-94797134D01*
X100634391Y-94779833D01*
X100598109Y-94775262D01*
X100525885Y-94780630D01*
X100471183Y-94786346D01*
X100363594Y-94798784D01*
X100298229Y-94810965D01*
X100264606Y-94827394D01*
X100252246Y-94852574D01*
X100250625Y-94881145D01*
X100270303Y-94924487D01*
X100301759Y-94932500D01*
X100328891Y-94935808D01*
X100349236Y-94951203D01*
X100365369Y-94986897D01*
X100379867Y-95051100D01*
X100395308Y-95152024D01*
X100412817Y-95286382D01*
X100427218Y-95406930D01*
X100433494Y-95485928D01*
X100431217Y-95534184D01*
X100419958Y-95562502D01*
X100401153Y-95580341D01*
X100364145Y-95626535D01*
X100356459Y-95656407D01*
X100368770Y-95684318D01*
X100413335Y-95697318D01*
X100475521Y-95699792D01*
X100546539Y-95695417D01*
X100589129Y-95684347D01*
X100594584Y-95677772D01*
X100618332Y-95667250D01*
X100679362Y-95663766D01*
X100733490Y-95666015D01*
X100795050Y-95662073D01*
X100795050Y-95539703D01*
X100700430Y-95530830D01*
X100624625Y-95491564D01*
X100621042Y-95488125D01*
X100574697Y-95411239D01*
X100579878Y-95328955D01*
X100625654Y-95258320D01*
X100706839Y-95206856D01*
X100802624Y-95196674D01*
X100894790Y-95227549D01*
X100937569Y-95262194D01*
X100977561Y-95312780D01*
X100982672Y-95357488D01*
X100965011Y-95408726D01*
X100927457Y-95473399D01*
X100884150Y-95515371D01*
X100883736Y-95515595D01*
X100795050Y-95539703D01*
X100795050Y-95662073D01*
X100873058Y-95657076D01*
X100981877Y-95605889D01*
X101063488Y-95510508D01*
X101082614Y-95474214D01*
X101111018Y-95363620D01*
X101094616Y-95261513D01*
G36*
X101933356Y-95014055D02*
X101889846Y-94999440D01*
X101812576Y-94990875D01*
X101743106Y-94989897D01*
X101646870Y-94988861D01*
X101564307Y-94981975D01*
X101526825Y-94974507D01*
X101461257Y-94969515D01*
X101381824Y-94983317D01*
X101374486Y-94985621D01*
X101282248Y-95037001D01*
X101235812Y-95110208D01*
X101237346Y-95197128D01*
X101289024Y-95289644D01*
X101292165Y-95293346D01*
X101334157Y-95334080D01*
X101383551Y-95358112D01*
X101457239Y-95371367D01*
X101531620Y-95377364D01*
X101586972Y-95382138D01*
X101586972Y-95250000D01*
X101473256Y-95239833D01*
X101396284Y-95211182D01*
X101362775Y-95166823D01*
X101361875Y-95156970D01*
X101384471Y-95122763D01*
X101429164Y-95101829D01*
X101500626Y-95099706D01*
X101581599Y-95118882D01*
X101653164Y-95152195D01*
X101696401Y-95192483D01*
X101700997Y-95204736D01*
X101697512Y-95232758D01*
X101665160Y-95246310D01*
X101592353Y-95249993D01*
X101586972Y-95250000D01*
X101586972Y-95382138D01*
X101627245Y-95385612D01*
X101679941Y-95397176D01*
X101699693Y-95415290D01*
X101699668Y-95431761D01*
X101686064Y-95454564D01*
X101649677Y-95466891D01*
X101579496Y-95470862D01*
X101502170Y-95469744D01*
X101393908Y-95469976D01*
X101329694Y-95478796D01*
X101301162Y-95497489D01*
X101299572Y-95500882D01*
X101304812Y-95548337D01*
X101361258Y-95583795D01*
X101468535Y-95607071D01*
X101526983Y-95613039D01*
X101624899Y-95617735D01*
X101689305Y-95610464D01*
X101738925Y-95587720D01*
X101765365Y-95568405D01*
X101802970Y-95534481D01*
X101824773Y-95497165D01*
X101835034Y-95441575D01*
X101838014Y-95352828D01*
X101838125Y-95314226D01*
X101839524Y-95213059D01*
X101845570Y-95153873D01*
X101859044Y-95125765D01*
X101882723Y-95117835D01*
X101888211Y-95117709D01*
X101937700Y-95099253D01*
X101955763Y-95057760D01*
X101933356Y-95014055D01*
X101933356Y-95014055D01*
G37*
X101933356Y-95014055D02*
X101889846Y-94999440D01*
X101812576Y-94990875D01*
X101743106Y-94989897D01*
X101646870Y-94988861D01*
X101564307Y-94981975D01*
X101526825Y-94974507D01*
X101461257Y-94969515D01*
X101381824Y-94983317D01*
X101374486Y-94985621D01*
X101282248Y-95037001D01*
X101235812Y-95110208D01*
X101237346Y-95197128D01*
X101289024Y-95289644D01*
X101292165Y-95293346D01*
X101334157Y-95334080D01*
X101383551Y-95358112D01*
X101457239Y-95371367D01*
X101531620Y-95377364D01*
X101586972Y-95382138D01*
X101586972Y-95250000D01*
X101473256Y-95239833D01*
X101396284Y-95211182D01*
X101362775Y-95166823D01*
X101361875Y-95156970D01*
X101384471Y-95122763D01*
X101429164Y-95101829D01*
X101500626Y-95099706D01*
X101581599Y-95118882D01*
X101653164Y-95152195D01*
X101696401Y-95192483D01*
X101700997Y-95204736D01*
X101697512Y-95232758D01*
X101665160Y-95246310D01*
X101592353Y-95249993D01*
X101586972Y-95250000D01*
X101586972Y-95382138D01*
X101627245Y-95385612D01*
X101679941Y-95397176D01*
X101699693Y-95415290D01*
X101699668Y-95431761D01*
X101686064Y-95454564D01*
X101649677Y-95466891D01*
X101579496Y-95470862D01*
X101502170Y-95469744D01*
X101393908Y-95469976D01*
X101329694Y-95478796D01*
X101301162Y-95497489D01*
X101299572Y-95500882D01*
X101304812Y-95548337D01*
X101361258Y-95583795D01*
X101468535Y-95607071D01*
X101526983Y-95613039D01*
X101624899Y-95617735D01*
X101689305Y-95610464D01*
X101738925Y-95587720D01*
X101765365Y-95568405D01*
X101802970Y-95534481D01*
X101824773Y-95497165D01*
X101835034Y-95441575D01*
X101838014Y-95352828D01*
X101838125Y-95314226D01*
X101839524Y-95213059D01*
X101845570Y-95153873D01*
X101859044Y-95125765D01*
X101882723Y-95117835D01*
X101888211Y-95117709D01*
X101937700Y-95099253D01*
X101955763Y-95057760D01*
X101933356Y-95014055D01*
G36*
X102008360Y-108006719D02*
X101998598Y-108002917D01*
X101957330Y-107994214D01*
X101904998Y-107976735D01*
X101836133Y-107950553D01*
X101895317Y-107870503D01*
X101932073Y-107815673D01*
X101937628Y-107782156D01*
X101914533Y-107750510D01*
X101911469Y-107747421D01*
X101881359Y-107724080D01*
X101852679Y-107729304D01*
X101810271Y-107768333D01*
X101791157Y-107789001D01*
X101713877Y-107873613D01*
X101669558Y-107805973D01*
X101622798Y-107758519D01*
X101572361Y-107739083D01*
X101533649Y-107749886D01*
X101521467Y-107784636D01*
X101537575Y-107841935D01*
X101561154Y-107882297D01*
X101594216Y-107935497D01*
X101586477Y-107968035D01*
X101532829Y-107994613D01*
X101520625Y-107998953D01*
X101458335Y-108035781D01*
X101441250Y-108084223D01*
X101449114Y-108123988D01*
X101483109Y-108132116D01*
X101515665Y-108126941D01*
X101584219Y-108113006D01*
X101628112Y-108103790D01*
X101656776Y-108116777D01*
X101672384Y-108175098D01*
X101674358Y-108194740D01*
X101686832Y-108263472D01*
X101713320Y-108291503D01*
X101731059Y-108293959D01*
X101782084Y-108270648D01*
X101808183Y-108201572D01*
X101811667Y-108148121D01*
X101816672Y-108107103D01*
X101842035Y-108097539D01*
X101894809Y-108109831D01*
X101958694Y-108122408D01*
X101999602Y-108120227D01*
X102000642Y-108119652D01*
X102019385Y-108086983D01*
X102021801Y-108040369D01*
X102008360Y-108006719D01*
X102008360Y-108006719D01*
G37*
X102008360Y-108006719D02*
X101998598Y-108002917D01*
X101957330Y-107994214D01*
X101904998Y-107976735D01*
X101836133Y-107950553D01*
X101895317Y-107870503D01*
X101932073Y-107815673D01*
X101937628Y-107782156D01*
X101914533Y-107750510D01*
X101911469Y-107747421D01*
X101881359Y-107724080D01*
X101852679Y-107729304D01*
X101810271Y-107768333D01*
X101791157Y-107789001D01*
X101713877Y-107873613D01*
X101669558Y-107805973D01*
X101622798Y-107758519D01*
X101572361Y-107739083D01*
X101533649Y-107749886D01*
X101521467Y-107784636D01*
X101537575Y-107841935D01*
X101561154Y-107882297D01*
X101594216Y-107935497D01*
X101586477Y-107968035D01*
X101532829Y-107994613D01*
X101520625Y-107998953D01*
X101458335Y-108035781D01*
X101441250Y-108084223D01*
X101449114Y-108123988D01*
X101483109Y-108132116D01*
X101515665Y-108126941D01*
X101584219Y-108113006D01*
X101628112Y-108103790D01*
X101656776Y-108116777D01*
X101672384Y-108175098D01*
X101674358Y-108194740D01*
X101686832Y-108263472D01*
X101713320Y-108291503D01*
X101731059Y-108293959D01*
X101782084Y-108270648D01*
X101808183Y-108201572D01*
X101811667Y-108148121D01*
X101816672Y-108107103D01*
X101842035Y-108097539D01*
X101894809Y-108109831D01*
X101958694Y-108122408D01*
X101999602Y-108120227D01*
X102000642Y-108119652D01*
X102019385Y-108086983D01*
X102021801Y-108040369D01*
X102008360Y-108006719D01*
G36*
X102799049Y-95173293D02*
X102749330Y-95121171D01*
X102646399Y-95066419D01*
X102517761Y-95034059D01*
X102387374Y-95028221D01*
X102301840Y-95044065D01*
X102197625Y-95104500D01*
X102123910Y-95198353D01*
X102088247Y-95311848D01*
X102095301Y-95420877D01*
X102144064Y-95525342D01*
X102223073Y-95609595D01*
X102258773Y-95632253D01*
X102321253Y-95652179D01*
X102412438Y-95667424D01*
X102514677Y-95676713D01*
X102610317Y-95678772D01*
X102681709Y-95672326D01*
X102704636Y-95664451D01*
X102725850Y-95626739D01*
X102737142Y-95559043D01*
X102737709Y-95539481D01*
X102733042Y-95470727D01*
X102714466Y-95440659D01*
X102685723Y-95435209D01*
X102632659Y-95456546D01*
X102605417Y-95488125D01*
X102568077Y-95525731D01*
X102500459Y-95540266D01*
X102470455Y-95541042D01*
X102360787Y-95529927D01*
X102288087Y-95492244D01*
X102240356Y-95421481D01*
X102237434Y-95414627D01*
X102219897Y-95321224D01*
X102244804Y-95244862D01*
X102303357Y-95189361D01*
X102386763Y-95158541D01*
X102486226Y-95156222D01*
X102592950Y-95186225D01*
X102666764Y-95228149D01*
X102741652Y-95263808D01*
X102793915Y-95259745D01*
X102815674Y-95226170D01*
X102799049Y-95173293D01*
X102799049Y-95173293D01*
G37*
X102799049Y-95173293D02*
X102749330Y-95121171D01*
X102646399Y-95066419D01*
X102517761Y-95034059D01*
X102387374Y-95028221D01*
X102301840Y-95044065D01*
X102197625Y-95104500D01*
X102123910Y-95198353D01*
X102088247Y-95311848D01*
X102095301Y-95420877D01*
X102144064Y-95525342D01*
X102223073Y-95609595D01*
X102258773Y-95632253D01*
X102321253Y-95652179D01*
X102412438Y-95667424D01*
X102514677Y-95676713D01*
X102610317Y-95678772D01*
X102681709Y-95672326D01*
X102704636Y-95664451D01*
X102725850Y-95626739D01*
X102737142Y-95559043D01*
X102737709Y-95539481D01*
X102733042Y-95470727D01*
X102714466Y-95440659D01*
X102685723Y-95435209D01*
X102632659Y-95456546D01*
X102605417Y-95488125D01*
X102568077Y-95525731D01*
X102500459Y-95540266D01*
X102470455Y-95541042D01*
X102360787Y-95529927D01*
X102288087Y-95492244D01*
X102240356Y-95421481D01*
X102237434Y-95414627D01*
X102219897Y-95321224D01*
X102244804Y-95244862D01*
X102303357Y-95189361D01*
X102386763Y-95158541D01*
X102486226Y-95156222D01*
X102592950Y-95186225D01*
X102666764Y-95228149D01*
X102741652Y-95263808D01*
X102793915Y-95259745D01*
X102815674Y-95226170D01*
X102799049Y-95173293D01*
G36*
X103378533Y-107542646D02*
X103316630Y-107413875D01*
X103213330Y-107318057D01*
X103079852Y-107258414D01*
X103013116Y-107243339D01*
X102956190Y-107247990D01*
X102885703Y-107275785D01*
X102853735Y-107291498D01*
X102739716Y-107369578D01*
X102679989Y-107446879D01*
X102643226Y-107562469D01*
X102635170Y-107696773D01*
X102656508Y-107823619D01*
X102669225Y-107857396D01*
X102745874Y-107971051D01*
X102855334Y-108057386D01*
X102904796Y-108080530D01*
X103005645Y-108099411D01*
X103005645Y-107975654D01*
X102910891Y-107934824D01*
X102854125Y-107886500D01*
X102796232Y-107819663D01*
X102770075Y-107756243D01*
X102764167Y-107673903D01*
X102773011Y-107584523D01*
X102795176Y-107507632D01*
X102805144Y-107488724D01*
X102882954Y-107411845D01*
X102980216Y-107382663D01*
X103089152Y-107403500D01*
X103089708Y-107403732D01*
X103182141Y-107468200D01*
X103242746Y-107562426D01*
X103268670Y-107672257D01*
X103257061Y-107783543D01*
X103205069Y-107882133D01*
X103189536Y-107899119D01*
X103098229Y-107963741D01*
X103005645Y-107975654D01*
X103005645Y-108099411D01*
X103034660Y-108104844D01*
X103156265Y-108082478D01*
X103261418Y-108019667D01*
X103341922Y-107922648D01*
X103389583Y-107797655D01*
X103399068Y-107704411D01*
X103378533Y-107542646D01*
X103378533Y-107542646D01*
G37*
X103378533Y-107542646D02*
X103316630Y-107413875D01*
X103213330Y-107318057D01*
X103079852Y-107258414D01*
X103013116Y-107243339D01*
X102956190Y-107247990D01*
X102885703Y-107275785D01*
X102853735Y-107291498D01*
X102739716Y-107369578D01*
X102679989Y-107446879D01*
X102643226Y-107562469D01*
X102635170Y-107696773D01*
X102656508Y-107823619D01*
X102669225Y-107857396D01*
X102745874Y-107971051D01*
X102855334Y-108057386D01*
X102904796Y-108080530D01*
X103005645Y-108099411D01*
X103005645Y-107975654D01*
X102910891Y-107934824D01*
X102854125Y-107886500D01*
X102796232Y-107819663D01*
X102770075Y-107756243D01*
X102764167Y-107673903D01*
X102773011Y-107584523D01*
X102795176Y-107507632D01*
X102805144Y-107488724D01*
X102882954Y-107411845D01*
X102980216Y-107382663D01*
X103089152Y-107403500D01*
X103089708Y-107403732D01*
X103182141Y-107468200D01*
X103242746Y-107562426D01*
X103268670Y-107672257D01*
X103257061Y-107783543D01*
X103205069Y-107882133D01*
X103189536Y-107899119D01*
X103098229Y-107963741D01*
X103005645Y-107975654D01*
X103005645Y-108099411D01*
X103034660Y-108104844D01*
X103156265Y-108082478D01*
X103261418Y-108019667D01*
X103341922Y-107922648D01*
X103389583Y-107797655D01*
X103399068Y-107704411D01*
X103378533Y-107542646D01*
G36*
X103612057Y-95334313D02*
X103540754Y-95281588D01*
X103429991Y-95231687D01*
X103322304Y-95197760D01*
X103191436Y-95184278D01*
X103077669Y-95212343D01*
X102986445Y-95273557D01*
X102923201Y-95359525D01*
X102893379Y-95461850D01*
X102902416Y-95572137D01*
X102955752Y-95681990D01*
X102985229Y-95718059D01*
X103042873Y-95774604D01*
X103097430Y-95805662D01*
X103170621Y-95820819D01*
X103229968Y-95826088D01*
X103237074Y-95826321D01*
X103237074Y-95703692D01*
X103148744Y-95680729D01*
X103092803Y-95644909D01*
X103039915Y-95587937D01*
X103029458Y-95554592D01*
X103063158Y-95544001D01*
X103142739Y-95555290D01*
X103228342Y-95576188D01*
X103327553Y-95604138D01*
X103383029Y-95624928D01*
X103402661Y-95643001D01*
X103394345Y-95662801D01*
X103390116Y-95667266D01*
X103324657Y-95699740D01*
X103237074Y-95703692D01*
X103237074Y-95826321D01*
X103326618Y-95829266D01*
X103391163Y-95819000D01*
X103443575Y-95791224D01*
X103459227Y-95779416D01*
X103510808Y-95728344D01*
X103558800Y-95664509D01*
X103593691Y-95603123D01*
X103605967Y-95559398D01*
X103602490Y-95550337D01*
X103573397Y-95538852D01*
X103504231Y-95517322D01*
X103406115Y-95489085D01*
X103316899Y-95464619D01*
X103043554Y-95391148D01*
X103119067Y-95341670D01*
X103161928Y-95315923D01*
X103198875Y-95306451D01*
X103246468Y-95313992D01*
X103321269Y-95339288D01*
X103356405Y-95352274D01*
X103477825Y-95396326D01*
X103558347Y-95421751D01*
X103606219Y-95429538D01*
X103629691Y-95420674D01*
X103637012Y-95396148D01*
X103637292Y-95385914D01*
X103612057Y-95334313D01*
X103612057Y-95334313D01*
G37*
X103612057Y-95334313D02*
X103540754Y-95281588D01*
X103429991Y-95231687D01*
X103322304Y-95197760D01*
X103191436Y-95184278D01*
X103077669Y-95212343D01*
X102986445Y-95273557D01*
X102923201Y-95359525D01*
X102893379Y-95461850D01*
X102902416Y-95572137D01*
X102955752Y-95681990D01*
X102985229Y-95718059D01*
X103042873Y-95774604D01*
X103097430Y-95805662D01*
X103170621Y-95820819D01*
X103229968Y-95826088D01*
X103237074Y-95826321D01*
X103237074Y-95703692D01*
X103148744Y-95680729D01*
X103092803Y-95644909D01*
X103039915Y-95587937D01*
X103029458Y-95554592D01*
X103063158Y-95544001D01*
X103142739Y-95555290D01*
X103228342Y-95576188D01*
X103327553Y-95604138D01*
X103383029Y-95624928D01*
X103402661Y-95643001D01*
X103394345Y-95662801D01*
X103390116Y-95667266D01*
X103324657Y-95699740D01*
X103237074Y-95703692D01*
X103237074Y-95826321D01*
X103326618Y-95829266D01*
X103391163Y-95819000D01*
X103443575Y-95791224D01*
X103459227Y-95779416D01*
X103510808Y-95728344D01*
X103558800Y-95664509D01*
X103593691Y-95603123D01*
X103605967Y-95559398D01*
X103602490Y-95550337D01*
X103573397Y-95538852D01*
X103504231Y-95517322D01*
X103406115Y-95489085D01*
X103316899Y-95464619D01*
X103043554Y-95391148D01*
X103119067Y-95341670D01*
X103161928Y-95315923D01*
X103198875Y-95306451D01*
X103246468Y-95313992D01*
X103321269Y-95339288D01*
X103356405Y-95352274D01*
X103477825Y-95396326D01*
X103558347Y-95421751D01*
X103606219Y-95429538D01*
X103629691Y-95420674D01*
X103637012Y-95396148D01*
X103637292Y-95385914D01*
X103612057Y-95334313D01*
G36*
X104415460Y-95725826D02*
X104361654Y-95619555D01*
X104270402Y-95535771D01*
X104157427Y-95487220D01*
X104063489Y-95458932D01*
X103957701Y-95421113D01*
X103920931Y-95406402D01*
X103844382Y-95379244D01*
X103786828Y-95367409D01*
X103768796Y-95369550D01*
X103744146Y-95409460D01*
X103758378Y-95458000D01*
X103787681Y-95483972D01*
X103805107Y-95499140D01*
X103810107Y-95524903D01*
X103800563Y-95570153D01*
X103774357Y-95643778D01*
X103729369Y-95754671D01*
X103714920Y-95789303D01*
X103663332Y-95910417D01*
X103625575Y-95990660D01*
X103596007Y-96038364D01*
X103568984Y-96061862D01*
X103538863Y-96069485D01*
X103524844Y-96069955D01*
X103467824Y-96085344D01*
X103452046Y-96121907D01*
X103483041Y-96166031D01*
X103485157Y-96167631D01*
X103533468Y-96195987D01*
X103589060Y-96222341D01*
X103629741Y-96236595D01*
X103657371Y-96229986D01*
X103682553Y-96193320D01*
X103715892Y-96117404D01*
X103719140Y-96109574D01*
X103778389Y-95966625D01*
X103867511Y-96044875D01*
X103970267Y-96104477D01*
X104050115Y-96118636D01*
X104050115Y-95989529D01*
X103968743Y-95957610D01*
X103930254Y-95921120D01*
X103882537Y-95828359D01*
X103887577Y-95739036D01*
X103943317Y-95655945D01*
X104002667Y-95609483D01*
X104062688Y-95599919D01*
X104094180Y-95604639D01*
X104187158Y-95641612D01*
X104259158Y-95704130D01*
X104296409Y-95778914D01*
X104298750Y-95801918D01*
X104276193Y-95887032D01*
X104217876Y-95949699D01*
X104137838Y-95985378D01*
X104050115Y-95989529D01*
X104050115Y-96118636D01*
X104087512Y-96125268D01*
X104205112Y-96109399D01*
X104308932Y-96059021D01*
X104384838Y-95976285D01*
X104390907Y-95965242D01*
X104426863Y-95844438D01*
X104415460Y-95725826D01*
X104415460Y-95725826D01*
G37*
X104415460Y-95725826D02*
X104361654Y-95619555D01*
X104270402Y-95535771D01*
X104157427Y-95487220D01*
X104063489Y-95458932D01*
X103957701Y-95421113D01*
X103920931Y-95406402D01*
X103844382Y-95379244D01*
X103786828Y-95367409D01*
X103768796Y-95369550D01*
X103744146Y-95409460D01*
X103758378Y-95458000D01*
X103787681Y-95483972D01*
X103805107Y-95499140D01*
X103810107Y-95524903D01*
X103800563Y-95570153D01*
X103774357Y-95643778D01*
X103729369Y-95754671D01*
X103714920Y-95789303D01*
X103663332Y-95910417D01*
X103625575Y-95990660D01*
X103596007Y-96038364D01*
X103568984Y-96061862D01*
X103538863Y-96069485D01*
X103524844Y-96069955D01*
X103467824Y-96085344D01*
X103452046Y-96121907D01*
X103483041Y-96166031D01*
X103485157Y-96167631D01*
X103533468Y-96195987D01*
X103589060Y-96222341D01*
X103629741Y-96236595D01*
X103657371Y-96229986D01*
X103682553Y-96193320D01*
X103715892Y-96117404D01*
X103719140Y-96109574D01*
X103778389Y-95966625D01*
X103867511Y-96044875D01*
X103970267Y-96104477D01*
X104050115Y-96118636D01*
X104050115Y-95989529D01*
X103968743Y-95957610D01*
X103930254Y-95921120D01*
X103882537Y-95828359D01*
X103887577Y-95739036D01*
X103943317Y-95655945D01*
X104002667Y-95609483D01*
X104062688Y-95599919D01*
X104094180Y-95604639D01*
X104187158Y-95641612D01*
X104259158Y-95704130D01*
X104296409Y-95778914D01*
X104298750Y-95801918D01*
X104276193Y-95887032D01*
X104217876Y-95949699D01*
X104137838Y-95985378D01*
X104050115Y-95989529D01*
X104050115Y-96118636D01*
X104087512Y-96125268D01*
X104205112Y-96109399D01*
X104308932Y-96059021D01*
X104384838Y-95976285D01*
X104390907Y-95965242D01*
X104426863Y-95844438D01*
X104415460Y-95725826D01*
G36*
X104607935Y-107332577D02*
X104588279Y-107314065D01*
X104537353Y-107302611D01*
X104478590Y-107306814D01*
X104431537Y-107312700D01*
X104410368Y-107296369D01*
X104404772Y-107244894D01*
X104404584Y-107214036D01*
X104397680Y-107141772D01*
X104380478Y-107093937D01*
X104374112Y-107087624D01*
X104337440Y-107090463D01*
X104301224Y-107129659D01*
X104276714Y-107189765D01*
X104272292Y-107227453D01*
X104264552Y-107276282D01*
X104236356Y-107282320D01*
X104181246Y-107248013D01*
X104121240Y-107217041D01*
X104082027Y-107209167D01*
X104041584Y-107225541D01*
X104035731Y-107265439D01*
X104061581Y-107315025D01*
X104113213Y-107358702D01*
X104192259Y-107405396D01*
X104123005Y-107477681D01*
X104078069Y-107539654D01*
X104068836Y-107589015D01*
X104069587Y-107591233D01*
X104104263Y-107628300D01*
X104156129Y-107620407D01*
X104206146Y-107579584D01*
X104254743Y-107535881D01*
X104290902Y-107536881D01*
X104327227Y-107585102D01*
X104338438Y-107606042D01*
X104385453Y-107670253D01*
X104427841Y-107687790D01*
X104456563Y-107664715D01*
X104462583Y-107607088D01*
X104443227Y-107535777D01*
X104423441Y-107479488D01*
X104433247Y-107452935D01*
X104482713Y-107438566D01*
X104500971Y-107435099D01*
X104570727Y-107409811D01*
X104608917Y-107372121D01*
X104607935Y-107332577D01*
X104607935Y-107332577D01*
G37*
X104607935Y-107332577D02*
X104588279Y-107314065D01*
X104537353Y-107302611D01*
X104478590Y-107306814D01*
X104431537Y-107312700D01*
X104410368Y-107296369D01*
X104404772Y-107244894D01*
X104404584Y-107214036D01*
X104397680Y-107141772D01*
X104380478Y-107093937D01*
X104374112Y-107087624D01*
X104337440Y-107090463D01*
X104301224Y-107129659D01*
X104276714Y-107189765D01*
X104272292Y-107227453D01*
X104264552Y-107276282D01*
X104236356Y-107282320D01*
X104181246Y-107248013D01*
X104121240Y-107217041D01*
X104082027Y-107209167D01*
X104041584Y-107225541D01*
X104035731Y-107265439D01*
X104061581Y-107315025D01*
X104113213Y-107358702D01*
X104192259Y-107405396D01*
X104123005Y-107477681D01*
X104078069Y-107539654D01*
X104068836Y-107589015D01*
X104069587Y-107591233D01*
X104104263Y-107628300D01*
X104156129Y-107620407D01*
X104206146Y-107579584D01*
X104254743Y-107535881D01*
X104290902Y-107536881D01*
X104327227Y-107585102D01*
X104338438Y-107606042D01*
X104385453Y-107670253D01*
X104427841Y-107687790D01*
X104456563Y-107664715D01*
X104462583Y-107607088D01*
X104443227Y-107535777D01*
X104423441Y-107479488D01*
X104433247Y-107452935D01*
X104482713Y-107438566D01*
X104500971Y-107435099D01*
X104570727Y-107409811D01*
X104608917Y-107372121D01*
X104607935Y-107332577D01*
G36*
X105265080Y-96097638D02*
X105236774Y-96071823D01*
X105187898Y-96040096D01*
X105136283Y-96012406D01*
X105099757Y-95998699D01*
X105092500Y-96001348D01*
X105076132Y-95992320D01*
X105035099Y-95955458D01*
X105016516Y-95937237D01*
X104913918Y-95857688D01*
X104816826Y-95830425D01*
X104724373Y-95855604D01*
X104635694Y-95933383D01*
X104576534Y-96017340D01*
X104522609Y-96101558D01*
X104483615Y-96147470D01*
X104450083Y-96163729D01*
X104419471Y-96160865D01*
X104362003Y-96159349D01*
X104341103Y-96186560D01*
X104356667Y-96233073D01*
X104408593Y-96289462D01*
X104420970Y-96299307D01*
X104481911Y-96341457D01*
X104517147Y-96351199D01*
X104539209Y-96332931D01*
X104564415Y-96292169D01*
X104607397Y-96220868D01*
X104659078Y-96134089D01*
X104661654Y-96129740D01*
X104714189Y-96048805D01*
X104761269Y-95989869D01*
X104793451Y-95964601D01*
X104795466Y-95964375D01*
X104874911Y-95988386D01*
X104945710Y-96052052D01*
X104970787Y-96091541D01*
X104991287Y-96141009D01*
X104988966Y-96184214D01*
X104960700Y-96242430D01*
X104944669Y-96269350D01*
X104897223Y-96336668D01*
X104851749Y-96367507D01*
X104795495Y-96374480D01*
X104725470Y-96387278D01*
X104700959Y-96420866D01*
X104722576Y-96468033D01*
X104783376Y-96517001D01*
X104846289Y-96552494D01*
X104890755Y-96571544D01*
X104897186Y-96572593D01*
X104920059Y-96551050D01*
X104961210Y-96493784D01*
X105013289Y-96411370D01*
X105036209Y-96372568D01*
X105100710Y-96269390D01*
X105151196Y-96205615D01*
X105184199Y-96185546D01*
X105186410Y-96186111D01*
X105228865Y-96180168D01*
X105262395Y-96145478D01*
X105267959Y-96103455D01*
X105265080Y-96097638D01*
X105265080Y-96097638D01*
G37*
X105265080Y-96097638D02*
X105236774Y-96071823D01*
X105187898Y-96040096D01*
X105136283Y-96012406D01*
X105099757Y-95998699D01*
X105092500Y-96001348D01*
X105076132Y-95992320D01*
X105035099Y-95955458D01*
X105016516Y-95937237D01*
X104913918Y-95857688D01*
X104816826Y-95830425D01*
X104724373Y-95855604D01*
X104635694Y-95933383D01*
X104576534Y-96017340D01*
X104522609Y-96101558D01*
X104483615Y-96147470D01*
X104450083Y-96163729D01*
X104419471Y-96160865D01*
X104362003Y-96159349D01*
X104341103Y-96186560D01*
X104356667Y-96233073D01*
X104408593Y-96289462D01*
X104420970Y-96299307D01*
X104481911Y-96341457D01*
X104517147Y-96351199D01*
X104539209Y-96332931D01*
X104564415Y-96292169D01*
X104607397Y-96220868D01*
X104659078Y-96134089D01*
X104661654Y-96129740D01*
X104714189Y-96048805D01*
X104761269Y-95989869D01*
X104793451Y-95964601D01*
X104795466Y-95964375D01*
X104874911Y-95988386D01*
X104945710Y-96052052D01*
X104970787Y-96091541D01*
X104991287Y-96141009D01*
X104988966Y-96184214D01*
X104960700Y-96242430D01*
X104944669Y-96269350D01*
X104897223Y-96336668D01*
X104851749Y-96367507D01*
X104795495Y-96374480D01*
X104725470Y-96387278D01*
X104700959Y-96420866D01*
X104722576Y-96468033D01*
X104783376Y-96517001D01*
X104846289Y-96552494D01*
X104890755Y-96571544D01*
X104897186Y-96572593D01*
X104920059Y-96551050D01*
X104961210Y-96493784D01*
X105013289Y-96411370D01*
X105036209Y-96372568D01*
X105100710Y-96269390D01*
X105151196Y-96205615D01*
X105184199Y-96185546D01*
X105186410Y-96186111D01*
X105228865Y-96180168D01*
X105262395Y-96145478D01*
X105267959Y-96103455D01*
X105265080Y-96097638D01*
G36*
X105641551Y-106794379D02*
X105607267Y-106769138D01*
X105570678Y-106776044D01*
X105535876Y-106797032D01*
X105505563Y-106814926D01*
X105479740Y-106818392D01*
X105450321Y-106801404D01*
X105409217Y-106757935D01*
X105348343Y-106681961D01*
X105303035Y-106623529D01*
X105135641Y-106407144D01*
X105239748Y-106319070D01*
X105316673Y-106259064D01*
X105369525Y-106236021D01*
X105411017Y-106248860D01*
X105453860Y-106296504D01*
X105456898Y-106300648D01*
X105506308Y-106344584D01*
X105555617Y-106354801D01*
X105589155Y-106331103D01*
X105595209Y-106302397D01*
X105579900Y-106258902D01*
X105541737Y-106196270D01*
X105492370Y-106129870D01*
X105443445Y-106075073D01*
X105406611Y-106047246D01*
X105401097Y-106046276D01*
X105367485Y-106062686D01*
X105303434Y-106105484D01*
X105218918Y-106166897D01*
X105123910Y-106239152D01*
X105028382Y-106314474D01*
X104942309Y-106385091D01*
X104875663Y-106443228D01*
X104838418Y-106481112D01*
X104834169Y-106488164D01*
X104845827Y-106523693D01*
X104868909Y-106538641D01*
X104927040Y-106539806D01*
X104963355Y-106525426D01*
X105007648Y-106500887D01*
X105024807Y-106494792D01*
X105044983Y-106514488D01*
X105089551Y-106567622D01*
X105151194Y-106645266D01*
X105199911Y-106708530D01*
X105362615Y-106922268D01*
X105306933Y-106974144D01*
X105259072Y-107032277D01*
X105260107Y-107073370D01*
X105291651Y-107094039D01*
X105338045Y-107087941D01*
X105411309Y-107051660D01*
X105500390Y-106991917D01*
X105594233Y-106915435D01*
X105612112Y-106899174D01*
X105656081Y-106853449D01*
X105663341Y-106823315D01*
X105641551Y-106794379D01*
X105641551Y-106794379D01*
G37*
X105641551Y-106794379D02*
X105607267Y-106769138D01*
X105570678Y-106776044D01*
X105535876Y-106797032D01*
X105505563Y-106814926D01*
X105479740Y-106818392D01*
X105450321Y-106801404D01*
X105409217Y-106757935D01*
X105348343Y-106681961D01*
X105303035Y-106623529D01*
X105135641Y-106407144D01*
X105239748Y-106319070D01*
X105316673Y-106259064D01*
X105369525Y-106236021D01*
X105411017Y-106248860D01*
X105453860Y-106296504D01*
X105456898Y-106300648D01*
X105506308Y-106344584D01*
X105555617Y-106354801D01*
X105589155Y-106331103D01*
X105595209Y-106302397D01*
X105579900Y-106258902D01*
X105541737Y-106196270D01*
X105492370Y-106129870D01*
X105443445Y-106075073D01*
X105406611Y-106047246D01*
X105401097Y-106046276D01*
X105367485Y-106062686D01*
X105303434Y-106105484D01*
X105218918Y-106166897D01*
X105123910Y-106239152D01*
X105028382Y-106314474D01*
X104942309Y-106385091D01*
X104875663Y-106443228D01*
X104838418Y-106481112D01*
X104834169Y-106488164D01*
X104845827Y-106523693D01*
X104868909Y-106538641D01*
X104927040Y-106539806D01*
X104963355Y-106525426D01*
X105007648Y-106500887D01*
X105024807Y-106494792D01*
X105044983Y-106514488D01*
X105089551Y-106567622D01*
X105151194Y-106645266D01*
X105199911Y-106708530D01*
X105362615Y-106922268D01*
X105306933Y-106974144D01*
X105259072Y-107032277D01*
X105260107Y-107073370D01*
X105291651Y-107094039D01*
X105338045Y-107087941D01*
X105411309Y-107051660D01*
X105500390Y-106991917D01*
X105594233Y-106915435D01*
X105612112Y-106899174D01*
X105656081Y-106853449D01*
X105663341Y-106823315D01*
X105641551Y-106794379D01*
G36*
X105918699Y-96655373D02*
X105878874Y-96571636D01*
X105808649Y-96484527D01*
X105716212Y-96404729D01*
X105637162Y-96356071D01*
X105518994Y-96319959D01*
X105407363Y-96328716D01*
X105309640Y-96374459D01*
X105233195Y-96449307D01*
X105185398Y-96545376D01*
X105173621Y-96654786D01*
X105205233Y-96769653D01*
X105221907Y-96800160D01*
X105274072Y-96869082D01*
X105339147Y-96933550D01*
X105402065Y-96980297D01*
X105444558Y-96996250D01*
X105483387Y-97012500D01*
X105522807Y-97042249D01*
X105556914Y-97068238D01*
X105585349Y-97066181D01*
X105624367Y-97031047D01*
X105649874Y-97002919D01*
X105697541Y-96934310D01*
X105711256Y-96879921D01*
X105691759Y-96849044D01*
X105639785Y-96850971D01*
X105637862Y-96851590D01*
X105528593Y-96868999D01*
X105437967Y-96839446D01*
X105377634Y-96786598D01*
X105330456Y-96718071D01*
X105305399Y-96651022D01*
X105304167Y-96637443D01*
X105323415Y-96572220D01*
X105370555Y-96505677D01*
X105429680Y-96456006D01*
X105476258Y-96440625D01*
X105560211Y-96462232D01*
X105650654Y-96518105D01*
X105731139Y-96594822D01*
X105785219Y-96678963D01*
X105792388Y-96698594D01*
X105824055Y-96742434D01*
X105870603Y-96758149D01*
X105910690Y-96741313D01*
X105919934Y-96725053D01*
X105918699Y-96655373D01*
X105918699Y-96655373D01*
G37*
X105918699Y-96655373D02*
X105878874Y-96571636D01*
X105808649Y-96484527D01*
X105716212Y-96404729D01*
X105637162Y-96356071D01*
X105518994Y-96319959D01*
X105407363Y-96328716D01*
X105309640Y-96374459D01*
X105233195Y-96449307D01*
X105185398Y-96545376D01*
X105173621Y-96654786D01*
X105205233Y-96769653D01*
X105221907Y-96800160D01*
X105274072Y-96869082D01*
X105339147Y-96933550D01*
X105402065Y-96980297D01*
X105444558Y-96996250D01*
X105483387Y-97012500D01*
X105522807Y-97042249D01*
X105556914Y-97068238D01*
X105585349Y-97066181D01*
X105624367Y-97031047D01*
X105649874Y-97002919D01*
X105697541Y-96934310D01*
X105711256Y-96879921D01*
X105691759Y-96849044D01*
X105639785Y-96850971D01*
X105637862Y-96851590D01*
X105528593Y-96868999D01*
X105437967Y-96839446D01*
X105377634Y-96786598D01*
X105330456Y-96718071D01*
X105305399Y-96651022D01*
X105304167Y-96637443D01*
X105323415Y-96572220D01*
X105370555Y-96505677D01*
X105429680Y-96456006D01*
X105476258Y-96440625D01*
X105560211Y-96462232D01*
X105650654Y-96518105D01*
X105731139Y-96594822D01*
X105785219Y-96678963D01*
X105792388Y-96698594D01*
X105824055Y-96742434D01*
X105870603Y-96758149D01*
X105910690Y-96741313D01*
X105919934Y-96725053D01*
X105918699Y-96655373D01*
G36*
X106549039Y-97212160D02*
X106535752Y-97194004D01*
X106466001Y-97115096D01*
X106407614Y-97081027D01*
X106351884Y-97087673D01*
X106332896Y-97097908D01*
X106283150Y-97115994D01*
X106216004Y-97126330D01*
X106150678Y-97127930D01*
X106106393Y-97119808D01*
X106097917Y-97109958D01*
X106114773Y-97081475D01*
X106157483Y-97030561D01*
X106183907Y-97002281D01*
X106269896Y-96913187D01*
X106181811Y-96834156D01*
X106121306Y-96786196D01*
X106081558Y-96773945D01*
X106056689Y-96785862D01*
X106033529Y-96822104D01*
X106049476Y-96872321D01*
X106058950Y-96899956D01*
X106052623Y-96930155D01*
X106024883Y-96970761D01*
X105970116Y-97029619D01*
X105882708Y-97114572D01*
X105862080Y-97134184D01*
X105765324Y-97224307D01*
X105697718Y-97281865D01*
X105651377Y-97312086D01*
X105618415Y-97320200D01*
X105593031Y-97312585D01*
X105531100Y-97293312D01*
X105497977Y-97310009D01*
X105495718Y-97352989D01*
X105526378Y-97412566D01*
X105563060Y-97453819D01*
X105636744Y-97524413D01*
X105992084Y-97203705D01*
X105992084Y-97285186D01*
X105984603Y-97341822D01*
X105966512Y-97366622D01*
X105965625Y-97366667D01*
X105943399Y-97388581D01*
X105939167Y-97414394D01*
X105957645Y-97459973D01*
X106003093Y-97520133D01*
X106060532Y-97579008D01*
X106114984Y-97620733D01*
X106143917Y-97631250D01*
X106185053Y-97612760D01*
X106190362Y-97565005D01*
X106166344Y-97511955D01*
X106136913Y-97440026D01*
X106124380Y-97355784D01*
X106124375Y-97354369D01*
X106126906Y-97296744D01*
X106144133Y-97269563D01*
X106190514Y-97261382D01*
X106242540Y-97260834D01*
X106341412Y-97271523D01*
X106436893Y-97297979D01*
X106454472Y-97305548D01*
X106536306Y-97333504D01*
X106581085Y-97324871D01*
X106586199Y-97283229D01*
X106549039Y-97212160D01*
X106549039Y-97212160D01*
G37*
X106549039Y-97212160D02*
X106535752Y-97194004D01*
X106466001Y-97115096D01*
X106407614Y-97081027D01*
X106351884Y-97087673D01*
X106332896Y-97097908D01*
X106283150Y-97115994D01*
X106216004Y-97126330D01*
X106150678Y-97127930D01*
X106106393Y-97119808D01*
X106097917Y-97109958D01*
X106114773Y-97081475D01*
X106157483Y-97030561D01*
X106183907Y-97002281D01*
X106269896Y-96913187D01*
X106181811Y-96834156D01*
X106121306Y-96786196D01*
X106081558Y-96773945D01*
X106056689Y-96785862D01*
X106033529Y-96822104D01*
X106049476Y-96872321D01*
X106058950Y-96899956D01*
X106052623Y-96930155D01*
X106024883Y-96970761D01*
X105970116Y-97029619D01*
X105882708Y-97114572D01*
X105862080Y-97134184D01*
X105765324Y-97224307D01*
X105697718Y-97281865D01*
X105651377Y-97312086D01*
X105618415Y-97320200D01*
X105593031Y-97312585D01*
X105531100Y-97293312D01*
X105497977Y-97310009D01*
X105495718Y-97352989D01*
X105526378Y-97412566D01*
X105563060Y-97453819D01*
X105636744Y-97524413D01*
X105992084Y-97203705D01*
X105992084Y-97285186D01*
X105984603Y-97341822D01*
X105966512Y-97366622D01*
X105965625Y-97366667D01*
X105943399Y-97388581D01*
X105939167Y-97414394D01*
X105957645Y-97459973D01*
X106003093Y-97520133D01*
X106060532Y-97579008D01*
X106114984Y-97620733D01*
X106143917Y-97631250D01*
X106185053Y-97612760D01*
X106190362Y-97565005D01*
X106166344Y-97511955D01*
X106136913Y-97440026D01*
X106124380Y-97355784D01*
X106124375Y-97354369D01*
X106126906Y-97296744D01*
X106144133Y-97269563D01*
X106190514Y-97261382D01*
X106242540Y-97260834D01*
X106341412Y-97271523D01*
X106436893Y-97297979D01*
X106454472Y-97305548D01*
X106536306Y-97333504D01*
X106581085Y-97324871D01*
X106586199Y-97283229D01*
X106549039Y-97212160D01*
G36*
X106696233Y-105656051D02*
X106686598Y-105644695D01*
X106653458Y-105625388D01*
X106603543Y-105630684D01*
X106558940Y-105645245D01*
X106496981Y-105665052D01*
X106461368Y-105671481D01*
X106458677Y-105670398D01*
X106447310Y-105641538D01*
X106427704Y-105584284D01*
X106426947Y-105581980D01*
X106394105Y-105516709D01*
X106360693Y-105501071D01*
X106334904Y-105532513D01*
X106324930Y-105608483D01*
X106325000Y-105613748D01*
X106327187Y-105724891D01*
X106221223Y-105732810D01*
X106142616Y-105748037D01*
X106106369Y-105775411D01*
X106116506Y-105809543D01*
X106147487Y-105831542D01*
X106216912Y-105855105D01*
X106256711Y-105859792D01*
X106296545Y-105868316D01*
X106298226Y-105903833D01*
X106293556Y-105919323D01*
X106273299Y-106014434D01*
X106285819Y-106073718D01*
X106315120Y-106092209D01*
X106356433Y-106078372D01*
X106395634Y-106016397D01*
X106401523Y-106002822D01*
X106442704Y-105904263D01*
X106503526Y-105961403D01*
X106574376Y-106010669D01*
X106629444Y-106020582D01*
X106659838Y-105997881D01*
X106656666Y-105949304D01*
X106611037Y-105881589D01*
X106610130Y-105880619D01*
X106564329Y-105822114D01*
X106561899Y-105791067D01*
X106567199Y-105788077D01*
X106610811Y-105763414D01*
X106659803Y-105727292D01*
X106698791Y-105686971D01*
X106696233Y-105656051D01*
X106696233Y-105656051D01*
G37*
X106696233Y-105656051D02*
X106686598Y-105644695D01*
X106653458Y-105625388D01*
X106603543Y-105630684D01*
X106558940Y-105645245D01*
X106496981Y-105665052D01*
X106461368Y-105671481D01*
X106458677Y-105670398D01*
X106447310Y-105641538D01*
X106427704Y-105584284D01*
X106426947Y-105581980D01*
X106394105Y-105516709D01*
X106360693Y-105501071D01*
X106334904Y-105532513D01*
X106324930Y-105608483D01*
X106325000Y-105613748D01*
X106327187Y-105724891D01*
X106221223Y-105732810D01*
X106142616Y-105748037D01*
X106106369Y-105775411D01*
X106116506Y-105809543D01*
X106147487Y-105831542D01*
X106216912Y-105855105D01*
X106256711Y-105859792D01*
X106296545Y-105868316D01*
X106298226Y-105903833D01*
X106293556Y-105919323D01*
X106273299Y-106014434D01*
X106285819Y-106073718D01*
X106315120Y-106092209D01*
X106356433Y-106078372D01*
X106395634Y-106016397D01*
X106401523Y-106002822D01*
X106442704Y-105904263D01*
X106503526Y-105961403D01*
X106574376Y-106010669D01*
X106629444Y-106020582D01*
X106659838Y-105997881D01*
X106656666Y-105949304D01*
X106611037Y-105881589D01*
X106610130Y-105880619D01*
X106564329Y-105822114D01*
X106561899Y-105791067D01*
X106567199Y-105788077D01*
X106610811Y-105763414D01*
X106659803Y-105727292D01*
X106698791Y-105686971D01*
X106696233Y-105656051D01*
M02*
