G04 #@! TF.GenerationSoftware,KiCad,Pcbnew,(5.1.2)-1*
G04 #@! TF.CreationDate,2019-06-20T00:50:11-07:00*
G04 #@! TF.ProjectId,SMOL,534d4f4c-2e6b-4696-9361-645f70636258,rev?*
G04 #@! TF.SameCoordinates,Original*
G04 #@! TF.FileFunction,Paste,Top*
G04 #@! TF.FilePolarity,Positive*
%FSLAX46Y46*%
G04 Gerber Fmt 4.6, Leading zero omitted, Abs format (unit mm)*
G04 Created by KiCad (PCBNEW (5.1.2)-1) date 2019-06-20 00:50:11*
%MOMM*%
%LPD*%
G04 APERTURE LIST*
%ADD10R,0.700000X1.000000*%
%ADD11R,0.900000X1.200000*%
%ADD12R,1.200000X0.900000*%
%ADD13C,0.400000*%
%ADD14C,0.304800*%
%ADD15R,0.400000X0.710000*%
G04 APERTURE END LIST*
D10*
X102307000Y-96176000D03*
X101357000Y-96176000D03*
X100407000Y-96176000D03*
X100407000Y-98776000D03*
X102307000Y-98776000D03*
X101357000Y-98776000D03*
X101357000Y-100524000D03*
X100407000Y-100524000D03*
X102307000Y-100524000D03*
X102307000Y-103124000D03*
X101357000Y-103124000D03*
X100407000Y-103124000D03*
D11*
X103632000Y-100724000D03*
X103632000Y-102924000D03*
X105473500Y-99969500D03*
X105473500Y-97769500D03*
X103897000Y-98522000D03*
X103897000Y-96322000D03*
D12*
X95750000Y-103050000D03*
X97950000Y-103050000D03*
D11*
X98969400Y-98606000D03*
X98969400Y-96406000D03*
X97600000Y-99200001D03*
X97600000Y-101399999D03*
D13*
X106238149Y-102702801D03*
D14*
G36*
X106206917Y-103109064D02*
G01*
X105906858Y-102465585D01*
X106269381Y-102296538D01*
X106569440Y-102940017D01*
X106206917Y-103109064D01*
X106206917Y-103109064D01*
G37*
D13*
X107321004Y-103841890D03*
D14*
G36*
X107289772Y-104248153D02*
G01*
X106989713Y-103604674D01*
X107352236Y-103435627D01*
X107652295Y-104079106D01*
X107289772Y-104248153D01*
X107289772Y-104248153D01*
G37*
D13*
X106414697Y-104264508D03*
D14*
G36*
X106383465Y-104670771D02*
G01*
X106083406Y-104027292D01*
X106445929Y-103858245D01*
X106745988Y-104501724D01*
X106383465Y-104670771D01*
X106383465Y-104670771D01*
G37*
D15*
X95200000Y-100545000D03*
X96200000Y-100545000D03*
X95700000Y-99055000D03*
D11*
X105029000Y-101833501D03*
X105029000Y-104033499D03*
M02*
