G04 #@! TF.GenerationSoftware,KiCad,Pcbnew,(5.0.2)-1*
G04 #@! TF.CreationDate,2019-03-21T20:46:56-07:00*
G04 #@! TF.ProjectId,programmer,70726f67-7261-46d6-9d65-722e6b696361,rev?*
G04 #@! TF.SameCoordinates,Original*
G04 #@! TF.FileFunction,Legend,Top*
G04 #@! TF.FilePolarity,Positive*
%FSLAX46Y46*%
G04 Gerber Fmt 4.6, Leading zero omitted, Abs format (unit mm)*
G04 Created by KiCad (PCBNEW (5.0.2)-1) date 3/21/2019 8:46:56 PM*
%MOMM*%
%LPD*%
G01*
G04 APERTURE LIST*
%ADD10C,0.127000*%
%ADD11C,0.114300*%
%ADD12C,0.120000*%
%ADD13C,0.152400*%
G04 APERTURE END LIST*
D10*
X97669047Y-104459011D02*
X97669047Y-104126392D01*
X97638809Y-104065916D01*
X97578333Y-104035678D01*
X97457380Y-104035678D01*
X97396904Y-104065916D01*
X97669047Y-104428773D02*
X97608571Y-104459011D01*
X97457380Y-104459011D01*
X97396904Y-104428773D01*
X97366666Y-104368297D01*
X97366666Y-104307821D01*
X97396904Y-104247345D01*
X97457380Y-104217107D01*
X97608571Y-104217107D01*
X97669047Y-104186869D01*
X97880714Y-104035678D02*
X98122619Y-104035678D01*
X97971428Y-103824011D02*
X97971428Y-104368297D01*
X98001666Y-104428773D01*
X98062142Y-104459011D01*
X98122619Y-104459011D01*
X98243571Y-104035678D02*
X98485476Y-104035678D01*
X98334285Y-103824011D02*
X98334285Y-104368297D01*
X98364523Y-104428773D01*
X98425000Y-104459011D01*
X98485476Y-104459011D01*
X99029761Y-104459011D02*
X98666904Y-104459011D01*
X98848333Y-104459011D02*
X98848333Y-103824011D01*
X98787857Y-103914726D01*
X98727380Y-103975202D01*
X98666904Y-104005440D01*
X99785714Y-104398535D02*
X99815952Y-104428773D01*
X99785714Y-104459011D01*
X99755476Y-104428773D01*
X99785714Y-104398535D01*
X99785714Y-104459011D01*
X99785714Y-104065916D02*
X99815952Y-104096154D01*
X99785714Y-104126392D01*
X99755476Y-104096154D01*
X99785714Y-104065916D01*
X99785714Y-104126392D01*
X100844047Y-104459011D02*
X100844047Y-103824011D01*
X100844047Y-104428773D02*
X100783571Y-104459011D01*
X100662619Y-104459011D01*
X100602142Y-104428773D01*
X100571904Y-104398535D01*
X100541666Y-104338059D01*
X100541666Y-104156630D01*
X100571904Y-104096154D01*
X100602142Y-104065916D01*
X100662619Y-104035678D01*
X100783571Y-104035678D01*
X100844047Y-104065916D01*
X101418571Y-104459011D02*
X101418571Y-104126392D01*
X101388333Y-104065916D01*
X101327857Y-104035678D01*
X101206904Y-104035678D01*
X101146428Y-104065916D01*
X101418571Y-104428773D02*
X101358095Y-104459011D01*
X101206904Y-104459011D01*
X101146428Y-104428773D01*
X101116190Y-104368297D01*
X101116190Y-104307821D01*
X101146428Y-104247345D01*
X101206904Y-104217107D01*
X101358095Y-104217107D01*
X101418571Y-104186869D01*
X101630238Y-104035678D02*
X101872142Y-104035678D01*
X101720952Y-103824011D02*
X101720952Y-104368297D01*
X101751190Y-104428773D01*
X101811666Y-104459011D01*
X101872142Y-104459011D01*
X102567619Y-104398535D02*
X102597857Y-104428773D01*
X102567619Y-104459011D01*
X102537380Y-104428773D01*
X102567619Y-104398535D01*
X102567619Y-104459011D01*
X102567619Y-104065916D02*
X102597857Y-104096154D01*
X102567619Y-104126392D01*
X102537380Y-104096154D01*
X102567619Y-104065916D01*
X102567619Y-104126392D01*
X103625952Y-104459011D02*
X103625952Y-104126392D01*
X103595714Y-104065916D01*
X103535238Y-104035678D01*
X103414285Y-104035678D01*
X103353809Y-104065916D01*
X103625952Y-104428773D02*
X103565476Y-104459011D01*
X103414285Y-104459011D01*
X103353809Y-104428773D01*
X103323571Y-104368297D01*
X103323571Y-104307821D01*
X103353809Y-104247345D01*
X103414285Y-104217107D01*
X103565476Y-104217107D01*
X103625952Y-104186869D01*
X103928333Y-104459011D02*
X103928333Y-104035678D01*
X103928333Y-104156630D02*
X103958571Y-104096154D01*
X103988809Y-104065916D01*
X104049285Y-104035678D01*
X104109761Y-104035678D01*
X104593571Y-104459011D02*
X104593571Y-103824011D01*
X104593571Y-104428773D02*
X104533095Y-104459011D01*
X104412142Y-104459011D01*
X104351666Y-104428773D01*
X104321428Y-104398535D01*
X104291190Y-104338059D01*
X104291190Y-104156630D01*
X104321428Y-104096154D01*
X104351666Y-104065916D01*
X104412142Y-104035678D01*
X104533095Y-104035678D01*
X104593571Y-104065916D01*
X105228571Y-104459011D02*
X104865714Y-104459011D01*
X105047142Y-104459011D02*
X105047142Y-103824011D01*
X104986666Y-103914726D01*
X104926190Y-103975202D01*
X104865714Y-104005440D01*
X105833333Y-104459011D02*
X105470476Y-104459011D01*
X105651904Y-104459011D02*
X105651904Y-103824011D01*
X105591428Y-103914726D01*
X105530952Y-103975202D01*
X105470476Y-104005440D01*
X98636666Y-105538511D02*
X98636666Y-105205892D01*
X98606428Y-105145416D01*
X98545952Y-105115178D01*
X98425000Y-105115178D01*
X98364523Y-105145416D01*
X98636666Y-105508273D02*
X98576190Y-105538511D01*
X98425000Y-105538511D01*
X98364523Y-105508273D01*
X98334285Y-105447797D01*
X98334285Y-105387321D01*
X98364523Y-105326845D01*
X98425000Y-105296607D01*
X98576190Y-105296607D01*
X98636666Y-105266369D01*
X98848333Y-105115178D02*
X99090238Y-105115178D01*
X98939047Y-104903511D02*
X98939047Y-105447797D01*
X98969285Y-105508273D01*
X99029761Y-105538511D01*
X99090238Y-105538511D01*
X99211190Y-105115178D02*
X99453095Y-105115178D01*
X99301904Y-104903511D02*
X99301904Y-105447797D01*
X99332142Y-105508273D01*
X99392619Y-105538511D01*
X99453095Y-105538511D01*
X99997380Y-105538511D02*
X99634523Y-105538511D01*
X99815952Y-105538511D02*
X99815952Y-104903511D01*
X99755476Y-104994226D01*
X99695000Y-105054702D01*
X99634523Y-105084940D01*
X100269523Y-105478035D02*
X100299761Y-105508273D01*
X100269523Y-105538511D01*
X100239285Y-105508273D01*
X100269523Y-105478035D01*
X100269523Y-105538511D01*
X100269523Y-105145416D02*
X100299761Y-105175654D01*
X100269523Y-105205892D01*
X100239285Y-105175654D01*
X100269523Y-105145416D01*
X100269523Y-105205892D01*
X100844047Y-105538511D02*
X100844047Y-104903511D01*
X100844047Y-105508273D02*
X100783571Y-105538511D01*
X100662619Y-105538511D01*
X100602142Y-105508273D01*
X100571904Y-105478035D01*
X100541666Y-105417559D01*
X100541666Y-105236130D01*
X100571904Y-105175654D01*
X100602142Y-105145416D01*
X100662619Y-105115178D01*
X100783571Y-105115178D01*
X100844047Y-105145416D01*
X101418571Y-105538511D02*
X101418571Y-105205892D01*
X101388333Y-105145416D01*
X101327857Y-105115178D01*
X101206904Y-105115178D01*
X101146428Y-105145416D01*
X101418571Y-105508273D02*
X101358095Y-105538511D01*
X101206904Y-105538511D01*
X101146428Y-105508273D01*
X101116190Y-105447797D01*
X101116190Y-105387321D01*
X101146428Y-105326845D01*
X101206904Y-105296607D01*
X101358095Y-105296607D01*
X101418571Y-105266369D01*
X101630238Y-105115178D02*
X101872142Y-105115178D01*
X101720952Y-104903511D02*
X101720952Y-105447797D01*
X101751190Y-105508273D01*
X101811666Y-105538511D01*
X101872142Y-105538511D01*
X102083809Y-105478035D02*
X102114047Y-105508273D01*
X102083809Y-105538511D01*
X102053571Y-105508273D01*
X102083809Y-105478035D01*
X102083809Y-105538511D01*
X102083809Y-105145416D02*
X102114047Y-105175654D01*
X102083809Y-105205892D01*
X102053571Y-105175654D01*
X102083809Y-105145416D01*
X102083809Y-105205892D01*
X102658333Y-105538511D02*
X102658333Y-105205892D01*
X102628095Y-105145416D01*
X102567619Y-105115178D01*
X102446666Y-105115178D01*
X102386190Y-105145416D01*
X102658333Y-105508273D02*
X102597857Y-105538511D01*
X102446666Y-105538511D01*
X102386190Y-105508273D01*
X102355952Y-105447797D01*
X102355952Y-105387321D01*
X102386190Y-105326845D01*
X102446666Y-105296607D01*
X102597857Y-105296607D01*
X102658333Y-105266369D01*
X102960714Y-105538511D02*
X102960714Y-105115178D01*
X102960714Y-105236130D02*
X102990952Y-105175654D01*
X103021190Y-105145416D01*
X103081666Y-105115178D01*
X103142142Y-105115178D01*
X103625952Y-105538511D02*
X103625952Y-104903511D01*
X103625952Y-105508273D02*
X103565476Y-105538511D01*
X103444523Y-105538511D01*
X103384047Y-105508273D01*
X103353809Y-105478035D01*
X103323571Y-105417559D01*
X103323571Y-105236130D01*
X103353809Y-105175654D01*
X103384047Y-105145416D01*
X103444523Y-105115178D01*
X103565476Y-105115178D01*
X103625952Y-105145416D01*
X104260952Y-105538511D02*
X103898095Y-105538511D01*
X104079523Y-105538511D02*
X104079523Y-104903511D01*
X104019047Y-104994226D01*
X103958571Y-105054702D01*
X103898095Y-105084940D01*
X104502857Y-104963988D02*
X104533095Y-104933750D01*
X104593571Y-104903511D01*
X104744761Y-104903511D01*
X104805238Y-104933750D01*
X104835476Y-104963988D01*
X104865714Y-105024464D01*
X104865714Y-105084940D01*
X104835476Y-105175654D01*
X104472619Y-105538511D01*
X104865714Y-105538511D01*
X97729523Y-106618011D02*
X97729523Y-106285392D01*
X97699285Y-106224916D01*
X97638809Y-106194678D01*
X97517857Y-106194678D01*
X97457380Y-106224916D01*
X97729523Y-106587773D02*
X97669047Y-106618011D01*
X97517857Y-106618011D01*
X97457380Y-106587773D01*
X97427142Y-106527297D01*
X97427142Y-106466821D01*
X97457380Y-106406345D01*
X97517857Y-106376107D01*
X97669047Y-106376107D01*
X97729523Y-106345869D01*
X97941190Y-106194678D02*
X98183095Y-106194678D01*
X98031904Y-105983011D02*
X98031904Y-106527297D01*
X98062142Y-106587773D01*
X98122619Y-106618011D01*
X98183095Y-106618011D01*
X98304047Y-106194678D02*
X98545952Y-106194678D01*
X98394761Y-105983011D02*
X98394761Y-106527297D01*
X98425000Y-106587773D01*
X98485476Y-106618011D01*
X98545952Y-106618011D01*
X98697142Y-105983011D02*
X99090238Y-105983011D01*
X98878571Y-106224916D01*
X98969285Y-106224916D01*
X99029761Y-106255154D01*
X99060000Y-106285392D01*
X99090238Y-106345869D01*
X99090238Y-106497059D01*
X99060000Y-106557535D01*
X99029761Y-106587773D01*
X98969285Y-106618011D01*
X98787857Y-106618011D01*
X98727380Y-106587773D01*
X98697142Y-106557535D01*
X99846190Y-106557535D02*
X99876428Y-106587773D01*
X99846190Y-106618011D01*
X99815952Y-106587773D01*
X99846190Y-106557535D01*
X99846190Y-106618011D01*
X99846190Y-106224916D02*
X99876428Y-106255154D01*
X99846190Y-106285392D01*
X99815952Y-106255154D01*
X99846190Y-106224916D01*
X99846190Y-106285392D01*
X100904523Y-106587773D02*
X100844047Y-106618011D01*
X100723095Y-106618011D01*
X100662619Y-106587773D01*
X100632380Y-106557535D01*
X100602142Y-106497059D01*
X100602142Y-106315630D01*
X100632380Y-106255154D01*
X100662619Y-106224916D01*
X100723095Y-106194678D01*
X100844047Y-106194678D01*
X100904523Y-106224916D01*
X101267380Y-106618011D02*
X101206904Y-106587773D01*
X101176666Y-106527297D01*
X101176666Y-105983011D01*
X101509285Y-106618011D02*
X101509285Y-105983011D01*
X101569761Y-106376107D02*
X101751190Y-106618011D01*
X101751190Y-106194678D02*
X101509285Y-106436583D01*
X102507142Y-106557535D02*
X102537380Y-106587773D01*
X102507142Y-106618011D01*
X102476904Y-106587773D01*
X102507142Y-106557535D01*
X102507142Y-106618011D01*
X102507142Y-106224916D02*
X102537380Y-106255154D01*
X102507142Y-106285392D01*
X102476904Y-106255154D01*
X102507142Y-106224916D01*
X102507142Y-106285392D01*
X103565476Y-106618011D02*
X103565476Y-106285392D01*
X103535238Y-106224916D01*
X103474761Y-106194678D01*
X103353809Y-106194678D01*
X103293333Y-106224916D01*
X103565476Y-106587773D02*
X103505000Y-106618011D01*
X103353809Y-106618011D01*
X103293333Y-106587773D01*
X103263095Y-106527297D01*
X103263095Y-106466821D01*
X103293333Y-106406345D01*
X103353809Y-106376107D01*
X103505000Y-106376107D01*
X103565476Y-106345869D01*
X103867857Y-106618011D02*
X103867857Y-106194678D01*
X103867857Y-106315630D02*
X103898095Y-106255154D01*
X103928333Y-106224916D01*
X103988809Y-106194678D01*
X104049285Y-106194678D01*
X104533095Y-106618011D02*
X104533095Y-105983011D01*
X104533095Y-106587773D02*
X104472619Y-106618011D01*
X104351666Y-106618011D01*
X104291190Y-106587773D01*
X104260952Y-106557535D01*
X104230714Y-106497059D01*
X104230714Y-106315630D01*
X104260952Y-106255154D01*
X104291190Y-106224916D01*
X104351666Y-106194678D01*
X104472619Y-106194678D01*
X104533095Y-106224916D01*
X105168095Y-106618011D02*
X104805238Y-106618011D01*
X104986666Y-106618011D02*
X104986666Y-105983011D01*
X104926190Y-106073726D01*
X104865714Y-106134202D01*
X104805238Y-106164440D01*
X105379761Y-105983011D02*
X105772857Y-105983011D01*
X105561190Y-106224916D01*
X105651904Y-106224916D01*
X105712380Y-106255154D01*
X105742619Y-106285392D01*
X105772857Y-106345869D01*
X105772857Y-106497059D01*
X105742619Y-106557535D01*
X105712380Y-106587773D01*
X105651904Y-106618011D01*
X105470476Y-106618011D01*
X105410000Y-106587773D01*
X105379761Y-106557535D01*
X97790000Y-107697511D02*
X97790000Y-107364892D01*
X97759761Y-107304416D01*
X97699285Y-107274178D01*
X97578333Y-107274178D01*
X97517857Y-107304416D01*
X97790000Y-107667273D02*
X97729523Y-107697511D01*
X97578333Y-107697511D01*
X97517857Y-107667273D01*
X97487619Y-107606797D01*
X97487619Y-107546321D01*
X97517857Y-107485845D01*
X97578333Y-107455607D01*
X97729523Y-107455607D01*
X97790000Y-107425369D01*
X98001666Y-107274178D02*
X98243571Y-107274178D01*
X98092380Y-107062511D02*
X98092380Y-107606797D01*
X98122619Y-107667273D01*
X98183095Y-107697511D01*
X98243571Y-107697511D01*
X98364523Y-107274178D02*
X98606428Y-107274178D01*
X98455238Y-107062511D02*
X98455238Y-107606797D01*
X98485476Y-107667273D01*
X98545952Y-107697511D01*
X98606428Y-107697511D01*
X99090238Y-107062511D02*
X98969285Y-107062511D01*
X98908809Y-107092750D01*
X98878571Y-107122988D01*
X98818095Y-107213702D01*
X98787857Y-107334654D01*
X98787857Y-107576559D01*
X98818095Y-107637035D01*
X98848333Y-107667273D01*
X98908809Y-107697511D01*
X99029761Y-107697511D01*
X99090238Y-107667273D01*
X99120476Y-107637035D01*
X99150714Y-107576559D01*
X99150714Y-107425369D01*
X99120476Y-107364892D01*
X99090238Y-107334654D01*
X99029761Y-107304416D01*
X98908809Y-107304416D01*
X98848333Y-107334654D01*
X98818095Y-107364892D01*
X98787857Y-107425369D01*
X99906666Y-107637035D02*
X99936904Y-107667273D01*
X99906666Y-107697511D01*
X99876428Y-107667273D01*
X99906666Y-107637035D01*
X99906666Y-107697511D01*
X99906666Y-107304416D02*
X99936904Y-107334654D01*
X99906666Y-107364892D01*
X99876428Y-107334654D01*
X99906666Y-107304416D01*
X99906666Y-107364892D01*
X100692857Y-107697511D02*
X100692857Y-107274178D01*
X100692857Y-107395130D02*
X100723095Y-107334654D01*
X100753333Y-107304416D01*
X100813809Y-107274178D01*
X100874285Y-107274178D01*
X101055714Y-107667273D02*
X101116190Y-107697511D01*
X101237142Y-107697511D01*
X101297619Y-107667273D01*
X101327857Y-107606797D01*
X101327857Y-107576559D01*
X101297619Y-107516083D01*
X101237142Y-107485845D01*
X101146428Y-107485845D01*
X101085952Y-107455607D01*
X101055714Y-107395130D01*
X101055714Y-107364892D01*
X101085952Y-107304416D01*
X101146428Y-107274178D01*
X101237142Y-107274178D01*
X101297619Y-107304416D01*
X101509285Y-107274178D02*
X101751190Y-107274178D01*
X101600000Y-107062511D02*
X101600000Y-107606797D01*
X101630238Y-107667273D01*
X101690714Y-107697511D01*
X101751190Y-107697511D01*
X102446666Y-107637035D02*
X102476904Y-107667273D01*
X102446666Y-107697511D01*
X102416428Y-107667273D01*
X102446666Y-107637035D01*
X102446666Y-107697511D01*
X102446666Y-107304416D02*
X102476904Y-107334654D01*
X102446666Y-107364892D01*
X102416428Y-107334654D01*
X102446666Y-107304416D01*
X102446666Y-107364892D01*
X103505000Y-107697511D02*
X103505000Y-107364892D01*
X103474761Y-107304416D01*
X103414285Y-107274178D01*
X103293333Y-107274178D01*
X103232857Y-107304416D01*
X103505000Y-107667273D02*
X103444523Y-107697511D01*
X103293333Y-107697511D01*
X103232857Y-107667273D01*
X103202619Y-107606797D01*
X103202619Y-107546321D01*
X103232857Y-107485845D01*
X103293333Y-107455607D01*
X103444523Y-107455607D01*
X103505000Y-107425369D01*
X103807380Y-107697511D02*
X103807380Y-107274178D01*
X103807380Y-107395130D02*
X103837619Y-107334654D01*
X103867857Y-107304416D01*
X103928333Y-107274178D01*
X103988809Y-107274178D01*
X104472619Y-107697511D02*
X104472619Y-107062511D01*
X104472619Y-107667273D02*
X104412142Y-107697511D01*
X104291190Y-107697511D01*
X104230714Y-107667273D01*
X104200476Y-107637035D01*
X104170238Y-107576559D01*
X104170238Y-107395130D01*
X104200476Y-107334654D01*
X104230714Y-107304416D01*
X104291190Y-107274178D01*
X104412142Y-107274178D01*
X104472619Y-107304416D01*
X105107619Y-107697511D02*
X104744761Y-107697511D01*
X104926190Y-107697511D02*
X104926190Y-107062511D01*
X104865714Y-107153226D01*
X104805238Y-107213702D01*
X104744761Y-107243940D01*
X105500714Y-107062511D02*
X105561190Y-107062511D01*
X105621666Y-107092750D01*
X105651904Y-107122988D01*
X105682142Y-107183464D01*
X105712380Y-107304416D01*
X105712380Y-107455607D01*
X105682142Y-107576559D01*
X105651904Y-107637035D01*
X105621666Y-107667273D01*
X105561190Y-107697511D01*
X105500714Y-107697511D01*
X105440238Y-107667273D01*
X105410000Y-107637035D01*
X105379761Y-107576559D01*
X105349523Y-107455607D01*
X105349523Y-107304416D01*
X105379761Y-107183464D01*
X105410000Y-107122988D01*
X105440238Y-107092750D01*
X105500714Y-107062511D01*
D11*
X103559428Y-115189000D02*
X103486857Y-115152714D01*
X103378000Y-115152714D01*
X103269142Y-115189000D01*
X103196571Y-115261571D01*
X103160285Y-115334142D01*
X103124000Y-115479285D01*
X103124000Y-115588142D01*
X103160285Y-115733285D01*
X103196571Y-115805857D01*
X103269142Y-115878428D01*
X103378000Y-115914714D01*
X103450571Y-115914714D01*
X103559428Y-115878428D01*
X103595714Y-115842142D01*
X103595714Y-115588142D01*
X103450571Y-115588142D01*
X103922285Y-115914714D02*
X103922285Y-115152714D01*
X104357714Y-115914714D01*
X104357714Y-115152714D01*
X104720571Y-115914714D02*
X104720571Y-115152714D01*
X104902000Y-115152714D01*
X105010857Y-115189000D01*
X105083428Y-115261571D01*
X105119714Y-115334142D01*
X105156000Y-115479285D01*
X105156000Y-115588142D01*
X105119714Y-115733285D01*
X105083428Y-115805857D01*
X105010857Y-115878428D01*
X104902000Y-115914714D01*
X104720571Y-115914714D01*
X100275571Y-115914714D02*
X100275571Y-115152714D01*
X100529571Y-115697000D01*
X100783571Y-115152714D01*
X100783571Y-115914714D01*
X101291571Y-115152714D02*
X101436714Y-115152714D01*
X101509285Y-115189000D01*
X101581857Y-115261571D01*
X101618142Y-115406714D01*
X101618142Y-115660714D01*
X101581857Y-115805857D01*
X101509285Y-115878428D01*
X101436714Y-115914714D01*
X101291571Y-115914714D01*
X101219000Y-115878428D01*
X101146428Y-115805857D01*
X101110142Y-115660714D01*
X101110142Y-115406714D01*
X101146428Y-115261571D01*
X101219000Y-115189000D01*
X101291571Y-115152714D01*
X101908428Y-115878428D02*
X102017285Y-115914714D01*
X102198714Y-115914714D01*
X102271285Y-115878428D01*
X102307571Y-115842142D01*
X102343857Y-115769571D01*
X102343857Y-115697000D01*
X102307571Y-115624428D01*
X102271285Y-115588142D01*
X102198714Y-115551857D01*
X102053571Y-115515571D01*
X101981000Y-115479285D01*
X101944714Y-115443000D01*
X101908428Y-115370428D01*
X101908428Y-115297857D01*
X101944714Y-115225285D01*
X101981000Y-115189000D01*
X102053571Y-115152714D01*
X102235000Y-115152714D01*
X102343857Y-115189000D01*
X102670428Y-115914714D02*
X102670428Y-115152714D01*
X98207285Y-115152714D02*
X98461285Y-115914714D01*
X98715285Y-115152714D01*
X98969285Y-115624428D02*
X99549857Y-115624428D01*
X99259571Y-115914714D02*
X99259571Y-115334142D01*
X103722714Y-122264714D02*
X103468714Y-121901857D01*
X103287285Y-122264714D02*
X103287285Y-121502714D01*
X103577571Y-121502714D01*
X103650142Y-121539000D01*
X103686428Y-121575285D01*
X103722714Y-121647857D01*
X103722714Y-121756714D01*
X103686428Y-121829285D01*
X103650142Y-121865571D01*
X103577571Y-121901857D01*
X103287285Y-121901857D01*
X104013000Y-122228428D02*
X104121857Y-122264714D01*
X104303285Y-122264714D01*
X104375857Y-122228428D01*
X104412142Y-122192142D01*
X104448428Y-122119571D01*
X104448428Y-122047000D01*
X104412142Y-121974428D01*
X104375857Y-121938142D01*
X104303285Y-121901857D01*
X104158142Y-121865571D01*
X104085571Y-121829285D01*
X104049285Y-121793000D01*
X104013000Y-121720428D01*
X104013000Y-121647857D01*
X104049285Y-121575285D01*
X104085571Y-121539000D01*
X104158142Y-121502714D01*
X104339571Y-121502714D01*
X104448428Y-121539000D01*
X104666142Y-121502714D02*
X105101571Y-121502714D01*
X104883857Y-122264714D02*
X104883857Y-121502714D01*
X101146428Y-122192142D02*
X101110142Y-122228428D01*
X101001285Y-122264714D01*
X100928714Y-122264714D01*
X100819857Y-122228428D01*
X100747285Y-122155857D01*
X100711000Y-122083285D01*
X100674714Y-121938142D01*
X100674714Y-121829285D01*
X100711000Y-121684142D01*
X100747285Y-121611571D01*
X100819857Y-121539000D01*
X100928714Y-121502714D01*
X101001285Y-121502714D01*
X101110142Y-121539000D01*
X101146428Y-121575285D01*
X101835857Y-122264714D02*
X101473000Y-122264714D01*
X101473000Y-121502714D01*
X102089857Y-122264714D02*
X102089857Y-121502714D01*
X102525285Y-122264714D02*
X102198714Y-121829285D01*
X102525285Y-121502714D02*
X102089857Y-121938142D01*
X97735571Y-122264714D02*
X97735571Y-121502714D01*
X97989571Y-122047000D01*
X98243571Y-121502714D01*
X98243571Y-122264714D01*
X98606428Y-122264714D02*
X98606428Y-121502714D01*
X98933000Y-122228428D02*
X99041857Y-122264714D01*
X99223285Y-122264714D01*
X99295857Y-122228428D01*
X99332142Y-122192142D01*
X99368428Y-122119571D01*
X99368428Y-122047000D01*
X99332142Y-121974428D01*
X99295857Y-121938142D01*
X99223285Y-121901857D01*
X99078142Y-121865571D01*
X99005571Y-121829285D01*
X98969285Y-121793000D01*
X98933000Y-121720428D01*
X98933000Y-121647857D01*
X98969285Y-121575285D01*
X99005571Y-121539000D01*
X99078142Y-121502714D01*
X99259571Y-121502714D01*
X99368428Y-121539000D01*
X99840142Y-121502714D02*
X99985285Y-121502714D01*
X100057857Y-121539000D01*
X100130428Y-121611571D01*
X100166714Y-121756714D01*
X100166714Y-122010714D01*
X100130428Y-122155857D01*
X100057857Y-122228428D01*
X99985285Y-122264714D01*
X99840142Y-122264714D01*
X99767571Y-122228428D01*
X99695000Y-122155857D01*
X99658714Y-122010714D01*
X99658714Y-121756714D01*
X99695000Y-121611571D01*
X99767571Y-121539000D01*
X99840142Y-121502714D01*
D12*
G04 #@! TO.C,J1*
X97730000Y-121345000D02*
X97730000Y-120015000D01*
X99060000Y-121345000D02*
X97730000Y-121345000D01*
X100330000Y-118745000D02*
X100330000Y-121345000D01*
X97730000Y-118745000D02*
X100330000Y-118745000D01*
X97730000Y-116145000D02*
X97730000Y-118745000D01*
X105470000Y-116145000D02*
X97730000Y-116145000D01*
X105470000Y-121345000D02*
X105470000Y-116145000D01*
X100330000Y-121345000D02*
X105470000Y-121345000D01*
G04 #@! TO.C,R1*
D13*
X97734842Y-111469714D02*
X97480842Y-111106857D01*
X97299413Y-111469714D02*
X97299413Y-110707714D01*
X97589699Y-110707714D01*
X97662270Y-110744000D01*
X97698556Y-110780285D01*
X97734842Y-110852857D01*
X97734842Y-110961714D01*
X97698556Y-111034285D01*
X97662270Y-111070571D01*
X97589699Y-111106857D01*
X97299413Y-111106857D01*
X98460556Y-111469714D02*
X98025127Y-111469714D01*
X98242842Y-111469714D02*
X98242842Y-110707714D01*
X98170270Y-110816571D01*
X98097699Y-110889142D01*
X98025127Y-110925428D01*
G04 #@! TO.C,R2*
X100274842Y-111469714D02*
X100020842Y-111106857D01*
X99839413Y-111469714D02*
X99839413Y-110707714D01*
X100129699Y-110707714D01*
X100202270Y-110744000D01*
X100238556Y-110780285D01*
X100274842Y-110852857D01*
X100274842Y-110961714D01*
X100238556Y-111034285D01*
X100202270Y-111070571D01*
X100129699Y-111106857D01*
X99839413Y-111106857D01*
X100565127Y-110780285D02*
X100601413Y-110744000D01*
X100673984Y-110707714D01*
X100855413Y-110707714D01*
X100927984Y-110744000D01*
X100964270Y-110780285D01*
X101000556Y-110852857D01*
X101000556Y-110925428D01*
X100964270Y-111034285D01*
X100528842Y-111469714D01*
X101000556Y-111469714D01*
G04 #@! TO.C,R3*
X102814842Y-111469714D02*
X102560842Y-111106857D01*
X102379413Y-111469714D02*
X102379413Y-110707714D01*
X102669699Y-110707714D01*
X102742270Y-110744000D01*
X102778556Y-110780285D01*
X102814842Y-110852857D01*
X102814842Y-110961714D01*
X102778556Y-111034285D01*
X102742270Y-111070571D01*
X102669699Y-111106857D01*
X102379413Y-111106857D01*
X103068842Y-110707714D02*
X103540556Y-110707714D01*
X103286556Y-110998000D01*
X103395413Y-110998000D01*
X103467984Y-111034285D01*
X103504270Y-111070571D01*
X103540556Y-111143142D01*
X103540556Y-111324571D01*
X103504270Y-111397142D01*
X103467984Y-111433428D01*
X103395413Y-111469714D01*
X103177699Y-111469714D01*
X103105127Y-111433428D01*
X103068842Y-111397142D01*
G04 #@! TO.C,R4*
X105354842Y-111469714D02*
X105100842Y-111106857D01*
X104919413Y-111469714D02*
X104919413Y-110707714D01*
X105209699Y-110707714D01*
X105282270Y-110744000D01*
X105318556Y-110780285D01*
X105354842Y-110852857D01*
X105354842Y-110961714D01*
X105318556Y-111034285D01*
X105282270Y-111070571D01*
X105209699Y-111106857D01*
X104919413Y-111106857D01*
X106007984Y-110961714D02*
X106007984Y-111469714D01*
X105826556Y-110671428D02*
X105645127Y-111215714D01*
X106116842Y-111215714D01*
G04 #@! TD*
M02*
