G04 #@! TF.GenerationSoftware,KiCad,Pcbnew,(5.0.2)-1*
G04 #@! TF.CreationDate,2019-04-08T21:31:45-07:00*
G04 #@! TF.ProjectId,programmer,70726f67-7261-46d6-9d65-722e6b696361,rev?*
G04 #@! TF.SameCoordinates,Original*
G04 #@! TF.FileFunction,Copper,L2,Bot*
G04 #@! TF.FilePolarity,Positive*
%FSLAX46Y46*%
G04 Gerber Fmt 4.6, Leading zero omitted, Abs format (unit mm)*
G04 Created by KiCad (PCBNEW (5.0.2)-1) date 4/8/2019 9:31:45 PM*
%MOMM*%
%LPD*%
G01*
G04 APERTURE LIST*
G04 #@! TA.AperFunction,WasherPad*
%ADD10C,4.000000*%
G04 #@! TD*
G04 #@! TA.AperFunction,ComponentPad*
%ADD11C,1.270000*%
G04 #@! TD*
G04 #@! TA.AperFunction,SMDPad,CuDef*
%ADD12R,0.508000X3.302000*%
G04 #@! TD*
G04 #@! TA.AperFunction,ComponentPad*
%ADD13O,1.700000X1.700000*%
G04 #@! TD*
G04 #@! TA.AperFunction,ComponentPad*
%ADD14R,1.700000X1.700000*%
G04 #@! TD*
G04 #@! TA.AperFunction,ViaPad*
%ADD15C,0.609600*%
G04 #@! TD*
G04 #@! TA.AperFunction,Conductor*
%ADD16C,0.254000*%
G04 #@! TD*
G04 APERTURE END LIST*
D10*
G04 #@! TO.P,REF\002A\002A,*
G04 #@! TO.N,*
X136525000Y-127000000D03*
G04 #@! TD*
G04 #@! TO.P,REF\002A\002A,*
G04 #@! TO.N,*
X117475000Y-127000000D03*
G04 #@! TD*
D11*
G04 #@! TO.P,,1*
G04 #@! TO.N,N/C*
X129540000Y-120015000D03*
G04 #@! TO.P,,2*
X129540000Y-122555000D03*
G04 #@! TO.P,,3*
X127000000Y-120015000D03*
G04 #@! TO.P,,4*
X127000000Y-122555000D03*
G04 #@! TO.P,,5*
X124460000Y-120015000D03*
G04 #@! TO.P,,6*
X124460000Y-122555000D03*
G04 #@! TD*
D10*
G04 #@! TO.P,REF\002A\002A,*
G04 #@! TO.N,*
X127000000Y-127000000D03*
G04 #@! TD*
D12*
G04 #@! TO.P,J2,5*
G04 #@! TO.N,/att_clk*
X129540000Y-115633500D03*
G04 #@! TO.P,J2,4*
G04 #@! TO.N,/gnd*
X128270000Y-115633500D03*
G04 #@! TO.P,J2,3*
G04 #@! TO.N,/att_data*
X127000000Y-115633500D03*
G04 #@! TO.P,J2,2*
G04 #@! TO.N,/pwr*
X125730000Y-115633500D03*
G04 #@! TO.P,J2,1*
G04 #@! TO.N,/att_reset*
X124460000Y-115633500D03*
G04 #@! TD*
D13*
G04 #@! TO.P,J1,6*
G04 #@! TO.N,GNDREF*
X129540000Y-131445000D03*
G04 #@! TO.P,J1,5*
G04 #@! TO.N,/prog_reset*
X129540000Y-133985000D03*
G04 #@! TO.P,J1,4*
G04 #@! TO.N,/prog_mosi*
X127000000Y-131445000D03*
G04 #@! TO.P,J1,3*
G04 #@! TO.N,/prog_clk*
X127000000Y-133985000D03*
G04 #@! TO.P,J1,2*
G04 #@! TO.N,/prog_pwr*
X124460000Y-131445000D03*
D14*
G04 #@! TO.P,J1,1*
G04 #@! TO.N,/prog_miso*
X124460000Y-133985000D03*
G04 #@! TD*
D15*
G04 #@! TO.N,/pwr*
X125222000Y-117602000D03*
G04 #@! TO.N,/att_reset*
X121412000Y-116332000D03*
G04 #@! TO.N,/att_data*
X121158000Y-120904000D03*
X132842000Y-120904000D03*
G04 #@! TO.N,/att_clk*
X132715000Y-116332000D03*
G04 #@! TO.N,/gnd*
X128778000Y-117602000D03*
G04 #@! TD*
D16*
G04 #@! TO.N,/pwr*
X125730000Y-115633500D02*
X125730000Y-117094000D01*
X125730000Y-117094000D02*
X125222000Y-117602000D01*
G04 #@! TO.N,/att_reset*
X124460000Y-115633500D02*
X124460000Y-115824000D01*
X124460000Y-115824000D02*
X123952000Y-116332000D01*
X123952000Y-116332000D02*
X121412000Y-116332000D01*
G04 #@! TO.N,/att_data*
X127000000Y-115633500D02*
X127000000Y-117030500D01*
X127000000Y-117030500D02*
X127000000Y-117602000D01*
X126364999Y-118237001D02*
X122554999Y-118237001D01*
X127000000Y-117602000D02*
X126364999Y-118237001D01*
X122554999Y-118237001D02*
X121158000Y-119634000D01*
X121158000Y-119634000D02*
X121158000Y-120904000D01*
X127000000Y-117602000D02*
X127635000Y-118237000D01*
X127635000Y-118237000D02*
X131572000Y-118237000D01*
X131572000Y-118237000D02*
X132842000Y-119507000D01*
X132842000Y-119507000D02*
X132842000Y-120904000D01*
G04 #@! TO.N,/att_clk*
X130238500Y-116332000D02*
X129540000Y-115633500D01*
X132715000Y-116332000D02*
X130238500Y-116332000D01*
G04 #@! TO.N,/gnd*
X128270000Y-115633500D02*
X128270000Y-117094000D01*
X128270000Y-117094000D02*
X128778000Y-117602000D01*
G04 #@! TD*
M02*
