G04 #@! TF.GenerationSoftware,KiCad,Pcbnew,(5.0.2)-1*
G04 #@! TF.CreationDate,2019-04-08T21:31:45-07:00*
G04 #@! TF.ProjectId,programmer,70726f67-7261-46d6-9d65-722e6b696361,rev?*
G04 #@! TF.SameCoordinates,Original*
G04 #@! TF.FileFunction,Legend,Bot*
G04 #@! TF.FilePolarity,Positive*
%FSLAX46Y46*%
G04 Gerber Fmt 4.6, Leading zero omitted, Abs format (unit mm)*
G04 Created by KiCad (PCBNEW (5.0.2)-1) date 4/8/2019 9:31:45 PM*
%MOMM*%
%LPD*%
G01*
G04 APERTURE LIST*
%ADD10C,0.152400*%
%ADD11C,0.203200*%
%ADD12C,0.101600*%
G04 APERTURE END LIST*
D10*
X134274983Y-114949393D02*
X134317316Y-115076393D01*
X134317316Y-115288060D01*
X134274983Y-115372726D01*
X134232650Y-115415060D01*
X134147983Y-115457393D01*
X134063316Y-115457393D01*
X133978650Y-115415060D01*
X133936316Y-115372726D01*
X133893983Y-115288060D01*
X133851650Y-115118726D01*
X133809316Y-115034060D01*
X133766983Y-114991726D01*
X133682316Y-114949393D01*
X133597650Y-114949393D01*
X133512983Y-114991726D01*
X133470650Y-115034060D01*
X133428316Y-115118726D01*
X133428316Y-115330393D01*
X133470650Y-115457393D01*
X134317316Y-115838393D02*
X133428316Y-115838393D01*
X134063316Y-116134726D01*
X133428316Y-116431060D01*
X134317316Y-116431060D01*
X133428316Y-117023726D02*
X133428316Y-117193060D01*
X133470650Y-117277726D01*
X133555316Y-117362393D01*
X133724650Y-117404726D01*
X134020983Y-117404726D01*
X134190316Y-117362393D01*
X134274983Y-117277726D01*
X134317316Y-117193060D01*
X134317316Y-117023726D01*
X134274983Y-116939060D01*
X134190316Y-116854393D01*
X134020983Y-116812060D01*
X133724650Y-116812060D01*
X133555316Y-116854393D01*
X133470650Y-116939060D01*
X133428316Y-117023726D01*
X134317316Y-118209060D02*
X134317316Y-117785726D01*
X133428316Y-117785726D01*
X134317316Y-119182726D02*
X133428316Y-119182726D01*
X133428316Y-119521393D01*
X133470650Y-119606060D01*
X133512983Y-119648393D01*
X133597650Y-119690726D01*
X133724650Y-119690726D01*
X133809316Y-119648393D01*
X133851650Y-119606060D01*
X133893983Y-119521393D01*
X133893983Y-119182726D01*
X134317316Y-120071726D02*
X133724650Y-120071726D01*
X133893983Y-120071726D02*
X133809316Y-120114060D01*
X133766983Y-120156393D01*
X133724650Y-120241060D01*
X133724650Y-120325726D01*
X134317316Y-120749060D02*
X134274983Y-120664393D01*
X134232650Y-120622060D01*
X134147983Y-120579726D01*
X133893983Y-120579726D01*
X133809316Y-120622060D01*
X133766983Y-120664393D01*
X133724650Y-120749060D01*
X133724650Y-120876060D01*
X133766983Y-120960726D01*
X133809316Y-121003060D01*
X133893983Y-121045393D01*
X134147983Y-121045393D01*
X134232650Y-121003060D01*
X134274983Y-120960726D01*
X134317316Y-120876060D01*
X134317316Y-120749060D01*
X133724650Y-121807393D02*
X134444316Y-121807393D01*
X134528983Y-121765060D01*
X134571316Y-121722726D01*
X134613650Y-121638060D01*
X134613650Y-121511060D01*
X134571316Y-121426393D01*
X134274983Y-121807393D02*
X134317316Y-121722726D01*
X134317316Y-121553393D01*
X134274983Y-121468726D01*
X134232650Y-121426393D01*
X134147983Y-121384060D01*
X133893983Y-121384060D01*
X133809316Y-121426393D01*
X133766983Y-121468726D01*
X133724650Y-121553393D01*
X133724650Y-121722726D01*
X133766983Y-121807393D01*
X134317316Y-122230726D02*
X133724650Y-122230726D01*
X133893983Y-122230726D02*
X133809316Y-122273060D01*
X133766983Y-122315393D01*
X133724650Y-122400060D01*
X133724650Y-122484726D01*
X134317316Y-123162060D02*
X133851650Y-123162060D01*
X133766983Y-123119726D01*
X133724650Y-123035060D01*
X133724650Y-122865726D01*
X133766983Y-122781060D01*
X134274983Y-123162060D02*
X134317316Y-123077393D01*
X134317316Y-122865726D01*
X134274983Y-122781060D01*
X134190316Y-122738726D01*
X134105650Y-122738726D01*
X134020983Y-122781060D01*
X133978650Y-122865726D01*
X133978650Y-123077393D01*
X133936316Y-123162060D01*
X134317316Y-123585393D02*
X133724650Y-123585393D01*
X133809316Y-123585393D02*
X133766983Y-123627726D01*
X133724650Y-123712393D01*
X133724650Y-123839393D01*
X133766983Y-123924060D01*
X133851650Y-123966393D01*
X134317316Y-123966393D01*
X133851650Y-123966393D02*
X133766983Y-124008726D01*
X133724650Y-124093393D01*
X133724650Y-124220393D01*
X133766983Y-124305060D01*
X133851650Y-124347393D01*
X134317316Y-124347393D01*
X133978650Y-124770726D02*
X133978650Y-125448060D01*
X135803216Y-114991726D02*
X135210550Y-114991726D01*
X135295216Y-114991726D02*
X135252883Y-115034060D01*
X135210550Y-115118726D01*
X135210550Y-115245726D01*
X135252883Y-115330393D01*
X135337550Y-115372726D01*
X135803216Y-115372726D01*
X135337550Y-115372726D02*
X135252883Y-115415060D01*
X135210550Y-115499726D01*
X135210550Y-115626726D01*
X135252883Y-115711393D01*
X135337550Y-115753726D01*
X135803216Y-115753726D01*
X135760883Y-116515726D02*
X135803216Y-116431060D01*
X135803216Y-116261726D01*
X135760883Y-116177060D01*
X135676216Y-116134726D01*
X135337550Y-116134726D01*
X135252883Y-116177060D01*
X135210550Y-116261726D01*
X135210550Y-116431060D01*
X135252883Y-116515726D01*
X135337550Y-116558060D01*
X135422216Y-116558060D01*
X135506883Y-116134726D01*
X135803216Y-116939060D02*
X135210550Y-116939060D01*
X135379883Y-116939060D02*
X135295216Y-116981393D01*
X135252883Y-117023726D01*
X135210550Y-117108393D01*
X135210550Y-117193060D01*
X135760883Y-118124393D02*
X135803216Y-118209060D01*
X135803216Y-118378393D01*
X135760883Y-118463060D01*
X135676216Y-118505393D01*
X135633883Y-118505393D01*
X135549216Y-118463060D01*
X135506883Y-118378393D01*
X135506883Y-118251393D01*
X135464550Y-118166726D01*
X135379883Y-118124393D01*
X135337550Y-118124393D01*
X135252883Y-118166726D01*
X135210550Y-118251393D01*
X135210550Y-118378393D01*
X135252883Y-118463060D01*
X135803216Y-119267393D02*
X135337550Y-119267393D01*
X135252883Y-119225060D01*
X135210550Y-119140393D01*
X135210550Y-118971060D01*
X135252883Y-118886393D01*
X135760883Y-119267393D02*
X135803216Y-119182726D01*
X135803216Y-118971060D01*
X135760883Y-118886393D01*
X135676216Y-118844060D01*
X135591550Y-118844060D01*
X135506883Y-118886393D01*
X135464550Y-118971060D01*
X135464550Y-119182726D01*
X135422216Y-119267393D01*
X135210550Y-119690726D02*
X135803216Y-119690726D01*
X135295216Y-119690726D02*
X135252883Y-119733060D01*
X135210550Y-119817726D01*
X135210550Y-119944726D01*
X135252883Y-120029393D01*
X135337550Y-120071726D01*
X135803216Y-120071726D01*
X135803216Y-120876060D02*
X134914216Y-120876060D01*
X135760883Y-120876060D02*
X135803216Y-120791393D01*
X135803216Y-120622060D01*
X135760883Y-120537393D01*
X135718550Y-120495060D01*
X135633883Y-120452726D01*
X135379883Y-120452726D01*
X135295216Y-120495060D01*
X135252883Y-120537393D01*
X135210550Y-120622060D01*
X135210550Y-120791393D01*
X135252883Y-120876060D01*
X135210550Y-121214726D02*
X135803216Y-121384060D01*
X135379883Y-121553393D01*
X135803216Y-121722726D01*
X135210550Y-121892060D01*
X135803216Y-122230726D02*
X135210550Y-122230726D01*
X134914216Y-122230726D02*
X134956550Y-122188393D01*
X134998883Y-122230726D01*
X134956550Y-122273060D01*
X134914216Y-122230726D01*
X134998883Y-122230726D01*
X135760883Y-123035060D02*
X135803216Y-122950393D01*
X135803216Y-122781060D01*
X135760883Y-122696393D01*
X135718550Y-122654060D01*
X135633883Y-122611726D01*
X135379883Y-122611726D01*
X135295216Y-122654060D01*
X135252883Y-122696393D01*
X135210550Y-122781060D01*
X135210550Y-122950393D01*
X135252883Y-123035060D01*
X135803216Y-123416060D02*
X134914216Y-123416060D01*
X135803216Y-123797060D02*
X135337550Y-123797060D01*
X135252883Y-123754726D01*
X135210550Y-123670060D01*
X135210550Y-123543060D01*
X135252883Y-123458393D01*
X135295216Y-123416060D01*
X137289116Y-115499726D02*
X136865783Y-115203393D01*
X137289116Y-114991726D02*
X136400116Y-114991726D01*
X136400116Y-115330393D01*
X136442450Y-115415060D01*
X136484783Y-115457393D01*
X136569450Y-115499726D01*
X136696450Y-115499726D01*
X136781116Y-115457393D01*
X136823450Y-115415060D01*
X136865783Y-115330393D01*
X136865783Y-114991726D01*
X137246783Y-116219393D02*
X137289116Y-116134726D01*
X137289116Y-115965393D01*
X137246783Y-115880726D01*
X137162116Y-115838393D01*
X136823450Y-115838393D01*
X136738783Y-115880726D01*
X136696450Y-115965393D01*
X136696450Y-116134726D01*
X136738783Y-116219393D01*
X136823450Y-116261726D01*
X136908116Y-116261726D01*
X136992783Y-115838393D01*
X136696450Y-116558060D02*
X137289116Y-116769726D01*
X136696450Y-116981393D01*
X137246783Y-117277726D02*
X137289116Y-117362393D01*
X137289116Y-117531726D01*
X137246783Y-117616393D01*
X137162116Y-117658726D01*
X137119783Y-117658726D01*
X137035116Y-117616393D01*
X136992783Y-117531726D01*
X136992783Y-117404726D01*
X136950450Y-117320060D01*
X136865783Y-117277726D01*
X136823450Y-117277726D01*
X136738783Y-117320060D01*
X136696450Y-117404726D01*
X136696450Y-117531726D01*
X136738783Y-117616393D01*
X137204450Y-118039726D02*
X137246783Y-118082060D01*
X137289116Y-118039726D01*
X137246783Y-117997393D01*
X137204450Y-118039726D01*
X137289116Y-118039726D01*
X136400116Y-119521393D02*
X136400116Y-119352060D01*
X136442450Y-119267393D01*
X136484783Y-119225060D01*
X136611783Y-119140393D01*
X136781116Y-119098060D01*
X137119783Y-119098060D01*
X137204450Y-119140393D01*
X137246783Y-119182726D01*
X137289116Y-119267393D01*
X137289116Y-119436726D01*
X137246783Y-119521393D01*
X137204450Y-119563726D01*
X137119783Y-119606060D01*
X136908116Y-119606060D01*
X136823450Y-119563726D01*
X136781116Y-119521393D01*
X136738783Y-119436726D01*
X136738783Y-119267393D01*
X136781116Y-119182726D01*
X136823450Y-119140393D01*
X136908116Y-119098060D01*
X137246783Y-120029393D02*
X137289116Y-120029393D01*
X137373783Y-119987060D01*
X137416116Y-119944726D01*
X136400116Y-121468726D02*
X136400116Y-121299393D01*
X136442450Y-121214726D01*
X136484783Y-121172393D01*
X136611783Y-121087726D01*
X136781116Y-121045393D01*
X137119783Y-121045393D01*
X137204450Y-121087726D01*
X137246783Y-121130060D01*
X137289116Y-121214726D01*
X137289116Y-121384060D01*
X137246783Y-121468726D01*
X137204450Y-121511060D01*
X137119783Y-121553393D01*
X136908116Y-121553393D01*
X136823450Y-121511060D01*
X136781116Y-121468726D01*
X136738783Y-121384060D01*
X136738783Y-121214726D01*
X136781116Y-121130060D01*
X136823450Y-121087726D01*
X136908116Y-121045393D01*
X137289116Y-121934393D02*
X136400116Y-121934393D01*
X136738783Y-121934393D02*
X136696450Y-122019060D01*
X136696450Y-122188393D01*
X136738783Y-122273060D01*
X136781116Y-122315393D01*
X136865783Y-122357726D01*
X137119783Y-122357726D01*
X137204450Y-122315393D01*
X137246783Y-122273060D01*
X137289116Y-122188393D01*
X137289116Y-122019060D01*
X137246783Y-121934393D01*
X138521016Y-114949393D02*
X138521016Y-115372726D01*
X138775016Y-114864726D02*
X137886016Y-115161060D01*
X138775016Y-115457393D01*
X138182350Y-115753726D02*
X139071350Y-115753726D01*
X138224683Y-115753726D02*
X138182350Y-115838393D01*
X138182350Y-116007726D01*
X138224683Y-116092393D01*
X138267016Y-116134726D01*
X138351683Y-116177060D01*
X138605683Y-116177060D01*
X138690350Y-116134726D01*
X138732683Y-116092393D01*
X138775016Y-116007726D01*
X138775016Y-115838393D01*
X138732683Y-115753726D01*
X138775016Y-116558060D02*
X138182350Y-116558060D01*
X138351683Y-116558060D02*
X138267016Y-116600393D01*
X138224683Y-116642726D01*
X138182350Y-116727393D01*
X138182350Y-116812060D01*
X138775016Y-117108393D02*
X138182350Y-117108393D01*
X137886016Y-117108393D02*
X137928350Y-117066060D01*
X137970683Y-117108393D01*
X137928350Y-117150726D01*
X137886016Y-117108393D01*
X137970683Y-117108393D01*
X138775016Y-117658726D02*
X138732683Y-117574060D01*
X138648016Y-117531726D01*
X137886016Y-117531726D01*
X137970683Y-118632393D02*
X137928350Y-118674726D01*
X137886016Y-118759393D01*
X137886016Y-118971060D01*
X137928350Y-119055726D01*
X137970683Y-119098060D01*
X138055350Y-119140393D01*
X138140016Y-119140393D01*
X138267016Y-119098060D01*
X138775016Y-118590060D01*
X138775016Y-119140393D01*
X137886016Y-119690726D02*
X137886016Y-119775393D01*
X137928350Y-119860060D01*
X137970683Y-119902393D01*
X138055350Y-119944726D01*
X138224683Y-119987060D01*
X138436350Y-119987060D01*
X138605683Y-119944726D01*
X138690350Y-119902393D01*
X138732683Y-119860060D01*
X138775016Y-119775393D01*
X138775016Y-119690726D01*
X138732683Y-119606060D01*
X138690350Y-119563726D01*
X138605683Y-119521393D01*
X138436350Y-119479060D01*
X138224683Y-119479060D01*
X138055350Y-119521393D01*
X137970683Y-119563726D01*
X137928350Y-119606060D01*
X137886016Y-119690726D01*
X138775016Y-120833726D02*
X138775016Y-120325726D01*
X138775016Y-120579726D02*
X137886016Y-120579726D01*
X138013016Y-120495060D01*
X138097683Y-120410393D01*
X138140016Y-120325726D01*
X138775016Y-121257060D02*
X138775016Y-121426393D01*
X138732683Y-121511060D01*
X138690350Y-121553393D01*
X138563350Y-121638060D01*
X138394016Y-121680393D01*
X138055350Y-121680393D01*
X137970683Y-121638060D01*
X137928350Y-121595726D01*
X137886016Y-121511060D01*
X137886016Y-121341726D01*
X137928350Y-121257060D01*
X137970683Y-121214726D01*
X138055350Y-121172393D01*
X138267016Y-121172393D01*
X138351683Y-121214726D01*
X138394016Y-121257060D01*
X138436350Y-121341726D01*
X138436350Y-121511060D01*
X138394016Y-121595726D01*
X138351683Y-121638060D01*
X138267016Y-121680393D01*
D11*
X122120539Y-132235423D02*
X122120539Y-130965423D01*
X121636729Y-130965423D01*
X121515777Y-131025900D01*
X121455300Y-131086376D01*
X121394824Y-131207328D01*
X121394824Y-131388757D01*
X121455300Y-131509709D01*
X121515777Y-131570185D01*
X121636729Y-131630661D01*
X122120539Y-131630661D01*
X120971491Y-130965423D02*
X120669110Y-132235423D01*
X120427205Y-131328280D01*
X120185300Y-132235423D01*
X119882920Y-130965423D01*
X118673396Y-132235423D02*
X119096729Y-131630661D01*
X119399110Y-132235423D02*
X119399110Y-130965423D01*
X118915300Y-130965423D01*
X118794348Y-131025900D01*
X118733872Y-131086376D01*
X118673396Y-131207328D01*
X118673396Y-131388757D01*
X118733872Y-131509709D01*
X118794348Y-131570185D01*
X118915300Y-131630661D01*
X119399110Y-131630661D01*
X122120539Y-134343623D02*
X122120539Y-133073623D01*
X121697205Y-133980766D01*
X121273872Y-133073623D01*
X121273872Y-134343623D01*
X120669110Y-134343623D02*
X120669110Y-133073623D01*
X120124824Y-134283147D02*
X119943396Y-134343623D01*
X119641015Y-134343623D01*
X119520062Y-134283147D01*
X119459586Y-134222671D01*
X119399110Y-134101719D01*
X119399110Y-133980766D01*
X119459586Y-133859814D01*
X119520062Y-133799338D01*
X119641015Y-133738861D01*
X119882920Y-133678385D01*
X120003872Y-133617909D01*
X120064348Y-133557433D01*
X120124824Y-133436480D01*
X120124824Y-133315528D01*
X120064348Y-133194576D01*
X120003872Y-133134100D01*
X119882920Y-133073623D01*
X119580539Y-133073623D01*
X119399110Y-133134100D01*
X118612920Y-133073623D02*
X118371015Y-133073623D01*
X118250062Y-133134100D01*
X118129110Y-133255052D01*
X118068634Y-133496957D01*
X118068634Y-133920290D01*
X118129110Y-134162195D01*
X118250062Y-134283147D01*
X118371015Y-134343623D01*
X118612920Y-134343623D01*
X118733872Y-134283147D01*
X118854824Y-134162195D01*
X118915300Y-133920290D01*
X118915300Y-133496957D01*
X118854824Y-133255052D01*
X118733872Y-133134100D01*
X118612920Y-133073623D01*
D12*
X127381000Y-130429000D02*
X127127000Y-130937000D01*
X131826000Y-129413000D02*
X129413000Y-129540000D01*
X128016000Y-129921000D02*
X127381000Y-130429000D01*
X129413000Y-129540000D02*
X128016000Y-129921000D01*
X127583177Y-135475484D02*
X127075177Y-134840484D01*
X128472177Y-135856484D02*
X127583177Y-135475484D01*
X131647177Y-136110484D02*
X128472177Y-135856484D01*
D11*
X135997889Y-130381223D02*
X135997889Y-129111223D01*
X135574556Y-130018366D01*
X135151222Y-129111223D01*
X135151222Y-130381223D01*
X134304556Y-129111223D02*
X134062651Y-129111223D01*
X133941699Y-129171700D01*
X133820746Y-129292652D01*
X133760270Y-129534557D01*
X133760270Y-129957890D01*
X133820746Y-130199795D01*
X133941699Y-130320747D01*
X134062651Y-130381223D01*
X134304556Y-130381223D01*
X134425508Y-130320747D01*
X134546460Y-130199795D01*
X134606937Y-129957890D01*
X134606937Y-129534557D01*
X134546460Y-129292652D01*
X134425508Y-129171700D01*
X134304556Y-129111223D01*
X133276460Y-130320747D02*
X133095032Y-130381223D01*
X132792651Y-130381223D01*
X132671699Y-130320747D01*
X132611222Y-130260271D01*
X132550746Y-130139319D01*
X132550746Y-130018366D01*
X132611222Y-129897414D01*
X132671699Y-129836938D01*
X132792651Y-129776461D01*
X133034556Y-129715985D01*
X133155508Y-129655509D01*
X133215984Y-129595033D01*
X133276460Y-129474080D01*
X133276460Y-129353128D01*
X133215984Y-129232176D01*
X133155508Y-129171700D01*
X133034556Y-129111223D01*
X132732175Y-129111223D01*
X132550746Y-129171700D01*
X132006460Y-130381223D02*
X132006460Y-129111223D01*
X134606937Y-131279900D02*
X134727889Y-131219423D01*
X134909318Y-131219423D01*
X135090746Y-131279900D01*
X135211699Y-131400852D01*
X135272175Y-131521804D01*
X135332651Y-131763709D01*
X135332651Y-131945138D01*
X135272175Y-132187042D01*
X135211699Y-132307995D01*
X135090746Y-132428947D01*
X134909318Y-132489423D01*
X134788365Y-132489423D01*
X134606937Y-132428947D01*
X134546460Y-132368471D01*
X134546460Y-131945138D01*
X134788365Y-131945138D01*
X134002175Y-132489423D02*
X134002175Y-131219423D01*
X133276460Y-132489423D01*
X133276460Y-131219423D01*
X132671699Y-132489423D02*
X132671699Y-131219423D01*
X132369318Y-131219423D01*
X132187889Y-131279900D01*
X132066937Y-131400852D01*
X132006460Y-131521804D01*
X131945984Y-131763709D01*
X131945984Y-131945138D01*
X132006460Y-132187042D01*
X132066937Y-132307995D01*
X132187889Y-132428947D01*
X132369318Y-132489423D01*
X132671699Y-132489423D01*
X134123127Y-134597623D02*
X134546460Y-133992861D01*
X134848841Y-134597623D02*
X134848841Y-133327623D01*
X134365032Y-133327623D01*
X134244080Y-133388100D01*
X134183603Y-133448576D01*
X134123127Y-133569528D01*
X134123127Y-133750957D01*
X134183603Y-133871909D01*
X134244080Y-133932385D01*
X134365032Y-133992861D01*
X134848841Y-133992861D01*
X133639318Y-134537147D02*
X133457889Y-134597623D01*
X133155508Y-134597623D01*
X133034556Y-134537147D01*
X132974080Y-134476671D01*
X132913603Y-134355719D01*
X132913603Y-134234766D01*
X132974080Y-134113814D01*
X133034556Y-134053338D01*
X133155508Y-133992861D01*
X133397413Y-133932385D01*
X133518365Y-133871909D01*
X133578841Y-133811433D01*
X133639318Y-133690480D01*
X133639318Y-133569528D01*
X133578841Y-133448576D01*
X133518365Y-133388100D01*
X133397413Y-133327623D01*
X133095032Y-133327623D01*
X132913603Y-133388100D01*
X132550746Y-133327623D02*
X131825032Y-133327623D01*
X132187889Y-134597623D02*
X132187889Y-133327623D01*
X134244080Y-136584871D02*
X134304556Y-136645347D01*
X134485984Y-136705823D01*
X134606937Y-136705823D01*
X134788365Y-136645347D01*
X134909318Y-136524395D01*
X134969794Y-136403442D01*
X135030270Y-136161538D01*
X135030270Y-135980109D01*
X134969794Y-135738204D01*
X134909318Y-135617252D01*
X134788365Y-135496300D01*
X134606937Y-135435823D01*
X134485984Y-135435823D01*
X134304556Y-135496300D01*
X134244080Y-135556776D01*
X133095032Y-136705823D02*
X133699794Y-136705823D01*
X133699794Y-135435823D01*
X132671699Y-136705823D02*
X132671699Y-135435823D01*
X131945984Y-136705823D02*
X132490270Y-135980109D01*
X131945984Y-135435823D02*
X132671699Y-136161538D01*
D12*
X133562748Y-113891954D02*
G75*
G02X130683000Y-117221000I-6562748J2766954D01*
G01*
X120437252Y-113891954D02*
G75*
G03X123317000Y-117221000I6562748J2766954D01*
G01*
X130683000Y-117221000D02*
X123317000Y-117221000D01*
M02*
