G04 #@! TF.GenerationSoftware,KiCad,Pcbnew,(5.0.2)-1*
G04 #@! TF.CreationDate,2019-03-21T21:15:29-07:00*
G04 #@! TF.ProjectId,programmer,70726f67-7261-46d6-9d65-722e6b696361,rev?*
G04 #@! TF.SameCoordinates,Original*
G04 #@! TF.FileFunction,Copper,L1,Top*
G04 #@! TF.FilePolarity,Positive*
%FSLAX46Y46*%
G04 Gerber Fmt 4.6, Leading zero omitted, Abs format (unit mm)*
G04 Created by KiCad (PCBNEW (5.0.2)-1) date 3/21/2019 9:15:29 PM*
%MOMM*%
%LPD*%
G01*
G04 APERTURE LIST*
G04 #@! TA.AperFunction,ComponentPad*
%ADD10O,1.700000X1.700000*%
G04 #@! TD*
G04 #@! TA.AperFunction,ComponentPad*
%ADD11R,1.700000X1.700000*%
G04 #@! TD*
G04 #@! TA.AperFunction,SMDPad,CuDef*
%ADD12R,0.900000X1.200000*%
G04 #@! TD*
G04 #@! TA.AperFunction,ViaPad*
%ADD13C,0.609600*%
G04 #@! TD*
G04 #@! TA.AperFunction,Conductor*
%ADD14C,0.254000*%
G04 #@! TD*
G04 APERTURE END LIST*
D10*
G04 #@! TO.P,J1,6*
G04 #@! TO.N,GNDREF*
X104140000Y-117475000D03*
G04 #@! TO.P,J1,5*
G04 #@! TO.N,/prog_reset*
X104140000Y-120015000D03*
G04 #@! TO.P,J1,4*
G04 #@! TO.N,/prog_mosi*
X101600000Y-117475000D03*
G04 #@! TO.P,J1,3*
G04 #@! TO.N,/prog_clk*
X101600000Y-120015000D03*
G04 #@! TO.P,J1,2*
G04 #@! TO.N,/pwr*
X99060000Y-117475000D03*
D11*
G04 #@! TO.P,J1,1*
G04 #@! TO.N,/prog_miso*
X99060000Y-120015000D03*
G04 #@! TD*
D12*
G04 #@! TO.P,R1,1*
G04 #@! TO.N,/prog_reset*
X97790000Y-112224999D03*
G04 #@! TO.P,R1,2*
G04 #@! TO.N,/att_reset*
X97790000Y-110025001D03*
G04 #@! TD*
G04 #@! TO.P,R2,2*
G04 #@! TO.N,/att_data*
X100330000Y-110025001D03*
G04 #@! TO.P,R2,1*
G04 #@! TO.N,/prog_miso*
X100330000Y-112224999D03*
G04 #@! TD*
G04 #@! TO.P,R3,1*
G04 #@! TO.N,/prog_mosi*
X102870000Y-112224999D03*
G04 #@! TO.P,R3,2*
G04 #@! TO.N,/att_data*
X102870000Y-110025001D03*
G04 #@! TD*
G04 #@! TO.P,R4,2*
G04 #@! TO.N,/att_clk*
X105410000Y-110025001D03*
G04 #@! TO.P,R4,1*
G04 #@! TO.N,/prog_clk*
X105410000Y-112224999D03*
G04 #@! TD*
D13*
G04 #@! TO.N,/pwr*
X100330000Y-107950000D03*
G04 #@! TO.N,/att_reset*
X99060000Y-107950000D03*
G04 #@! TO.N,/att_data*
X101600000Y-107950000D03*
G04 #@! TO.N,GNDREF*
X102870000Y-107950000D03*
G04 #@! TO.N,/att_clk*
X104140000Y-107950000D03*
G04 #@! TD*
D14*
G04 #@! TO.N,/prog_miso*
X100330000Y-112224999D02*
X100330000Y-117475000D01*
X100330000Y-118745000D02*
X99060000Y-120015000D01*
X100330000Y-117475000D02*
X100330000Y-118745000D01*
G04 #@! TO.N,/pwr*
X99060000Y-117475000D02*
X99187000Y-116078000D01*
X99187000Y-108966000D02*
X100330000Y-107950000D01*
X99187000Y-108966000D02*
X99187000Y-116078000D01*
G04 #@! TO.N,/prog_clk*
X101600000Y-120015000D02*
X102870000Y-118745000D01*
X104811285Y-118745000D02*
X105664000Y-117750166D01*
X105664000Y-117750166D02*
X105664000Y-112903000D01*
X104811285Y-118745000D02*
X102870000Y-118745000D01*
X105410000Y-112224999D02*
X105664000Y-112776000D01*
X105664000Y-112776000D02*
X105664000Y-112903000D01*
G04 #@! TO.N,/prog_mosi*
X102870000Y-112224999D02*
X102870000Y-116205000D01*
X102870000Y-116205000D02*
X101600000Y-117475000D01*
G04 #@! TO.N,/prog_reset*
X102489000Y-121666000D02*
X104140000Y-120015000D01*
X98425000Y-121666000D02*
X102489000Y-121666000D01*
X97536000Y-120777000D02*
X98425000Y-121666000D01*
X97536000Y-120650000D02*
X97536000Y-120777000D01*
X97536000Y-112776000D02*
X97536000Y-120650000D01*
X97536000Y-112776000D02*
X97790000Y-112224999D01*
G04 #@! TO.N,/att_reset*
X97790000Y-110025001D02*
X99060000Y-107950000D01*
G04 #@! TO.N,/att_data*
X101600000Y-109982000D02*
X100330000Y-110025001D01*
X101600000Y-109982000D02*
X102870000Y-110025001D01*
X101600000Y-107950000D02*
X101600000Y-109982000D01*
G04 #@! TO.N,GNDREF*
X104140000Y-117475000D02*
X104140000Y-114554000D01*
X104140000Y-109093000D02*
X102870000Y-107950000D01*
X104140000Y-109093000D02*
X104140000Y-114554000D01*
G04 #@! TO.N,/att_clk*
X105410000Y-110025001D02*
X104140000Y-107950000D01*
G04 #@! TD*
M02*
