G04 #@! TF.GenerationSoftware,KiCad,Pcbnew,(5.0.2)-1*
G04 #@! TF.CreationDate,2019-04-08T21:31:45-07:00*
G04 #@! TF.ProjectId,programmer,70726f67-7261-46d6-9d65-722e6b696361,rev?*
G04 #@! TF.SameCoordinates,Original*
G04 #@! TF.FileFunction,Copper,L1,Top*
G04 #@! TF.FilePolarity,Positive*
%FSLAX46Y46*%
G04 Gerber Fmt 4.6, Leading zero omitted, Abs format (unit mm)*
G04 Created by KiCad (PCBNEW (5.0.2)-1) date 4/8/2019 9:31:45 PM*
%MOMM*%
%LPD*%
G01*
G04 APERTURE LIST*
G04 #@! TA.AperFunction,SMDPad,CuDef*
%ADD10R,1.200000X0.900000*%
G04 #@! TD*
G04 #@! TA.AperFunction,WasherPad*
%ADD11C,4.000000*%
G04 #@! TD*
G04 #@! TA.AperFunction,ComponentPad*
%ADD12C,1.270000*%
G04 #@! TD*
G04 #@! TA.AperFunction,ComponentPad*
%ADD13O,1.700000X1.700000*%
G04 #@! TD*
G04 #@! TA.AperFunction,ComponentPad*
%ADD14R,1.700000X1.700000*%
G04 #@! TD*
G04 #@! TA.AperFunction,ViaPad*
%ADD15C,0.609600*%
G04 #@! TD*
G04 #@! TA.AperFunction,Conductor*
%ADD16C,0.254000*%
G04 #@! TD*
G04 APERTURE END LIST*
D10*
G04 #@! TO.P,GND,2*
G04 #@! TO.N,GNDREF*
X136271000Y-118872000D03*
G04 #@! TO.P,GND,1*
G04 #@! TO.N,/gnd*
X134747000Y-118872000D03*
G04 #@! TD*
G04 #@! TO.P,PWR,1*
G04 #@! TO.N,/pwr*
X119253000Y-118872000D03*
G04 #@! TO.P,PWR,2*
G04 #@! TO.N,/prog_pwr*
X117729000Y-118872000D03*
G04 #@! TD*
D11*
G04 #@! TO.P,REF\002A\002A,*
G04 #@! TO.N,*
X136525000Y-127000000D03*
G04 #@! TD*
G04 #@! TO.P,REF\002A\002A,*
G04 #@! TO.N,*
X117475000Y-127000000D03*
G04 #@! TD*
D12*
G04 #@! TO.P,,1*
G04 #@! TO.N,N/C*
X129540000Y-120015000D03*
G04 #@! TO.P,,2*
X129540000Y-122555000D03*
G04 #@! TO.P,,3*
X127000000Y-120015000D03*
G04 #@! TO.P,,4*
X127000000Y-122555000D03*
G04 #@! TO.P,,5*
X124460000Y-120015000D03*
G04 #@! TO.P,,6*
X124460000Y-122555000D03*
G04 #@! TD*
D11*
G04 #@! TO.P,REF\002A\002A,*
G04 #@! TO.N,*
X127000000Y-127000000D03*
G04 #@! TD*
D10*
G04 #@! TO.P,RST,2*
G04 #@! TO.N,/att_reset*
X119591000Y-116332000D03*
G04 #@! TO.P,RST,1*
G04 #@! TO.N,/prog_reset*
X117391000Y-116332000D03*
G04 #@! TD*
G04 #@! TO.P,MISO,1*
G04 #@! TO.N,/prog_miso*
X117391000Y-121412000D03*
G04 #@! TO.P,MISO,2*
G04 #@! TO.N,/att_data*
X119591000Y-121412000D03*
G04 #@! TD*
G04 #@! TO.P,MOSI,2*
G04 #@! TO.N,/att_data*
X134409000Y-121412000D03*
G04 #@! TO.P,MOSI,1*
G04 #@! TO.N,/prog_mosi*
X136609000Y-121412000D03*
G04 #@! TD*
G04 #@! TO.P,CLK,1*
G04 #@! TO.N,/prog_clk*
X136609000Y-116332000D03*
G04 #@! TO.P,CLK,2*
G04 #@! TO.N,/att_clk*
X134409000Y-116332000D03*
G04 #@! TD*
D13*
G04 #@! TO.P,J1,6*
G04 #@! TO.N,GNDREF*
X129540000Y-131445000D03*
G04 #@! TO.P,J1,5*
G04 #@! TO.N,/prog_reset*
X129540000Y-133985000D03*
G04 #@! TO.P,J1,4*
G04 #@! TO.N,/prog_mosi*
X127000000Y-131445000D03*
G04 #@! TO.P,J1,3*
G04 #@! TO.N,/prog_clk*
X127000000Y-133985000D03*
G04 #@! TO.P,J1,2*
G04 #@! TO.N,/prog_pwr*
X124460000Y-131445000D03*
D14*
G04 #@! TO.P,J1,1*
G04 #@! TO.N,/prog_miso*
X124460000Y-133985000D03*
G04 #@! TD*
D15*
G04 #@! TO.N,/pwr*
X125222000Y-117602000D03*
G04 #@! TO.N,/att_reset*
X121412000Y-116332000D03*
G04 #@! TO.N,/att_data*
X121158000Y-120904000D03*
X132842000Y-120904000D03*
G04 #@! TO.N,/att_clk*
X132715000Y-116332000D03*
G04 #@! TO.N,/gnd*
X128778000Y-117602000D03*
G04 #@! TD*
D16*
G04 #@! TO.N,/prog_miso*
X117391000Y-122116000D02*
X122682000Y-127407000D01*
X117391000Y-121412000D02*
X117391000Y-122116000D01*
X123356000Y-133985000D02*
X124460000Y-133985000D01*
X122682000Y-133311000D02*
X123356000Y-133985000D01*
X122682000Y-127407000D02*
X122682000Y-133311000D01*
G04 #@! TO.N,/pwr*
X124841000Y-117983000D02*
X125222000Y-117602000D01*
X122555000Y-117983000D02*
X124841000Y-117983000D01*
X119253000Y-118872000D02*
X121666000Y-118872000D01*
X121666000Y-118872000D02*
X122555000Y-117983000D01*
G04 #@! TO.N,/prog_clk*
X138430000Y-116332000D02*
X136609000Y-116332000D01*
X139192000Y-117094000D02*
X138430000Y-116332000D01*
X139192000Y-129159000D02*
X139192000Y-117094000D01*
X135636000Y-132715000D02*
X139192000Y-129159000D01*
X127000000Y-133985000D02*
X128270000Y-132715000D01*
X128270000Y-132715000D02*
X135636000Y-132715000D01*
G04 #@! TO.N,/prog_mosi*
X127254000Y-131445000D02*
X127000000Y-131445000D01*
X129921000Y-128778000D02*
X127254000Y-131445000D01*
X129947000Y-128778000D02*
X129921000Y-128778000D01*
X136609000Y-121412000D02*
X136609000Y-122116000D01*
X136609000Y-122116000D02*
X129947000Y-128778000D01*
G04 #@! TO.N,/prog_reset*
X114681010Y-131770557D02*
X118659252Y-135748799D01*
X114681010Y-118891990D02*
X114681010Y-131770557D01*
X117391000Y-116332000D02*
X117241000Y-116332000D01*
X117241000Y-116332000D02*
X114681010Y-118891990D01*
X127776201Y-135748799D02*
X129540000Y-133985000D01*
X118659252Y-135748799D02*
X127776201Y-135748799D01*
G04 #@! TO.N,/att_reset*
X121412000Y-116332000D02*
X119591000Y-116332000D01*
G04 #@! TO.N,/att_data*
X120099000Y-120904000D02*
X119591000Y-121412000D01*
X121158000Y-120904000D02*
X120099000Y-120904000D01*
X133901000Y-120904000D02*
X134409000Y-121412000D01*
X132842000Y-120904000D02*
X133901000Y-120904000D01*
G04 #@! TO.N,GNDREF*
X129540000Y-130125362D02*
X129540000Y-131445000D01*
X137795000Y-121870362D02*
X129540000Y-130125362D01*
X137795000Y-119542000D02*
X137795000Y-121870362D01*
X136271000Y-118872000D02*
X137125000Y-118872000D01*
X137125000Y-118872000D02*
X137795000Y-119542000D01*
G04 #@! TO.N,/att_clk*
X134409000Y-116332000D02*
X132715000Y-116332000D01*
G04 #@! TO.N,/prog_pwr*
X124460000Y-127925362D02*
X124460000Y-131445000D01*
X118491000Y-121956362D02*
X124460000Y-127925362D01*
X118491000Y-120338000D02*
X118491000Y-121956362D01*
X117729000Y-118872000D02*
X117729000Y-119576000D01*
X117729000Y-119576000D02*
X118491000Y-120338000D01*
G04 #@! TO.N,/gnd*
X132461000Y-118872000D02*
X134747000Y-118872000D01*
X131572000Y-117983000D02*
X132461000Y-118872000D01*
X128778000Y-117602000D02*
X129159000Y-117983000D01*
X129159000Y-117983000D02*
X131572000Y-117983000D01*
G04 #@! TD*
M02*
