G04 #@! TF.GenerationSoftware,KiCad,Pcbnew,(5.0.2)-1*
G04 #@! TF.CreationDate,2019-04-08T15:05:25-07:00*
G04 #@! TF.ProjectId,programmer,70726f67-7261-46d6-9d65-722e6b696361,rev?*
G04 #@! TF.SameCoordinates,Original*
G04 #@! TF.FileFunction,Legend,Top*
G04 #@! TF.FilePolarity,Positive*
%FSLAX46Y46*%
G04 Gerber Fmt 4.6, Leading zero omitted, Abs format (unit mm)*
G04 Created by KiCad (PCBNEW (5.0.2)-1) date 4/8/2019 3:05:25 PM*
%MOMM*%
%LPD*%
G01*
G04 APERTURE LIST*
%ADD10C,0.158750*%
%ADD11C,0.254000*%
%ADD12C,0.120000*%
%ADD13C,0.150000*%
G04 APERTURE END LIST*
D10*
X25681214Y-18699616D02*
X25318357Y-18953616D01*
X25681214Y-19135044D02*
X24919214Y-19135044D01*
X24919214Y-18844758D01*
X24955500Y-18772187D01*
X24991785Y-18735901D01*
X25064357Y-18699616D01*
X25173214Y-18699616D01*
X25245785Y-18735901D01*
X25282071Y-18772187D01*
X25318357Y-18844758D01*
X25318357Y-19135044D01*
X25644928Y-18409330D02*
X25681214Y-18300473D01*
X25681214Y-18119044D01*
X25644928Y-18046473D01*
X25608642Y-18010187D01*
X25536071Y-17973901D01*
X25463500Y-17973901D01*
X25390928Y-18010187D01*
X25354642Y-18046473D01*
X25318357Y-18119044D01*
X25282071Y-18264187D01*
X25245785Y-18336758D01*
X25209500Y-18373044D01*
X25136928Y-18409330D01*
X25064357Y-18409330D01*
X24991785Y-18373044D01*
X24955500Y-18336758D01*
X24919214Y-18264187D01*
X24919214Y-18082758D01*
X24955500Y-17973901D01*
X24919214Y-17756187D02*
X24919214Y-17320758D01*
X25681214Y-17538473D02*
X24919214Y-17538473D01*
X26982964Y-19461616D02*
X26220964Y-19461616D01*
X26220964Y-19171330D01*
X26257250Y-19098758D01*
X26293535Y-19062473D01*
X26366107Y-19026187D01*
X26474964Y-19026187D01*
X26547535Y-19062473D01*
X26583821Y-19098758D01*
X26620107Y-19171330D01*
X26620107Y-19461616D01*
X26220964Y-18772187D02*
X26982964Y-18590758D01*
X26438678Y-18445616D01*
X26982964Y-18300473D01*
X26220964Y-18119044D01*
X26982964Y-17393330D02*
X26620107Y-17647330D01*
X26982964Y-17828758D02*
X26220964Y-17828758D01*
X26220964Y-17538473D01*
X26257250Y-17465901D01*
X26293535Y-17429616D01*
X26366107Y-17393330D01*
X26474964Y-17393330D01*
X26547535Y-17429616D01*
X26583821Y-17465901D01*
X26620107Y-17538473D01*
X26620107Y-17828758D01*
X28284714Y-19062473D02*
X27522714Y-19062473D01*
X27522714Y-18881044D01*
X27559000Y-18772187D01*
X27631571Y-18699616D01*
X27704142Y-18663330D01*
X27849285Y-18627044D01*
X27958142Y-18627044D01*
X28103285Y-18663330D01*
X28175857Y-18699616D01*
X28248428Y-18772187D01*
X28284714Y-18881044D01*
X28284714Y-19062473D01*
X28067000Y-18336758D02*
X28067000Y-17973901D01*
X28284714Y-18409330D02*
X27522714Y-18155330D01*
X28284714Y-17901330D01*
X27522714Y-17756187D02*
X27522714Y-17320758D01*
X28284714Y-17538473D02*
X27522714Y-17538473D01*
X28860750Y-18989901D02*
X28824464Y-19062473D01*
X28824464Y-19171330D01*
X28860750Y-19280187D01*
X28933321Y-19352758D01*
X29005892Y-19389044D01*
X29151035Y-19425330D01*
X29259892Y-19425330D01*
X29405035Y-19389044D01*
X29477607Y-19352758D01*
X29550178Y-19280187D01*
X29586464Y-19171330D01*
X29586464Y-19098758D01*
X29550178Y-18989901D01*
X29513892Y-18953616D01*
X29259892Y-18953616D01*
X29259892Y-19098758D01*
X29586464Y-18627044D02*
X28824464Y-18627044D01*
X29586464Y-18191616D01*
X28824464Y-18191616D01*
X29586464Y-17828758D02*
X28824464Y-17828758D01*
X28824464Y-17647330D01*
X28860750Y-17538473D01*
X28933321Y-17465901D01*
X29005892Y-17429616D01*
X29151035Y-17393330D01*
X29259892Y-17393330D01*
X29405035Y-17429616D01*
X29477607Y-17465901D01*
X29550178Y-17538473D01*
X29586464Y-17647330D01*
X29586464Y-17828758D01*
X30815642Y-18772187D02*
X30851928Y-18808473D01*
X30888214Y-18917330D01*
X30888214Y-18989901D01*
X30851928Y-19098758D01*
X30779357Y-19171330D01*
X30706785Y-19207616D01*
X30561642Y-19243901D01*
X30452785Y-19243901D01*
X30307642Y-19207616D01*
X30235071Y-19171330D01*
X30162500Y-19098758D01*
X30126214Y-18989901D01*
X30126214Y-18917330D01*
X30162500Y-18808473D01*
X30198785Y-18772187D01*
X30888214Y-18082758D02*
X30888214Y-18445616D01*
X30126214Y-18445616D01*
X30888214Y-17828758D02*
X30126214Y-17828758D01*
X30888214Y-17393330D02*
X30452785Y-17719901D01*
X30126214Y-17393330D02*
X30561642Y-17828758D01*
D11*
X31175476Y-56317242D02*
X31175476Y-55712480D01*
X30570714Y-55652004D01*
X30631190Y-55712480D01*
X30691666Y-55833433D01*
X30691666Y-56135814D01*
X30631190Y-56256766D01*
X30570714Y-56317242D01*
X30449761Y-56377719D01*
X30147380Y-56377719D01*
X30026428Y-56317242D01*
X29965952Y-56256766D01*
X29905476Y-56135814D01*
X29905476Y-55833433D01*
X29965952Y-55712480D01*
X30026428Y-55652004D01*
X31175476Y-56740576D02*
X29905476Y-57163909D01*
X31175476Y-57587242D01*
X26095476Y-55591528D02*
X26095476Y-56377719D01*
X25611666Y-55954385D01*
X25611666Y-56135814D01*
X25551190Y-56256766D01*
X25490714Y-56317242D01*
X25369761Y-56377719D01*
X25067380Y-56377719D01*
X24946428Y-56317242D01*
X24885952Y-56256766D01*
X24825476Y-56135814D01*
X24825476Y-55772957D01*
X24885952Y-55652004D01*
X24946428Y-55591528D01*
X24946428Y-56922004D02*
X24885952Y-56982480D01*
X24825476Y-56922004D01*
X24885952Y-56861528D01*
X24946428Y-56922004D01*
X24825476Y-56922004D01*
X26095476Y-57405814D02*
X26095476Y-58192004D01*
X25611666Y-57768671D01*
X25611666Y-57950100D01*
X25551190Y-58071052D01*
X25490714Y-58131528D01*
X25369761Y-58192004D01*
X25067380Y-58192004D01*
X24946428Y-58131528D01*
X24885952Y-58071052D01*
X24825476Y-57950100D01*
X24825476Y-57587242D01*
X24885952Y-57466290D01*
X24946428Y-57405814D01*
X26095476Y-58554861D02*
X24825476Y-58978195D01*
X26095476Y-59401528D01*
D12*
G04 #@! TO.C,A1*
X36960000Y-20190000D02*
X18920000Y-20190000D01*
X36960000Y-63630000D02*
X36960000Y-20190000D01*
X18920000Y-63630000D02*
X36960000Y-63630000D01*
X21590000Y-60960000D02*
X18920000Y-60960000D01*
X21590000Y-25400000D02*
X21590000Y-60960000D01*
X21590000Y-25400000D02*
X18920000Y-25400000D01*
X34290000Y-60960000D02*
X36960000Y-60960000D01*
X34290000Y-22860000D02*
X34290000Y-60960000D01*
X34290000Y-22860000D02*
X36960000Y-22860000D01*
X18920000Y-20190000D02*
X18920000Y-22860000D01*
X18920000Y-25400000D02*
X18920000Y-63630000D01*
X21590000Y-22860000D02*
X18920000Y-22860000D01*
X21590000Y-25400000D02*
X21590000Y-22860000D01*
G04 #@! TO.C,J1*
X24070000Y-54670000D02*
X24070000Y-53340000D01*
X25400000Y-54670000D02*
X24070000Y-54670000D01*
X26670000Y-54670000D02*
X26670000Y-52010000D01*
X26670000Y-52010000D02*
X31810000Y-52010000D01*
X26670000Y-54670000D02*
X31810000Y-54670000D01*
X31810000Y-54670000D02*
X31810000Y-52010000D01*
G04 #@! TO.C,2k\03A9*
X29800000Y-29620000D02*
X26080000Y-29620000D01*
X29800000Y-31340000D02*
X26080000Y-31340000D01*
X26080000Y-34700000D02*
X29800000Y-34700000D01*
X26080000Y-36420000D02*
X29800000Y-36420000D01*
X26080000Y-41500000D02*
X29800000Y-41500000D01*
X26080000Y-39780000D02*
X29800000Y-39780000D01*
X26080000Y-44860000D02*
X29800000Y-44860000D01*
X26080000Y-46580000D02*
X29800000Y-46580000D01*
G04 #@! TO.C,A1*
D13*
X19605714Y-21756666D02*
X20081904Y-21756666D01*
X19510476Y-22042380D02*
X19843809Y-21042380D01*
X20177142Y-22042380D01*
X21034285Y-22042380D02*
X20462857Y-22042380D01*
X20748571Y-22042380D02*
X20748571Y-21042380D01*
X20653333Y-21185238D01*
X20558095Y-21280476D01*
X20462857Y-21328095D01*
G04 #@! TO.C,2k\03A9*
X26678095Y-30027619D02*
X26725714Y-29980000D01*
X26820952Y-29932380D01*
X27059047Y-29932380D01*
X27154285Y-29980000D01*
X27201904Y-30027619D01*
X27249523Y-30122857D01*
X27249523Y-30218095D01*
X27201904Y-30360952D01*
X26630476Y-30932380D01*
X27249523Y-30932380D01*
X27678095Y-30932380D02*
X27678095Y-29932380D01*
X27773333Y-30551428D02*
X28059047Y-30932380D01*
X28059047Y-30265714D02*
X27678095Y-30646666D01*
X28440000Y-30932380D02*
X28678095Y-30932380D01*
X28678095Y-30741904D01*
X28582857Y-30694285D01*
X28487619Y-30599047D01*
X28440000Y-30456190D01*
X28440000Y-30218095D01*
X28487619Y-30075238D01*
X28582857Y-29980000D01*
X28725714Y-29932380D01*
X28916190Y-29932380D01*
X29059047Y-29980000D01*
X29154285Y-30075238D01*
X29201904Y-30218095D01*
X29201904Y-30456190D01*
X29154285Y-30599047D01*
X29059047Y-30694285D01*
X28963809Y-30741904D01*
X28963809Y-30932380D01*
X29201904Y-30932380D01*
X26678095Y-35107619D02*
X26725714Y-35060000D01*
X26820952Y-35012380D01*
X27059047Y-35012380D01*
X27154285Y-35060000D01*
X27201904Y-35107619D01*
X27249523Y-35202857D01*
X27249523Y-35298095D01*
X27201904Y-35440952D01*
X26630476Y-36012380D01*
X27249523Y-36012380D01*
X27678095Y-36012380D02*
X27678095Y-35012380D01*
X27773333Y-35631428D02*
X28059047Y-36012380D01*
X28059047Y-35345714D02*
X27678095Y-35726666D01*
X28440000Y-36012380D02*
X28678095Y-36012380D01*
X28678095Y-35821904D01*
X28582857Y-35774285D01*
X28487619Y-35679047D01*
X28440000Y-35536190D01*
X28440000Y-35298095D01*
X28487619Y-35155238D01*
X28582857Y-35060000D01*
X28725714Y-35012380D01*
X28916190Y-35012380D01*
X29059047Y-35060000D01*
X29154285Y-35155238D01*
X29201904Y-35298095D01*
X29201904Y-35536190D01*
X29154285Y-35679047D01*
X29059047Y-35774285D01*
X28963809Y-35821904D01*
X28963809Y-36012380D01*
X29201904Y-36012380D01*
X26678095Y-40187619D02*
X26725714Y-40140000D01*
X26820952Y-40092380D01*
X27059047Y-40092380D01*
X27154285Y-40140000D01*
X27201904Y-40187619D01*
X27249523Y-40282857D01*
X27249523Y-40378095D01*
X27201904Y-40520952D01*
X26630476Y-41092380D01*
X27249523Y-41092380D01*
X27678095Y-41092380D02*
X27678095Y-40092380D01*
X27773333Y-40711428D02*
X28059047Y-41092380D01*
X28059047Y-40425714D02*
X27678095Y-40806666D01*
X28440000Y-41092380D02*
X28678095Y-41092380D01*
X28678095Y-40901904D01*
X28582857Y-40854285D01*
X28487619Y-40759047D01*
X28440000Y-40616190D01*
X28440000Y-40378095D01*
X28487619Y-40235238D01*
X28582857Y-40140000D01*
X28725714Y-40092380D01*
X28916190Y-40092380D01*
X29059047Y-40140000D01*
X29154285Y-40235238D01*
X29201904Y-40378095D01*
X29201904Y-40616190D01*
X29154285Y-40759047D01*
X29059047Y-40854285D01*
X28963809Y-40901904D01*
X28963809Y-41092380D01*
X29201904Y-41092380D01*
X26678095Y-45267619D02*
X26725714Y-45220000D01*
X26820952Y-45172380D01*
X27059047Y-45172380D01*
X27154285Y-45220000D01*
X27201904Y-45267619D01*
X27249523Y-45362857D01*
X27249523Y-45458095D01*
X27201904Y-45600952D01*
X26630476Y-46172380D01*
X27249523Y-46172380D01*
X27678095Y-46172380D02*
X27678095Y-45172380D01*
X27773333Y-45791428D02*
X28059047Y-46172380D01*
X28059047Y-45505714D02*
X27678095Y-45886666D01*
X28440000Y-46172380D02*
X28678095Y-46172380D01*
X28678095Y-45981904D01*
X28582857Y-45934285D01*
X28487619Y-45839047D01*
X28440000Y-45696190D01*
X28440000Y-45458095D01*
X28487619Y-45315238D01*
X28582857Y-45220000D01*
X28725714Y-45172380D01*
X28916190Y-45172380D01*
X29059047Y-45220000D01*
X29154285Y-45315238D01*
X29201904Y-45458095D01*
X29201904Y-45696190D01*
X29154285Y-45839047D01*
X29059047Y-45934285D01*
X28963809Y-45981904D01*
X28963809Y-46172380D01*
X29201904Y-46172380D01*
G04 #@! TD*
M02*
