G04 #@! TF.GenerationSoftware,KiCad,Pcbnew,(5.0.2)-1*
G04 #@! TF.CreationDate,2019-04-08T15:05:25-07:00*
G04 #@! TF.ProjectId,programmer,70726f67-7261-46d6-9d65-722e6b696361,rev?*
G04 #@! TF.SameCoordinates,Original*
G04 #@! TF.FileFunction,Copper,L1,Top*
G04 #@! TF.FilePolarity,Positive*
%FSLAX46Y46*%
G04 Gerber Fmt 4.6, Leading zero omitted, Abs format (unit mm)*
G04 Created by KiCad (PCBNEW (5.0.2)-1) date 4/8/2019 3:05:25 PM*
%MOMM*%
%LPD*%
G01*
G04 APERTURE LIST*
G04 #@! TA.AperFunction,ComponentPad*
%ADD10C,1.800000*%
G04 #@! TD*
G04 #@! TA.AperFunction,ComponentPad*
%ADD11C,1.778000*%
G04 #@! TD*
G04 #@! TA.AperFunction,ComponentPad*
%ADD12O,1.600000X1.600000*%
G04 #@! TD*
G04 #@! TA.AperFunction,ComponentPad*
%ADD13R,1.600000X1.600000*%
G04 #@! TD*
G04 #@! TA.AperFunction,ComponentPad*
%ADD14O,1.700000X1.700000*%
G04 #@! TD*
G04 #@! TA.AperFunction,ComponentPad*
%ADD15R,1.700000X1.700000*%
G04 #@! TD*
G04 #@! TA.AperFunction,ComponentPad*
%ADD16O,1.400000X1.400000*%
G04 #@! TD*
G04 #@! TA.AperFunction,ComponentPad*
%ADD17C,1.400000*%
G04 #@! TD*
G04 #@! TA.AperFunction,Conductor*
%ADD18C,0.254000*%
G04 #@! TD*
G04 APERTURE END LIST*
D10*
G04 #@! TO.P,J2,5*
G04 #@! TO.N,/att_clk*
X30480000Y-13716000D03*
D11*
G04 #@! TO.P,J2,4*
G04 #@! TO.N,GNDREF*
X29210000Y-15494000D03*
D10*
G04 #@! TO.P,J2,3*
G04 #@! TO.N,/att_data*
X27940000Y-13716000D03*
D11*
G04 #@! TO.P,J2,2*
G04 #@! TO.N,/pwr*
X26670000Y-15494000D03*
G04 #@! TO.P,J2,1*
G04 #@! TO.N,/att_reset*
X25400000Y-13716000D03*
G04 #@! TD*
D12*
G04 #@! TO.P,A1,16*
G04 #@! TO.N,/prog_clk*
X35560000Y-59690000D03*
G04 #@! TO.P,A1,15*
G04 #@! TO.N,/prog_mosi*
X20320000Y-59690000D03*
G04 #@! TO.P,A1,30*
G04 #@! TO.N,N/C*
X35560000Y-24130000D03*
G04 #@! TO.P,A1,14*
G04 #@! TO.N,/prog_miso*
X20320000Y-57150000D03*
G04 #@! TO.P,A1,29*
G04 #@! TO.N,GNDREF*
X35560000Y-26670000D03*
G04 #@! TO.P,A1,13*
G04 #@! TO.N,/prog_reset*
X20320000Y-54610000D03*
G04 #@! TO.P,A1,28*
G04 #@! TO.N,N/C*
X35560000Y-29210000D03*
G04 #@! TO.P,A1,12*
X20320000Y-52070000D03*
G04 #@! TO.P,A1,27*
G04 #@! TO.N,Net-(A1-Pad27)*
X35560000Y-31750000D03*
G04 #@! TO.P,A1,11*
G04 #@! TO.N,N/C*
X20320000Y-49530000D03*
G04 #@! TO.P,A1,26*
X35560000Y-34290000D03*
G04 #@! TO.P,A1,10*
X20320000Y-46990000D03*
G04 #@! TO.P,A1,25*
X35560000Y-36830000D03*
G04 #@! TO.P,A1,9*
X20320000Y-44450000D03*
G04 #@! TO.P,A1,24*
X35560000Y-39370000D03*
G04 #@! TO.P,A1,8*
X20320000Y-41910000D03*
G04 #@! TO.P,A1,23*
X35560000Y-41910000D03*
G04 #@! TO.P,A1,7*
X20320000Y-39370000D03*
G04 #@! TO.P,A1,22*
X35560000Y-44450000D03*
G04 #@! TO.P,A1,6*
X20320000Y-36830000D03*
G04 #@! TO.P,A1,21*
X35560000Y-46990000D03*
G04 #@! TO.P,A1,5*
X20320000Y-34290000D03*
G04 #@! TO.P,A1,20*
X35560000Y-49530000D03*
G04 #@! TO.P,A1,4*
G04 #@! TO.N,GNDREF*
X20320000Y-31750000D03*
G04 #@! TO.P,A1,19*
G04 #@! TO.N,N/C*
X35560000Y-52070000D03*
G04 #@! TO.P,A1,3*
X20320000Y-29210000D03*
G04 #@! TO.P,A1,18*
X35560000Y-54610000D03*
G04 #@! TO.P,A1,2*
X20320000Y-26670000D03*
G04 #@! TO.P,A1,17*
G04 #@! TO.N,Net-(A1-Pad17)*
X35560000Y-57150000D03*
D13*
G04 #@! TO.P,A1,1*
G04 #@! TO.N,N/C*
X20320000Y-24130000D03*
G04 #@! TD*
D14*
G04 #@! TO.P,J1,3*
G04 #@! TO.N,Net-(A1-Pad27)*
X30480000Y-53340000D03*
G04 #@! TO.P,J1,2*
G04 #@! TO.N,/pwr*
X27940000Y-53340000D03*
D15*
G04 #@! TO.P,J1,1*
G04 #@! TO.N,Net-(A1-Pad17)*
X25400000Y-53340000D03*
G04 #@! TD*
D16*
G04 #@! TO.P,2k\03A9,2*
G04 #@! TO.N,/att_reset*
X25400000Y-30480000D03*
D17*
G04 #@! TO.P,2k\03A9,1*
G04 #@! TO.N,/prog_reset*
X30480000Y-30480000D03*
G04 #@! TD*
G04 #@! TO.P,2k\03A9,1*
G04 #@! TO.N,/prog_miso*
X25400000Y-35560000D03*
D16*
G04 #@! TO.P,2k\03A9,2*
G04 #@! TO.N,/att_data*
X30480000Y-35560000D03*
G04 #@! TD*
G04 #@! TO.P,2k\03A9,2*
G04 #@! TO.N,/att_data*
X30480000Y-40640000D03*
D17*
G04 #@! TO.P,2k\03A9,1*
G04 #@! TO.N,/prog_mosi*
X25400000Y-40640000D03*
G04 #@! TD*
G04 #@! TO.P,2k\03A9,1*
G04 #@! TO.N,/prog_clk*
X25400000Y-45720000D03*
D16*
G04 #@! TO.P,2k\03A9,2*
G04 #@! TO.N,/att_clk*
X30480000Y-45720000D03*
G04 #@! TD*
D18*
G04 #@! TO.N,/pwr*
X27305000Y-52705000D02*
X27940000Y-53340000D01*
X27305000Y-18415000D02*
X27305000Y-52705000D01*
X26670000Y-15494000D02*
X26670000Y-17780000D01*
X26670000Y-17780000D02*
X27305000Y-18415000D01*
G04 #@! TO.N,/att_data*
X30480000Y-35560000D02*
X30480000Y-40640000D01*
X27940000Y-33020000D02*
X30480000Y-35560000D01*
X27940000Y-16891000D02*
X27940000Y-33020000D01*
X27940000Y-16891000D02*
X27940000Y-13716000D01*
G04 #@! TO.N,/att_clk*
X31179999Y-45020001D02*
X30480000Y-45720000D01*
X30480000Y-16510000D02*
X28575000Y-18415000D01*
X30480000Y-13716000D02*
X30480000Y-16510000D01*
X28575000Y-18415000D02*
X28575000Y-31750000D01*
X28575000Y-31750000D02*
X31750000Y-34925000D01*
X31750000Y-34925000D02*
X31750000Y-44450000D01*
X31750000Y-44450000D02*
X31179999Y-45020001D01*
G04 #@! TO.N,Net-(A1-Pad27)*
X35560000Y-31750000D02*
X32385000Y-34925000D01*
X32385000Y-51435000D02*
X31329999Y-52490001D01*
X31329999Y-52490001D02*
X30480000Y-53340000D01*
X32385000Y-34925000D02*
X32385000Y-51435000D01*
G04 #@! TO.N,Net-(A1-Pad17)*
X34428630Y-57150000D02*
X35560000Y-57150000D01*
X28106000Y-57150000D02*
X34428630Y-57150000D01*
X25400000Y-54444000D02*
X28106000Y-57150000D01*
X25400000Y-53340000D02*
X25400000Y-54444000D01*
G04 #@! TD*
M02*
