G04 #@! TF.GenerationSoftware,KiCad,Pcbnew,(5.0.1)-3*
G04 #@! TF.CreationDate,2018-11-17T19:39:42-08:00*
G04 #@! TF.ProjectId,programmer,70726F6772616D6D65722E6B69636164,rev?*
G04 #@! TF.SameCoordinates,Original*
G04 #@! TF.FileFunction,Legend,Top*
G04 #@! TF.FilePolarity,Positive*
%FSLAX46Y46*%
G04 Gerber Fmt 4.6, Leading zero omitted, Abs format (unit mm)*
G04 Created by KiCad (PCBNEW (5.0.1)-3) date 11/17/2018 7:39:42 PM*
%MOMM*%
%LPD*%
G01*
G04 APERTURE LIST*
%ADD10C,0.114300*%
%ADD11C,0.120000*%
%ADD12C,0.152400*%
G04 APERTURE END LIST*
D10*
X103559428Y-115189000D02*
X103486857Y-115152714D01*
X103378000Y-115152714D01*
X103269142Y-115189000D01*
X103196571Y-115261571D01*
X103160285Y-115334142D01*
X103124000Y-115479285D01*
X103124000Y-115588142D01*
X103160285Y-115733285D01*
X103196571Y-115805857D01*
X103269142Y-115878428D01*
X103378000Y-115914714D01*
X103450571Y-115914714D01*
X103559428Y-115878428D01*
X103595714Y-115842142D01*
X103595714Y-115588142D01*
X103450571Y-115588142D01*
X103922285Y-115914714D02*
X103922285Y-115152714D01*
X104357714Y-115914714D01*
X104357714Y-115152714D01*
X104720571Y-115914714D02*
X104720571Y-115152714D01*
X104902000Y-115152714D01*
X105010857Y-115189000D01*
X105083428Y-115261571D01*
X105119714Y-115334142D01*
X105156000Y-115479285D01*
X105156000Y-115588142D01*
X105119714Y-115733285D01*
X105083428Y-115805857D01*
X105010857Y-115878428D01*
X104902000Y-115914714D01*
X104720571Y-115914714D01*
X100275571Y-115914714D02*
X100275571Y-115152714D01*
X100529571Y-115697000D01*
X100783571Y-115152714D01*
X100783571Y-115914714D01*
X101291571Y-115152714D02*
X101436714Y-115152714D01*
X101509285Y-115189000D01*
X101581857Y-115261571D01*
X101618142Y-115406714D01*
X101618142Y-115660714D01*
X101581857Y-115805857D01*
X101509285Y-115878428D01*
X101436714Y-115914714D01*
X101291571Y-115914714D01*
X101219000Y-115878428D01*
X101146428Y-115805857D01*
X101110142Y-115660714D01*
X101110142Y-115406714D01*
X101146428Y-115261571D01*
X101219000Y-115189000D01*
X101291571Y-115152714D01*
X101908428Y-115878428D02*
X102017285Y-115914714D01*
X102198714Y-115914714D01*
X102271285Y-115878428D01*
X102307571Y-115842142D01*
X102343857Y-115769571D01*
X102343857Y-115697000D01*
X102307571Y-115624428D01*
X102271285Y-115588142D01*
X102198714Y-115551857D01*
X102053571Y-115515571D01*
X101981000Y-115479285D01*
X101944714Y-115443000D01*
X101908428Y-115370428D01*
X101908428Y-115297857D01*
X101944714Y-115225285D01*
X101981000Y-115189000D01*
X102053571Y-115152714D01*
X102235000Y-115152714D01*
X102343857Y-115189000D01*
X102670428Y-115914714D02*
X102670428Y-115152714D01*
X98207285Y-115152714D02*
X98461285Y-115914714D01*
X98715285Y-115152714D01*
X98969285Y-115624428D02*
X99549857Y-115624428D01*
X99259571Y-115914714D02*
X99259571Y-115334142D01*
X103722714Y-122264714D02*
X103468714Y-121901857D01*
X103287285Y-122264714D02*
X103287285Y-121502714D01*
X103577571Y-121502714D01*
X103650142Y-121539000D01*
X103686428Y-121575285D01*
X103722714Y-121647857D01*
X103722714Y-121756714D01*
X103686428Y-121829285D01*
X103650142Y-121865571D01*
X103577571Y-121901857D01*
X103287285Y-121901857D01*
X104013000Y-122228428D02*
X104121857Y-122264714D01*
X104303285Y-122264714D01*
X104375857Y-122228428D01*
X104412142Y-122192142D01*
X104448428Y-122119571D01*
X104448428Y-122047000D01*
X104412142Y-121974428D01*
X104375857Y-121938142D01*
X104303285Y-121901857D01*
X104158142Y-121865571D01*
X104085571Y-121829285D01*
X104049285Y-121793000D01*
X104013000Y-121720428D01*
X104013000Y-121647857D01*
X104049285Y-121575285D01*
X104085571Y-121539000D01*
X104158142Y-121502714D01*
X104339571Y-121502714D01*
X104448428Y-121539000D01*
X104666142Y-121502714D02*
X105101571Y-121502714D01*
X104883857Y-122264714D02*
X104883857Y-121502714D01*
X101146428Y-122192142D02*
X101110142Y-122228428D01*
X101001285Y-122264714D01*
X100928714Y-122264714D01*
X100819857Y-122228428D01*
X100747285Y-122155857D01*
X100711000Y-122083285D01*
X100674714Y-121938142D01*
X100674714Y-121829285D01*
X100711000Y-121684142D01*
X100747285Y-121611571D01*
X100819857Y-121539000D01*
X100928714Y-121502714D01*
X101001285Y-121502714D01*
X101110142Y-121539000D01*
X101146428Y-121575285D01*
X101835857Y-122264714D02*
X101473000Y-122264714D01*
X101473000Y-121502714D01*
X102089857Y-122264714D02*
X102089857Y-121502714D01*
X102525285Y-122264714D02*
X102198714Y-121829285D01*
X102525285Y-121502714D02*
X102089857Y-121938142D01*
X97735571Y-122264714D02*
X97735571Y-121502714D01*
X97989571Y-122047000D01*
X98243571Y-121502714D01*
X98243571Y-122264714D01*
X98606428Y-122264714D02*
X98606428Y-121502714D01*
X98933000Y-122228428D02*
X99041857Y-122264714D01*
X99223285Y-122264714D01*
X99295857Y-122228428D01*
X99332142Y-122192142D01*
X99368428Y-122119571D01*
X99368428Y-122047000D01*
X99332142Y-121974428D01*
X99295857Y-121938142D01*
X99223285Y-121901857D01*
X99078142Y-121865571D01*
X99005571Y-121829285D01*
X98969285Y-121793000D01*
X98933000Y-121720428D01*
X98933000Y-121647857D01*
X98969285Y-121575285D01*
X99005571Y-121539000D01*
X99078142Y-121502714D01*
X99259571Y-121502714D01*
X99368428Y-121539000D01*
X99840142Y-121502714D02*
X99985285Y-121502714D01*
X100057857Y-121539000D01*
X100130428Y-121611571D01*
X100166714Y-121756714D01*
X100166714Y-122010714D01*
X100130428Y-122155857D01*
X100057857Y-122228428D01*
X99985285Y-122264714D01*
X99840142Y-122264714D01*
X99767571Y-122228428D01*
X99695000Y-122155857D01*
X99658714Y-122010714D01*
X99658714Y-121756714D01*
X99695000Y-121611571D01*
X99767571Y-121539000D01*
X99840142Y-121502714D01*
D11*
G04 #@! TO.C,J1*
X97730000Y-121345000D02*
X97730000Y-120015000D01*
X99060000Y-121345000D02*
X97730000Y-121345000D01*
X100330000Y-118745000D02*
X100330000Y-121345000D01*
X97730000Y-118745000D02*
X100330000Y-118745000D01*
X97730000Y-116145000D02*
X97730000Y-118745000D01*
X105470000Y-116145000D02*
X97730000Y-116145000D01*
X105470000Y-121345000D02*
X105470000Y-116145000D01*
X100330000Y-121345000D02*
X105470000Y-121345000D01*
G04 #@! TO.C,R1*
D12*
X97734842Y-111469714D02*
X97480842Y-111106857D01*
X97299413Y-111469714D02*
X97299413Y-110707714D01*
X97589699Y-110707714D01*
X97662270Y-110744000D01*
X97698556Y-110780285D01*
X97734842Y-110852857D01*
X97734842Y-110961714D01*
X97698556Y-111034285D01*
X97662270Y-111070571D01*
X97589699Y-111106857D01*
X97299413Y-111106857D01*
X98460556Y-111469714D02*
X98025127Y-111469714D01*
X98242842Y-111469714D02*
X98242842Y-110707714D01*
X98170270Y-110816571D01*
X98097699Y-110889142D01*
X98025127Y-110925428D01*
G04 #@! TO.C,R2*
X100274842Y-111469714D02*
X100020842Y-111106857D01*
X99839413Y-111469714D02*
X99839413Y-110707714D01*
X100129699Y-110707714D01*
X100202270Y-110744000D01*
X100238556Y-110780285D01*
X100274842Y-110852857D01*
X100274842Y-110961714D01*
X100238556Y-111034285D01*
X100202270Y-111070571D01*
X100129699Y-111106857D01*
X99839413Y-111106857D01*
X100565127Y-110780285D02*
X100601413Y-110744000D01*
X100673984Y-110707714D01*
X100855413Y-110707714D01*
X100927984Y-110744000D01*
X100964270Y-110780285D01*
X101000556Y-110852857D01*
X101000556Y-110925428D01*
X100964270Y-111034285D01*
X100528842Y-111469714D01*
X101000556Y-111469714D01*
G04 #@! TO.C,R3*
X102814842Y-111469714D02*
X102560842Y-111106857D01*
X102379413Y-111469714D02*
X102379413Y-110707714D01*
X102669699Y-110707714D01*
X102742270Y-110744000D01*
X102778556Y-110780285D01*
X102814842Y-110852857D01*
X102814842Y-110961714D01*
X102778556Y-111034285D01*
X102742270Y-111070571D01*
X102669699Y-111106857D01*
X102379413Y-111106857D01*
X103068842Y-110707714D02*
X103540556Y-110707714D01*
X103286556Y-110998000D01*
X103395413Y-110998000D01*
X103467984Y-111034285D01*
X103504270Y-111070571D01*
X103540556Y-111143142D01*
X103540556Y-111324571D01*
X103504270Y-111397142D01*
X103467984Y-111433428D01*
X103395413Y-111469714D01*
X103177699Y-111469714D01*
X103105127Y-111433428D01*
X103068842Y-111397142D01*
G04 #@! TO.C,R4*
X105354842Y-111469714D02*
X105100842Y-111106857D01*
X104919413Y-111469714D02*
X104919413Y-110707714D01*
X105209699Y-110707714D01*
X105282270Y-110744000D01*
X105318556Y-110780285D01*
X105354842Y-110852857D01*
X105354842Y-110961714D01*
X105318556Y-111034285D01*
X105282270Y-111070571D01*
X105209699Y-111106857D01*
X104919413Y-111106857D01*
X106007984Y-110961714D02*
X106007984Y-111469714D01*
X105826556Y-110671428D02*
X105645127Y-111215714D01*
X106116842Y-111215714D01*
G04 #@! TD*
M02*
