G04 #@! TF.GenerationSoftware,KiCad,Pcbnew,(5.0.1)-3*
G04 #@! TF.CreationDate,2018-11-02T14:03:20-07:00*
G04 #@! TF.ProjectId,programmer,70726F6772616D6D65722E6B69636164,rev?*
G04 #@! TF.SameCoordinates,Original*
G04 #@! TF.FileFunction,Soldermask,Bot*
G04 #@! TF.FilePolarity,Negative*
%FSLAX46Y46*%
G04 Gerber Fmt 4.6, Leading zero omitted, Abs format (unit mm)*
G04 Created by KiCad (PCBNEW (5.0.1)-3) date 11/2/2018 2:03:20 PM*
%MOMM*%
%LPD*%
G01*
G04 APERTURE LIST*
%ADD10C,0.304800*%
G04 APERTURE END LIST*
D10*
G36*
X99960800Y-120915800D02*
X98159200Y-120915800D01*
X98159200Y-119114200D01*
X99960800Y-119114200D01*
X99960800Y-120915800D01*
X99960800Y-120915800D01*
G37*
G36*
X104228362Y-119118545D02*
X104316588Y-119127234D01*
X104429789Y-119161573D01*
X104486390Y-119178743D01*
X104624980Y-119252822D01*
X104642879Y-119262389D01*
X104678609Y-119291712D01*
X104780044Y-119374956D01*
X104863288Y-119476391D01*
X104892611Y-119512121D01*
X104892612Y-119512123D01*
X104976257Y-119668610D01*
X104976257Y-119668611D01*
X105027766Y-119838412D01*
X105045158Y-120015000D01*
X105027766Y-120191588D01*
X104993427Y-120304789D01*
X104976257Y-120361390D01*
X104902178Y-120499980D01*
X104892611Y-120517879D01*
X104863288Y-120553609D01*
X104780044Y-120655044D01*
X104678609Y-120738288D01*
X104642879Y-120767611D01*
X104642877Y-120767612D01*
X104486390Y-120851257D01*
X104429789Y-120868427D01*
X104316588Y-120902766D01*
X104228362Y-120911455D01*
X104184250Y-120915800D01*
X104095750Y-120915800D01*
X104051638Y-120911455D01*
X103963412Y-120902766D01*
X103850211Y-120868427D01*
X103793610Y-120851257D01*
X103637123Y-120767612D01*
X103637121Y-120767611D01*
X103601391Y-120738288D01*
X103499956Y-120655044D01*
X103416712Y-120553609D01*
X103387389Y-120517879D01*
X103377822Y-120499980D01*
X103303743Y-120361390D01*
X103286573Y-120304789D01*
X103252234Y-120191588D01*
X103234842Y-120015000D01*
X103252234Y-119838412D01*
X103303743Y-119668611D01*
X103303743Y-119668610D01*
X103387388Y-119512123D01*
X103387389Y-119512121D01*
X103416712Y-119476391D01*
X103499956Y-119374956D01*
X103601391Y-119291712D01*
X103637121Y-119262389D01*
X103655020Y-119252822D01*
X103793610Y-119178743D01*
X103850211Y-119161573D01*
X103963412Y-119127234D01*
X104051638Y-119118545D01*
X104095750Y-119114200D01*
X104184250Y-119114200D01*
X104228362Y-119118545D01*
X104228362Y-119118545D01*
G37*
G36*
X101688362Y-119118545D02*
X101776588Y-119127234D01*
X101889789Y-119161573D01*
X101946390Y-119178743D01*
X102084980Y-119252822D01*
X102102879Y-119262389D01*
X102138609Y-119291712D01*
X102240044Y-119374956D01*
X102323288Y-119476391D01*
X102352611Y-119512121D01*
X102352612Y-119512123D01*
X102436257Y-119668610D01*
X102436257Y-119668611D01*
X102487766Y-119838412D01*
X102505158Y-120015000D01*
X102487766Y-120191588D01*
X102453427Y-120304789D01*
X102436257Y-120361390D01*
X102362178Y-120499980D01*
X102352611Y-120517879D01*
X102323288Y-120553609D01*
X102240044Y-120655044D01*
X102138609Y-120738288D01*
X102102879Y-120767611D01*
X102102877Y-120767612D01*
X101946390Y-120851257D01*
X101889789Y-120868427D01*
X101776588Y-120902766D01*
X101688362Y-120911455D01*
X101644250Y-120915800D01*
X101555750Y-120915800D01*
X101511638Y-120911455D01*
X101423412Y-120902766D01*
X101310211Y-120868427D01*
X101253610Y-120851257D01*
X101097123Y-120767612D01*
X101097121Y-120767611D01*
X101061391Y-120738288D01*
X100959956Y-120655044D01*
X100876712Y-120553609D01*
X100847389Y-120517879D01*
X100837822Y-120499980D01*
X100763743Y-120361390D01*
X100746573Y-120304789D01*
X100712234Y-120191588D01*
X100694842Y-120015000D01*
X100712234Y-119838412D01*
X100763743Y-119668611D01*
X100763743Y-119668610D01*
X100847388Y-119512123D01*
X100847389Y-119512121D01*
X100876712Y-119476391D01*
X100959956Y-119374956D01*
X101061391Y-119291712D01*
X101097121Y-119262389D01*
X101115020Y-119252822D01*
X101253610Y-119178743D01*
X101310211Y-119161573D01*
X101423412Y-119127234D01*
X101511638Y-119118545D01*
X101555750Y-119114200D01*
X101644250Y-119114200D01*
X101688362Y-119118545D01*
X101688362Y-119118545D01*
G37*
G36*
X104228362Y-116578545D02*
X104316588Y-116587234D01*
X104429789Y-116621573D01*
X104486390Y-116638743D01*
X104624980Y-116712822D01*
X104642879Y-116722389D01*
X104678609Y-116751712D01*
X104780044Y-116834956D01*
X104863288Y-116936391D01*
X104892611Y-116972121D01*
X104892612Y-116972123D01*
X104976257Y-117128610D01*
X104976257Y-117128611D01*
X105027766Y-117298412D01*
X105045158Y-117475000D01*
X105027766Y-117651588D01*
X104993427Y-117764789D01*
X104976257Y-117821390D01*
X104902178Y-117959980D01*
X104892611Y-117977879D01*
X104863288Y-118013609D01*
X104780044Y-118115044D01*
X104678609Y-118198288D01*
X104642879Y-118227611D01*
X104642877Y-118227612D01*
X104486390Y-118311257D01*
X104429789Y-118328427D01*
X104316588Y-118362766D01*
X104228362Y-118371455D01*
X104184250Y-118375800D01*
X104095750Y-118375800D01*
X104051638Y-118371455D01*
X103963412Y-118362766D01*
X103850211Y-118328427D01*
X103793610Y-118311257D01*
X103637123Y-118227612D01*
X103637121Y-118227611D01*
X103601391Y-118198288D01*
X103499956Y-118115044D01*
X103416712Y-118013609D01*
X103387389Y-117977879D01*
X103377822Y-117959980D01*
X103303743Y-117821390D01*
X103286573Y-117764789D01*
X103252234Y-117651588D01*
X103234842Y-117475000D01*
X103252234Y-117298412D01*
X103303743Y-117128611D01*
X103303743Y-117128610D01*
X103387388Y-116972123D01*
X103387389Y-116972121D01*
X103416712Y-116936391D01*
X103499956Y-116834956D01*
X103601391Y-116751712D01*
X103637121Y-116722389D01*
X103655020Y-116712822D01*
X103793610Y-116638743D01*
X103850211Y-116621573D01*
X103963412Y-116587234D01*
X104051638Y-116578545D01*
X104095750Y-116574200D01*
X104184250Y-116574200D01*
X104228362Y-116578545D01*
X104228362Y-116578545D01*
G37*
G36*
X99148362Y-116578545D02*
X99236588Y-116587234D01*
X99349789Y-116621573D01*
X99406390Y-116638743D01*
X99544980Y-116712822D01*
X99562879Y-116722389D01*
X99598609Y-116751712D01*
X99700044Y-116834956D01*
X99783288Y-116936391D01*
X99812611Y-116972121D01*
X99812612Y-116972123D01*
X99896257Y-117128610D01*
X99896257Y-117128611D01*
X99947766Y-117298412D01*
X99965158Y-117475000D01*
X99947766Y-117651588D01*
X99913427Y-117764789D01*
X99896257Y-117821390D01*
X99822178Y-117959980D01*
X99812611Y-117977879D01*
X99783288Y-118013609D01*
X99700044Y-118115044D01*
X99598609Y-118198288D01*
X99562879Y-118227611D01*
X99562877Y-118227612D01*
X99406390Y-118311257D01*
X99349789Y-118328427D01*
X99236588Y-118362766D01*
X99148362Y-118371455D01*
X99104250Y-118375800D01*
X99015750Y-118375800D01*
X98971638Y-118371455D01*
X98883412Y-118362766D01*
X98770211Y-118328427D01*
X98713610Y-118311257D01*
X98557123Y-118227612D01*
X98557121Y-118227611D01*
X98521391Y-118198288D01*
X98419956Y-118115044D01*
X98336712Y-118013609D01*
X98307389Y-117977879D01*
X98297822Y-117959980D01*
X98223743Y-117821390D01*
X98206573Y-117764789D01*
X98172234Y-117651588D01*
X98154842Y-117475000D01*
X98172234Y-117298412D01*
X98223743Y-117128611D01*
X98223743Y-117128610D01*
X98307388Y-116972123D01*
X98307389Y-116972121D01*
X98336712Y-116936391D01*
X98419956Y-116834956D01*
X98521391Y-116751712D01*
X98557121Y-116722389D01*
X98575020Y-116712822D01*
X98713610Y-116638743D01*
X98770211Y-116621573D01*
X98883412Y-116587234D01*
X98971638Y-116578545D01*
X99015750Y-116574200D01*
X99104250Y-116574200D01*
X99148362Y-116578545D01*
X99148362Y-116578545D01*
G37*
G36*
X101688362Y-116578545D02*
X101776588Y-116587234D01*
X101889789Y-116621573D01*
X101946390Y-116638743D01*
X102084980Y-116712822D01*
X102102879Y-116722389D01*
X102138609Y-116751712D01*
X102240044Y-116834956D01*
X102323288Y-116936391D01*
X102352611Y-116972121D01*
X102352612Y-116972123D01*
X102436257Y-117128610D01*
X102436257Y-117128611D01*
X102487766Y-117298412D01*
X102505158Y-117475000D01*
X102487766Y-117651588D01*
X102453427Y-117764789D01*
X102436257Y-117821390D01*
X102362178Y-117959980D01*
X102352611Y-117977879D01*
X102323288Y-118013609D01*
X102240044Y-118115044D01*
X102138609Y-118198288D01*
X102102879Y-118227611D01*
X102102877Y-118227612D01*
X101946390Y-118311257D01*
X101889789Y-118328427D01*
X101776588Y-118362766D01*
X101688362Y-118371455D01*
X101644250Y-118375800D01*
X101555750Y-118375800D01*
X101511638Y-118371455D01*
X101423412Y-118362766D01*
X101310211Y-118328427D01*
X101253610Y-118311257D01*
X101097123Y-118227612D01*
X101097121Y-118227611D01*
X101061391Y-118198288D01*
X100959956Y-118115044D01*
X100876712Y-118013609D01*
X100847389Y-117977879D01*
X100837822Y-117959980D01*
X100763743Y-117821390D01*
X100746573Y-117764789D01*
X100712234Y-117651588D01*
X100694842Y-117475000D01*
X100712234Y-117298412D01*
X100763743Y-117128611D01*
X100763743Y-117128610D01*
X100847388Y-116972123D01*
X100847389Y-116972121D01*
X100876712Y-116936391D01*
X100959956Y-116834956D01*
X101061391Y-116751712D01*
X101097121Y-116722389D01*
X101115020Y-116712822D01*
X101253610Y-116638743D01*
X101310211Y-116621573D01*
X101423412Y-116587234D01*
X101511638Y-116578545D01*
X101555750Y-116574200D01*
X101644250Y-116574200D01*
X101688362Y-116578545D01*
X101688362Y-116578545D01*
G37*
G36*
X101904800Y-108000800D02*
X101295200Y-108000800D01*
X101295200Y-104597200D01*
X101904800Y-104597200D01*
X101904800Y-108000800D01*
X101904800Y-108000800D01*
G37*
G36*
X104444800Y-108000800D02*
X103835200Y-108000800D01*
X103835200Y-104597200D01*
X104444800Y-104597200D01*
X104444800Y-108000800D01*
X104444800Y-108000800D01*
G37*
G36*
X103174800Y-108000800D02*
X102565200Y-108000800D01*
X102565200Y-104597200D01*
X103174800Y-104597200D01*
X103174800Y-108000800D01*
X103174800Y-108000800D01*
G37*
G36*
X100634800Y-108000800D02*
X100025200Y-108000800D01*
X100025200Y-104597200D01*
X100634800Y-104597200D01*
X100634800Y-108000800D01*
X100634800Y-108000800D01*
G37*
G36*
X99364800Y-108000800D02*
X98755200Y-108000800D01*
X98755200Y-104597200D01*
X99364800Y-104597200D01*
X99364800Y-108000800D01*
X99364800Y-108000800D01*
G37*
G36*
X104377085Y-100564435D02*
X104525004Y-100625705D01*
X104658133Y-100714659D01*
X104771341Y-100827867D01*
X104860295Y-100960996D01*
X104921565Y-101108915D01*
X104952800Y-101265945D01*
X104952800Y-101426055D01*
X104921565Y-101583085D01*
X104860295Y-101731004D01*
X104771341Y-101864133D01*
X104658133Y-101977341D01*
X104525004Y-102066295D01*
X104377085Y-102127565D01*
X104220055Y-102158800D01*
X104059945Y-102158800D01*
X103902915Y-102127565D01*
X103754996Y-102066295D01*
X103621867Y-101977341D01*
X103508659Y-101864133D01*
X103419705Y-101731004D01*
X103358435Y-101583085D01*
X103327200Y-101426055D01*
X103327200Y-101265945D01*
X103358435Y-101108915D01*
X103419705Y-100960996D01*
X103508659Y-100827867D01*
X103621867Y-100714659D01*
X103754996Y-100625705D01*
X103902915Y-100564435D01*
X104059945Y-100533200D01*
X104220055Y-100533200D01*
X104377085Y-100564435D01*
X104377085Y-100564435D01*
G37*
G36*
X101837085Y-100564435D02*
X101985004Y-100625705D01*
X102118133Y-100714659D01*
X102231341Y-100827867D01*
X102320295Y-100960996D01*
X102381565Y-101108915D01*
X102412800Y-101265945D01*
X102412800Y-101426055D01*
X102381565Y-101583085D01*
X102320295Y-101731004D01*
X102231341Y-101864133D01*
X102118133Y-101977341D01*
X101985004Y-102066295D01*
X101837085Y-102127565D01*
X101680055Y-102158800D01*
X101519945Y-102158800D01*
X101362915Y-102127565D01*
X101214996Y-102066295D01*
X101081867Y-101977341D01*
X100968659Y-101864133D01*
X100879705Y-101731004D01*
X100818435Y-101583085D01*
X100787200Y-101426055D01*
X100787200Y-101265945D01*
X100818435Y-101108915D01*
X100879705Y-100960996D01*
X100968659Y-100827867D01*
X101081867Y-100714659D01*
X101214996Y-100625705D01*
X101362915Y-100564435D01*
X101519945Y-100533200D01*
X101680055Y-100533200D01*
X101837085Y-100564435D01*
X101837085Y-100564435D01*
G37*
G36*
X99297085Y-100564435D02*
X99445004Y-100625705D01*
X99578133Y-100714659D01*
X99691341Y-100827867D01*
X99780295Y-100960996D01*
X99841565Y-101108915D01*
X99872800Y-101265945D01*
X99872800Y-101426055D01*
X99841565Y-101583085D01*
X99780295Y-101731004D01*
X99691341Y-101864133D01*
X99578133Y-101977341D01*
X99445004Y-102066295D01*
X99297085Y-102127565D01*
X99140055Y-102158800D01*
X98979945Y-102158800D01*
X98822915Y-102127565D01*
X98674996Y-102066295D01*
X98541867Y-101977341D01*
X98428659Y-101864133D01*
X98339705Y-101731004D01*
X98278435Y-101583085D01*
X98247200Y-101426055D01*
X98247200Y-101265945D01*
X98278435Y-101108915D01*
X98339705Y-100960996D01*
X98428659Y-100827867D01*
X98541867Y-100714659D01*
X98674996Y-100625705D01*
X98822915Y-100564435D01*
X98979945Y-100533200D01*
X99140055Y-100533200D01*
X99297085Y-100564435D01*
X99297085Y-100564435D01*
G37*
G36*
X99297085Y-98278435D02*
X99445004Y-98339705D01*
X99578133Y-98428659D01*
X99691341Y-98541867D01*
X99780295Y-98674996D01*
X99841565Y-98822915D01*
X99872800Y-98979945D01*
X99872800Y-99140055D01*
X99841565Y-99297085D01*
X99780295Y-99445004D01*
X99691341Y-99578133D01*
X99578133Y-99691341D01*
X99445004Y-99780295D01*
X99297085Y-99841565D01*
X99140055Y-99872800D01*
X98979945Y-99872800D01*
X98822915Y-99841565D01*
X98674996Y-99780295D01*
X98541867Y-99691341D01*
X98428659Y-99578133D01*
X98339705Y-99445004D01*
X98278435Y-99297085D01*
X98247200Y-99140055D01*
X98247200Y-98979945D01*
X98278435Y-98822915D01*
X98339705Y-98674996D01*
X98428659Y-98541867D01*
X98541867Y-98428659D01*
X98674996Y-98339705D01*
X98822915Y-98278435D01*
X98979945Y-98247200D01*
X99140055Y-98247200D01*
X99297085Y-98278435D01*
X99297085Y-98278435D01*
G37*
G36*
X101837085Y-98278435D02*
X101985004Y-98339705D01*
X102118133Y-98428659D01*
X102231341Y-98541867D01*
X102320295Y-98674996D01*
X102381565Y-98822915D01*
X102412800Y-98979945D01*
X102412800Y-99140055D01*
X102381565Y-99297085D01*
X102320295Y-99445004D01*
X102231341Y-99578133D01*
X102118133Y-99691341D01*
X101985004Y-99780295D01*
X101837085Y-99841565D01*
X101680055Y-99872800D01*
X101519945Y-99872800D01*
X101362915Y-99841565D01*
X101214996Y-99780295D01*
X101081867Y-99691341D01*
X100968659Y-99578133D01*
X100879705Y-99445004D01*
X100818435Y-99297085D01*
X100787200Y-99140055D01*
X100787200Y-98979945D01*
X100818435Y-98822915D01*
X100879705Y-98674996D01*
X100968659Y-98541867D01*
X101081867Y-98428659D01*
X101214996Y-98339705D01*
X101362915Y-98278435D01*
X101519945Y-98247200D01*
X101680055Y-98247200D01*
X101837085Y-98278435D01*
X101837085Y-98278435D01*
G37*
G36*
X104377085Y-98278435D02*
X104525004Y-98339705D01*
X104658133Y-98428659D01*
X104771341Y-98541867D01*
X104860295Y-98674996D01*
X104921565Y-98822915D01*
X104952800Y-98979945D01*
X104952800Y-99140055D01*
X104921565Y-99297085D01*
X104860295Y-99445004D01*
X104771341Y-99578133D01*
X104658133Y-99691341D01*
X104525004Y-99780295D01*
X104377085Y-99841565D01*
X104220055Y-99872800D01*
X104059945Y-99872800D01*
X103902915Y-99841565D01*
X103754996Y-99780295D01*
X103621867Y-99691341D01*
X103508659Y-99578133D01*
X103419705Y-99445004D01*
X103358435Y-99297085D01*
X103327200Y-99140055D01*
X103327200Y-98979945D01*
X103358435Y-98822915D01*
X103419705Y-98674996D01*
X103508659Y-98541867D01*
X103621867Y-98428659D01*
X103754996Y-98339705D01*
X103902915Y-98278435D01*
X104059945Y-98247200D01*
X104220055Y-98247200D01*
X104377085Y-98278435D01*
X104377085Y-98278435D01*
G37*
M02*
