M48
;DRILL file {KiCad (5.0.2)-1} date 4/8/2019 9:31:48 PM
;FORMAT={-:-/ absolute / inch / decimal}
FMAT,2
INCH,TZ
T1C0.0160
T2C0.0394
T3C0.0551
T4C0.1181
%
G90
G05
T1
X4.77Y-4.76
X4.78Y-4.58
X4.93Y-4.63
X5.07Y-4.63
X5.225Y-4.58
X5.23Y-4.76
T2
X4.9Y-4.725
X4.9Y-4.825
X5.Y-4.725
X5.Y-4.825
X5.1Y-4.725
X5.1Y-4.825
X4.9Y-5.175
X4.9Y-5.275
X5.Y-5.175
X5.Y-5.275
X5.1Y-5.175
X5.1Y-5.275
T3
X5.145Y-5.385
X4.855Y-5.385
X5.15Y-4.525
X4.85Y-4.525
T4
X4.625Y-5.
X5.375Y-5.
X5.Y-5.
T0
M30
