G04 #@! TF.GenerationSoftware,KiCad,Pcbnew,(5.0.2)-1*
G04 #@! TF.CreationDate,2019-04-26T23:25:01-07:00*
G04 #@! TF.ProjectId,programmer,70726f67-7261-46d6-9d65-722e6b696361,rev?*
G04 #@! TF.SameCoordinates,Original*
G04 #@! TF.FileFunction,Copper,L1,Top*
G04 #@! TF.FilePolarity,Positive*
%FSLAX46Y46*%
G04 Gerber Fmt 4.6, Leading zero omitted, Abs format (unit mm)*
G04 Created by KiCad (PCBNEW (5.0.2)-1) date 4/26/2019 11:25:01 PM*
%MOMM*%
%LPD*%
G01*
G04 APERTURE LIST*
G04 #@! TA.AperFunction,ComponentPad*
%ADD10O,1.524000X1.524000*%
G04 #@! TD*
G04 #@! TA.AperFunction,ComponentPad*
%ADD11O,1.600000X1.600000*%
G04 #@! TD*
G04 #@! TA.AperFunction,ComponentPad*
%ADD12R,1.600000X1.600000*%
G04 #@! TD*
G04 #@! TA.AperFunction,ComponentPad*
%ADD13O,1.400000X1.400000*%
G04 #@! TD*
G04 #@! TA.AperFunction,ComponentPad*
%ADD14C,1.400000*%
G04 #@! TD*
G04 #@! TA.AperFunction,Conductor*
%ADD15C,0.254000*%
G04 #@! TD*
G04 APERTURE END LIST*
D10*
G04 #@! TO.P,J2,1*
G04 #@! TO.N,/att_reset*
X25400000Y-13893800D03*
G04 #@! TO.P,J2,2*
G04 #@! TO.N,/pwr*
X26670000Y-15443200D03*
G04 #@! TO.P,J2,3*
G04 #@! TO.N,/att_data*
X27940000Y-13893800D03*
G04 #@! TO.P,J2,4*
G04 #@! TO.N,GNDREF*
X29210000Y-15443200D03*
G04 #@! TO.P,J2,5*
G04 #@! TO.N,/att_clk*
X30480000Y-13893800D03*
G04 #@! TD*
D11*
G04 #@! TO.P,A1,16*
G04 #@! TO.N,/prog_clk*
X35560000Y-59690000D03*
G04 #@! TO.P,A1,15*
G04 #@! TO.N,/prog_mosi*
X20320000Y-59690000D03*
G04 #@! TO.P,A1,30*
G04 #@! TO.N,N/C*
X35560000Y-24130000D03*
G04 #@! TO.P,A1,14*
G04 #@! TO.N,/prog_miso*
X20320000Y-57150000D03*
G04 #@! TO.P,A1,29*
G04 #@! TO.N,GNDREF*
X35560000Y-26670000D03*
G04 #@! TO.P,A1,13*
G04 #@! TO.N,/prog_reset*
X20320000Y-54610000D03*
G04 #@! TO.P,A1,28*
G04 #@! TO.N,N/C*
X35560000Y-29210000D03*
G04 #@! TO.P,A1,12*
X20320000Y-52070000D03*
G04 #@! TO.P,A1,27*
G04 #@! TO.N,/pwr*
X35560000Y-31750000D03*
G04 #@! TO.P,A1,11*
G04 #@! TO.N,N/C*
X20320000Y-49530000D03*
G04 #@! TO.P,A1,26*
X35560000Y-34290000D03*
G04 #@! TO.P,A1,10*
X20320000Y-46990000D03*
G04 #@! TO.P,A1,25*
X35560000Y-36830000D03*
G04 #@! TO.P,A1,9*
X20320000Y-44450000D03*
G04 #@! TO.P,A1,24*
X35560000Y-39370000D03*
G04 #@! TO.P,A1,8*
X20320000Y-41910000D03*
G04 #@! TO.P,A1,23*
X35560000Y-41910000D03*
G04 #@! TO.P,A1,7*
X20320000Y-39370000D03*
G04 #@! TO.P,A1,22*
X35560000Y-44450000D03*
G04 #@! TO.P,A1,6*
X20320000Y-36830000D03*
G04 #@! TO.P,A1,21*
X35560000Y-46990000D03*
G04 #@! TO.P,A1,5*
X20320000Y-34290000D03*
G04 #@! TO.P,A1,20*
X35560000Y-49530000D03*
G04 #@! TO.P,A1,4*
G04 #@! TO.N,GNDREF*
X20320000Y-31750000D03*
G04 #@! TO.P,A1,19*
G04 #@! TO.N,N/C*
X35560000Y-52070000D03*
G04 #@! TO.P,A1,3*
X20320000Y-29210000D03*
G04 #@! TO.P,A1,18*
X35560000Y-54610000D03*
G04 #@! TO.P,A1,2*
X20320000Y-26670000D03*
G04 #@! TO.P,A1,17*
G04 #@! TO.N,Net-(A1-Pad17)*
X35560000Y-57150000D03*
D12*
G04 #@! TO.P,A1,1*
G04 #@! TO.N,N/C*
X20320000Y-24130000D03*
G04 #@! TD*
D13*
G04 #@! TO.P,2k\03A9,2*
G04 #@! TO.N,/att_reset*
X25400000Y-30480000D03*
D14*
G04 #@! TO.P,2k\03A9,1*
G04 #@! TO.N,/prog_reset*
X30480000Y-30480000D03*
G04 #@! TD*
G04 #@! TO.P,2k\03A9,1*
G04 #@! TO.N,/prog_miso*
X25400000Y-35560000D03*
D13*
G04 #@! TO.P,2k\03A9,2*
G04 #@! TO.N,/att_data*
X30480000Y-35560000D03*
G04 #@! TD*
G04 #@! TO.P,2k\03A9,2*
G04 #@! TO.N,/att_data*
X30480000Y-40640000D03*
D14*
G04 #@! TO.P,2k\03A9,1*
G04 #@! TO.N,/prog_mosi*
X25400000Y-40640000D03*
G04 #@! TD*
G04 #@! TO.P,2k\03A9,1*
G04 #@! TO.N,/prog_clk*
X25400000Y-45720000D03*
D13*
G04 #@! TO.P,2k\03A9,2*
G04 #@! TO.N,/att_clk*
X30480000Y-45720000D03*
G04 #@! TD*
D15*
G04 #@! TO.N,/prog_reset*
X31179999Y-31179999D02*
X30480000Y-30480000D01*
X32512000Y-32512000D02*
X31179999Y-31179999D01*
X32512000Y-45720000D02*
X32512000Y-32512000D01*
X20320000Y-54610000D02*
X23622000Y-54610000D01*
X23622000Y-54610000D02*
X32512000Y-45720000D01*
G04 #@! TO.N,/att_data*
X30480000Y-35560000D02*
X30480000Y-40640000D01*
X30480000Y-35560000D02*
X27940000Y-33020000D01*
X27940000Y-14097000D02*
X27940000Y-33020000D01*
G04 #@! TO.N,/att_clk*
X31510201Y-43699850D02*
X31510201Y-34050201D01*
X30480000Y-45720000D02*
X30480000Y-44730051D01*
X30480000Y-44730051D02*
X31510201Y-43699850D01*
X29449799Y-31989799D02*
X29449799Y-26303201D01*
X31510201Y-34050201D02*
X29449799Y-31989799D01*
X29449799Y-26303201D02*
X30480000Y-25273000D01*
X30480000Y-25273000D02*
X30480000Y-14097000D01*
G04 #@! TD*
M02*
