G04 #@! TF.GenerationSoftware,KiCad,Pcbnew,(5.0.1)-3*
G04 #@! TF.CreationDate,2018-11-02T14:03:20-07:00*
G04 #@! TF.ProjectId,programmer,70726F6772616D6D65722E6B69636164,rev?*
G04 #@! TF.SameCoordinates,Original*
G04 #@! TF.FileFunction,Copper,L1,Top,Signal*
G04 #@! TF.FilePolarity,Positive*
%FSLAX46Y46*%
G04 Gerber Fmt 4.6, Leading zero omitted, Abs format (unit mm)*
G04 Created by KiCad (PCBNEW (5.0.1)-3) date 11/2/2018 2:03:20 PM*
%MOMM*%
%LPD*%
G01*
G04 APERTURE LIST*
G04 #@! TA.AperFunction,ComponentPad*
%ADD10O,1.700000X1.700000*%
G04 #@! TD*
G04 #@! TA.AperFunction,ComponentPad*
%ADD11R,1.700000X1.700000*%
G04 #@! TD*
G04 #@! TA.AperFunction,ComponentPad*
%ADD12C,1.524000*%
G04 #@! TD*
G04 #@! TA.AperFunction,SMDPad,CuDef*
%ADD13R,0.508000X3.302000*%
G04 #@! TD*
G04 #@! TA.AperFunction,SMDPad,CuDef*
%ADD14R,0.900000X1.200000*%
G04 #@! TD*
G04 #@! TA.AperFunction,ViaPad*
%ADD15C,0.609600*%
G04 #@! TD*
G04 #@! TA.AperFunction,Conductor*
%ADD16C,0.254000*%
G04 #@! TD*
G04 APERTURE END LIST*
D10*
G04 #@! TO.P,J1,6*
G04 #@! TO.N,GNDREF*
X104140000Y-117475000D03*
G04 #@! TO.P,J1,5*
G04 #@! TO.N,/prog_reset*
X104140000Y-120015000D03*
G04 #@! TO.P,J1,4*
G04 #@! TO.N,/prog_mosi*
X101600000Y-117475000D03*
G04 #@! TO.P,J1,3*
G04 #@! TO.N,/prog_clk*
X101600000Y-120015000D03*
G04 #@! TO.P,J1,2*
G04 #@! TO.N,/pwr*
X99060000Y-117475000D03*
D11*
G04 #@! TO.P,J1,1*
G04 #@! TO.N,/prog_miso*
X99060000Y-120015000D03*
G04 #@! TD*
D12*
G04 #@! TO.P,REF\002A\002A,*
G04 #@! TO.N,*
X104140000Y-101346000D03*
G04 #@! TD*
G04 #@! TO.P,REF\002A\002A,*
G04 #@! TO.N,*
X104140000Y-99060000D03*
G04 #@! TD*
G04 #@! TO.P,REF\002A\002A,*
G04 #@! TO.N,*
X101600000Y-99060000D03*
G04 #@! TD*
G04 #@! TO.P,REF\002A\002A,*
G04 #@! TO.N,*
X99060000Y-99060000D03*
G04 #@! TD*
G04 #@! TO.P,REF\002A\002A,*
G04 #@! TO.N,*
X101600000Y-101346000D03*
G04 #@! TD*
G04 #@! TO.P,REF\002A\002A,*
G04 #@! TO.N,*
X99060000Y-101346000D03*
G04 #@! TD*
D13*
G04 #@! TO.P,J2,1*
G04 #@! TO.N,/att_reset*
X99060000Y-106299000D03*
G04 #@! TO.P,J2,2*
G04 #@! TO.N,/pwr*
X100330000Y-106299000D03*
G04 #@! TO.P,J2,3*
G04 #@! TO.N,/att_data*
X101600000Y-106299000D03*
G04 #@! TO.P,J2,4*
G04 #@! TO.N,GNDREF*
X102870000Y-106299000D03*
G04 #@! TO.P,J2,5*
G04 #@! TO.N,/att_clk*
X104140000Y-106299000D03*
G04 #@! TD*
D14*
G04 #@! TO.P,R1,1*
G04 #@! TO.N,/prog_reset*
X98044000Y-112224999D03*
G04 #@! TO.P,R1,2*
G04 #@! TO.N,/att_reset*
X98044000Y-110025001D03*
G04 #@! TD*
G04 #@! TO.P,R2,2*
G04 #@! TO.N,/att_data*
X100330000Y-110025001D03*
G04 #@! TO.P,R2,1*
G04 #@! TO.N,/prog_miso*
X100330000Y-112224999D03*
G04 #@! TD*
G04 #@! TO.P,R3,1*
G04 #@! TO.N,/prog_mosi*
X102870000Y-112224999D03*
G04 #@! TO.P,R3,2*
G04 #@! TO.N,/att_data*
X102870000Y-110025001D03*
G04 #@! TD*
G04 #@! TO.P,R4,2*
G04 #@! TO.N,/att_clk*
X105410000Y-110025001D03*
G04 #@! TO.P,R4,1*
G04 #@! TO.N,/prog_clk*
X105410000Y-112224999D03*
G04 #@! TD*
D15*
G04 #@! TO.N,/pwr*
X100330000Y-107950000D03*
G04 #@! TO.N,/att_reset*
X99060000Y-107950000D03*
G04 #@! TO.N,/att_data*
X101600000Y-107950000D03*
G04 #@! TO.N,GNDREF*
X102870000Y-107950000D03*
G04 #@! TO.N,/att_clk*
X104140000Y-107950000D03*
G04 #@! TD*
D16*
G04 #@! TO.N,/prog_miso*
X100330000Y-112224999D02*
X100330000Y-117475000D01*
X100330000Y-118745000D02*
X99060000Y-120015000D01*
X100330000Y-117475000D02*
X100330000Y-118745000D01*
G04 #@! TO.N,/pwr*
X99187000Y-116078000D02*
X99060000Y-117475000D01*
X99187000Y-108966000D02*
X99187000Y-116078000D01*
X99949011Y-108203989D02*
X99949000Y-108204000D01*
X99949000Y-108204000D02*
X99187000Y-108966000D01*
X99949000Y-108204000D02*
X100330000Y-106299000D01*
X100330000Y-107950000D02*
X100330000Y-106299000D01*
G04 #@! TO.N,/prog_clk*
X101600000Y-120015000D02*
X102870000Y-118745000D01*
X104811285Y-118745000D02*
X105410000Y-118046499D01*
X105410000Y-118046499D02*
X105410000Y-112224999D01*
X104811285Y-118745000D02*
X102870000Y-118745000D01*
G04 #@! TO.N,/prog_mosi*
X102870000Y-112224999D02*
X102870000Y-116205000D01*
X102870000Y-116205000D02*
X101600000Y-117475000D01*
G04 #@! TO.N,/prog_reset*
X98044000Y-112224999D02*
X97536000Y-113030000D01*
X102489000Y-121666000D02*
X104140000Y-120015000D01*
X98425000Y-121666000D02*
X102489000Y-121666000D01*
X97536000Y-120777000D02*
X98425000Y-121666000D01*
X97536000Y-120650000D02*
X97536000Y-120777000D01*
X97536000Y-113030000D02*
X97536000Y-120650000D01*
G04 #@! TO.N,/att_reset*
X99060000Y-106299000D02*
X98044000Y-110025001D01*
X99060000Y-107950000D02*
X99060000Y-106299000D01*
G04 #@! TO.N,/att_data*
X101600000Y-106299000D02*
X101600000Y-109982000D01*
X101600000Y-109982000D02*
X100330000Y-110025001D01*
X101600000Y-109982000D02*
X102870000Y-110025001D01*
X101600000Y-106299000D02*
X101600000Y-107950000D01*
G04 #@! TO.N,GNDREF*
X102787894Y-106375443D02*
X103356832Y-108309832D01*
X104140000Y-114554000D02*
X104140000Y-117475000D01*
X104140000Y-109093000D02*
X104140000Y-114554000D01*
X103356832Y-108309832D02*
X104140000Y-109093000D01*
X102870000Y-107950000D02*
X102870000Y-106299000D01*
G04 #@! TO.N,/att_clk*
X104140000Y-106299000D02*
X105410000Y-110025001D01*
X104140000Y-106299000D02*
X104140000Y-107950000D01*
G04 #@! TD*
M02*
