G04 #@! TF.FileFunction,Legend,Top*
%FSLAX46Y46*%
G04 Gerber Fmt 4.6, Leading zero omitted, Abs format (unit mm)*
G04 Created by KiCad (PCBNEW 4.0.6) date 06/24/18 20:25:29*
%MOMM*%
%LPD*%
G01*
G04 APERTURE LIST*
%ADD10C,0.304800*%
%ADD11C,0.120000*%
%ADD12C,0.152400*%
%ADD13C,0.100000*%
%ADD14C,0.150000*%
G04 APERTURE END LIST*
D10*
D11*
X99695000Y-97155000D02*
X99695000Y-99187000D01*
X98425000Y-99187000D02*
X98425000Y-97155000D01*
X98171000Y-105791000D02*
X100203000Y-105791000D01*
X100203000Y-107061000D02*
X98171000Y-107061000D01*
X101092000Y-95250000D02*
X103124000Y-95250000D01*
X103124000Y-96520000D02*
X101092000Y-96520000D01*
X104521000Y-99060000D02*
X104521000Y-97028000D01*
X105791000Y-97028000D02*
X105791000Y-99060000D01*
X104521000Y-103124000D02*
X104521000Y-101092000D01*
X105791000Y-101092000D02*
X105791000Y-103124000D01*
X104267000Y-101854000D02*
X104267000Y-103886000D01*
X102997000Y-103886000D02*
X102997000Y-101854000D01*
D12*
X98425000Y-100584000D02*
G75*
G03X99060000Y-101219000I635000J0D01*
G01*
X99060000Y-101219000D02*
G75*
G03X99695000Y-100584000I0J635000D01*
G01*
D13*
X98110000Y-100547000D02*
X101010000Y-100547000D01*
X101010000Y-100547000D02*
X101010000Y-105447000D01*
X101010000Y-105447000D02*
X97110000Y-105447000D01*
X97110000Y-105447000D02*
X97110000Y-101547000D01*
X97110000Y-101547000D02*
X98110000Y-100547000D01*
D10*
X100965000Y-96774000D02*
G75*
G03X100965000Y-96774000I-127000J0D01*
G01*
D12*
X102806500Y-96964500D02*
X101981000Y-96964500D01*
X101981000Y-96964500D02*
X101409500Y-97536000D01*
X101409500Y-97536000D02*
X101409500Y-99885500D01*
X101409500Y-99885500D02*
X102806500Y-99885500D01*
X102806500Y-99885500D02*
X102806500Y-96964500D01*
X101854000Y-106997500D02*
X102870000Y-106997500D01*
X102870000Y-106997500D02*
X102870000Y-107442000D01*
X102870000Y-107442000D02*
X102679500Y-107632500D01*
X102679500Y-107632500D02*
X101854000Y-107632500D01*
X101854000Y-107632500D02*
X101854000Y-106997500D01*
X98189143Y-96393000D02*
X98225429Y-96429286D01*
X98261714Y-96538143D01*
X98261714Y-96610714D01*
X98225429Y-96719571D01*
X98152857Y-96792143D01*
X98080286Y-96828428D01*
X97935143Y-96864714D01*
X97826286Y-96864714D01*
X97681143Y-96828428D01*
X97608571Y-96792143D01*
X97536000Y-96719571D01*
X97499714Y-96610714D01*
X97499714Y-96538143D01*
X97536000Y-96429286D01*
X97572286Y-96393000D01*
X98261714Y-95667286D02*
X98261714Y-96102714D01*
X98261714Y-95885000D02*
X97499714Y-95885000D01*
X97608571Y-95957571D01*
X97681143Y-96030143D01*
X97717429Y-96102714D01*
X99822000Y-108031643D02*
X99785714Y-108067929D01*
X99676857Y-108104214D01*
X99604286Y-108104214D01*
X99495429Y-108067929D01*
X99422857Y-107995357D01*
X99386572Y-107922786D01*
X99350286Y-107777643D01*
X99350286Y-107668786D01*
X99386572Y-107523643D01*
X99422857Y-107451071D01*
X99495429Y-107378500D01*
X99604286Y-107342214D01*
X99676857Y-107342214D01*
X99785714Y-107378500D01*
X99822000Y-107414786D01*
X100112286Y-107414786D02*
X100148572Y-107378500D01*
X100221143Y-107342214D01*
X100402572Y-107342214D01*
X100475143Y-107378500D01*
X100511429Y-107414786D01*
X100547714Y-107487357D01*
X100547714Y-107559929D01*
X100511429Y-107668786D01*
X100076000Y-108104214D01*
X100547714Y-108104214D01*
X99568001Y-95785214D02*
X99205144Y-95785214D01*
X99205144Y-95023214D01*
X100221143Y-95785214D02*
X99785715Y-95785214D01*
X100003429Y-95785214D02*
X100003429Y-95023214D01*
X99930858Y-95132071D01*
X99858286Y-95204643D01*
X99785715Y-95240929D01*
X106897714Y-98107500D02*
X106534857Y-98361500D01*
X106897714Y-98542928D02*
X106135714Y-98542928D01*
X106135714Y-98252643D01*
X106172000Y-98180071D01*
X106208286Y-98143786D01*
X106280857Y-98107500D01*
X106389714Y-98107500D01*
X106462286Y-98143786D01*
X106498571Y-98180071D01*
X106534857Y-98252643D01*
X106534857Y-98542928D01*
X106897714Y-97381786D02*
X106897714Y-97817214D01*
X106897714Y-97599500D02*
X106135714Y-97599500D01*
X106244571Y-97672071D01*
X106317143Y-97744643D01*
X106353429Y-97817214D01*
X105029000Y-104929214D02*
X104775000Y-104566357D01*
X104593572Y-104929214D02*
X104593572Y-104167214D01*
X104883857Y-104167214D01*
X104956429Y-104203500D01*
X104992714Y-104239786D01*
X105029000Y-104312357D01*
X105029000Y-104421214D01*
X104992714Y-104493786D01*
X104956429Y-104530071D01*
X104883857Y-104566357D01*
X104593572Y-104566357D01*
X105319286Y-104239786D02*
X105355572Y-104203500D01*
X105428143Y-104167214D01*
X105609572Y-104167214D01*
X105682143Y-104203500D01*
X105718429Y-104239786D01*
X105754714Y-104312357D01*
X105754714Y-104384929D01*
X105718429Y-104493786D01*
X105283000Y-104929214D01*
X105754714Y-104929214D01*
X103568500Y-105691214D02*
X103314500Y-105328357D01*
X103133072Y-105691214D02*
X103133072Y-104929214D01*
X103423357Y-104929214D01*
X103495929Y-104965500D01*
X103532214Y-105001786D01*
X103568500Y-105074357D01*
X103568500Y-105183214D01*
X103532214Y-105255786D01*
X103495929Y-105292071D01*
X103423357Y-105328357D01*
X103133072Y-105328357D01*
X103822500Y-104929214D02*
X104294214Y-104929214D01*
X104040214Y-105219500D01*
X104149072Y-105219500D01*
X104221643Y-105255786D01*
X104257929Y-105292071D01*
X104294214Y-105364643D01*
X104294214Y-105546071D01*
X104257929Y-105618643D01*
X104221643Y-105654929D01*
X104149072Y-105691214D01*
X103931357Y-105691214D01*
X103858786Y-105654929D01*
X103822500Y-105618643D01*
D14*
X98298095Y-102449381D02*
X98298095Y-103258905D01*
X98345714Y-103354143D01*
X98393333Y-103401762D01*
X98488571Y-103449381D01*
X98679048Y-103449381D01*
X98774286Y-103401762D01*
X98821905Y-103354143D01*
X98869524Y-103258905D01*
X98869524Y-102449381D01*
X99298095Y-102544619D02*
X99345714Y-102497000D01*
X99440952Y-102449381D01*
X99679048Y-102449381D01*
X99774286Y-102497000D01*
X99821905Y-102544619D01*
X99869524Y-102639857D01*
X99869524Y-102735095D01*
X99821905Y-102877952D01*
X99250476Y-103449381D01*
X99869524Y-103449381D01*
D12*
X101690714Y-99132571D02*
X102307571Y-99132571D01*
X102380143Y-99096286D01*
X102416429Y-99060000D01*
X102452714Y-98987429D01*
X102452714Y-98842286D01*
X102416429Y-98769714D01*
X102380143Y-98733429D01*
X102307571Y-98697143D01*
X101690714Y-98697143D01*
X102452714Y-97935143D02*
X102452714Y-98370571D01*
X102452714Y-98152857D02*
X101690714Y-98152857D01*
X101799571Y-98225428D01*
X101872143Y-98298000D01*
X101908429Y-98370571D01*
X103813429Y-107541786D02*
X103740857Y-107505500D01*
X103668286Y-107432929D01*
X103559429Y-107324071D01*
X103486857Y-107287786D01*
X103414286Y-107287786D01*
X103450571Y-107469214D02*
X103378000Y-107432929D01*
X103305429Y-107360357D01*
X103269143Y-107215214D01*
X103269143Y-106961214D01*
X103305429Y-106816071D01*
X103378000Y-106743500D01*
X103450571Y-106707214D01*
X103595714Y-106707214D01*
X103668286Y-106743500D01*
X103740857Y-106816071D01*
X103777143Y-106961214D01*
X103777143Y-107215214D01*
X103740857Y-107360357D01*
X103668286Y-107432929D01*
X103595714Y-107469214D01*
X103450571Y-107469214D01*
X104502857Y-107469214D02*
X104067429Y-107469214D01*
X104285143Y-107469214D02*
X104285143Y-106707214D01*
X104212572Y-106816071D01*
X104140000Y-106888643D01*
X104067429Y-106924929D01*
M02*
