G04 #@! TF.GenerationSoftware,KiCad,Pcbnew,(5.0.1)-3*
G04 #@! TF.CreationDate,2018-10-30T10:45:06-07:00*
G04 #@! TF.ProjectId,SMOL,534D4F4C2E6B696361645F7063620000,rev?*
G04 #@! TF.SameCoordinates,Original*
G04 #@! TF.FileFunction,Soldermask,Bot*
G04 #@! TF.FilePolarity,Negative*
%FSLAX46Y46*%
G04 Gerber Fmt 4.6, Leading zero omitted, Abs format (unit mm)*
G04 Created by KiCad (PCBNEW (5.0.1)-3) date 10/30/2018 10:45:06 AM*
%MOMM*%
%LPD*%
G01*
G04 APERTURE LIST*
%ADD10C,0.304800*%
G04 APERTURE END LIST*
D10*
G36*
X103126234Y-96568678D02*
X104078469Y-96963107D01*
X104078471Y-96963108D01*
X104924058Y-97528111D01*
X104935463Y-97535732D01*
X105664268Y-98264537D01*
X106236893Y-99121531D01*
X106631322Y-100073766D01*
X106832400Y-101084652D01*
X106832400Y-102115348D01*
X106631322Y-103126234D01*
X106236893Y-104078469D01*
X105664268Y-104935463D01*
X104935463Y-105664268D01*
X104935460Y-105664270D01*
X104078471Y-106236892D01*
X104078470Y-106236893D01*
X104078469Y-106236893D01*
X103126234Y-106631322D01*
X102115348Y-106832400D01*
X101084652Y-106832400D01*
X100073766Y-106631322D01*
X99121531Y-106236893D01*
X99121530Y-106236893D01*
X99121529Y-106236892D01*
X98264540Y-105664270D01*
X98264537Y-105664268D01*
X97535732Y-104935463D01*
X96963107Y-104078469D01*
X96568678Y-103126234D01*
X96367600Y-102115348D01*
X96367600Y-101084652D01*
X96568678Y-100073766D01*
X96963107Y-99121531D01*
X97535732Y-98264537D01*
X98264537Y-97535732D01*
X98275942Y-97528111D01*
X99121529Y-96963108D01*
X99121531Y-96963107D01*
X100073766Y-96568678D01*
X101084652Y-96367600D01*
X102115348Y-96367600D01*
X103126234Y-96568678D01*
X103126234Y-96568678D01*
G37*
M02*
