G04 #@! TF.GenerationSoftware,KiCad,Pcbnew,(5.0.1)-3*
G04 #@! TF.CreationDate,2018-10-30T10:45:05-07:00*
G04 #@! TF.ProjectId,SMOL,534D4F4C2E6B696361645F7063620000,rev?*
G04 #@! TF.SameCoordinates,Original*
G04 #@! TF.FileFunction,Legend,Top*
G04 #@! TF.FilePolarity,Positive*
%FSLAX46Y46*%
G04 Gerber Fmt 4.6, Leading zero omitted, Abs format (unit mm)*
G04 Created by KiCad (PCBNEW (5.0.1)-3) date 10/30/2018 10:45:05 AM*
%MOMM*%
%LPD*%
G01*
G04 APERTURE LIST*
%ADD10C,0.304800*%
%ADD11C,0.152400*%
%ADD12C,0.254000*%
G04 APERTURE END LIST*
D10*
G04 #@! TO.C,U2*
X104521000Y-101219000D02*
G75*
G03X104521000Y-101219000I-127000J0D01*
G01*
D11*
X102425500Y-101028500D02*
X103251000Y-101028500D01*
X103251000Y-101028500D02*
X103822500Y-100457000D01*
X103822500Y-100457000D02*
X103822500Y-98107500D01*
X103822500Y-98107500D02*
X102425500Y-98107500D01*
X102425500Y-98107500D02*
X102425500Y-101028500D01*
G04 #@! TO.C,Q*
X105410000Y-105092500D02*
X106426000Y-105092500D01*
X106426000Y-105092500D02*
X106426000Y-105537000D01*
X106426000Y-105537000D02*
X106235500Y-105727500D01*
X106235500Y-105727500D02*
X105410000Y-105727500D01*
X105410000Y-105727500D02*
X105410000Y-105092500D01*
D10*
G04 #@! TO.C,U1*
X97633000Y-97917000D02*
G75*
G03X97633000Y-97917000I-127000J0D01*
G01*
D11*
X99474500Y-98107500D02*
X98649000Y-98107500D01*
X98649000Y-98107500D02*
X98077500Y-98679000D01*
X98077500Y-98679000D02*
X98077500Y-101028500D01*
X98077500Y-101028500D02*
X99474500Y-101028500D01*
X99474500Y-101028500D02*
X99474500Y-98107500D01*
G04 #@! TO.C,D*
X106680000Y-98361500D02*
X105664000Y-98361500D01*
X105664000Y-98361500D02*
X105664000Y-97917000D01*
X105664000Y-97917000D02*
X105854500Y-97726500D01*
X105854500Y-97726500D02*
X106680000Y-97726500D01*
X106680000Y-97726500D02*
X106680000Y-98361500D01*
D12*
G04 #@! TO.C,J\002A\002A*
X100660000Y-104033000D02*
G75*
G03X100660000Y-104033000I-47000J0D01*
G01*
X104204000Y-107994000D02*
X104204000Y-104394000D01*
X99504000Y-107994000D02*
X104204000Y-107994000D01*
X99504000Y-104394000D02*
X99504000Y-107994000D01*
G04 #@! TO.C,3*
D11*
X102870000Y-96610714D02*
X103341714Y-96610714D01*
X103087714Y-96901000D01*
X103196571Y-96901000D01*
X103269142Y-96937285D01*
X103305428Y-96973571D01*
X103341714Y-97046142D01*
X103341714Y-97227571D01*
X103305428Y-97300142D01*
X103269142Y-97336428D01*
X103196571Y-97372714D01*
X102978857Y-97372714D01*
X102906285Y-97336428D01*
X102870000Y-97300142D01*
G04 #@! TO.C,L*
X101785057Y-95797914D02*
X101422200Y-95797914D01*
X101422200Y-95035914D01*
G04 #@! TO.C,C*
X98940257Y-97300142D02*
X98903971Y-97336428D01*
X98795114Y-97372714D01*
X98722542Y-97372714D01*
X98613685Y-97336428D01*
X98541114Y-97263857D01*
X98504828Y-97191285D01*
X98468542Y-97046142D01*
X98468542Y-96937285D01*
X98504828Y-96792142D01*
X98541114Y-96719571D01*
X98613685Y-96647000D01*
X98722542Y-96610714D01*
X98795114Y-96610714D01*
X98903971Y-96647000D01*
X98940257Y-96683285D01*
G04 #@! TO.C,2*
X102906285Y-102068085D02*
X102942571Y-102031800D01*
X103015142Y-101995514D01*
X103196571Y-101995514D01*
X103269142Y-102031800D01*
X103305428Y-102068085D01*
X103341714Y-102140657D01*
X103341714Y-102213228D01*
X103305428Y-102322085D01*
X102870000Y-102757514D01*
X103341714Y-102757514D01*
G04 #@! TO.C,C*
X99041857Y-102684942D02*
X99005571Y-102721228D01*
X98896714Y-102757514D01*
X98824142Y-102757514D01*
X98715285Y-102721228D01*
X98642714Y-102648657D01*
X98606428Y-102576085D01*
X98570142Y-102430942D01*
X98570142Y-102322085D01*
X98606428Y-102176942D01*
X98642714Y-102104371D01*
X98715285Y-102031800D01*
X98824142Y-101995514D01*
X98896714Y-101995514D01*
X99005571Y-102031800D01*
X99041857Y-102068085D01*
G04 #@! TO.C,1*
X97600325Y-105567703D02*
X97382611Y-105190611D01*
X97491468Y-105379157D02*
X98151380Y-104998157D01*
X98020821Y-104989737D01*
X97921686Y-104963174D01*
X97853976Y-104918468D01*
G04 #@! TO.C,U2*
X103490485Y-98987428D02*
X102873628Y-98987428D01*
X102801057Y-99023714D01*
X102764771Y-99060000D01*
X102728485Y-99132571D01*
X102728485Y-99277714D01*
X102764771Y-99350285D01*
X102801057Y-99386571D01*
X102873628Y-99422857D01*
X103490485Y-99422857D01*
X103417914Y-99749428D02*
X103454200Y-99785714D01*
X103490485Y-99858285D01*
X103490485Y-100039714D01*
X103454200Y-100112285D01*
X103417914Y-100148571D01*
X103345342Y-100184857D01*
X103272771Y-100184857D01*
X103163914Y-100148571D01*
X102728485Y-99713142D01*
X102728485Y-100184857D01*
G04 #@! TO.C,Q*
X107630685Y-105014485D02*
X107558114Y-104978200D01*
X107485542Y-104905628D01*
X107376685Y-104796771D01*
X107304114Y-104760485D01*
X107231542Y-104760485D01*
X107267828Y-104941914D02*
X107195257Y-104905628D01*
X107122685Y-104833057D01*
X107086400Y-104687914D01*
X107086400Y-104433914D01*
X107122685Y-104288771D01*
X107195257Y-104216200D01*
X107267828Y-104179914D01*
X107412971Y-104179914D01*
X107485542Y-104216200D01*
X107558114Y-104288771D01*
X107594400Y-104433914D01*
X107594400Y-104687914D01*
X107558114Y-104833057D01*
X107485542Y-104905628D01*
X107412971Y-104941914D01*
X107267828Y-104941914D01*
G04 #@! TO.C,U1*
X98358714Y-100275571D02*
X98975571Y-100275571D01*
X99048142Y-100239285D01*
X99084428Y-100203000D01*
X99120714Y-100130428D01*
X99120714Y-99985285D01*
X99084428Y-99912714D01*
X99048142Y-99876428D01*
X98975571Y-99840142D01*
X98358714Y-99840142D01*
X99120714Y-99078142D02*
X99120714Y-99513571D01*
X99120714Y-99295857D02*
X98358714Y-99295857D01*
X98467571Y-99368428D01*
X98540142Y-99441000D01*
X98576428Y-99513571D01*
G04 #@! TO.C,D*
X106074028Y-100217514D02*
X106074028Y-99455514D01*
X106255457Y-99455514D01*
X106364314Y-99491800D01*
X106436885Y-99564371D01*
X106473171Y-99636942D01*
X106509457Y-99782085D01*
X106509457Y-99890942D01*
X106473171Y-100036085D01*
X106436885Y-100108657D01*
X106364314Y-100181228D01*
X106255457Y-100217514D01*
X106074028Y-100217514D01*
G04 #@! TO.C,J\002A\002A*
D12*
X100745409Y-105885373D02*
X100745409Y-106792516D01*
X100684933Y-106973945D01*
X100563980Y-107094897D01*
X100382552Y-107155373D01*
X100261600Y-107155373D01*
X101531600Y-105885373D02*
X101531600Y-106187754D01*
X101229219Y-106066802D02*
X101531600Y-106187754D01*
X101833980Y-106066802D01*
X101350171Y-106429659D02*
X101531600Y-106187754D01*
X101713028Y-106429659D01*
X102499219Y-105885373D02*
X102499219Y-106187754D01*
X102196838Y-106066802D02*
X102499219Y-106187754D01*
X102801600Y-106066802D01*
X102317790Y-106429659D02*
X102499219Y-106187754D01*
X102680647Y-106429659D01*
G04 #@! TD*
M02*
