G04 #@! TF.FileFunction,Copper,L1,Top,Signal*
%FSLAX46Y46*%
G04 Gerber Fmt 4.6, Leading zero omitted, Abs format (unit mm)*
G04 Created by KiCad (PCBNEW 4.0.6) date 06/24/18 20:25:29*
%MOMM*%
%LPD*%
G01*
G04 APERTURE LIST*
%ADD10C,0.304800*%
%ADD11R,0.900000X1.200000*%
%ADD12R,1.200000X0.900000*%
%ADD13C,3.000000*%
%ADD14R,1.270000X3.810000*%
%ADD15R,1.550000X0.600000*%
%ADD16R,1.000000X0.700000*%
%ADD17R,0.400000X0.710000*%
%ADD18C,0.609600*%
%ADD19C,0.254000*%
%ADD20C,0.406400*%
G04 APERTURE END LIST*
D10*
D11*
X99060000Y-99271000D03*
X99060000Y-97071000D03*
D12*
X100287000Y-106426000D03*
X98087000Y-106426000D03*
X103208000Y-95885000D03*
X101008000Y-95885000D03*
D11*
X105156000Y-96944000D03*
X105156000Y-99144000D03*
X105156000Y-101008000D03*
X105156000Y-103208000D03*
X103632000Y-103970000D03*
X103632000Y-101770000D03*
D13*
X96393000Y-98298000D03*
D14*
X106934000Y-101600000D03*
D15*
X96360000Y-101092000D03*
X96360000Y-102362000D03*
X96360000Y-103632000D03*
X96360000Y-104902000D03*
X101760000Y-104902000D03*
X101760000Y-103632000D03*
X101760000Y-102362000D03*
X101760000Y-101092000D03*
D16*
X100808000Y-97475000D03*
X100808000Y-98425000D03*
X100808000Y-99375000D03*
X103408000Y-99375000D03*
X103408000Y-97475000D03*
X103408000Y-98425000D03*
D17*
X102862000Y-106570000D03*
X101862000Y-106570000D03*
X102362000Y-108060000D03*
D18*
X101727000Y-108000800D03*
D19*
X103408000Y-97475000D02*
X102616000Y-97536000D01*
X101473000Y-99314000D02*
X100808000Y-99375000D01*
X101600000Y-99314000D02*
X101473000Y-99314000D01*
X101727000Y-99187000D02*
X101600000Y-99314000D01*
X101981000Y-98679000D02*
X101727000Y-99187000D01*
X102108000Y-98171000D02*
X101981000Y-98679000D01*
X102235000Y-97790000D02*
X102108000Y-98171000D01*
X102616000Y-97536000D02*
X102235000Y-97790000D01*
X99060000Y-99271000D02*
X100076000Y-99441000D01*
X100076000Y-99441000D02*
X100808000Y-99375000D01*
X102623103Y-95221812D02*
X102870000Y-95377000D01*
X102870000Y-95377000D02*
X103208000Y-95885000D01*
X96393000Y-98298000D02*
X97282000Y-96774000D01*
X101727000Y-94996000D02*
X102623103Y-95221812D01*
X102623103Y-95221812D02*
X102642997Y-95226825D01*
X100584000Y-94996000D02*
X101727000Y-94996000D01*
X99702907Y-95122506D02*
X100584000Y-94996000D01*
X99314000Y-95250000D02*
X99702907Y-95122506D01*
X98552000Y-95631000D02*
X99314000Y-95250000D01*
X97790000Y-96139000D02*
X98552000Y-95631000D01*
X97282000Y-96774000D02*
X97790000Y-96139000D01*
X103408000Y-97475000D02*
X103208000Y-95885000D01*
X105156000Y-103208000D02*
X106934000Y-101600000D01*
X101862000Y-106570000D02*
X101523800Y-107111800D01*
X98755200Y-106654600D02*
X98087000Y-106426000D01*
X98907600Y-106832400D02*
X98755200Y-106654600D01*
X99237800Y-107137200D02*
X98907600Y-106832400D01*
X99618800Y-107391200D02*
X99237800Y-107137200D01*
X100152200Y-107543600D02*
X99618800Y-107391200D01*
X100838000Y-107543600D02*
X100152200Y-107543600D01*
X101244400Y-107391200D02*
X100838000Y-107543600D01*
X101523800Y-107111800D02*
X101244400Y-107391200D01*
X101862000Y-106570000D02*
X102235000Y-107188000D01*
X105156000Y-104076500D02*
X105156000Y-103208000D01*
X105029000Y-105664000D02*
X105156000Y-104076500D01*
X104711500Y-106489500D02*
X105029000Y-105664000D01*
X104076500Y-107061000D02*
X104711500Y-106489500D01*
X103479600Y-107264200D02*
X104076500Y-107061000D01*
X103047800Y-107264200D02*
X103479600Y-107264200D01*
X102590600Y-107264200D02*
X103047800Y-107264200D01*
X102362000Y-107238800D02*
X102590600Y-107264200D01*
X102235000Y-107188000D02*
X102362000Y-107238800D01*
X96360000Y-104902000D02*
X97155000Y-105029000D01*
X97155000Y-105029000D02*
X97536000Y-105283000D01*
X97536000Y-105283000D02*
X97790000Y-105537000D01*
X97790000Y-105537000D02*
X97917000Y-105791000D01*
X97917000Y-105791000D02*
X98087000Y-106426000D01*
X99060000Y-97071000D02*
X98806000Y-97917000D01*
X98806000Y-97917000D02*
X98425000Y-98171000D01*
X98425000Y-98171000D02*
X98044000Y-99187000D01*
X98044000Y-99187000D02*
X98044000Y-100330000D01*
X98044000Y-100330000D02*
X98044000Y-102616000D01*
X98044000Y-102616000D02*
X97917000Y-103759000D01*
X97917000Y-103759000D02*
X97663000Y-104267000D01*
X97663000Y-104267000D02*
X97409000Y-104521000D01*
X97409000Y-104521000D02*
X97155000Y-104775000D01*
X97155000Y-104775000D02*
X96360000Y-104902000D01*
X100808000Y-98425000D02*
X99949000Y-98171000D01*
X99695000Y-98044000D02*
X99314000Y-97663000D01*
X99949000Y-98171000D02*
X99695000Y-98044000D01*
X99314000Y-97663000D02*
X99060000Y-97071000D01*
X101760000Y-101092000D02*
X100838000Y-101219000D01*
X100457000Y-102489000D02*
X100287000Y-106426000D01*
X100457000Y-101981000D02*
X100457000Y-102489000D01*
X100584000Y-101473000D02*
X100457000Y-101981000D01*
X100838000Y-101219000D02*
X100584000Y-101473000D01*
X103408000Y-98425000D02*
X102616000Y-98552000D01*
X101981000Y-100330000D02*
X101600000Y-100838000D01*
X102235000Y-99822000D02*
X101981000Y-100330000D01*
X102362000Y-99060000D02*
X102235000Y-99822000D01*
X102489000Y-98679000D02*
X102362000Y-99060000D01*
X102616000Y-98552000D02*
X102489000Y-98679000D01*
X101600000Y-100838000D02*
X101760000Y-101092000D01*
X105156000Y-96944000D02*
X104873688Y-97757181D01*
X104394000Y-98171000D02*
X103408000Y-98425000D01*
X104873688Y-97757181D02*
X104394000Y-98171000D01*
X100808000Y-97475000D02*
X101008000Y-95885000D01*
X102862000Y-106570000D02*
X103632000Y-103970000D01*
D20*
X102362000Y-108060000D02*
X101727000Y-108000800D01*
D19*
X105156000Y-99144000D02*
X105156000Y-101008000D01*
X103408000Y-99375000D02*
X105156000Y-99144000D01*
X101760000Y-103632000D02*
X102806500Y-103060500D01*
X103441500Y-102425500D02*
X103632000Y-101770000D01*
X103187500Y-102806500D02*
X103441500Y-102425500D01*
X102806500Y-103060500D02*
X103187500Y-102806500D01*
M02*
