G04 #@! TF.GenerationSoftware,KiCad,Pcbnew,(5.0.1)-3*
G04 #@! TF.CreationDate,2018-10-30T10:45:05-07:00*
G04 #@! TF.ProjectId,SMOL,534D4F4C2E6B696361645F7063620000,rev?*
G04 #@! TF.SameCoordinates,Original*
G04 #@! TF.FileFunction,Copper,L2,Bot,Signal*
G04 #@! TF.FilePolarity,Positive*
%FSLAX46Y46*%
G04 Gerber Fmt 4.6, Leading zero omitted, Abs format (unit mm)*
G04 Created by KiCad (PCBNEW (5.0.1)-3) date 10/30/2018 10:45:05 AM*
%MOMM*%
%LPD*%
G01*
G04 APERTURE LIST*
G04 #@! TA.AperFunction,BGAPad,CuDef*
%ADD10C,10.160000*%
G04 #@! TD*
G04 #@! TA.AperFunction,ViaPad*
%ADD11C,0.609600*%
G04 #@! TD*
G04 #@! TA.AperFunction,Conductor*
%ADD12C,0.254000*%
G04 #@! TD*
G04 #@! TA.AperFunction,Conductor*
%ADD13C,0.406400*%
G04 #@! TD*
G04 APERTURE END LIST*
D10*
G04 #@! TO.P,TP3,1*
G04 #@! TO.N,/Spring_Contact*
X101600000Y-101600000D03*
G04 #@! TD*
D11*
G04 #@! TO.N,/Anode*
X95885000Y-102489000D03*
X100838000Y-108140500D03*
G04 #@! TO.N,/Spring_Contact*
X105664000Y-98552000D03*
X104952800Y-105765600D03*
G04 #@! TO.N,Net-(Q1-Pad1)*
X104394000Y-96266000D03*
X102552500Y-108077000D03*
X106934000Y-104648000D03*
G04 #@! TD*
D12*
G04 #@! TO.N,/Anode*
X95885000Y-103378000D02*
X95885000Y-102489000D01*
X95948500Y-104521000D02*
X95885000Y-103378000D01*
X96456500Y-105473500D02*
X95948500Y-104521000D01*
X97091500Y-106299000D02*
X96456500Y-105473500D01*
X98996500Y-107505500D02*
X97091500Y-106299000D01*
X100838000Y-108140500D02*
X98996500Y-107505500D01*
D13*
G04 #@! TO.N,/Spring_Contact*
X101600000Y-101600000D02*
X105664000Y-98552000D01*
X104952800Y-105765600D02*
X101600000Y-101600000D01*
D12*
G04 #@! TO.N,Net-(Q1-Pad1)*
X107543600Y-99618800D02*
X107442000Y-99314000D01*
X107188000Y-105206800D02*
X107442000Y-104698800D01*
X106362500Y-105981500D02*
X107188000Y-105206800D01*
X104394000Y-96266000D02*
X105664000Y-96774000D01*
X105664000Y-96774000D02*
X106426000Y-97282000D01*
X106426000Y-97282000D02*
X106934000Y-98044000D01*
X106934000Y-98044000D02*
X107442000Y-99314000D01*
X105410000Y-106807000D02*
X106362500Y-105981500D01*
X104267000Y-107505500D02*
X105410000Y-106807000D01*
X102552500Y-108077000D02*
X104267000Y-107505500D01*
X107442000Y-104698800D02*
X107543600Y-99618800D01*
X106934000Y-104648000D02*
X107442000Y-104698800D01*
G04 #@! TD*
M02*
