G04 #@! TF.FileFunction,Legend,Top*
%FSLAX46Y46*%
G04 Gerber Fmt 4.6, Leading zero omitted, Abs format (unit mm)*
G04 Created by KiCad (PCBNEW 4.0.6) date 07/30/18 22:38:16*
%MOMM*%
%LPD*%
G01*
G04 APERTURE LIST*
%ADD10C,0.304800*%
%ADD11C,0.120000*%
%ADD12C,0.152400*%
G04 APERTURE END LIST*
D10*
D11*
X98425000Y-99187000D02*
X98425000Y-97155000D01*
X99695000Y-97155000D02*
X99695000Y-99187000D01*
X98171000Y-105791000D02*
X100203000Y-105791000D01*
X100203000Y-107061000D02*
X98171000Y-107061000D01*
X100736400Y-95377000D02*
X102768400Y-95377000D01*
X102768400Y-96647000D02*
X100736400Y-96647000D01*
X105510633Y-100619392D02*
X104073792Y-102056233D01*
X103175767Y-101158208D02*
X104612608Y-99721367D01*
X105313188Y-105362710D02*
X104618203Y-103453255D01*
X105811612Y-103018890D02*
X106506597Y-104928345D01*
X104287612Y-103526890D02*
X104982597Y-105436345D01*
X103789188Y-105870710D02*
X103094203Y-103961255D01*
D10*
X100965000Y-96774000D02*
G75*
G03X100965000Y-96774000I-127000J0D01*
G01*
D12*
X102806500Y-96964500D02*
X101981000Y-96964500D01*
X101981000Y-96964500D02*
X101409500Y-97536000D01*
X101409500Y-97536000D02*
X101409500Y-99885500D01*
X101409500Y-99885500D02*
X102806500Y-99885500D01*
X102806500Y-99885500D02*
X102806500Y-96964500D01*
X101854000Y-106997500D02*
X102870000Y-106997500D01*
X102870000Y-106997500D02*
X102870000Y-107442000D01*
X102870000Y-107442000D02*
X102679500Y-107632500D01*
X102679500Y-107632500D02*
X101854000Y-107632500D01*
X101854000Y-107632500D02*
X101854000Y-106997500D01*
D10*
X99187000Y-100558600D02*
G75*
G03X99187000Y-100558600I-127000J0D01*
G01*
D12*
X101028500Y-100749100D02*
X100203000Y-100749100D01*
X100203000Y-100749100D02*
X99631500Y-101320600D01*
X99631500Y-101320600D02*
X99631500Y-103670100D01*
X99631500Y-103670100D02*
X101028500Y-103670100D01*
X101028500Y-103670100D02*
X101028500Y-100749100D01*
X105166632Y-97647999D02*
X106018722Y-97094645D01*
X106018722Y-97094645D02*
X106260814Y-97467435D01*
X106260814Y-97467435D02*
X106204801Y-97730955D01*
X106204801Y-97730955D02*
X105512478Y-98180555D01*
X105512478Y-98180555D02*
X105166632Y-97647999D01*
D11*
X101320600Y-104297480D02*
X99288600Y-104297480D01*
D12*
X98983800Y-98468543D02*
X98947514Y-98504829D01*
X98838657Y-98541114D01*
X98766086Y-98541114D01*
X98657229Y-98504829D01*
X98584657Y-98432257D01*
X98548372Y-98359686D01*
X98512086Y-98214543D01*
X98512086Y-98105686D01*
X98548372Y-97960543D01*
X98584657Y-97887971D01*
X98657229Y-97815400D01*
X98766086Y-97779114D01*
X98838657Y-97779114D01*
X98947514Y-97815400D01*
X98983800Y-97851686D01*
X99709514Y-98541114D02*
X99274086Y-98541114D01*
X99491800Y-98541114D02*
X99491800Y-97779114D01*
X99419229Y-97887971D01*
X99346657Y-97960543D01*
X99274086Y-97996829D01*
X99382943Y-106553000D02*
X99419229Y-106589286D01*
X99455514Y-106698143D01*
X99455514Y-106770714D01*
X99419229Y-106879571D01*
X99346657Y-106952143D01*
X99274086Y-106988428D01*
X99128943Y-107024714D01*
X99020086Y-107024714D01*
X98874943Y-106988428D01*
X98802371Y-106952143D01*
X98729800Y-106879571D01*
X98693514Y-106770714D01*
X98693514Y-106698143D01*
X98729800Y-106589286D01*
X98766086Y-106553000D01*
X98766086Y-106262714D02*
X98729800Y-106226428D01*
X98693514Y-106153857D01*
X98693514Y-105972428D01*
X98729800Y-105899857D01*
X98766086Y-105863571D01*
X98838657Y-105827286D01*
X98911229Y-105827286D01*
X99020086Y-105863571D01*
X99455514Y-106299000D01*
X99455514Y-105827286D01*
X102046314Y-96088199D02*
X102046314Y-96451056D01*
X101284314Y-96451056D01*
X102046314Y-95435057D02*
X102046314Y-95870485D01*
X102046314Y-95652771D02*
X101284314Y-95652771D01*
X101393171Y-95725342D01*
X101465743Y-95797914D01*
X101502029Y-95870485D01*
X104060448Y-101093547D02*
X104137421Y-100657363D01*
X103752554Y-100785653D02*
X104291369Y-100246838D01*
X104496632Y-100452100D01*
X104522290Y-100529074D01*
X104522289Y-100580390D01*
X104496632Y-100657363D01*
X104419658Y-100734337D01*
X104342684Y-100759995D01*
X104291369Y-100759995D01*
X104214395Y-100734337D01*
X104009132Y-100529074D01*
X104573605Y-101606704D02*
X104265711Y-101298810D01*
X104419658Y-101452757D02*
X104958473Y-100913942D01*
X104830184Y-100939600D01*
X104727552Y-100939600D01*
X104650579Y-100913943D01*
X105595707Y-104653635D02*
X105232921Y-104399534D01*
X105186539Y-104802560D02*
X104925919Y-104086514D01*
X105198698Y-103987231D01*
X105279304Y-103996507D01*
X105325811Y-104018195D01*
X105384730Y-104073979D01*
X105421961Y-104176271D01*
X105412684Y-104256877D01*
X105390998Y-104303384D01*
X105335213Y-104362303D01*
X105062434Y-104461586D01*
X105632689Y-103906501D02*
X105654376Y-103859992D01*
X105710160Y-103801074D01*
X105880647Y-103739022D01*
X105961252Y-103748299D01*
X106007760Y-103769986D01*
X106066678Y-103825770D01*
X106091499Y-103893965D01*
X106094633Y-104008668D01*
X105834389Y-104566762D01*
X106277655Y-104405426D01*
X104054333Y-105113898D02*
X103691547Y-104859797D01*
X103645165Y-105262823D02*
X103384545Y-104546777D01*
X103657324Y-104447494D01*
X103737930Y-104456770D01*
X103784437Y-104478458D01*
X103843356Y-104534242D01*
X103880587Y-104636534D01*
X103871310Y-104717140D01*
X103849624Y-104763647D01*
X103793839Y-104822566D01*
X103521060Y-104921849D01*
X104032396Y-104310979D02*
X104475662Y-104149643D01*
X104336264Y-104509296D01*
X104438557Y-104472064D01*
X104519162Y-104481341D01*
X104565670Y-104503027D01*
X104624587Y-104558813D01*
X104686639Y-104729299D01*
X104677364Y-104809905D01*
X104655677Y-104856413D01*
X104599892Y-104915330D01*
X104395307Y-104989793D01*
X104314703Y-104980517D01*
X104268194Y-104958830D01*
X101690714Y-99132571D02*
X102307571Y-99132571D01*
X102380143Y-99096286D01*
X102416429Y-99060000D01*
X102452714Y-98987429D01*
X102452714Y-98842286D01*
X102416429Y-98769714D01*
X102380143Y-98733429D01*
X102307571Y-98697143D01*
X101690714Y-98697143D01*
X102452714Y-97935143D02*
X102452714Y-98370571D01*
X102452714Y-98152857D02*
X101690714Y-98152857D01*
X101799571Y-98225428D01*
X101872143Y-98298000D01*
X101908429Y-98370571D01*
X103711829Y-107757686D02*
X103639257Y-107721400D01*
X103566686Y-107648829D01*
X103457829Y-107539971D01*
X103385257Y-107503686D01*
X103312686Y-107503686D01*
X103348971Y-107685114D02*
X103276400Y-107648829D01*
X103203829Y-107576257D01*
X103167543Y-107431114D01*
X103167543Y-107177114D01*
X103203829Y-107031971D01*
X103276400Y-106959400D01*
X103348971Y-106923114D01*
X103494114Y-106923114D01*
X103566686Y-106959400D01*
X103639257Y-107031971D01*
X103675543Y-107177114D01*
X103675543Y-107431114D01*
X103639257Y-107576257D01*
X103566686Y-107648829D01*
X103494114Y-107685114D01*
X103348971Y-107685114D01*
X104401257Y-107685114D02*
X103965829Y-107685114D01*
X104183543Y-107685114D02*
X104183543Y-106923114D01*
X104110972Y-107031971D01*
X104038400Y-107104543D01*
X103965829Y-107140829D01*
X99938114Y-102967971D02*
X100554971Y-102967971D01*
X100627543Y-102931686D01*
X100663829Y-102895400D01*
X100700114Y-102822829D01*
X100700114Y-102677686D01*
X100663829Y-102605114D01*
X100627543Y-102568829D01*
X100554971Y-102532543D01*
X99938114Y-102532543D01*
X100010686Y-102205971D02*
X99974400Y-102169685D01*
X99938114Y-102097114D01*
X99938114Y-101915685D01*
X99974400Y-101843114D01*
X100010686Y-101806828D01*
X100083257Y-101770543D01*
X100155829Y-101770543D01*
X100264686Y-101806828D01*
X100700114Y-102242257D01*
X100700114Y-101770543D01*
X104618053Y-96759822D02*
X104203038Y-96120755D01*
X104355196Y-96021942D01*
X104466254Y-95993086D01*
X104566643Y-96014424D01*
X104636600Y-96055526D01*
X104746082Y-96157490D01*
X104805370Y-96248785D01*
X104853989Y-96390275D01*
X104863083Y-96470900D01*
X104841744Y-96571290D01*
X104770211Y-96661009D01*
X104618053Y-96759822D01*
X105591869Y-96127418D02*
X105226688Y-96364570D01*
X105409278Y-96245994D02*
X104994263Y-95606927D01*
X104992688Y-95737747D01*
X104971349Y-95838137D01*
X104930249Y-95908094D01*
M02*
