G04 #@! TF.GenerationSoftware,KiCad,Pcbnew,(5.0.1)-3*
G04 #@! TF.CreationDate,2018-10-30T10:45:05-07:00*
G04 #@! TF.ProjectId,SMOL,534D4F4C2E6B696361645F7063620000,rev?*
G04 #@! TF.SameCoordinates,Original*
G04 #@! TF.FileFunction,Copper,L1,Top,Signal*
G04 #@! TF.FilePolarity,Positive*
%FSLAX46Y46*%
G04 Gerber Fmt 4.6, Leading zero omitted, Abs format (unit mm)*
G04 Created by KiCad (PCBNEW (5.0.1)-3) date 10/30/2018 10:45:05 AM*
%MOMM*%
%LPD*%
G01*
G04 APERTURE LIST*
G04 #@! TA.AperFunction,SMDPad,CuDef*
%ADD10R,1.200000X0.900000*%
G04 #@! TD*
G04 #@! TA.AperFunction,SMDPad,CuDef*
%ADD11C,0.900000*%
G04 #@! TD*
G04 #@! TA.AperFunction,Conductor*
%ADD12C,0.304800*%
G04 #@! TD*
G04 #@! TA.AperFunction,SMDPad,CuDef*
%ADD13R,1.000000X0.700000*%
G04 #@! TD*
G04 #@! TA.AperFunction,SMDPad,CuDef*
%ADD14R,0.400000X0.710000*%
G04 #@! TD*
G04 #@! TA.AperFunction,BGAPad,CuDef*
%ADD15C,3.000000*%
G04 #@! TD*
G04 #@! TA.AperFunction,SMDPad,CuDef*
%ADD16R,1.000000X3.810000*%
G04 #@! TD*
G04 #@! TA.AperFunction,SMDPad,CuDef*
%ADD17R,0.300000X1.000000*%
G04 #@! TD*
G04 #@! TA.AperFunction,SMDPad,CuDef*
%ADD18R,0.300000X0.700000*%
G04 #@! TD*
G04 #@! TA.AperFunction,ViaPad*
%ADD19C,0.609600*%
G04 #@! TD*
G04 #@! TA.AperFunction,Conductor*
%ADD20C,0.254000*%
G04 #@! TD*
G04 #@! TA.AperFunction,Conductor*
%ADD21C,0.406400*%
G04 #@! TD*
G04 #@! TA.AperFunction,Conductor*
%ADD22C,0.203200*%
G04 #@! TD*
G04 APERTURE END LIST*
D10*
G04 #@! TO.P,3,1*
G04 #@! TO.N,/Anode*
X102024000Y-97028000D03*
G04 #@! TO.P,3,2*
G04 #@! TO.N,Net-(Q1-Pad1)*
X104224000Y-97028000D03*
G04 #@! TD*
G04 #@! TO.P,L,1*
G04 #@! TO.N,/Cathode*
X102700000Y-95504000D03*
G04 #@! TO.P,L,2*
G04 #@! TO.N,Net-(L1-Pad2)*
X100500000Y-95504000D03*
G04 #@! TD*
G04 #@! TO.P,C,1*
G04 #@! TO.N,/Cathode*
X99822000Y-97028000D03*
G04 #@! TO.P,C,2*
G04 #@! TO.N,/Anode*
X97622000Y-97028000D03*
G04 #@! TD*
G04 #@! TO.P,2,1*
G04 #@! TO.N,Net-(R1-Pad2)*
X102024000Y-102362000D03*
G04 #@! TO.P,2,2*
G04 #@! TO.N,/Anode*
X104224000Y-102362000D03*
G04 #@! TD*
G04 #@! TO.P,C,1*
G04 #@! TO.N,/\03BCC_Vcc*
X99906000Y-102362000D03*
G04 #@! TO.P,C,2*
G04 #@! TO.N,/Anode*
X97706000Y-102362000D03*
G04 #@! TD*
D11*
G04 #@! TO.P,1,1*
G04 #@! TO.N,/\03BCC_Vcc*
X97240000Y-104266873D03*
D12*
G04 #@! TD*
G04 #@! TO.N,/\03BCC_Vcc*
G04 #@! TO.C,1*
G36*
X96550289Y-103972258D02*
X97329711Y-103522258D01*
X97929711Y-104561488D01*
X97150289Y-105011488D01*
X96550289Y-103972258D01*
X96550289Y-103972258D01*
G37*
D11*
G04 #@! TO.P,1,2*
G04 #@! TO.N,Net-(R1-Pad2)*
X98340000Y-106172127D03*
D12*
G04 #@! TD*
G04 #@! TO.N,Net-(R1-Pad2)*
G04 #@! TO.C,1*
G36*
X97650289Y-105877512D02*
X98429711Y-105427512D01*
X99029711Y-106466742D01*
X98250289Y-106916742D01*
X97650289Y-105877512D01*
X97650289Y-105877512D01*
G37*
D13*
G04 #@! TO.P,U2,1*
G04 #@! TO.N,Net-(U2-Pad1)*
X104424000Y-100518000D03*
G04 #@! TO.P,U2,2*
G04 #@! TO.N,/Anode*
X104424000Y-99568000D03*
G04 #@! TO.P,U2,3*
G04 #@! TO.N,Net-(Q1-Pad1)*
X104424000Y-98618000D03*
G04 #@! TO.P,U2,4*
G04 #@! TO.N,Net-(U2-Pad4)*
X101824000Y-98618000D03*
G04 #@! TO.P,U2,6*
G04 #@! TO.N,Net-(U2-Pad6)*
X101824000Y-100518000D03*
G04 #@! TO.P,U2,5*
G04 #@! TO.N,/\03BCC_Vcc*
X101824000Y-99568000D03*
G04 #@! TD*
D14*
G04 #@! TO.P,Q,1*
G04 #@! TO.N,Net-(Q1-Pad1)*
X106418000Y-104665000D03*
G04 #@! TO.P,Q,2*
G04 #@! TO.N,/Anode*
X105418000Y-104665000D03*
G04 #@! TO.P,Q,3*
G04 #@! TO.N,/Spring_Contact*
X105918000Y-106155000D03*
G04 #@! TD*
D15*
G04 #@! TO.P,TP1,1*
G04 #@! TO.N,/Cathode*
X107696000Y-102057200D03*
G04 #@! TD*
D16*
G04 #@! TO.P,TP2,1*
G04 #@! TO.N,/Anode*
X96012000Y-99822000D03*
G04 #@! TD*
D13*
G04 #@! TO.P,U1,1*
G04 #@! TO.N,Net-(L1-Pad2)*
X97476000Y-98618000D03*
G04 #@! TO.P,U1,2*
G04 #@! TO.N,/Anode*
X97476000Y-99568000D03*
G04 #@! TO.P,U1,3*
G04 #@! TO.N,/Cathode*
X97476000Y-100518000D03*
G04 #@! TO.P,U1,4*
G04 #@! TO.N,Net-(R1-Pad2)*
X100076000Y-100518000D03*
G04 #@! TO.P,U1,6*
G04 #@! TO.N,/Cathode*
X100076000Y-98618000D03*
G04 #@! TO.P,U1,5*
G04 #@! TO.N,/\03BCC_Vcc*
X100076000Y-99568000D03*
G04 #@! TD*
D14*
G04 #@! TO.P,D,1*
G04 #@! TO.N,/Spring_Contact*
X105672000Y-98789000D03*
G04 #@! TO.P,D,2*
G04 #@! TO.N,N/C*
X106672000Y-98789000D03*
G04 #@! TO.P,D,3*
G04 #@! TO.N,/Cathode*
X106172000Y-97299000D03*
G04 #@! TD*
D17*
G04 #@! TO.P,J\002A\002A,8*
G04 #@! TO.N,N/C*
X103894000Y-107344000D03*
G04 #@! TO.P,J\002A\002A,7*
G04 #@! TO.N,/\03BCC_Vcc*
X99814000Y-107344000D03*
D18*
G04 #@! TO.P,J\002A\002A,6*
G04 #@! TO.N,N/C*
X103104000Y-104694000D03*
G04 #@! TO.P,J\002A\002A,5*
G04 #@! TO.N,Net-(U2-Pad1)*
X102604000Y-104694000D03*
G04 #@! TO.P,J\002A\002A,4*
G04 #@! TO.N,Net-(Q1-Pad1)*
X102104000Y-104694000D03*
G04 #@! TO.P,J\002A\002A,3*
G04 #@! TO.N,/Anode*
X101604000Y-104694000D03*
G04 #@! TO.P,J\002A\002A,2*
G04 #@! TO.N,Net-(U2-Pad6)*
X101104000Y-104694000D03*
G04 #@! TO.P,J\002A\002A,1*
G04 #@! TO.N,/\03BCC_Vcc*
X100604000Y-104694000D03*
G04 #@! TD*
D19*
G04 #@! TO.N,/Anode*
X95885000Y-102489000D03*
X100838000Y-108140500D03*
G04 #@! TO.N,/Spring_Contact*
X105664000Y-98552000D03*
X104952800Y-105765600D03*
G04 #@! TO.N,Net-(Q1-Pad1)*
X104394000Y-96266000D03*
X102552500Y-108077000D03*
X106934000Y-104648000D03*
G04 #@! TD*
D20*
G04 #@! TO.N,/Cathode*
X98230000Y-100518000D02*
X98552000Y-100196000D01*
X97476000Y-100518000D02*
X98230000Y-100518000D01*
X99322000Y-98618000D02*
X100076000Y-98618000D01*
X98994000Y-98618000D02*
X99322000Y-98618000D01*
X98552000Y-99060000D02*
X98994000Y-98618000D01*
X98552000Y-100196000D02*
X98552000Y-99060000D01*
X100076000Y-97282000D02*
X99822000Y-97028000D01*
X100076000Y-98618000D02*
X100076000Y-97282000D01*
X102700000Y-95504000D02*
X101854000Y-95758000D01*
X100457000Y-97028000D02*
X99822000Y-97028000D01*
X100584000Y-97028000D02*
X100457000Y-97028000D01*
X100838000Y-96774000D02*
X100584000Y-97028000D01*
X100965000Y-96520000D02*
X100838000Y-96774000D01*
X100965000Y-96520000D02*
X101854000Y-95758000D01*
X106172000Y-97299000D02*
X105918000Y-96520000D01*
X103378000Y-95250000D02*
X102700000Y-95504000D01*
X103632000Y-95250000D02*
X103378000Y-95250000D01*
X104648000Y-95504000D02*
X103632000Y-95250000D01*
X105410000Y-96012000D02*
X104648000Y-95504000D01*
X105918000Y-96520000D02*
X105410000Y-96012000D01*
X106172000Y-97299000D02*
X106883200Y-97790000D01*
X107543600Y-100431600D02*
X107696000Y-102057200D01*
X107543600Y-99161600D02*
X107543600Y-100431600D01*
X107391200Y-98247200D02*
X107543600Y-99161600D01*
X106883200Y-97790000D02*
X107391200Y-98247200D01*
G04 #@! TO.N,/Anode*
X96852000Y-102362000D02*
X96266000Y-101776000D01*
X96266000Y-101776000D02*
X96266000Y-100024000D01*
X96266000Y-100024000D02*
X96722000Y-99568000D01*
X97706000Y-102362000D02*
X96852000Y-102362000D01*
X96722000Y-99568000D02*
X97476000Y-99568000D01*
X97472000Y-97028000D02*
X97622000Y-97028000D01*
X96520000Y-97980000D02*
X97472000Y-97028000D01*
X96520000Y-99366000D02*
X96520000Y-97980000D01*
X96722000Y-99568000D02*
X96520000Y-99366000D01*
X104424000Y-99568000D02*
X103759000Y-99568000D01*
X103759000Y-99568000D02*
X103505000Y-99229333D01*
X102870000Y-97663000D02*
X102024000Y-97028000D01*
X103505000Y-99229333D02*
X103378000Y-99060000D01*
X103378000Y-99060000D02*
X103124000Y-98552000D01*
X103124000Y-98552000D02*
X102870000Y-97663000D01*
X101604000Y-104694000D02*
X101600000Y-103759000D01*
X103505000Y-103187500D02*
X104224000Y-102362000D01*
X103314500Y-103568500D02*
X103505000Y-103187500D01*
X102552500Y-103632000D02*
X103314500Y-103568500D01*
X101600000Y-103759000D02*
X102552500Y-103632000D01*
X104224000Y-102362000D02*
X103695500Y-101473000D01*
X103695500Y-101473000D02*
X103378000Y-99822000D01*
X103505000Y-99250500D02*
X103505000Y-99229333D01*
X103378000Y-99822000D02*
X103469440Y-99181920D01*
X103469440Y-99181920D02*
X103505000Y-99250500D01*
X103378000Y-99822000D02*
X103378000Y-99822000D01*
X103759000Y-99568000D02*
X103414286Y-99568000D01*
X103378000Y-99631500D02*
X103378000Y-99822000D01*
X103414286Y-99568000D02*
X103378000Y-99631500D01*
X101604000Y-104694000D02*
X101600000Y-106045000D01*
X95885000Y-102489000D02*
X97706000Y-102362000D01*
X101600000Y-106045000D02*
X101346000Y-107378500D01*
X101346000Y-107378500D02*
X100838000Y-108140500D01*
X105418000Y-104665000D02*
X105664000Y-103632000D01*
X105765600Y-101854000D02*
X105664000Y-100838000D01*
X105765600Y-103124000D02*
X105765600Y-101854000D01*
X105664000Y-103632000D02*
X105765600Y-103124000D01*
X105664000Y-100838000D02*
X105410000Y-100076000D01*
X105410000Y-100076000D02*
X104902000Y-99568000D01*
X104902000Y-99568000D02*
X104424000Y-99568000D01*
G04 #@! TO.N,/\03BCC_Vcc*
X99992001Y-102448001D02*
X99906000Y-102362000D01*
X99906000Y-102362000D02*
X99822000Y-102362000D01*
X99822000Y-102362000D02*
X99060000Y-101600000D01*
X99322000Y-99568000D02*
X100076000Y-99568000D01*
X99060000Y-99830000D02*
X99322000Y-99568000D01*
X99060000Y-101600000D02*
X99060000Y-99830000D01*
X100076000Y-99568000D02*
X102078000Y-99568000D01*
X99906000Y-102362000D02*
X99314000Y-103251000D01*
X99314000Y-103251000D02*
X97240000Y-104266873D01*
X100604000Y-104694000D02*
X100457000Y-105727500D01*
X100457000Y-105727500D02*
X99814000Y-107344000D01*
X99814000Y-107344000D02*
X98869500Y-107569000D01*
X98869500Y-107569000D02*
X98044000Y-107378500D01*
X98044000Y-107378500D02*
X97345500Y-106680000D01*
X97345500Y-106680000D02*
X96710500Y-105346500D01*
X96710500Y-105346500D02*
X96837500Y-104711500D01*
X96837500Y-104711500D02*
X97240000Y-104266873D01*
G04 #@! TO.N,Net-(L1-Pad2)*
X98230000Y-98618000D02*
X98551000Y-98297000D01*
X98551000Y-98297000D02*
X98552000Y-98296000D01*
X97476000Y-98618000D02*
X98230000Y-98618000D01*
X98551000Y-98297000D02*
X98679000Y-98044000D01*
X99187000Y-95631000D02*
X100500000Y-95504000D01*
X98806000Y-95885000D02*
X99187000Y-95631000D01*
X98679000Y-96266000D02*
X98806000Y-95885000D01*
X98679000Y-96901000D02*
X98679000Y-96266000D01*
X98679000Y-98044000D02*
X98679000Y-96901000D01*
D21*
G04 #@! TO.N,/Spring_Contact*
X105664000Y-98552000D02*
X105672000Y-98789000D01*
X105918000Y-106155000D02*
X104952800Y-105765600D01*
D20*
G04 #@! TO.N,Net-(R1-Pad2)*
X100114000Y-100518000D02*
X100076000Y-100518000D01*
X102024000Y-102362000D02*
X100076000Y-100518000D01*
X98340000Y-106172127D02*
X99123500Y-104521000D01*
X101219000Y-102743000D02*
X102024000Y-102362000D01*
X100647500Y-103314500D02*
X101219000Y-102743000D01*
X99885500Y-103695500D02*
X100647500Y-103314500D01*
X99123500Y-104521000D02*
X99885500Y-103695500D01*
G04 #@! TO.N,Net-(U2-Pad1)*
X104424000Y-100518000D02*
X105156000Y-100965000D01*
X105206800Y-103225600D02*
X104521000Y-104330500D01*
X105257600Y-102768400D02*
X105206800Y-103225600D01*
X105283000Y-102044500D02*
X105257600Y-102768400D01*
X105283000Y-102044500D02*
X105156000Y-100965000D01*
X102616000Y-105410000D02*
X102604000Y-104694000D01*
X102616000Y-105410000D02*
X103060500Y-105537000D01*
X103060500Y-105537000D02*
X103568500Y-105410000D01*
X103568500Y-105410000D02*
X103886000Y-105156000D01*
X103886000Y-105156000D02*
X104521000Y-104330500D01*
G04 #@! TO.N,Net-(U2-Pad6)*
X101824000Y-100518000D02*
X102743000Y-100711000D01*
X101092000Y-103632000D02*
X101104000Y-104694000D01*
X101346000Y-103314500D02*
X101092000Y-103632000D01*
X102108000Y-103187500D02*
X101346000Y-103314500D01*
X102997000Y-103124000D02*
X102108000Y-103187500D01*
X103124000Y-101092000D02*
X103124000Y-102108000D01*
X102997000Y-100838000D02*
X103124000Y-101092000D01*
X102743000Y-100711000D02*
X102997000Y-100838000D01*
X103124000Y-102108000D02*
X103124000Y-102616000D01*
X103124000Y-102616000D02*
X102997000Y-103124000D01*
G04 #@! TO.N,Net-(Q1-Pad1)*
X104224000Y-97028000D02*
X104424000Y-98618000D01*
X102108000Y-106870500D02*
X102235000Y-107505500D01*
X104224000Y-97028000D02*
X104394000Y-96266000D01*
X102108000Y-106870500D02*
X102104000Y-104694000D01*
X102235000Y-107505500D02*
X102552500Y-108077000D01*
X106418000Y-104665000D02*
X106934000Y-104648000D01*
G04 #@! TD*
D22*
G04 #@! TO.N,/Anode*
G36*
X101108689Y-105560794D02*
X101332743Y-105653600D01*
X101376600Y-105653600D01*
X101451598Y-105578602D01*
X101451598Y-105653600D01*
X101521563Y-105653600D01*
X101523802Y-106871910D01*
X101523861Y-106928651D01*
X101523907Y-106928879D01*
X101523907Y-106929110D01*
X101535086Y-106984776D01*
X101646038Y-107539535D01*
X101643249Y-107573493D01*
X101668645Y-107652572D01*
X101673429Y-107676490D01*
X101686197Y-107707223D01*
X101696375Y-107738916D01*
X101708224Y-107760243D01*
X101740086Y-107836939D01*
X101764202Y-107861005D01*
X101794555Y-107915640D01*
X101790500Y-107925429D01*
X101790500Y-108172643D01*
X101090407Y-108170383D01*
X100369380Y-108060244D01*
X100394673Y-108022391D01*
X100430157Y-107844000D01*
X100430157Y-107375582D01*
X100961459Y-106039891D01*
X100969722Y-106030664D01*
X101004251Y-105932313D01*
X101021097Y-105889962D01*
X101023282Y-105878106D01*
X101027276Y-105866729D01*
X101033695Y-105821600D01*
X101052585Y-105719094D01*
X101049998Y-105706982D01*
X101075510Y-105527615D01*
X101108689Y-105560794D01*
X101108689Y-105560794D01*
G37*
X101108689Y-105560794D02*
X101332743Y-105653600D01*
X101376600Y-105653600D01*
X101451598Y-105578602D01*
X101451598Y-105653600D01*
X101521563Y-105653600D01*
X101523802Y-106871910D01*
X101523861Y-106928651D01*
X101523907Y-106928879D01*
X101523907Y-106929110D01*
X101535086Y-106984776D01*
X101646038Y-107539535D01*
X101643249Y-107573493D01*
X101668645Y-107652572D01*
X101673429Y-107676490D01*
X101686197Y-107707223D01*
X101696375Y-107738916D01*
X101708224Y-107760243D01*
X101740086Y-107836939D01*
X101764202Y-107861005D01*
X101794555Y-107915640D01*
X101790500Y-107925429D01*
X101790500Y-108172643D01*
X101090407Y-108170383D01*
X100369380Y-108060244D01*
X100394673Y-108022391D01*
X100430157Y-107844000D01*
X100430157Y-107375582D01*
X100961459Y-106039891D01*
X100969722Y-106030664D01*
X101004251Y-105932313D01*
X101021097Y-105889962D01*
X101023282Y-105878106D01*
X101027276Y-105866729D01*
X101033695Y-105821600D01*
X101052585Y-105719094D01*
X101049998Y-105706982D01*
X101075510Y-105527615D01*
X101108689Y-105560794D01*
G36*
X96164400Y-99669600D02*
X96184400Y-99669600D01*
X96184400Y-99974400D01*
X96164400Y-99974400D01*
X96164400Y-102184200D01*
X96316800Y-102336600D01*
X96633257Y-102336600D01*
X96857311Y-102243794D01*
X96891505Y-102209600D01*
X97553600Y-102209600D01*
X97553600Y-102189600D01*
X97858400Y-102189600D01*
X97858400Y-102209600D01*
X97878400Y-102209600D01*
X97878400Y-102514400D01*
X97858400Y-102514400D01*
X97858400Y-102534400D01*
X97553600Y-102534400D01*
X97553600Y-102514400D01*
X96648800Y-102514400D01*
X96496400Y-102666800D01*
X96496400Y-102933257D01*
X96589206Y-103157311D01*
X96750366Y-103318471D01*
X96317210Y-103568554D01*
X96180462Y-103688480D01*
X96100016Y-103851608D01*
X96088120Y-104033104D01*
X96146585Y-104205337D01*
X96300276Y-104471538D01*
X96276554Y-104511171D01*
X96261738Y-104611464D01*
X96157308Y-105133616D01*
X96149148Y-105147311D01*
X96134623Y-105247039D01*
X96130608Y-105267116D01*
X95758000Y-104636193D01*
X95758000Y-102285800D01*
X95859600Y-102184200D01*
X95859600Y-99974400D01*
X95839600Y-99974400D01*
X95839600Y-99669600D01*
X95859600Y-99669600D01*
X95859600Y-99649600D01*
X96164400Y-99649600D01*
X96164400Y-99669600D01*
X96164400Y-99669600D01*
G37*
X96164400Y-99669600D02*
X96184400Y-99669600D01*
X96184400Y-99974400D01*
X96164400Y-99974400D01*
X96164400Y-102184200D01*
X96316800Y-102336600D01*
X96633257Y-102336600D01*
X96857311Y-102243794D01*
X96891505Y-102209600D01*
X97553600Y-102209600D01*
X97553600Y-102189600D01*
X97858400Y-102189600D01*
X97858400Y-102209600D01*
X97878400Y-102209600D01*
X97878400Y-102514400D01*
X97858400Y-102514400D01*
X97858400Y-102534400D01*
X97553600Y-102534400D01*
X97553600Y-102514400D01*
X96648800Y-102514400D01*
X96496400Y-102666800D01*
X96496400Y-102933257D01*
X96589206Y-103157311D01*
X96750366Y-103318471D01*
X96317210Y-103568554D01*
X96180462Y-103688480D01*
X96100016Y-103851608D01*
X96088120Y-104033104D01*
X96146585Y-104205337D01*
X96300276Y-104471538D01*
X96276554Y-104511171D01*
X96261738Y-104611464D01*
X96157308Y-105133616D01*
X96149148Y-105147311D01*
X96134623Y-105247039D01*
X96130608Y-105267116D01*
X95758000Y-104636193D01*
X95758000Y-102285800D01*
X95859600Y-102184200D01*
X95859600Y-99974400D01*
X95839600Y-99974400D01*
X95839600Y-99669600D01*
X95859600Y-99669600D01*
X95859600Y-99649600D01*
X96164400Y-99649600D01*
X96164400Y-99669600D01*
G36*
X105518000Y-104512600D02*
X105590400Y-104512600D01*
X105590400Y-104817400D01*
X105518000Y-104817400D01*
X105518000Y-104837400D01*
X105318000Y-104837400D01*
X105318000Y-104817400D01*
X105245600Y-104817400D01*
X105245600Y-104512600D01*
X105318000Y-104512600D01*
X105318000Y-104492600D01*
X105518000Y-104492600D01*
X105518000Y-104512600D01*
X105518000Y-104512600D01*
G37*
X105518000Y-104512600D02*
X105590400Y-104512600D01*
X105590400Y-104817400D01*
X105518000Y-104817400D01*
X105518000Y-104837400D01*
X105318000Y-104837400D01*
X105318000Y-104817400D01*
X105245600Y-104817400D01*
X105245600Y-104512600D01*
X105318000Y-104512600D01*
X105318000Y-104492600D01*
X105518000Y-104492600D01*
X105518000Y-104512600D01*
G36*
X104376400Y-102209600D02*
X104396400Y-102209600D01*
X104396400Y-102514400D01*
X104376400Y-102514400D01*
X104376400Y-103269200D01*
X104447822Y-103340622D01*
X104040093Y-103997519D01*
X103720157Y-104413438D01*
X103720157Y-104344000D01*
X103684673Y-104165609D01*
X103583623Y-104014377D01*
X103432391Y-103913327D01*
X103254000Y-103877843D01*
X102954000Y-103877843D01*
X102854000Y-103897734D01*
X102754000Y-103877843D01*
X102454000Y-103877843D01*
X102354000Y-103897734D01*
X102254000Y-103877843D01*
X102149948Y-103877843D01*
X102099311Y-103827206D01*
X102020121Y-103794404D01*
X102176987Y-103768260D01*
X103003643Y-103709214D01*
X103084668Y-103713157D01*
X103173035Y-103681494D01*
X103263571Y-103656665D01*
X103281766Y-103642533D01*
X103303457Y-103634761D01*
X103372984Y-103571687D01*
X103447122Y-103514106D01*
X103458525Y-103494085D01*
X103475589Y-103478605D01*
X103502555Y-103421522D01*
X103502743Y-103421600D01*
X103919200Y-103421600D01*
X104071600Y-103269200D01*
X104071600Y-102514400D01*
X104051600Y-102514400D01*
X104051600Y-102209600D01*
X104071600Y-102209600D01*
X104071600Y-102189600D01*
X104376400Y-102189600D01*
X104376400Y-102209600D01*
X104376400Y-102209600D01*
G37*
X104376400Y-102209600D02*
X104396400Y-102209600D01*
X104396400Y-102514400D01*
X104376400Y-102514400D01*
X104376400Y-103269200D01*
X104447822Y-103340622D01*
X104040093Y-103997519D01*
X103720157Y-104413438D01*
X103720157Y-104344000D01*
X103684673Y-104165609D01*
X103583623Y-104014377D01*
X103432391Y-103913327D01*
X103254000Y-103877843D01*
X102954000Y-103877843D01*
X102854000Y-103897734D01*
X102754000Y-103877843D01*
X102454000Y-103877843D01*
X102354000Y-103897734D01*
X102254000Y-103877843D01*
X102149948Y-103877843D01*
X102099311Y-103827206D01*
X102020121Y-103794404D01*
X102176987Y-103768260D01*
X103003643Y-103709214D01*
X103084668Y-103713157D01*
X103173035Y-103681494D01*
X103263571Y-103656665D01*
X103281766Y-103642533D01*
X103303457Y-103634761D01*
X103372984Y-103571687D01*
X103447122Y-103514106D01*
X103458525Y-103494085D01*
X103475589Y-103478605D01*
X103502555Y-103421522D01*
X103502743Y-103421600D01*
X103919200Y-103421600D01*
X104071600Y-103269200D01*
X104071600Y-102514400D01*
X104051600Y-102514400D01*
X104051600Y-102209600D01*
X104071600Y-102209600D01*
X104071600Y-102189600D01*
X104376400Y-102189600D01*
X104376400Y-102209600D01*
G36*
X106036766Y-103165865D02*
X106587335Y-103716434D01*
X106996704Y-103886000D01*
X106806378Y-103886000D01*
X106796391Y-103879327D01*
X106618000Y-103843843D01*
X106218000Y-103843843D01*
X106047802Y-103877697D01*
X105963311Y-103793206D01*
X105739257Y-103700400D01*
X105670400Y-103700400D01*
X105570402Y-103800398D01*
X105570402Y-103747572D01*
X105680908Y-103569535D01*
X105728566Y-103512919D01*
X105759077Y-103416678D01*
X105794569Y-103322141D01*
X105792086Y-103248170D01*
X105834326Y-102868018D01*
X105839423Y-102846387D01*
X105840666Y-102810952D01*
X105844580Y-102775729D01*
X105842679Y-102753596D01*
X105844500Y-102701693D01*
X106036766Y-103165865D01*
X106036766Y-103165865D01*
G37*
X106036766Y-103165865D02*
X106587335Y-103716434D01*
X106996704Y-103886000D01*
X106806378Y-103886000D01*
X106796391Y-103879327D01*
X106618000Y-103843843D01*
X106218000Y-103843843D01*
X106047802Y-103877697D01*
X105963311Y-103793206D01*
X105739257Y-103700400D01*
X105670400Y-103700400D01*
X105570402Y-103800398D01*
X105570402Y-103747572D01*
X105680908Y-103569535D01*
X105728566Y-103512919D01*
X105759077Y-103416678D01*
X105794569Y-103322141D01*
X105792086Y-103248170D01*
X105834326Y-102868018D01*
X105839423Y-102846387D01*
X105840666Y-102810952D01*
X105844580Y-102775729D01*
X105842679Y-102753596D01*
X105844500Y-102701693D01*
X106036766Y-103165865D01*
G36*
X106293609Y-99574673D02*
X106472000Y-99610157D01*
X106872000Y-99610157D01*
X106959400Y-99592772D01*
X106959401Y-100243851D01*
X106587335Y-100397966D01*
X106036766Y-100948535D01*
X105807429Y-101502204D01*
X105738804Y-100918892D01*
X105734970Y-100825045D01*
X105700901Y-100751448D01*
X105675901Y-100674321D01*
X105652494Y-100646876D01*
X105637339Y-100614137D01*
X105577707Y-100559187D01*
X105525088Y-100497489D01*
X105441444Y-100454797D01*
X105390157Y-100423478D01*
X105390157Y-100313948D01*
X105440794Y-100263311D01*
X105533600Y-100039257D01*
X105533600Y-99872800D01*
X105381202Y-99720402D01*
X105533600Y-99720402D01*
X105533600Y-99610157D01*
X105872000Y-99610157D01*
X106050391Y-99574673D01*
X106172000Y-99493416D01*
X106293609Y-99574673D01*
X106293609Y-99574673D01*
G37*
X106293609Y-99574673D02*
X106472000Y-99610157D01*
X106872000Y-99610157D01*
X106959400Y-99592772D01*
X106959401Y-100243851D01*
X106587335Y-100397966D01*
X106036766Y-100948535D01*
X105807429Y-101502204D01*
X105738804Y-100918892D01*
X105734970Y-100825045D01*
X105700901Y-100751448D01*
X105675901Y-100674321D01*
X105652494Y-100646876D01*
X105637339Y-100614137D01*
X105577707Y-100559187D01*
X105525088Y-100497489D01*
X105441444Y-100454797D01*
X105390157Y-100423478D01*
X105390157Y-100313948D01*
X105440794Y-100263311D01*
X105533600Y-100039257D01*
X105533600Y-99872800D01*
X105381202Y-99720402D01*
X105533600Y-99720402D01*
X105533600Y-99610157D01*
X105872000Y-99610157D01*
X106050391Y-99574673D01*
X106172000Y-99493416D01*
X106293609Y-99574673D01*
G36*
X103745609Y-101298673D02*
X103764346Y-101302400D01*
X103708200Y-101302400D01*
X103708200Y-101273677D01*
X103745609Y-101298673D01*
X103745609Y-101298673D01*
G37*
X103745609Y-101298673D02*
X103764346Y-101302400D01*
X103708200Y-101302400D01*
X103708200Y-101273677D01*
X103745609Y-101298673D01*
G36*
X103294377Y-97807623D02*
X103445609Y-97908673D01*
X103594507Y-97938290D01*
X103594377Y-97938377D01*
X103493327Y-98089609D01*
X103457843Y-98268000D01*
X103457843Y-98822052D01*
X103407206Y-98872689D01*
X103314400Y-99096743D01*
X103314400Y-99263200D01*
X103466800Y-99415600D01*
X103830707Y-99415600D01*
X103924000Y-99434157D01*
X104596400Y-99434157D01*
X104596400Y-99701843D01*
X103924000Y-99701843D01*
X103830707Y-99720400D01*
X103466800Y-99720400D01*
X103314400Y-99872800D01*
X103314400Y-100039257D01*
X103407206Y-100263311D01*
X103457843Y-100313948D01*
X103457843Y-100466786D01*
X103446982Y-100447733D01*
X103413359Y-100421638D01*
X103387267Y-100388019D01*
X103322384Y-100351033D01*
X103309725Y-100341208D01*
X103272487Y-100322589D01*
X103185359Y-100272922D01*
X103169038Y-100270865D01*
X103091913Y-100232302D01*
X103079178Y-100219293D01*
X102988510Y-100180600D01*
X102952799Y-100162745D01*
X102935690Y-100158060D01*
X102919377Y-100151098D01*
X102880310Y-100142893D01*
X102785225Y-100116854D01*
X102780112Y-100117499D01*
X102765293Y-100043000D01*
X102790157Y-99918000D01*
X102790157Y-99218000D01*
X102765293Y-99093000D01*
X102790157Y-98968000D01*
X102790157Y-98268000D01*
X102754673Y-98089609D01*
X102751580Y-98084981D01*
X102969311Y-97994794D01*
X103140794Y-97823311D01*
X103203579Y-97671734D01*
X103294377Y-97807623D01*
X103294377Y-97807623D01*
G37*
X103294377Y-97807623D02*
X103445609Y-97908673D01*
X103594507Y-97938290D01*
X103594377Y-97938377D01*
X103493327Y-98089609D01*
X103457843Y-98268000D01*
X103457843Y-98822052D01*
X103407206Y-98872689D01*
X103314400Y-99096743D01*
X103314400Y-99263200D01*
X103466800Y-99415600D01*
X103830707Y-99415600D01*
X103924000Y-99434157D01*
X104596400Y-99434157D01*
X104596400Y-99701843D01*
X103924000Y-99701843D01*
X103830707Y-99720400D01*
X103466800Y-99720400D01*
X103314400Y-99872800D01*
X103314400Y-100039257D01*
X103407206Y-100263311D01*
X103457843Y-100313948D01*
X103457843Y-100466786D01*
X103446982Y-100447733D01*
X103413359Y-100421638D01*
X103387267Y-100388019D01*
X103322384Y-100351033D01*
X103309725Y-100341208D01*
X103272487Y-100322589D01*
X103185359Y-100272922D01*
X103169038Y-100270865D01*
X103091913Y-100232302D01*
X103079178Y-100219293D01*
X102988510Y-100180600D01*
X102952799Y-100162745D01*
X102935690Y-100158060D01*
X102919377Y-100151098D01*
X102880310Y-100142893D01*
X102785225Y-100116854D01*
X102780112Y-100117499D01*
X102765293Y-100043000D01*
X102790157Y-99918000D01*
X102790157Y-99218000D01*
X102765293Y-99093000D01*
X102790157Y-98968000D01*
X102790157Y-98268000D01*
X102754673Y-98089609D01*
X102751580Y-98084981D01*
X102969311Y-97994794D01*
X103140794Y-97823311D01*
X103203579Y-97671734D01*
X103294377Y-97807623D01*
G36*
X97648400Y-99701843D02*
X97303600Y-99701843D01*
X97303600Y-99434157D01*
X97648400Y-99434157D01*
X97648400Y-99701843D01*
X97648400Y-99701843D01*
G37*
X97648400Y-99701843D02*
X97303600Y-99701843D01*
X97303600Y-99434157D01*
X97648400Y-99434157D01*
X97648400Y-99701843D01*
G36*
X102176400Y-96875600D02*
X102196400Y-96875600D01*
X102196400Y-97180400D01*
X102176400Y-97180400D01*
X102176400Y-97200400D01*
X101871600Y-97200400D01*
X101871600Y-97180400D01*
X101851600Y-97180400D01*
X101851600Y-96875600D01*
X101871600Y-96875600D01*
X101871600Y-96855600D01*
X102176400Y-96855600D01*
X102176400Y-96875600D01*
X102176400Y-96875600D01*
G37*
X102176400Y-96875600D02*
X102196400Y-96875600D01*
X102196400Y-97180400D01*
X102176400Y-97180400D01*
X102176400Y-97200400D01*
X101871600Y-97200400D01*
X101871600Y-97180400D01*
X101851600Y-97180400D01*
X101851600Y-96875600D01*
X101871600Y-96875600D01*
X101871600Y-96855600D01*
X102176400Y-96855600D01*
X102176400Y-96875600D01*
G36*
X97774400Y-96875600D02*
X97794400Y-96875600D01*
X97794400Y-97180400D01*
X97774400Y-97180400D01*
X97774400Y-97200400D01*
X97469600Y-97200400D01*
X97469600Y-97180400D01*
X97449600Y-97180400D01*
X97449600Y-96875600D01*
X97469600Y-96875600D01*
X97469600Y-96855600D01*
X97774400Y-96855600D01*
X97774400Y-96875600D01*
X97774400Y-96875600D01*
G37*
X97774400Y-96875600D02*
X97794400Y-96875600D01*
X97794400Y-97180400D01*
X97774400Y-97180400D01*
X97774400Y-97200400D01*
X97469600Y-97200400D01*
X97469600Y-97180400D01*
X97449600Y-97180400D01*
X97449600Y-96875600D01*
X97469600Y-96875600D01*
X97469600Y-96855600D01*
X97774400Y-96855600D01*
X97774400Y-96875600D01*
G04 #@! TD*
M02*
