M48
; DRILL file {KiCad (5.1.2)-1} date 5/24/2019 5:59:42 PM
; FORMAT={-:-/ absolute / inch / decimal}
; #@! TF.CreationDate,2019-05-24T17:59:42-07:00
; #@! TF.GenerationSoftware,Kicad,Pcbnew,(5.1.2)-1
FMAT,2
INCH
T1C0.0394
T2C0.0400
T3C0.1181
T4C0.1181
%
G90
G05
T1
X0.95Y-0.555
X1.25Y-0.555
X1.0Y-0.6
X1.05Y-0.555
X1.1Y-0.6
X1.15Y-0.555
X1.2Y-0.6
T2
X1.0Y-1.825
X1.0Y-1.925
X1.1Y-1.825
X1.1Y-1.925
X1.2Y-1.825
X1.2Y-1.925
X1.05Y-1.025
X1.05Y-1.125
X1.05Y-1.225
X1.05Y-1.325
X1.05Y-1.425
X1.15Y-1.025
X1.15Y-1.125
X1.15Y-1.225
X1.15Y-1.325
X1.15Y-1.425
T3
X1.36Y-1.6
T4
X1.325Y-0.725
X0.875Y-0.725
X0.84Y-1.6
T0
M30
