G04 #@! TF.GenerationSoftware,KiCad,Pcbnew,(5.1.2)-1*
G04 #@! TF.CreationDate,2019-05-20T03:11:49+02:00*
G04 #@! TF.ProjectId,programmer,70726f67-7261-46d6-9d65-722e6b696361,rev?*
G04 #@! TF.SameCoordinates,Original*
G04 #@! TF.FileFunction,Legend,Top*
G04 #@! TF.FilePolarity,Positive*
%FSLAX46Y46*%
G04 Gerber Fmt 4.6, Leading zero omitted, Abs format (unit mm)*
G04 Created by KiCad (PCBNEW (5.1.2)-1) date 2019-05-20 03:11:49*
%MOMM*%
%LPD*%
G04 APERTURE LIST*
%ADD10C,0.158750*%
%ADD11C,0.100000*%
G04 APERTURE END LIST*
D10*
X25681214Y-18699616D02*
X25318357Y-18953616D01*
X25681214Y-19135044D02*
X24919214Y-19135044D01*
X24919214Y-18844758D01*
X24955500Y-18772187D01*
X24991785Y-18735901D01*
X25064357Y-18699616D01*
X25173214Y-18699616D01*
X25245785Y-18735901D01*
X25282071Y-18772187D01*
X25318357Y-18844758D01*
X25318357Y-19135044D01*
X25644928Y-18409330D02*
X25681214Y-18300473D01*
X25681214Y-18119044D01*
X25644928Y-18046473D01*
X25608642Y-18010187D01*
X25536071Y-17973901D01*
X25463500Y-17973901D01*
X25390928Y-18010187D01*
X25354642Y-18046473D01*
X25318357Y-18119044D01*
X25282071Y-18264187D01*
X25245785Y-18336758D01*
X25209500Y-18373044D01*
X25136928Y-18409330D01*
X25064357Y-18409330D01*
X24991785Y-18373044D01*
X24955500Y-18336758D01*
X24919214Y-18264187D01*
X24919214Y-18082758D01*
X24955500Y-17973901D01*
X24919214Y-17756187D02*
X24919214Y-17320758D01*
X25681214Y-17538473D02*
X24919214Y-17538473D01*
X26982964Y-19461616D02*
X26220964Y-19461616D01*
X26220964Y-19171330D01*
X26257250Y-19098758D01*
X26293535Y-19062473D01*
X26366107Y-19026187D01*
X26474964Y-19026187D01*
X26547535Y-19062473D01*
X26583821Y-19098758D01*
X26620107Y-19171330D01*
X26620107Y-19461616D01*
X26220964Y-18772187D02*
X26982964Y-18590758D01*
X26438678Y-18445616D01*
X26982964Y-18300473D01*
X26220964Y-18119044D01*
X26982964Y-17393330D02*
X26620107Y-17647330D01*
X26982964Y-17828758D02*
X26220964Y-17828758D01*
X26220964Y-17538473D01*
X26257250Y-17465901D01*
X26293535Y-17429616D01*
X26366107Y-17393330D01*
X26474964Y-17393330D01*
X26547535Y-17429616D01*
X26583821Y-17465901D01*
X26620107Y-17538473D01*
X26620107Y-17828758D01*
X28284714Y-19062473D02*
X27522714Y-19062473D01*
X27522714Y-18881044D01*
X27559000Y-18772187D01*
X27631571Y-18699616D01*
X27704142Y-18663330D01*
X27849285Y-18627044D01*
X27958142Y-18627044D01*
X28103285Y-18663330D01*
X28175857Y-18699616D01*
X28248428Y-18772187D01*
X28284714Y-18881044D01*
X28284714Y-19062473D01*
X28067000Y-18336758D02*
X28067000Y-17973901D01*
X28284714Y-18409330D02*
X27522714Y-18155330D01*
X28284714Y-17901330D01*
X27522714Y-17756187D02*
X27522714Y-17320758D01*
X28284714Y-17538473D02*
X27522714Y-17538473D01*
X28860750Y-18989901D02*
X28824464Y-19062473D01*
X28824464Y-19171330D01*
X28860750Y-19280187D01*
X28933321Y-19352758D01*
X29005892Y-19389044D01*
X29151035Y-19425330D01*
X29259892Y-19425330D01*
X29405035Y-19389044D01*
X29477607Y-19352758D01*
X29550178Y-19280187D01*
X29586464Y-19171330D01*
X29586464Y-19098758D01*
X29550178Y-18989901D01*
X29513892Y-18953616D01*
X29259892Y-18953616D01*
X29259892Y-19098758D01*
X29586464Y-18627044D02*
X28824464Y-18627044D01*
X29586464Y-18191616D01*
X28824464Y-18191616D01*
X29586464Y-17828758D02*
X28824464Y-17828758D01*
X28824464Y-17647330D01*
X28860750Y-17538473D01*
X28933321Y-17465901D01*
X29005892Y-17429616D01*
X29151035Y-17393330D01*
X29259892Y-17393330D01*
X29405035Y-17429616D01*
X29477607Y-17465901D01*
X29550178Y-17538473D01*
X29586464Y-17647330D01*
X29586464Y-17828758D01*
X30815642Y-18772187D02*
X30851928Y-18808473D01*
X30888214Y-18917330D01*
X30888214Y-18989901D01*
X30851928Y-19098758D01*
X30779357Y-19171330D01*
X30706785Y-19207616D01*
X30561642Y-19243901D01*
X30452785Y-19243901D01*
X30307642Y-19207616D01*
X30235071Y-19171330D01*
X30162500Y-19098758D01*
X30126214Y-18989901D01*
X30126214Y-18917330D01*
X30162500Y-18808473D01*
X30198785Y-18772187D01*
X30888214Y-18082758D02*
X30888214Y-18445616D01*
X30126214Y-18445616D01*
X30888214Y-17828758D02*
X30126214Y-17828758D01*
X30888214Y-17393330D02*
X30452785Y-17719901D01*
X30126214Y-17393330D02*
X30561642Y-17828758D01*
D11*
X20320000Y-43075000D02*
X35560000Y-43075000D01*
X20860000Y-43625000D02*
X35000000Y-43625000D01*
X20320000Y-52175000D02*
X35560000Y-52175000D01*
X20860000Y-51625000D02*
X25690000Y-51625000D01*
X30190000Y-51625000D02*
X35000000Y-51625000D01*
X25690000Y-51625000D02*
X25690000Y-52175000D01*
X30190000Y-51625000D02*
X30190000Y-52175000D01*
X20320000Y-43075000D02*
X20320000Y-52175000D01*
X20860000Y-43625000D02*
X20860000Y-51625000D01*
X35560000Y-43075000D02*
X35560000Y-52175000D01*
X35000000Y-43625000D02*
X35000000Y-51625000D01*
X20320000Y-43075000D02*
X20860000Y-43625000D01*
X35560000Y-43075000D02*
X35000000Y-43625000D01*
X20320000Y-52175000D02*
X20860000Y-51625000D01*
X35560000Y-52175000D02*
X35000000Y-51625000D01*
X23390000Y-41275000D02*
X23390000Y-20955000D01*
X23940000Y-40735000D02*
X23940000Y-21515000D01*
X32490000Y-41275000D02*
X32490000Y-20955000D01*
X31940000Y-40735000D02*
X31940000Y-33365000D01*
X31940000Y-28865000D02*
X31940000Y-21515000D01*
X31940000Y-33365000D02*
X32490000Y-33365000D01*
X31940000Y-28865000D02*
X32490000Y-28865000D01*
X23390000Y-41275000D02*
X32490000Y-41275000D01*
X23940000Y-40735000D02*
X31940000Y-40735000D01*
X23390000Y-20955000D02*
X32490000Y-20955000D01*
X23940000Y-21515000D02*
X31940000Y-21515000D01*
X23390000Y-41275000D02*
X23940000Y-40735000D01*
X23390000Y-20955000D02*
X23940000Y-21515000D01*
X32490000Y-41275000D02*
X31940000Y-40735000D01*
X32490000Y-20955000D02*
X31940000Y-21515000D01*
M02*
