G04 #@! TF.GenerationSoftware,KiCad,Pcbnew,(5.1.2)-1*
G04 #@! TF.CreationDate,2019-05-07T03:52:41+02:00*
G04 #@! TF.ProjectId,programmer,70726f67-7261-46d6-9d65-722e6b696361,rev?*
G04 #@! TF.SameCoordinates,Original*
G04 #@! TF.FileFunction,Copper,L2,Bot*
G04 #@! TF.FilePolarity,Positive*
%FSLAX46Y46*%
G04 Gerber Fmt 4.6, Leading zero omitted, Abs format (unit mm)*
G04 Created by KiCad (PCBNEW (5.1.2)-1) date 2019-05-07 03:52:41*
%MOMM*%
%LPD*%
G04 APERTURE LIST*
%ADD10R,1.727200X1.727200*%
%ADD11O,1.727200X1.727200*%
%ADD12O,1.524000X1.524000*%
%ADD13C,0.254000*%
G04 APERTURE END LIST*
D10*
X25400000Y-48895000D03*
D11*
X25400000Y-46355000D03*
X27940000Y-48895000D03*
X27940000Y-46355000D03*
X30480000Y-48895000D03*
X30480000Y-46355000D03*
D10*
X29210000Y-36195000D03*
D11*
X26670000Y-36195000D03*
X29210000Y-33655000D03*
X26670000Y-33655000D03*
X29210000Y-31115000D03*
X26670000Y-31115000D03*
X29210000Y-28575000D03*
X26670000Y-28575000D03*
X29210000Y-26035000D03*
X26670000Y-26035000D03*
D12*
X31750000Y-13893800D03*
X25400000Y-15443200D03*
X26670000Y-13893800D03*
X27940000Y-15443200D03*
X29210000Y-13893800D03*
X30480000Y-15443200D03*
X24130000Y-13893800D03*
D13*
X29616401Y-48031401D02*
X30480000Y-48895000D01*
X29210000Y-47625000D02*
X29616401Y-48031401D01*
X29210000Y-45720000D02*
X29210000Y-47625000D01*
X27940000Y-44450000D02*
X29210000Y-45720000D01*
X29210000Y-31115000D02*
X27940000Y-32385000D01*
X27940000Y-32385000D02*
X27940000Y-44450000D01*
X28346401Y-30251401D02*
X29210000Y-31115000D01*
X27940000Y-29845000D02*
X28346401Y-30251401D01*
X26035000Y-29845000D02*
X27940000Y-29845000D01*
X25273000Y-29083000D02*
X26035000Y-29845000D01*
X25400000Y-15240000D02*
X25273000Y-15367000D01*
X25273000Y-15367000D02*
X25273000Y-29083000D01*
X27940000Y-24765000D02*
X29210000Y-26035000D01*
X27940000Y-15240000D02*
X27940000Y-24765000D01*
X24003000Y-36322000D02*
X25806401Y-34518599D01*
X31877000Y-47752000D02*
X31877000Y-49530000D01*
X25806401Y-34518599D02*
X26670000Y-33655000D01*
X30480000Y-46355000D02*
X31877000Y-47752000D01*
X31115000Y-50292000D02*
X24257000Y-50292000D01*
X24257000Y-50292000D02*
X24003000Y-50038000D01*
X31877000Y-49530000D02*
X31115000Y-50292000D01*
X24003000Y-50038000D02*
X24003000Y-36322000D01*
X30073599Y-27711401D02*
X29210000Y-28575000D01*
X30607000Y-27178000D02*
X30073599Y-27711401D01*
X30480000Y-15240000D02*
X30607000Y-15367000D01*
X30607000Y-15367000D02*
X30607000Y-27178000D01*
M02*
