G04 #@! TF.GenerationSoftware,KiCad,Pcbnew,(5.1.2)-1*
G04 #@! TF.CreationDate,2019-05-24T18:04:28-07:00*
G04 #@! TF.ProjectId,programmer,70726f67-7261-46d6-9d65-722e6b696361,rev?*
G04 #@! TF.SameCoordinates,Original*
G04 #@! TF.FileFunction,Legend,Top*
G04 #@! TF.FilePolarity,Positive*
%FSLAX46Y46*%
G04 Gerber Fmt 4.6, Leading zero omitted, Abs format (unit mm)*
G04 Created by KiCad (PCBNEW (5.1.2)-1) date 2019-05-24 18:04:28*
%MOMM*%
%LPD*%
G04 APERTURE LIST*
%ADD10C,0.177800*%
%ADD11C,0.254000*%
%ADD12C,0.158750*%
%ADD13C,0.100000*%
G04 APERTURE END LIST*
D10*
X35269714Y-38081857D02*
X35886571Y-38081857D01*
X35959142Y-38118142D01*
X35995428Y-38154428D01*
X36031714Y-38227000D01*
X36031714Y-38335857D01*
X35995428Y-38408428D01*
X35741428Y-38081857D02*
X35777714Y-38154428D01*
X35777714Y-38299571D01*
X35741428Y-38372142D01*
X35705142Y-38408428D01*
X35632571Y-38444714D01*
X35414857Y-38444714D01*
X35342285Y-38408428D01*
X35306000Y-38372142D01*
X35269714Y-38299571D01*
X35269714Y-38154428D01*
X35306000Y-38081857D01*
X35777714Y-37719000D02*
X35269714Y-37719000D01*
X35015714Y-37719000D02*
X35052000Y-37755285D01*
X35088285Y-37719000D01*
X35052000Y-37682714D01*
X35015714Y-37719000D01*
X35088285Y-37719000D01*
X35269714Y-37465000D02*
X35269714Y-37174714D01*
X35015714Y-37356142D02*
X35668857Y-37356142D01*
X35741428Y-37319857D01*
X35777714Y-37247285D01*
X35777714Y-37174714D01*
X35777714Y-36920714D02*
X35015714Y-36920714D01*
X35777714Y-36594142D02*
X35378571Y-36594142D01*
X35306000Y-36630428D01*
X35269714Y-36703000D01*
X35269714Y-36811857D01*
X35306000Y-36884428D01*
X35342285Y-36920714D01*
X35269714Y-35904714D02*
X35777714Y-35904714D01*
X35269714Y-36231285D02*
X35668857Y-36231285D01*
X35741428Y-36195000D01*
X35777714Y-36122428D01*
X35777714Y-36013571D01*
X35741428Y-35941000D01*
X35705142Y-35904714D01*
X35777714Y-35541857D02*
X35015714Y-35541857D01*
X35306000Y-35541857D02*
X35269714Y-35469285D01*
X35269714Y-35324142D01*
X35306000Y-35251571D01*
X35342285Y-35215285D01*
X35414857Y-35179000D01*
X35632571Y-35179000D01*
X35705142Y-35215285D01*
X35741428Y-35251571D01*
X35777714Y-35324142D01*
X35777714Y-35469285D01*
X35741428Y-35541857D01*
X35705142Y-34852428D02*
X35741428Y-34816142D01*
X35777714Y-34852428D01*
X35741428Y-34888714D01*
X35705142Y-34852428D01*
X35777714Y-34852428D01*
X35741428Y-34163000D02*
X35777714Y-34235571D01*
X35777714Y-34380714D01*
X35741428Y-34453285D01*
X35705142Y-34489571D01*
X35632571Y-34525857D01*
X35414857Y-34525857D01*
X35342285Y-34489571D01*
X35306000Y-34453285D01*
X35269714Y-34380714D01*
X35269714Y-34235571D01*
X35306000Y-34163000D01*
X35777714Y-33727571D02*
X35741428Y-33800142D01*
X35705142Y-33836428D01*
X35632571Y-33872714D01*
X35414857Y-33872714D01*
X35342285Y-33836428D01*
X35306000Y-33800142D01*
X35269714Y-33727571D01*
X35269714Y-33618714D01*
X35306000Y-33546142D01*
X35342285Y-33509857D01*
X35414857Y-33473571D01*
X35632571Y-33473571D01*
X35705142Y-33509857D01*
X35741428Y-33546142D01*
X35777714Y-33618714D01*
X35777714Y-33727571D01*
X35777714Y-33147000D02*
X35269714Y-33147000D01*
X35342285Y-33147000D02*
X35306000Y-33110714D01*
X35269714Y-33038142D01*
X35269714Y-32929285D01*
X35306000Y-32856714D01*
X35378571Y-32820428D01*
X35777714Y-32820428D01*
X35378571Y-32820428D02*
X35306000Y-32784142D01*
X35269714Y-32711571D01*
X35269714Y-32602714D01*
X35306000Y-32530142D01*
X35378571Y-32493857D01*
X35777714Y-32493857D01*
X34979428Y-31586714D02*
X35959142Y-32239857D01*
X35777714Y-31332714D02*
X35015714Y-31332714D01*
X35777714Y-31006142D02*
X35378571Y-31006142D01*
X35306000Y-31042428D01*
X35269714Y-31115000D01*
X35269714Y-31223857D01*
X35306000Y-31296428D01*
X35342285Y-31332714D01*
X35741428Y-30353000D02*
X35777714Y-30425571D01*
X35777714Y-30570714D01*
X35741428Y-30643285D01*
X35668857Y-30679571D01*
X35378571Y-30679571D01*
X35306000Y-30643285D01*
X35269714Y-30570714D01*
X35269714Y-30425571D01*
X35306000Y-30353000D01*
X35378571Y-30316714D01*
X35451142Y-30316714D01*
X35523714Y-30679571D01*
X35269714Y-30062714D02*
X35777714Y-29881285D01*
X35269714Y-29699857D02*
X35777714Y-29881285D01*
X35959142Y-29953857D01*
X35995428Y-29990142D01*
X36031714Y-30062714D01*
X35741428Y-29445857D02*
X35777714Y-29373285D01*
X35777714Y-29228142D01*
X35741428Y-29155571D01*
X35668857Y-29119285D01*
X35632571Y-29119285D01*
X35560000Y-29155571D01*
X35523714Y-29228142D01*
X35523714Y-29337000D01*
X35487428Y-29409571D01*
X35414857Y-29445857D01*
X35378571Y-29445857D01*
X35306000Y-29409571D01*
X35269714Y-29337000D01*
X35269714Y-29228142D01*
X35306000Y-29155571D01*
X35269714Y-28792714D02*
X36031714Y-28792714D01*
X35306000Y-28792714D02*
X35269714Y-28720142D01*
X35269714Y-28575000D01*
X35306000Y-28502428D01*
X35342285Y-28466142D01*
X35414857Y-28429857D01*
X35632571Y-28429857D01*
X35705142Y-28466142D01*
X35741428Y-28502428D01*
X35777714Y-28575000D01*
X35777714Y-28720142D01*
X35741428Y-28792714D01*
X35777714Y-27776714D02*
X35378571Y-27776714D01*
X35306000Y-27813000D01*
X35269714Y-27885571D01*
X35269714Y-28030714D01*
X35306000Y-28103285D01*
X35741428Y-27776714D02*
X35777714Y-27849285D01*
X35777714Y-28030714D01*
X35741428Y-28103285D01*
X35668857Y-28139571D01*
X35596285Y-28139571D01*
X35523714Y-28103285D01*
X35487428Y-28030714D01*
X35487428Y-27849285D01*
X35451142Y-27776714D01*
X35741428Y-27087285D02*
X35777714Y-27159857D01*
X35777714Y-27305000D01*
X35741428Y-27377571D01*
X35705142Y-27413857D01*
X35632571Y-27450142D01*
X35414857Y-27450142D01*
X35342285Y-27413857D01*
X35306000Y-27377571D01*
X35269714Y-27305000D01*
X35269714Y-27159857D01*
X35306000Y-27087285D01*
X35741428Y-26470428D02*
X35777714Y-26543000D01*
X35777714Y-26688142D01*
X35741428Y-26760714D01*
X35668857Y-26797000D01*
X35378571Y-26797000D01*
X35306000Y-26760714D01*
X35269714Y-26688142D01*
X35269714Y-26543000D01*
X35306000Y-26470428D01*
X35378571Y-26434142D01*
X35451142Y-26434142D01*
X35523714Y-26797000D01*
X35777714Y-26107571D02*
X35015714Y-26107571D01*
X35306000Y-26107571D02*
X35269714Y-26035000D01*
X35269714Y-25889857D01*
X35306000Y-25817285D01*
X35342285Y-25781000D01*
X35414857Y-25744714D01*
X35632571Y-25744714D01*
X35705142Y-25781000D01*
X35741428Y-25817285D01*
X35777714Y-25889857D01*
X35777714Y-26035000D01*
X35741428Y-26107571D01*
X35269714Y-25091571D02*
X35777714Y-25091571D01*
X35269714Y-25418142D02*
X35668857Y-25418142D01*
X35741428Y-25381857D01*
X35777714Y-25309285D01*
X35777714Y-25200428D01*
X35741428Y-25127857D01*
X35705142Y-25091571D01*
X35741428Y-24402142D02*
X35777714Y-24474714D01*
X35777714Y-24619857D01*
X35741428Y-24692428D01*
X35705142Y-24728714D01*
X35632571Y-24765000D01*
X35414857Y-24765000D01*
X35342285Y-24728714D01*
X35306000Y-24692428D01*
X35269714Y-24619857D01*
X35269714Y-24474714D01*
X35306000Y-24402142D01*
X35777714Y-24075571D02*
X35015714Y-24075571D01*
X35487428Y-24003000D02*
X35777714Y-23785285D01*
X35269714Y-23785285D02*
X35560000Y-24075571D01*
X34979428Y-22914428D02*
X35959142Y-23567571D01*
X35741428Y-22696714D02*
X35777714Y-22587857D01*
X35777714Y-22406428D01*
X35741428Y-22333857D01*
X35705142Y-22297571D01*
X35632571Y-22261285D01*
X35560000Y-22261285D01*
X35487428Y-22297571D01*
X35451142Y-22333857D01*
X35414857Y-22406428D01*
X35378571Y-22551571D01*
X35342285Y-22624142D01*
X35306000Y-22660428D01*
X35233428Y-22696714D01*
X35160857Y-22696714D01*
X35088285Y-22660428D01*
X35052000Y-22624142D01*
X35015714Y-22551571D01*
X35015714Y-22370142D01*
X35052000Y-22261285D01*
X35777714Y-21934714D02*
X35015714Y-21934714D01*
X35560000Y-21680714D01*
X35015714Y-21426714D01*
X35777714Y-21426714D01*
X35015714Y-20918714D02*
X35015714Y-20773571D01*
X35052000Y-20701000D01*
X35124571Y-20628428D01*
X35269714Y-20592142D01*
X35523714Y-20592142D01*
X35668857Y-20628428D01*
X35741428Y-20701000D01*
X35777714Y-20773571D01*
X35777714Y-20918714D01*
X35741428Y-20991285D01*
X35668857Y-21063857D01*
X35523714Y-21100142D01*
X35269714Y-21100142D01*
X35124571Y-21063857D01*
X35052000Y-20991285D01*
X35015714Y-20918714D01*
X35777714Y-19902714D02*
X35777714Y-20265571D01*
X35015714Y-20265571D01*
D11*
X21469047Y-37991142D02*
X21529523Y-37809714D01*
X21529523Y-37507333D01*
X21469047Y-37386380D01*
X21408571Y-37325904D01*
X21287619Y-37265428D01*
X21166666Y-37265428D01*
X21045714Y-37325904D01*
X20985238Y-37386380D01*
X20924761Y-37507333D01*
X20864285Y-37749238D01*
X20803809Y-37870190D01*
X20743333Y-37930666D01*
X20622380Y-37991142D01*
X20501428Y-37991142D01*
X20380476Y-37930666D01*
X20320000Y-37870190D01*
X20259523Y-37749238D01*
X20259523Y-37446857D01*
X20320000Y-37265428D01*
X21529523Y-36721142D02*
X20259523Y-36721142D01*
X21166666Y-36297809D01*
X20259523Y-35874476D01*
X21529523Y-35874476D01*
X20259523Y-35027809D02*
X20259523Y-34785904D01*
X20320000Y-34664952D01*
X20440952Y-34544000D01*
X20682857Y-34483523D01*
X21106190Y-34483523D01*
X21348095Y-34544000D01*
X21469047Y-34664952D01*
X21529523Y-34785904D01*
X21529523Y-35027809D01*
X21469047Y-35148761D01*
X21348095Y-35269714D01*
X21106190Y-35330190D01*
X20682857Y-35330190D01*
X20440952Y-35269714D01*
X20320000Y-35148761D01*
X20259523Y-35027809D01*
X21529523Y-33334476D02*
X21529523Y-33939238D01*
X20259523Y-33939238D01*
X21529523Y-31943523D02*
X20259523Y-31943523D01*
X20259523Y-31459714D01*
X20320000Y-31338761D01*
X20380476Y-31278285D01*
X20501428Y-31217809D01*
X20682857Y-31217809D01*
X20803809Y-31278285D01*
X20864285Y-31338761D01*
X20924761Y-31459714D01*
X20924761Y-31943523D01*
X21529523Y-30673523D02*
X20682857Y-30673523D01*
X20924761Y-30673523D02*
X20803809Y-30613047D01*
X20743333Y-30552571D01*
X20682857Y-30431619D01*
X20682857Y-30310666D01*
X21529523Y-29705904D02*
X21469047Y-29826857D01*
X21408571Y-29887333D01*
X21287619Y-29947809D01*
X20924761Y-29947809D01*
X20803809Y-29887333D01*
X20743333Y-29826857D01*
X20682857Y-29705904D01*
X20682857Y-29524476D01*
X20743333Y-29403523D01*
X20803809Y-29343047D01*
X20924761Y-29282571D01*
X21287619Y-29282571D01*
X21408571Y-29343047D01*
X21469047Y-29403523D01*
X21529523Y-29524476D01*
X21529523Y-29705904D01*
X20682857Y-28194000D02*
X21710952Y-28194000D01*
X21831904Y-28254476D01*
X21892380Y-28314952D01*
X21952857Y-28435904D01*
X21952857Y-28617333D01*
X21892380Y-28738285D01*
X21469047Y-28194000D02*
X21529523Y-28314952D01*
X21529523Y-28556857D01*
X21469047Y-28677809D01*
X21408571Y-28738285D01*
X21287619Y-28798761D01*
X20924761Y-28798761D01*
X20803809Y-28738285D01*
X20743333Y-28677809D01*
X20682857Y-28556857D01*
X20682857Y-28314952D01*
X20743333Y-28194000D01*
X21529523Y-27589238D02*
X20682857Y-27589238D01*
X20924761Y-27589238D02*
X20803809Y-27528761D01*
X20743333Y-27468285D01*
X20682857Y-27347333D01*
X20682857Y-27226380D01*
X21529523Y-26258761D02*
X20864285Y-26258761D01*
X20743333Y-26319238D01*
X20682857Y-26440190D01*
X20682857Y-26682095D01*
X20743333Y-26803047D01*
X21469047Y-26258761D02*
X21529523Y-26379714D01*
X21529523Y-26682095D01*
X21469047Y-26803047D01*
X21348095Y-26863523D01*
X21227142Y-26863523D01*
X21106190Y-26803047D01*
X21045714Y-26682095D01*
X21045714Y-26379714D01*
X20985238Y-26258761D01*
X21529523Y-25654000D02*
X20682857Y-25654000D01*
X20803809Y-25654000D02*
X20743333Y-25593523D01*
X20682857Y-25472571D01*
X20682857Y-25291142D01*
X20743333Y-25170190D01*
X20864285Y-25109714D01*
X21529523Y-25109714D01*
X20864285Y-25109714D02*
X20743333Y-25049238D01*
X20682857Y-24928285D01*
X20682857Y-24746857D01*
X20743333Y-24625904D01*
X20864285Y-24565428D01*
X21529523Y-24565428D01*
X21529523Y-23960666D02*
X20682857Y-23960666D01*
X20803809Y-23960666D02*
X20743333Y-23900190D01*
X20682857Y-23779238D01*
X20682857Y-23597809D01*
X20743333Y-23476857D01*
X20864285Y-23416380D01*
X21529523Y-23416380D01*
X20864285Y-23416380D02*
X20743333Y-23355904D01*
X20682857Y-23234952D01*
X20682857Y-23053523D01*
X20743333Y-22932571D01*
X20864285Y-22872095D01*
X21529523Y-22872095D01*
X21469047Y-21783523D02*
X21529523Y-21904476D01*
X21529523Y-22146380D01*
X21469047Y-22267333D01*
X21348095Y-22327809D01*
X20864285Y-22327809D01*
X20743333Y-22267333D01*
X20682857Y-22146380D01*
X20682857Y-21904476D01*
X20743333Y-21783523D01*
X20864285Y-21723047D01*
X20985238Y-21723047D01*
X21106190Y-22327809D01*
X21529523Y-21178761D02*
X20682857Y-21178761D01*
X20924761Y-21178761D02*
X20803809Y-21118285D01*
X20743333Y-21057809D01*
X20682857Y-20936857D01*
X20682857Y-20815904D01*
D12*
X25681214Y-18699616D02*
X25318357Y-18953616D01*
X25681214Y-19135044D02*
X24919214Y-19135044D01*
X24919214Y-18844758D01*
X24955500Y-18772187D01*
X24991785Y-18735901D01*
X25064357Y-18699616D01*
X25173214Y-18699616D01*
X25245785Y-18735901D01*
X25282071Y-18772187D01*
X25318357Y-18844758D01*
X25318357Y-19135044D01*
X25644928Y-18409330D02*
X25681214Y-18300473D01*
X25681214Y-18119044D01*
X25644928Y-18046473D01*
X25608642Y-18010187D01*
X25536071Y-17973901D01*
X25463500Y-17973901D01*
X25390928Y-18010187D01*
X25354642Y-18046473D01*
X25318357Y-18119044D01*
X25282071Y-18264187D01*
X25245785Y-18336758D01*
X25209500Y-18373044D01*
X25136928Y-18409330D01*
X25064357Y-18409330D01*
X24991785Y-18373044D01*
X24955500Y-18336758D01*
X24919214Y-18264187D01*
X24919214Y-18082758D01*
X24955500Y-17973901D01*
X24919214Y-17756187D02*
X24919214Y-17320758D01*
X25681214Y-17538473D02*
X24919214Y-17538473D01*
X26982964Y-19461616D02*
X26220964Y-19461616D01*
X26220964Y-19171330D01*
X26257250Y-19098758D01*
X26293535Y-19062473D01*
X26366107Y-19026187D01*
X26474964Y-19026187D01*
X26547535Y-19062473D01*
X26583821Y-19098758D01*
X26620107Y-19171330D01*
X26620107Y-19461616D01*
X26220964Y-18772187D02*
X26982964Y-18590758D01*
X26438678Y-18445616D01*
X26982964Y-18300473D01*
X26220964Y-18119044D01*
X26982964Y-17393330D02*
X26620107Y-17647330D01*
X26982964Y-17828758D02*
X26220964Y-17828758D01*
X26220964Y-17538473D01*
X26257250Y-17465901D01*
X26293535Y-17429616D01*
X26366107Y-17393330D01*
X26474964Y-17393330D01*
X26547535Y-17429616D01*
X26583821Y-17465901D01*
X26620107Y-17538473D01*
X26620107Y-17828758D01*
X28284714Y-19062473D02*
X27522714Y-19062473D01*
X27522714Y-18881044D01*
X27559000Y-18772187D01*
X27631571Y-18699616D01*
X27704142Y-18663330D01*
X27849285Y-18627044D01*
X27958142Y-18627044D01*
X28103285Y-18663330D01*
X28175857Y-18699616D01*
X28248428Y-18772187D01*
X28284714Y-18881044D01*
X28284714Y-19062473D01*
X28067000Y-18336758D02*
X28067000Y-17973901D01*
X28284714Y-18409330D02*
X27522714Y-18155330D01*
X28284714Y-17901330D01*
X27522714Y-17756187D02*
X27522714Y-17320758D01*
X28284714Y-17538473D02*
X27522714Y-17538473D01*
X28860750Y-18989901D02*
X28824464Y-19062473D01*
X28824464Y-19171330D01*
X28860750Y-19280187D01*
X28933321Y-19352758D01*
X29005892Y-19389044D01*
X29151035Y-19425330D01*
X29259892Y-19425330D01*
X29405035Y-19389044D01*
X29477607Y-19352758D01*
X29550178Y-19280187D01*
X29586464Y-19171330D01*
X29586464Y-19098758D01*
X29550178Y-18989901D01*
X29513892Y-18953616D01*
X29259892Y-18953616D01*
X29259892Y-19098758D01*
X29586464Y-18627044D02*
X28824464Y-18627044D01*
X29586464Y-18191616D01*
X28824464Y-18191616D01*
X29586464Y-17828758D02*
X28824464Y-17828758D01*
X28824464Y-17647330D01*
X28860750Y-17538473D01*
X28933321Y-17465901D01*
X29005892Y-17429616D01*
X29151035Y-17393330D01*
X29259892Y-17393330D01*
X29405035Y-17429616D01*
X29477607Y-17465901D01*
X29550178Y-17538473D01*
X29586464Y-17647330D01*
X29586464Y-17828758D01*
X30815642Y-18772187D02*
X30851928Y-18808473D01*
X30888214Y-18917330D01*
X30888214Y-18989901D01*
X30851928Y-19098758D01*
X30779357Y-19171330D01*
X30706785Y-19207616D01*
X30561642Y-19243901D01*
X30452785Y-19243901D01*
X30307642Y-19207616D01*
X30235071Y-19171330D01*
X30162500Y-19098758D01*
X30126214Y-18989901D01*
X30126214Y-18917330D01*
X30162500Y-18808473D01*
X30198785Y-18772187D01*
X30888214Y-18082758D02*
X30888214Y-18445616D01*
X30126214Y-18445616D01*
X30888214Y-17828758D02*
X30126214Y-17828758D01*
X30888214Y-17393330D02*
X30452785Y-17719901D01*
X30126214Y-17393330D02*
X30561642Y-17828758D01*
D13*
X20320000Y-43075000D02*
X35560000Y-43075000D01*
X20860000Y-43625000D02*
X35000000Y-43625000D01*
X20320000Y-52175000D02*
X35560000Y-52175000D01*
X20860000Y-51625000D02*
X25690000Y-51625000D01*
X30190000Y-51625000D02*
X35000000Y-51625000D01*
X25690000Y-51625000D02*
X25690000Y-52175000D01*
X30190000Y-51625000D02*
X30190000Y-52175000D01*
X20320000Y-43075000D02*
X20320000Y-52175000D01*
X20860000Y-43625000D02*
X20860000Y-51625000D01*
X35560000Y-43075000D02*
X35560000Y-52175000D01*
X35000000Y-43625000D02*
X35000000Y-51625000D01*
X20320000Y-43075000D02*
X20860000Y-43625000D01*
X35560000Y-43075000D02*
X35000000Y-43625000D01*
X20320000Y-52175000D02*
X20860000Y-51625000D01*
X35560000Y-52175000D02*
X35000000Y-51625000D01*
X23390000Y-41275000D02*
X23390000Y-20955000D01*
X23940000Y-40735000D02*
X23940000Y-21515000D01*
X32490000Y-41275000D02*
X32490000Y-20955000D01*
X31940000Y-40735000D02*
X31940000Y-33365000D01*
X31940000Y-28865000D02*
X31940000Y-21515000D01*
X31940000Y-33365000D02*
X32490000Y-33365000D01*
X31940000Y-28865000D02*
X32490000Y-28865000D01*
X23390000Y-41275000D02*
X32490000Y-41275000D01*
X23940000Y-40735000D02*
X31940000Y-40735000D01*
X23390000Y-20955000D02*
X32490000Y-20955000D01*
X23940000Y-21515000D02*
X31940000Y-21515000D01*
X23390000Y-41275000D02*
X23940000Y-40735000D01*
X23390000Y-20955000D02*
X23940000Y-21515000D01*
X32490000Y-41275000D02*
X31940000Y-40735000D01*
X32490000Y-20955000D02*
X31940000Y-21515000D01*
M02*
