G04 #@! TF.GenerationSoftware,KiCad,Pcbnew,(5.1.2)-1*
G04 #@! TF.CreationDate,2019-05-24T18:04:28-07:00*
G04 #@! TF.ProjectId,programmer,70726f67-7261-46d6-9d65-722e6b696361,rev?*
G04 #@! TF.SameCoordinates,Original*
G04 #@! TF.FileFunction,Soldermask,Bot*
G04 #@! TF.FilePolarity,Negative*
%FSLAX46Y46*%
G04 Gerber Fmt 4.6, Leading zero omitted, Abs format (unit mm)*
G04 Created by KiCad (PCBNEW (5.1.2)-1) date 2019-05-24 18:04:28*
%MOMM*%
%LPD*%
G04 APERTURE LIST*
%ADD10C,0.304800*%
G04 APERTURE END LIST*
D10*
G36*
X26314400Y-49809400D02*
G01*
X24485600Y-49809400D01*
X24485600Y-47980600D01*
X26314400Y-47980600D01*
X26314400Y-49809400D01*
X26314400Y-49809400D01*
G37*
G36*
X30659252Y-47993830D02*
G01*
X30745437Y-48019974D01*
X30831619Y-48046117D01*
X30831621Y-48046118D01*
X30990467Y-48131023D01*
X30990470Y-48131025D01*
X30990471Y-48131026D01*
X31129707Y-48245293D01*
X31243974Y-48384529D01*
X31243977Y-48384533D01*
X31328882Y-48543379D01*
X31381170Y-48715748D01*
X31398824Y-48895000D01*
X31381170Y-49074252D01*
X31328882Y-49246621D01*
X31243977Y-49405467D01*
X31243975Y-49405470D01*
X31243974Y-49405471D01*
X31129707Y-49544707D01*
X30990471Y-49658974D01*
X30990467Y-49658977D01*
X30831621Y-49743882D01*
X30831619Y-49743883D01*
X30745437Y-49770026D01*
X30659252Y-49796170D01*
X30524921Y-49809400D01*
X30435079Y-49809400D01*
X30300748Y-49796170D01*
X30214563Y-49770026D01*
X30128381Y-49743883D01*
X30128379Y-49743882D01*
X29969533Y-49658977D01*
X29969529Y-49658974D01*
X29830293Y-49544707D01*
X29716026Y-49405471D01*
X29716025Y-49405470D01*
X29716023Y-49405467D01*
X29631118Y-49246621D01*
X29578830Y-49074252D01*
X29561176Y-48895000D01*
X29578830Y-48715748D01*
X29631118Y-48543379D01*
X29716023Y-48384533D01*
X29716026Y-48384529D01*
X29830293Y-48245293D01*
X29969529Y-48131026D01*
X29969530Y-48131025D01*
X29969533Y-48131023D01*
X30128379Y-48046118D01*
X30128381Y-48046117D01*
X30214563Y-48019974D01*
X30300748Y-47993830D01*
X30435079Y-47980600D01*
X30524921Y-47980600D01*
X30659252Y-47993830D01*
X30659252Y-47993830D01*
G37*
G36*
X28119252Y-47993830D02*
G01*
X28205437Y-48019974D01*
X28291619Y-48046117D01*
X28291621Y-48046118D01*
X28450467Y-48131023D01*
X28450470Y-48131025D01*
X28450471Y-48131026D01*
X28589707Y-48245293D01*
X28703974Y-48384529D01*
X28703977Y-48384533D01*
X28788882Y-48543379D01*
X28841170Y-48715748D01*
X28858824Y-48895000D01*
X28841170Y-49074252D01*
X28788882Y-49246621D01*
X28703977Y-49405467D01*
X28703975Y-49405470D01*
X28703974Y-49405471D01*
X28589707Y-49544707D01*
X28450471Y-49658974D01*
X28450467Y-49658977D01*
X28291621Y-49743882D01*
X28291619Y-49743883D01*
X28205437Y-49770026D01*
X28119252Y-49796170D01*
X27984921Y-49809400D01*
X27895079Y-49809400D01*
X27760748Y-49796170D01*
X27674563Y-49770026D01*
X27588381Y-49743883D01*
X27588379Y-49743882D01*
X27429533Y-49658977D01*
X27429529Y-49658974D01*
X27290293Y-49544707D01*
X27176026Y-49405471D01*
X27176025Y-49405470D01*
X27176023Y-49405467D01*
X27091118Y-49246621D01*
X27038830Y-49074252D01*
X27021176Y-48895000D01*
X27038830Y-48715748D01*
X27091118Y-48543379D01*
X27176023Y-48384533D01*
X27176026Y-48384529D01*
X27290293Y-48245293D01*
X27429529Y-48131026D01*
X27429530Y-48131025D01*
X27429533Y-48131023D01*
X27588379Y-48046118D01*
X27588381Y-48046117D01*
X27674563Y-48019974D01*
X27760748Y-47993830D01*
X27895079Y-47980600D01*
X27984921Y-47980600D01*
X28119252Y-47993830D01*
X28119252Y-47993830D01*
G37*
G36*
X30659252Y-45453830D02*
G01*
X30745437Y-45479974D01*
X30831619Y-45506117D01*
X30831621Y-45506118D01*
X30990467Y-45591023D01*
X30990470Y-45591025D01*
X30990471Y-45591026D01*
X31129707Y-45705293D01*
X31243974Y-45844529D01*
X31243977Y-45844533D01*
X31328882Y-46003379D01*
X31381170Y-46175748D01*
X31398824Y-46355000D01*
X31381170Y-46534252D01*
X31328882Y-46706621D01*
X31243977Y-46865467D01*
X31243975Y-46865470D01*
X31243974Y-46865471D01*
X31129707Y-47004707D01*
X30990471Y-47118974D01*
X30990467Y-47118977D01*
X30831621Y-47203882D01*
X30831619Y-47203883D01*
X30745437Y-47230026D01*
X30659252Y-47256170D01*
X30524921Y-47269400D01*
X30435079Y-47269400D01*
X30300748Y-47256170D01*
X30214563Y-47230026D01*
X30128381Y-47203883D01*
X30128379Y-47203882D01*
X29969533Y-47118977D01*
X29969529Y-47118974D01*
X29830293Y-47004707D01*
X29716026Y-46865471D01*
X29716025Y-46865470D01*
X29716023Y-46865467D01*
X29631118Y-46706621D01*
X29578830Y-46534252D01*
X29561176Y-46355000D01*
X29578830Y-46175748D01*
X29631118Y-46003379D01*
X29716023Y-45844533D01*
X29716026Y-45844529D01*
X29830293Y-45705293D01*
X29969529Y-45591026D01*
X29969530Y-45591025D01*
X29969533Y-45591023D01*
X30128379Y-45506118D01*
X30128381Y-45506117D01*
X30214563Y-45479974D01*
X30300748Y-45453830D01*
X30435079Y-45440600D01*
X30524921Y-45440600D01*
X30659252Y-45453830D01*
X30659252Y-45453830D01*
G37*
G36*
X28119252Y-45453830D02*
G01*
X28205437Y-45479974D01*
X28291619Y-45506117D01*
X28291621Y-45506118D01*
X28450467Y-45591023D01*
X28450470Y-45591025D01*
X28450471Y-45591026D01*
X28589707Y-45705293D01*
X28703974Y-45844529D01*
X28703977Y-45844533D01*
X28788882Y-46003379D01*
X28841170Y-46175748D01*
X28858824Y-46355000D01*
X28841170Y-46534252D01*
X28788882Y-46706621D01*
X28703977Y-46865467D01*
X28703975Y-46865470D01*
X28703974Y-46865471D01*
X28589707Y-47004707D01*
X28450471Y-47118974D01*
X28450467Y-47118977D01*
X28291621Y-47203882D01*
X28291619Y-47203883D01*
X28205437Y-47230026D01*
X28119252Y-47256170D01*
X27984921Y-47269400D01*
X27895079Y-47269400D01*
X27760748Y-47256170D01*
X27674563Y-47230026D01*
X27588381Y-47203883D01*
X27588379Y-47203882D01*
X27429533Y-47118977D01*
X27429529Y-47118974D01*
X27290293Y-47004707D01*
X27176026Y-46865471D01*
X27176025Y-46865470D01*
X27176023Y-46865467D01*
X27091118Y-46706621D01*
X27038830Y-46534252D01*
X27021176Y-46355000D01*
X27038830Y-46175748D01*
X27091118Y-46003379D01*
X27176023Y-45844533D01*
X27176026Y-45844529D01*
X27290293Y-45705293D01*
X27429529Y-45591026D01*
X27429530Y-45591025D01*
X27429533Y-45591023D01*
X27588379Y-45506118D01*
X27588381Y-45506117D01*
X27674563Y-45479974D01*
X27760748Y-45453830D01*
X27895079Y-45440600D01*
X27984921Y-45440600D01*
X28119252Y-45453830D01*
X28119252Y-45453830D01*
G37*
G36*
X25579252Y-45453830D02*
G01*
X25665437Y-45479974D01*
X25751619Y-45506117D01*
X25751621Y-45506118D01*
X25910467Y-45591023D01*
X25910470Y-45591025D01*
X25910471Y-45591026D01*
X26049707Y-45705293D01*
X26163974Y-45844529D01*
X26163977Y-45844533D01*
X26248882Y-46003379D01*
X26301170Y-46175748D01*
X26318824Y-46355000D01*
X26301170Y-46534252D01*
X26248882Y-46706621D01*
X26163977Y-46865467D01*
X26163975Y-46865470D01*
X26163974Y-46865471D01*
X26049707Y-47004707D01*
X25910471Y-47118974D01*
X25910467Y-47118977D01*
X25751621Y-47203882D01*
X25751619Y-47203883D01*
X25665437Y-47230026D01*
X25579252Y-47256170D01*
X25444921Y-47269400D01*
X25355079Y-47269400D01*
X25220748Y-47256170D01*
X25134563Y-47230026D01*
X25048381Y-47203883D01*
X25048379Y-47203882D01*
X24889533Y-47118977D01*
X24889529Y-47118974D01*
X24750293Y-47004707D01*
X24636026Y-46865471D01*
X24636025Y-46865470D01*
X24636023Y-46865467D01*
X24551118Y-46706621D01*
X24498830Y-46534252D01*
X24481176Y-46355000D01*
X24498830Y-46175748D01*
X24551118Y-46003379D01*
X24636023Y-45844533D01*
X24636026Y-45844529D01*
X24750293Y-45705293D01*
X24889529Y-45591026D01*
X24889530Y-45591025D01*
X24889533Y-45591023D01*
X25048379Y-45506118D01*
X25048381Y-45506117D01*
X25134563Y-45479974D01*
X25220748Y-45453830D01*
X25355079Y-45440600D01*
X25444921Y-45440600D01*
X25579252Y-45453830D01*
X25579252Y-45453830D01*
G37*
G36*
X21588611Y-39109065D02*
G01*
X21788352Y-39148796D01*
X22070579Y-39265699D01*
X22324578Y-39435415D01*
X22540585Y-39651422D01*
X22710301Y-39905421D01*
X22827204Y-40187648D01*
X22886800Y-40487259D01*
X22886800Y-40792741D01*
X22827204Y-41092352D01*
X22710301Y-41374579D01*
X22540585Y-41628578D01*
X22324578Y-41844585D01*
X22070579Y-42014301D01*
X21788352Y-42131204D01*
X21588611Y-42170935D01*
X21488742Y-42190800D01*
X21183258Y-42190800D01*
X21083389Y-42170935D01*
X20883648Y-42131204D01*
X20601421Y-42014301D01*
X20347422Y-41844585D01*
X20131415Y-41628578D01*
X19961699Y-41374579D01*
X19844796Y-41092352D01*
X19785200Y-40792741D01*
X19785200Y-40487259D01*
X19844796Y-40187648D01*
X19961699Y-39905421D01*
X20131415Y-39651422D01*
X20347422Y-39435415D01*
X20601421Y-39265699D01*
X20883648Y-39148796D01*
X21083389Y-39109065D01*
X21183258Y-39089200D01*
X21488742Y-39089200D01*
X21588611Y-39109065D01*
X21588611Y-39109065D01*
G37*
G36*
X34896481Y-39128932D02*
G01*
X34996351Y-39148797D01*
X35278579Y-39265699D01*
X35532577Y-39435415D01*
X35748585Y-39651423D01*
X35918301Y-39905421D01*
X36035203Y-40187649D01*
X36094799Y-40487260D01*
X36094799Y-40792740D01*
X36035203Y-41092351D01*
X35918301Y-41374579D01*
X35748585Y-41628577D01*
X35532577Y-41844585D01*
X35278579Y-42014301D01*
X34996351Y-42131203D01*
X34896481Y-42151068D01*
X34696742Y-42190799D01*
X34391258Y-42190799D01*
X34191519Y-42151068D01*
X34091649Y-42131203D01*
X33809421Y-42014301D01*
X33555423Y-41844585D01*
X33339415Y-41628577D01*
X33169699Y-41374579D01*
X33052797Y-41092351D01*
X32993201Y-40792740D01*
X32993201Y-40487260D01*
X33052797Y-40187649D01*
X33169699Y-39905421D01*
X33339415Y-39651423D01*
X33555423Y-39435415D01*
X33809421Y-39265699D01*
X34091649Y-39148797D01*
X34191519Y-39128932D01*
X34391258Y-39089201D01*
X34696742Y-39089201D01*
X34896481Y-39128932D01*
X34896481Y-39128932D01*
G37*
G36*
X30124400Y-37109400D02*
G01*
X28295600Y-37109400D01*
X28295600Y-35280600D01*
X30124400Y-35280600D01*
X30124400Y-37109400D01*
X30124400Y-37109400D01*
G37*
G36*
X26849252Y-35293830D02*
G01*
X26935436Y-35319974D01*
X27021619Y-35346117D01*
X27021621Y-35346118D01*
X27180467Y-35431023D01*
X27180470Y-35431025D01*
X27180471Y-35431026D01*
X27319707Y-35545293D01*
X27433974Y-35684529D01*
X27433977Y-35684533D01*
X27518882Y-35843379D01*
X27571170Y-36015748D01*
X27588824Y-36195000D01*
X27571170Y-36374252D01*
X27518882Y-36546621D01*
X27433977Y-36705467D01*
X27433975Y-36705470D01*
X27433974Y-36705471D01*
X27319707Y-36844707D01*
X27180471Y-36958974D01*
X27180467Y-36958977D01*
X27021621Y-37043882D01*
X27021619Y-37043883D01*
X26935436Y-37070026D01*
X26849252Y-37096170D01*
X26714921Y-37109400D01*
X26625079Y-37109400D01*
X26490748Y-37096170D01*
X26404564Y-37070026D01*
X26318381Y-37043883D01*
X26318379Y-37043882D01*
X26159533Y-36958977D01*
X26159529Y-36958974D01*
X26020293Y-36844707D01*
X25906026Y-36705471D01*
X25906025Y-36705470D01*
X25906023Y-36705467D01*
X25821118Y-36546621D01*
X25768830Y-36374252D01*
X25751176Y-36195000D01*
X25768830Y-36015748D01*
X25821118Y-35843379D01*
X25906023Y-35684533D01*
X25906026Y-35684529D01*
X26020293Y-35545293D01*
X26159529Y-35431026D01*
X26159530Y-35431025D01*
X26159533Y-35431023D01*
X26318379Y-35346118D01*
X26318381Y-35346117D01*
X26404564Y-35319974D01*
X26490748Y-35293830D01*
X26625079Y-35280600D01*
X26714921Y-35280600D01*
X26849252Y-35293830D01*
X26849252Y-35293830D01*
G37*
G36*
X29389252Y-32753830D02*
G01*
X29475436Y-32779974D01*
X29561619Y-32806117D01*
X29561621Y-32806118D01*
X29720467Y-32891023D01*
X29720470Y-32891025D01*
X29720471Y-32891026D01*
X29859707Y-33005293D01*
X29973974Y-33144529D01*
X29973977Y-33144533D01*
X30058882Y-33303379D01*
X30111170Y-33475748D01*
X30128824Y-33655000D01*
X30111170Y-33834252D01*
X30058882Y-34006621D01*
X29973977Y-34165467D01*
X29973975Y-34165470D01*
X29973974Y-34165471D01*
X29859707Y-34304707D01*
X29720471Y-34418974D01*
X29720467Y-34418977D01*
X29561621Y-34503882D01*
X29561619Y-34503883D01*
X29475436Y-34530026D01*
X29389252Y-34556170D01*
X29254921Y-34569400D01*
X29165079Y-34569400D01*
X29030748Y-34556170D01*
X28944564Y-34530026D01*
X28858381Y-34503883D01*
X28858379Y-34503882D01*
X28699533Y-34418977D01*
X28699529Y-34418974D01*
X28560293Y-34304707D01*
X28446026Y-34165471D01*
X28446025Y-34165470D01*
X28446023Y-34165467D01*
X28361118Y-34006621D01*
X28308830Y-33834252D01*
X28291176Y-33655000D01*
X28308830Y-33475748D01*
X28361118Y-33303379D01*
X28446023Y-33144533D01*
X28446026Y-33144529D01*
X28560293Y-33005293D01*
X28699529Y-32891026D01*
X28699530Y-32891025D01*
X28699533Y-32891023D01*
X28858379Y-32806118D01*
X28858381Y-32806117D01*
X28944564Y-32779974D01*
X29030748Y-32753830D01*
X29165079Y-32740600D01*
X29254921Y-32740600D01*
X29389252Y-32753830D01*
X29389252Y-32753830D01*
G37*
G36*
X26849252Y-32753830D02*
G01*
X26935436Y-32779974D01*
X27021619Y-32806117D01*
X27021621Y-32806118D01*
X27180467Y-32891023D01*
X27180470Y-32891025D01*
X27180471Y-32891026D01*
X27319707Y-33005293D01*
X27433974Y-33144529D01*
X27433977Y-33144533D01*
X27518882Y-33303379D01*
X27571170Y-33475748D01*
X27588824Y-33655000D01*
X27571170Y-33834252D01*
X27518882Y-34006621D01*
X27433977Y-34165467D01*
X27433975Y-34165470D01*
X27433974Y-34165471D01*
X27319707Y-34304707D01*
X27180471Y-34418974D01*
X27180467Y-34418977D01*
X27021621Y-34503882D01*
X27021619Y-34503883D01*
X26935436Y-34530026D01*
X26849252Y-34556170D01*
X26714921Y-34569400D01*
X26625079Y-34569400D01*
X26490748Y-34556170D01*
X26404564Y-34530026D01*
X26318381Y-34503883D01*
X26318379Y-34503882D01*
X26159533Y-34418977D01*
X26159529Y-34418974D01*
X26020293Y-34304707D01*
X25906026Y-34165471D01*
X25906025Y-34165470D01*
X25906023Y-34165467D01*
X25821118Y-34006621D01*
X25768830Y-33834252D01*
X25751176Y-33655000D01*
X25768830Y-33475748D01*
X25821118Y-33303379D01*
X25906023Y-33144533D01*
X25906026Y-33144529D01*
X26020293Y-33005293D01*
X26159529Y-32891026D01*
X26159530Y-32891025D01*
X26159533Y-32891023D01*
X26318379Y-32806118D01*
X26318381Y-32806117D01*
X26404564Y-32779974D01*
X26490748Y-32753830D01*
X26625079Y-32740600D01*
X26714921Y-32740600D01*
X26849252Y-32753830D01*
X26849252Y-32753830D01*
G37*
G36*
X26849252Y-30213830D02*
G01*
X26935437Y-30239974D01*
X27021619Y-30266117D01*
X27021621Y-30266118D01*
X27180467Y-30351023D01*
X27180470Y-30351025D01*
X27180471Y-30351026D01*
X27319707Y-30465293D01*
X27433974Y-30604529D01*
X27433977Y-30604533D01*
X27518882Y-30763379D01*
X27571170Y-30935748D01*
X27588824Y-31115000D01*
X27571170Y-31294252D01*
X27518882Y-31466621D01*
X27433977Y-31625467D01*
X27433975Y-31625470D01*
X27433974Y-31625471D01*
X27319707Y-31764707D01*
X27180471Y-31878974D01*
X27180467Y-31878977D01*
X27021621Y-31963882D01*
X27021619Y-31963883D01*
X26935437Y-31990026D01*
X26849252Y-32016170D01*
X26714921Y-32029400D01*
X26625079Y-32029400D01*
X26490748Y-32016170D01*
X26404563Y-31990026D01*
X26318381Y-31963883D01*
X26318379Y-31963882D01*
X26159533Y-31878977D01*
X26159529Y-31878974D01*
X26020293Y-31764707D01*
X25906026Y-31625471D01*
X25906025Y-31625470D01*
X25906023Y-31625467D01*
X25821118Y-31466621D01*
X25768830Y-31294252D01*
X25751176Y-31115000D01*
X25768830Y-30935748D01*
X25821118Y-30763379D01*
X25906023Y-30604533D01*
X25906026Y-30604529D01*
X26020293Y-30465293D01*
X26159529Y-30351026D01*
X26159530Y-30351025D01*
X26159533Y-30351023D01*
X26318379Y-30266118D01*
X26318381Y-30266117D01*
X26404563Y-30239974D01*
X26490748Y-30213830D01*
X26625079Y-30200600D01*
X26714921Y-30200600D01*
X26849252Y-30213830D01*
X26849252Y-30213830D01*
G37*
G36*
X29389252Y-30213830D02*
G01*
X29475437Y-30239974D01*
X29561619Y-30266117D01*
X29561621Y-30266118D01*
X29720467Y-30351023D01*
X29720470Y-30351025D01*
X29720471Y-30351026D01*
X29859707Y-30465293D01*
X29973974Y-30604529D01*
X29973977Y-30604533D01*
X30058882Y-30763379D01*
X30111170Y-30935748D01*
X30128824Y-31115000D01*
X30111170Y-31294252D01*
X30058882Y-31466621D01*
X29973977Y-31625467D01*
X29973975Y-31625470D01*
X29973974Y-31625471D01*
X29859707Y-31764707D01*
X29720471Y-31878974D01*
X29720467Y-31878977D01*
X29561621Y-31963882D01*
X29561619Y-31963883D01*
X29475437Y-31990026D01*
X29389252Y-32016170D01*
X29254921Y-32029400D01*
X29165079Y-32029400D01*
X29030748Y-32016170D01*
X28944563Y-31990026D01*
X28858381Y-31963883D01*
X28858379Y-31963882D01*
X28699533Y-31878977D01*
X28699529Y-31878974D01*
X28560293Y-31764707D01*
X28446026Y-31625471D01*
X28446025Y-31625470D01*
X28446023Y-31625467D01*
X28361118Y-31466621D01*
X28308830Y-31294252D01*
X28291176Y-31115000D01*
X28308830Y-30935748D01*
X28361118Y-30763379D01*
X28446023Y-30604533D01*
X28446026Y-30604529D01*
X28560293Y-30465293D01*
X28699529Y-30351026D01*
X28699530Y-30351025D01*
X28699533Y-30351023D01*
X28858379Y-30266118D01*
X28858381Y-30266117D01*
X28944563Y-30239974D01*
X29030748Y-30213830D01*
X29165079Y-30200600D01*
X29254921Y-30200600D01*
X29389252Y-30213830D01*
X29389252Y-30213830D01*
G37*
G36*
X29389252Y-27673830D02*
G01*
X29475437Y-27699974D01*
X29561619Y-27726117D01*
X29561621Y-27726118D01*
X29720467Y-27811023D01*
X29720470Y-27811025D01*
X29720471Y-27811026D01*
X29859707Y-27925293D01*
X29973974Y-28064529D01*
X29973977Y-28064533D01*
X30058882Y-28223379D01*
X30111170Y-28395748D01*
X30128824Y-28575000D01*
X30111170Y-28754252D01*
X30058882Y-28926621D01*
X29973977Y-29085467D01*
X29973975Y-29085470D01*
X29973974Y-29085471D01*
X29859707Y-29224707D01*
X29720471Y-29338974D01*
X29720467Y-29338977D01*
X29561621Y-29423882D01*
X29561619Y-29423883D01*
X29475437Y-29450026D01*
X29389252Y-29476170D01*
X29254921Y-29489400D01*
X29165079Y-29489400D01*
X29030748Y-29476170D01*
X28944563Y-29450026D01*
X28858381Y-29423883D01*
X28858379Y-29423882D01*
X28699533Y-29338977D01*
X28699529Y-29338974D01*
X28560293Y-29224707D01*
X28446026Y-29085471D01*
X28446025Y-29085470D01*
X28446023Y-29085467D01*
X28361118Y-28926621D01*
X28308830Y-28754252D01*
X28291176Y-28575000D01*
X28308830Y-28395748D01*
X28361118Y-28223379D01*
X28446023Y-28064533D01*
X28446026Y-28064529D01*
X28560293Y-27925293D01*
X28699529Y-27811026D01*
X28699530Y-27811025D01*
X28699533Y-27811023D01*
X28858379Y-27726118D01*
X28858381Y-27726117D01*
X28944563Y-27699974D01*
X29030748Y-27673830D01*
X29165079Y-27660600D01*
X29254921Y-27660600D01*
X29389252Y-27673830D01*
X29389252Y-27673830D01*
G37*
G36*
X26849252Y-27673830D02*
G01*
X26935437Y-27699974D01*
X27021619Y-27726117D01*
X27021621Y-27726118D01*
X27180467Y-27811023D01*
X27180470Y-27811025D01*
X27180471Y-27811026D01*
X27319707Y-27925293D01*
X27433974Y-28064529D01*
X27433977Y-28064533D01*
X27518882Y-28223379D01*
X27571170Y-28395748D01*
X27588824Y-28575000D01*
X27571170Y-28754252D01*
X27518882Y-28926621D01*
X27433977Y-29085467D01*
X27433975Y-29085470D01*
X27433974Y-29085471D01*
X27319707Y-29224707D01*
X27180471Y-29338974D01*
X27180467Y-29338977D01*
X27021621Y-29423882D01*
X27021619Y-29423883D01*
X26935437Y-29450026D01*
X26849252Y-29476170D01*
X26714921Y-29489400D01*
X26625079Y-29489400D01*
X26490748Y-29476170D01*
X26404563Y-29450026D01*
X26318381Y-29423883D01*
X26318379Y-29423882D01*
X26159533Y-29338977D01*
X26159529Y-29338974D01*
X26020293Y-29224707D01*
X25906026Y-29085471D01*
X25906025Y-29085470D01*
X25906023Y-29085467D01*
X25821118Y-28926621D01*
X25768830Y-28754252D01*
X25751176Y-28575000D01*
X25768830Y-28395748D01*
X25821118Y-28223379D01*
X25906023Y-28064533D01*
X25906026Y-28064529D01*
X26020293Y-27925293D01*
X26159529Y-27811026D01*
X26159530Y-27811025D01*
X26159533Y-27811023D01*
X26318379Y-27726118D01*
X26318381Y-27726117D01*
X26404563Y-27699974D01*
X26490748Y-27673830D01*
X26625079Y-27660600D01*
X26714921Y-27660600D01*
X26849252Y-27673830D01*
X26849252Y-27673830D01*
G37*
G36*
X29389252Y-25133830D02*
G01*
X29475437Y-25159974D01*
X29561619Y-25186117D01*
X29561621Y-25186118D01*
X29720467Y-25271023D01*
X29720470Y-25271025D01*
X29720471Y-25271026D01*
X29859707Y-25385293D01*
X29973974Y-25524529D01*
X29973977Y-25524533D01*
X30058882Y-25683379D01*
X30111170Y-25855748D01*
X30128824Y-26035000D01*
X30111170Y-26214252D01*
X30058882Y-26386621D01*
X29973977Y-26545467D01*
X29973975Y-26545470D01*
X29973974Y-26545471D01*
X29859707Y-26684707D01*
X29720471Y-26798974D01*
X29720467Y-26798977D01*
X29561621Y-26883882D01*
X29561619Y-26883883D01*
X29475436Y-26910026D01*
X29389252Y-26936170D01*
X29254921Y-26949400D01*
X29165079Y-26949400D01*
X29030748Y-26936170D01*
X28944564Y-26910026D01*
X28858381Y-26883883D01*
X28858379Y-26883882D01*
X28699533Y-26798977D01*
X28699529Y-26798974D01*
X28560293Y-26684707D01*
X28446026Y-26545471D01*
X28446025Y-26545470D01*
X28446023Y-26545467D01*
X28361118Y-26386621D01*
X28308830Y-26214252D01*
X28291176Y-26035000D01*
X28308830Y-25855748D01*
X28361118Y-25683379D01*
X28446023Y-25524533D01*
X28446026Y-25524529D01*
X28560293Y-25385293D01*
X28699529Y-25271026D01*
X28699530Y-25271025D01*
X28699533Y-25271023D01*
X28858379Y-25186118D01*
X28858381Y-25186117D01*
X28944563Y-25159974D01*
X29030748Y-25133830D01*
X29165079Y-25120600D01*
X29254921Y-25120600D01*
X29389252Y-25133830D01*
X29389252Y-25133830D01*
G37*
G36*
X26849252Y-25133830D02*
G01*
X26935437Y-25159974D01*
X27021619Y-25186117D01*
X27021621Y-25186118D01*
X27180467Y-25271023D01*
X27180470Y-25271025D01*
X27180471Y-25271026D01*
X27319707Y-25385293D01*
X27433974Y-25524529D01*
X27433977Y-25524533D01*
X27518882Y-25683379D01*
X27571170Y-25855748D01*
X27588824Y-26035000D01*
X27571170Y-26214252D01*
X27518882Y-26386621D01*
X27433977Y-26545467D01*
X27433975Y-26545470D01*
X27433974Y-26545471D01*
X27319707Y-26684707D01*
X27180471Y-26798974D01*
X27180467Y-26798977D01*
X27021621Y-26883882D01*
X27021619Y-26883883D01*
X26935436Y-26910026D01*
X26849252Y-26936170D01*
X26714921Y-26949400D01*
X26625079Y-26949400D01*
X26490748Y-26936170D01*
X26404564Y-26910026D01*
X26318381Y-26883883D01*
X26318379Y-26883882D01*
X26159533Y-26798977D01*
X26159529Y-26798974D01*
X26020293Y-26684707D01*
X25906026Y-26545471D01*
X25906025Y-26545470D01*
X25906023Y-26545467D01*
X25821118Y-26386621D01*
X25768830Y-26214252D01*
X25751176Y-26035000D01*
X25768830Y-25855748D01*
X25821118Y-25683379D01*
X25906023Y-25524533D01*
X25906026Y-25524529D01*
X26020293Y-25385293D01*
X26159529Y-25271026D01*
X26159530Y-25271025D01*
X26159533Y-25271023D01*
X26318379Y-25186118D01*
X26318381Y-25186117D01*
X26404563Y-25159974D01*
X26490748Y-25133830D01*
X26625079Y-25120600D01*
X26714921Y-25120600D01*
X26849252Y-25133830D01*
X26849252Y-25133830D01*
G37*
G36*
X22477611Y-16884065D02*
G01*
X22677352Y-16923796D01*
X22959579Y-17040699D01*
X23213578Y-17210415D01*
X23429585Y-17426422D01*
X23599301Y-17680421D01*
X23716204Y-17962648D01*
X23775800Y-18262259D01*
X23775800Y-18567741D01*
X23716204Y-18867352D01*
X23599301Y-19149579D01*
X23429585Y-19403578D01*
X23213578Y-19619585D01*
X22959579Y-19789301D01*
X22677352Y-19906204D01*
X22477611Y-19945935D01*
X22377742Y-19965800D01*
X22072258Y-19965800D01*
X21972389Y-19945935D01*
X21772648Y-19906204D01*
X21490421Y-19789301D01*
X21236422Y-19619585D01*
X21020415Y-19403578D01*
X20850699Y-19149579D01*
X20733796Y-18867352D01*
X20674200Y-18567741D01*
X20674200Y-18262259D01*
X20733796Y-17962648D01*
X20850699Y-17680421D01*
X21020415Y-17426422D01*
X21236422Y-17210415D01*
X21490421Y-17040699D01*
X21772648Y-16923796D01*
X21972389Y-16884065D01*
X22072258Y-16864200D01*
X22377742Y-16864200D01*
X22477611Y-16884065D01*
X22477611Y-16884065D01*
G37*
G36*
X33907611Y-16884065D02*
G01*
X34107352Y-16923796D01*
X34389579Y-17040699D01*
X34643578Y-17210415D01*
X34859585Y-17426422D01*
X35029301Y-17680421D01*
X35146204Y-17962648D01*
X35205800Y-18262259D01*
X35205800Y-18567741D01*
X35146204Y-18867352D01*
X35029301Y-19149579D01*
X34859585Y-19403578D01*
X34643578Y-19619585D01*
X34389579Y-19789301D01*
X34107352Y-19906204D01*
X33907611Y-19945935D01*
X33807742Y-19965800D01*
X33502258Y-19965800D01*
X33402389Y-19945935D01*
X33202648Y-19906204D01*
X32920421Y-19789301D01*
X32666422Y-19619585D01*
X32450415Y-19403578D01*
X32280699Y-19149579D01*
X32163796Y-18867352D01*
X32104200Y-18567741D01*
X32104200Y-18262259D01*
X32163796Y-17962648D01*
X32280699Y-17680421D01*
X32450415Y-17426422D01*
X32666422Y-17210415D01*
X32920421Y-17040699D01*
X33202648Y-16923796D01*
X33402389Y-16884065D01*
X33502258Y-16864200D01*
X33807742Y-16864200D01*
X33907611Y-16884065D01*
X33907611Y-16884065D01*
G37*
G36*
X30559728Y-14634320D02*
G01*
X30639337Y-14642161D01*
X30792550Y-14688638D01*
X30792553Y-14688639D01*
X30933752Y-14764111D01*
X31057517Y-14865683D01*
X31159089Y-14989448D01*
X31234561Y-15130647D01*
X31234562Y-15130650D01*
X31281039Y-15283863D01*
X31296732Y-15443200D01*
X31281039Y-15602537D01*
X31234562Y-15755750D01*
X31234561Y-15755753D01*
X31159089Y-15896952D01*
X31057517Y-16020717D01*
X30933752Y-16122289D01*
X30792553Y-16197761D01*
X30792550Y-16197762D01*
X30639337Y-16244239D01*
X30559728Y-16252080D01*
X30519924Y-16256000D01*
X30440076Y-16256000D01*
X30400272Y-16252080D01*
X30320663Y-16244239D01*
X30167450Y-16197762D01*
X30167447Y-16197761D01*
X30026248Y-16122289D01*
X29902483Y-16020717D01*
X29800911Y-15896952D01*
X29725439Y-15755753D01*
X29725438Y-15755750D01*
X29678961Y-15602537D01*
X29663268Y-15443200D01*
X29678961Y-15283863D01*
X29725438Y-15130650D01*
X29725439Y-15130647D01*
X29800911Y-14989448D01*
X29902483Y-14865683D01*
X30026248Y-14764111D01*
X30167447Y-14688639D01*
X30167450Y-14688638D01*
X30320663Y-14642161D01*
X30400272Y-14634320D01*
X30440076Y-14630400D01*
X30519924Y-14630400D01*
X30559728Y-14634320D01*
X30559728Y-14634320D01*
G37*
G36*
X25479728Y-14634320D02*
G01*
X25559337Y-14642161D01*
X25712550Y-14688638D01*
X25712553Y-14688639D01*
X25853752Y-14764111D01*
X25977517Y-14865683D01*
X26079089Y-14989448D01*
X26154561Y-15130647D01*
X26154562Y-15130650D01*
X26201039Y-15283863D01*
X26216732Y-15443200D01*
X26201039Y-15602537D01*
X26154562Y-15755750D01*
X26154561Y-15755753D01*
X26079089Y-15896952D01*
X25977517Y-16020717D01*
X25853752Y-16122289D01*
X25712553Y-16197761D01*
X25712550Y-16197762D01*
X25559337Y-16244239D01*
X25479728Y-16252080D01*
X25439924Y-16256000D01*
X25360076Y-16256000D01*
X25320272Y-16252080D01*
X25240663Y-16244239D01*
X25087450Y-16197762D01*
X25087447Y-16197761D01*
X24946248Y-16122289D01*
X24822483Y-16020717D01*
X24720911Y-15896952D01*
X24645439Y-15755753D01*
X24645438Y-15755750D01*
X24598961Y-15602537D01*
X24583268Y-15443200D01*
X24598961Y-15283863D01*
X24645438Y-15130650D01*
X24645439Y-15130647D01*
X24720911Y-14989448D01*
X24822483Y-14865683D01*
X24946248Y-14764111D01*
X25087447Y-14688639D01*
X25087450Y-14688638D01*
X25240663Y-14642161D01*
X25320272Y-14634320D01*
X25360076Y-14630400D01*
X25439924Y-14630400D01*
X25479728Y-14634320D01*
X25479728Y-14634320D01*
G37*
G36*
X28019728Y-14634320D02*
G01*
X28099337Y-14642161D01*
X28252550Y-14688638D01*
X28252553Y-14688639D01*
X28393752Y-14764111D01*
X28517517Y-14865683D01*
X28619089Y-14989448D01*
X28694561Y-15130647D01*
X28694562Y-15130650D01*
X28741039Y-15283863D01*
X28756732Y-15443200D01*
X28741039Y-15602537D01*
X28694562Y-15755750D01*
X28694561Y-15755753D01*
X28619089Y-15896952D01*
X28517517Y-16020717D01*
X28393752Y-16122289D01*
X28252553Y-16197761D01*
X28252550Y-16197762D01*
X28099337Y-16244239D01*
X28019728Y-16252080D01*
X27979924Y-16256000D01*
X27900076Y-16256000D01*
X27860272Y-16252080D01*
X27780663Y-16244239D01*
X27627450Y-16197762D01*
X27627447Y-16197761D01*
X27486248Y-16122289D01*
X27362483Y-16020717D01*
X27260911Y-15896952D01*
X27185439Y-15755753D01*
X27185438Y-15755750D01*
X27138961Y-15602537D01*
X27123268Y-15443200D01*
X27138961Y-15283863D01*
X27185438Y-15130650D01*
X27185439Y-15130647D01*
X27260911Y-14989448D01*
X27362483Y-14865683D01*
X27486248Y-14764111D01*
X27627447Y-14688639D01*
X27627450Y-14688638D01*
X27780663Y-14642161D01*
X27860272Y-14634320D01*
X27900076Y-14630400D01*
X27979924Y-14630400D01*
X28019728Y-14634320D01*
X28019728Y-14634320D01*
G37*
G36*
X31829728Y-13084920D02*
G01*
X31909337Y-13092761D01*
X32062550Y-13139238D01*
X32062553Y-13139239D01*
X32203752Y-13214711D01*
X32327517Y-13316283D01*
X32429089Y-13440048D01*
X32504561Y-13581247D01*
X32504562Y-13581250D01*
X32551039Y-13734463D01*
X32566732Y-13893800D01*
X32551039Y-14053137D01*
X32504562Y-14206350D01*
X32504561Y-14206353D01*
X32429089Y-14347552D01*
X32327517Y-14471317D01*
X32203752Y-14572889D01*
X32062553Y-14648361D01*
X32062550Y-14648362D01*
X31909337Y-14694839D01*
X31829728Y-14702680D01*
X31789924Y-14706600D01*
X31710076Y-14706600D01*
X31670272Y-14702680D01*
X31590663Y-14694839D01*
X31437450Y-14648362D01*
X31437447Y-14648361D01*
X31296248Y-14572889D01*
X31172483Y-14471317D01*
X31070911Y-14347552D01*
X30995439Y-14206353D01*
X30995438Y-14206350D01*
X30948961Y-14053137D01*
X30933268Y-13893800D01*
X30948961Y-13734463D01*
X30995438Y-13581250D01*
X30995439Y-13581247D01*
X31070911Y-13440048D01*
X31172483Y-13316283D01*
X31296248Y-13214711D01*
X31437447Y-13139239D01*
X31437450Y-13139238D01*
X31590663Y-13092761D01*
X31670272Y-13084920D01*
X31710076Y-13081000D01*
X31789924Y-13081000D01*
X31829728Y-13084920D01*
X31829728Y-13084920D01*
G37*
G36*
X24209728Y-13084920D02*
G01*
X24289337Y-13092761D01*
X24442550Y-13139238D01*
X24442553Y-13139239D01*
X24583752Y-13214711D01*
X24707517Y-13316283D01*
X24809089Y-13440048D01*
X24884561Y-13581247D01*
X24884562Y-13581250D01*
X24931039Y-13734463D01*
X24946732Y-13893800D01*
X24931039Y-14053137D01*
X24884562Y-14206350D01*
X24884561Y-14206353D01*
X24809089Y-14347552D01*
X24707517Y-14471317D01*
X24583752Y-14572889D01*
X24442553Y-14648361D01*
X24442550Y-14648362D01*
X24289337Y-14694839D01*
X24209728Y-14702680D01*
X24169924Y-14706600D01*
X24090076Y-14706600D01*
X24050272Y-14702680D01*
X23970663Y-14694839D01*
X23817450Y-14648362D01*
X23817447Y-14648361D01*
X23676248Y-14572889D01*
X23552483Y-14471317D01*
X23450911Y-14347552D01*
X23375439Y-14206353D01*
X23375438Y-14206350D01*
X23328961Y-14053137D01*
X23313268Y-13893800D01*
X23328961Y-13734463D01*
X23375438Y-13581250D01*
X23375439Y-13581247D01*
X23450911Y-13440048D01*
X23552483Y-13316283D01*
X23676248Y-13214711D01*
X23817447Y-13139239D01*
X23817450Y-13139238D01*
X23970663Y-13092761D01*
X24050272Y-13084920D01*
X24090076Y-13081000D01*
X24169924Y-13081000D01*
X24209728Y-13084920D01*
X24209728Y-13084920D01*
G37*
G36*
X29289728Y-13084920D02*
G01*
X29369337Y-13092761D01*
X29522550Y-13139238D01*
X29522553Y-13139239D01*
X29663752Y-13214711D01*
X29787517Y-13316283D01*
X29889089Y-13440048D01*
X29964561Y-13581247D01*
X29964562Y-13581250D01*
X30011039Y-13734463D01*
X30026732Y-13893800D01*
X30011039Y-14053137D01*
X29964562Y-14206350D01*
X29964561Y-14206353D01*
X29889089Y-14347552D01*
X29787517Y-14471317D01*
X29663752Y-14572889D01*
X29522553Y-14648361D01*
X29522550Y-14648362D01*
X29369337Y-14694839D01*
X29289728Y-14702680D01*
X29249924Y-14706600D01*
X29170076Y-14706600D01*
X29130272Y-14702680D01*
X29050663Y-14694839D01*
X28897450Y-14648362D01*
X28897447Y-14648361D01*
X28756248Y-14572889D01*
X28632483Y-14471317D01*
X28530911Y-14347552D01*
X28455439Y-14206353D01*
X28455438Y-14206350D01*
X28408961Y-14053137D01*
X28393268Y-13893800D01*
X28408961Y-13734463D01*
X28455438Y-13581250D01*
X28455439Y-13581247D01*
X28530911Y-13440048D01*
X28632483Y-13316283D01*
X28756248Y-13214711D01*
X28897447Y-13139239D01*
X28897450Y-13139238D01*
X29050663Y-13092761D01*
X29130272Y-13084920D01*
X29170076Y-13081000D01*
X29249924Y-13081000D01*
X29289728Y-13084920D01*
X29289728Y-13084920D01*
G37*
G36*
X26749728Y-13084920D02*
G01*
X26829337Y-13092761D01*
X26982550Y-13139238D01*
X26982553Y-13139239D01*
X27123752Y-13214711D01*
X27247517Y-13316283D01*
X27349089Y-13440048D01*
X27424561Y-13581247D01*
X27424562Y-13581250D01*
X27471039Y-13734463D01*
X27486732Y-13893800D01*
X27471039Y-14053137D01*
X27424562Y-14206350D01*
X27424561Y-14206353D01*
X27349089Y-14347552D01*
X27247517Y-14471317D01*
X27123752Y-14572889D01*
X26982553Y-14648361D01*
X26982550Y-14648362D01*
X26829337Y-14694839D01*
X26749728Y-14702680D01*
X26709924Y-14706600D01*
X26630076Y-14706600D01*
X26590272Y-14702680D01*
X26510663Y-14694839D01*
X26357450Y-14648362D01*
X26357447Y-14648361D01*
X26216248Y-14572889D01*
X26092483Y-14471317D01*
X25990911Y-14347552D01*
X25915439Y-14206353D01*
X25915438Y-14206350D01*
X25868961Y-14053137D01*
X25853268Y-13893800D01*
X25868961Y-13734463D01*
X25915438Y-13581250D01*
X25915439Y-13581247D01*
X25990911Y-13440048D01*
X26092483Y-13316283D01*
X26216248Y-13214711D01*
X26357447Y-13139239D01*
X26357450Y-13139238D01*
X26510663Y-13092761D01*
X26590272Y-13084920D01*
X26630076Y-13081000D01*
X26709924Y-13081000D01*
X26749728Y-13084920D01*
X26749728Y-13084920D01*
G37*
M02*
