M48
; DRILL file {KiCad (5.1.2)-1} date 5/20/2019 3:11:54 AM
; FORMAT={-:-/ absolute / metric / decimal}
; #@! TF.CreationDate,2019-05-20T03:11:54+02:00
; #@! TF.GenerationSoftware,Kicad,Pcbnew,(5.1.2)-1
FMAT,2
METRIC
T1C1.000
T2C1.016
T3C3.000
T4C3.000
%
G90
G05
T1
X31.75Y-14.097
X25.4Y-15.24
X26.67Y-14.097
X27.94Y-15.24
X29.21Y-14.097
X30.48Y-15.24
X24.13Y-14.097
T2
X25.4Y-46.355
X25.4Y-48.895
X27.94Y-46.355
X27.94Y-48.895
X30.48Y-46.355
X30.48Y-48.895
X26.67Y-26.035
X26.67Y-28.575
X26.67Y-31.115
X26.67Y-33.655
X26.67Y-36.195
X29.21Y-26.035
X29.21Y-28.575
X29.21Y-31.115
X29.21Y-33.655
X29.21Y-36.195
T3
X34.544Y-40.64
T4
X33.655Y-18.415
X22.225Y-18.415
X21.336Y-40.64
T0
M30
